M48
;Layer_Color=9474304
;FILE_FORMAT=2:5
INCH,LZ
;TYPE=PLATED
T01F00S00C0.01200
T03F00S00C0.04016
%
T01
X00045Y00122
X0011
Y0023
X00046
X00045Y0038
Y00436
Y00546
X00265Y0041
X00295Y00435
X00309Y00397
X0042Y00395
X0045Y0041
Y00375
X00443Y00549
X00235Y0018
X002Y00205
Y0015
X00165Y0018
X0062Y0012923
X00647Y00224
X0064368Y0037492
X00888Y00371
X01211Y00425
X01235Y00545
X0135767Y0029867
X01442Y00301
X01484Y0027
X01572Y00271
X01748Y00296
X0166Y00462
X01576Y00497
X01594Y00529
X0170247Y0055847
X0171Y00677
X01676
X01674Y00731
X0171
X01506Y00742
X0147
Y00689
X01506
Y00635
X0147
Y00795
X01506
Y00848
X0147
Y00901
X01506
Y00954
X0147
X0158Y01024
X01614
Y01077
X01578
X01503Y01145
X01469
Y01198
X01503
Y01251
X01468
X01469Y01305
X01503
Y01358
X01469
Y01411
Y01464
X01503
Y01517
X01469
X01692Y01492
X01817Y0162
X01725Y01804
X01545Y01808
X01248Y01705
X00847Y01685
X00851Y01503
Y01469
X00904
Y01503
X00957
Y01469
X00798
Y01503
X00745
Y01469
X00692Y01504
X00713Y01391
X00633Y01359
X00597
Y01303
X0063277Y01304
X00633Y01251
X00597
Y0119703
X00633
Y01054
X00598
X007973Y0106268
X0082405Y0106214
X0081184Y0108297
X00803Y01131
X0080369Y00999
X0084
X00874
X00908
X009341Y0104489
X00957Y01039
X0094955Y0106169
X01015Y01039
X01054Y00891
X01089
X01127
X01161Y0089
X01125Y00801
X01089Y0080023
X01055
X01036Y00595
X00959
X00958Y00629
X00905Y0063
Y00596
X00852Y0063
X00799
Y00596
X00746
Y0063
X00693
Y00596
X01123Y00605
X01191Y00606
X0118884Y0058265
X0121034Y0059203
X01274Y00674
X01288Y00999
X01254
X0122
X01205Y01065
X01289Y01091
X01323
X01265Y01125
X0126942Y0114883
X0124695Y0114046
X01324Y00999
X01655Y00941
X01755Y00979
X0182Y0098
X018Y01005
Y00955
X0106895Y0134929
X01047Y01357
X0105105Y0133454
X00945Y01271
X00854Y0193
X00614Y01958
X00593Y0182
X0056
X0052
X0048
X0032536Y0181179
X0032041Y0183984
X003Y0182
X00248Y01897
X00205Y0188
X00265Y0194
X00228Y01275
X00145Y01283
X00074
Y01211
X00139Y01164
X00145Y01072
X00074
Y00967
X00145
Y00862
X00045
Y0078
Y00653
X00419Y00713
X00519Y00652
X00514Y00905
X00434Y00932
X0031Y00905
X00316Y0102
X0033Y0117
X0030889Y0119886
X0027689
X002553Y0117053
X0019Y01213
X00542Y01054
T03
X00519Y0007923
Y0017923
X00619
X00719
X00819
X00919
X01019
X01119
X01219
X01319
X01419
X01519
X01619
X01719
X01819
X01919
X02019
Y0007923
X01919
X01819
X01719
X01619
X01519
X01419
X01319
X01219
X01119
X01019
X00919
X00819
X00719
X00619
X01919Y0029712
Y0039712
Y0049712
X02019
Y0039712
Y0029712
Y0059712
Y0069712
Y0079712
Y0089712
Y0099712
Y0109712
Y0119712
Y0129712
Y0139712
Y0149712
Y0159712
Y0169712
Y0179712
X01919
Y0169712
Y0159712
Y0149712
Y0139712
Y0129712
Y0119712
Y0109712
Y0099712
Y0089712
Y0079712
Y0069712
Y0059712
X01919Y01919
X01819
X01719
X01619
X01519
X01419
X01319
Y02019
X01419
X01519
X01619
X01719
X01819
X01919
X02019
Y01919
X01128
Y02019
X01028
Y01919
X00928
Y02019
M30
