G04*
G04 #@! TF.GenerationSoftware,Altium Limited,Altium Designer,26.10.1 (5)*
G04*
G04 Layer_Color=16711935*
G04 Board_Origin=9800000|9800000*
%FSLAX25Y25*%
%MOIN*%
G70*
G04*
G04 #@! TF.SameCoordinates,9D01E2D7-551C-4C3F-8480-1F6566D9E9C8*
G04*
G04*
G04 #@! TF.FilePolarity,Negative*
G04*
G01*
G75*
%ADD55O,0.07487X0.03943*%
%ADD56C,0.05794*%
%ADD57R,0.05794X0.05794*%
%ADD58R,0.05794X0.05794*%
D55*
X13260Y160984D02*
D03*
Y135000D02*
D03*
D56*
X201900Y7923D02*
D03*
Y17923D02*
D03*
X191900Y7923D02*
D03*
Y17923D02*
D03*
X181900Y7923D02*
D03*
Y17923D02*
D03*
X171900Y7923D02*
D03*
Y17923D02*
D03*
X161900Y7923D02*
D03*
Y17923D02*
D03*
X151900Y7923D02*
D03*
Y17923D02*
D03*
X141900Y7923D02*
D03*
Y17923D02*
D03*
X131900Y7923D02*
D03*
Y17923D02*
D03*
X121900Y7923D02*
D03*
Y17923D02*
D03*
X111900Y7923D02*
D03*
Y17923D02*
D03*
X101900Y7923D02*
D03*
Y17923D02*
D03*
X91900Y7923D02*
D03*
Y17923D02*
D03*
X81900Y7923D02*
D03*
Y17923D02*
D03*
X71900Y7923D02*
D03*
Y17923D02*
D03*
X61900Y7923D02*
D03*
Y17923D02*
D03*
X51900Y7923D02*
D03*
X191900Y179712D02*
D03*
X201900Y169712D02*
D03*
X191900D02*
D03*
X201900Y159712D02*
D03*
X191900D02*
D03*
X201900Y149712D02*
D03*
X191900D02*
D03*
X201900Y139712D02*
D03*
X191900D02*
D03*
X201900Y129712D02*
D03*
X191900D02*
D03*
X201900Y119712D02*
D03*
X191900D02*
D03*
X201900Y109712D02*
D03*
X191900D02*
D03*
X201900Y99712D02*
D03*
X191900D02*
D03*
X201900Y89712D02*
D03*
X191900D02*
D03*
X201900Y79712D02*
D03*
X191900D02*
D03*
X201900Y69712D02*
D03*
X191900D02*
D03*
X201900Y59712D02*
D03*
X191900D02*
D03*
X201900Y49712D02*
D03*
X191900D02*
D03*
X201900Y39712D02*
D03*
X191900D02*
D03*
X201900Y29712D02*
D03*
X191900D02*
D03*
X131900Y191900D02*
D03*
X141900Y201900D02*
D03*
Y191900D02*
D03*
X151900Y201900D02*
D03*
Y191900D02*
D03*
X161900Y201900D02*
D03*
Y191900D02*
D03*
X171900Y201900D02*
D03*
Y191900D02*
D03*
X181900Y201900D02*
D03*
Y191900D02*
D03*
X191900Y201900D02*
D03*
Y191900D02*
D03*
X201900Y201900D02*
D03*
Y191900D02*
D03*
X112800D02*
D03*
Y201900D02*
D03*
X102800Y191900D02*
D03*
Y201900D02*
D03*
X92800Y191900D02*
D03*
D57*
X51900Y17923D02*
D03*
X131900Y201900D02*
D03*
X92800D02*
D03*
D58*
X201900Y179712D02*
D03*
M02*
