G04*
G04 #@! TF.GenerationSoftware,Altium Limited,Altium Designer,26.10.1 (5)*
G04*
G04 Layer_Physical_Order=3*
G04 Layer_Color=39423*
G04 Board_Origin=9800000|9800000*
%FSLAX25Y25*%
%MOIN*%
G70*
G04*
G04 #@! TF.SameCoordinates,9D01E2D7-551C-4C3F-8480-1F6566D9E9C8*
G04*
G04*
G04 #@! TF.FilePolarity,Positive*
G04*
G01*
G75*
%ADD64C,0.05000*%
%ADD66O,0.07087X0.03543*%
%ADD67C,0.05394*%
%ADD68R,0.05394X0.05394*%
%ADD69R,0.05394X0.05394*%
%ADD70C,0.02400*%
G36*
X43500Y190500D02*
Y137500D01*
X50500Y130500D01*
Y117000D01*
X57000Y110500D01*
X83000D01*
X101000Y128500D01*
Y175500D01*
X88500Y188000D01*
Y194000D01*
X90500Y196000D01*
X93500D01*
X99803Y189697D01*
X99842Y189630D01*
X100530Y188942D01*
X100597Y188903D01*
X102000Y187500D01*
X110500Y179000D01*
X110500Y146500D01*
X115000Y142000D01*
X120000D01*
X132500Y129500D01*
Y122000D01*
X145000Y109500D01*
X148500D01*
X155500Y116500D01*
X170000D01*
X186000Y100500D01*
Y95000D01*
X182500Y91500D01*
X176500D01*
X172000Y96000D01*
Y100500D01*
X162500Y110000D01*
X157000D01*
X156573Y109573D01*
X156554Y109565D01*
X155935Y108946D01*
X155927Y108927D01*
X150000Y103000D01*
X141500Y103000D01*
X134173Y110327D01*
X134165Y110346D01*
X133546Y110965D01*
X133527Y110973D01*
X133000Y111500D01*
X128000D01*
X127000Y110500D01*
X123500D01*
X121500Y112500D01*
Y121000D01*
X119500Y123000D01*
X109000D01*
X96500Y110500D01*
Y107000D01*
X98484Y105500D01*
Y103516D01*
X103000Y99000D01*
Y79000D01*
X105500Y76500D01*
X116000D01*
X125000Y67500D01*
Y59000D01*
X122500Y56500D01*
X118500Y56500D01*
X116000Y59000D01*
Y63000D01*
X113500Y65500D01*
X103500D01*
X94000Y75000D01*
Y93214D01*
X90750Y96000D01*
X70500D01*
X61000Y86500D01*
X56500Y82000D01*
Y73000D01*
Y55000D01*
X45520Y44020D01*
X42186Y44020D01*
X42120Y44006D01*
X42053Y44011D01*
X41971Y44000D01*
X41000D01*
X39000Y42000D01*
Y41598D01*
X38980Y41500D01*
Y39000D01*
D01*
Y39000D01*
X38996Y38922D01*
X39000Y38901D01*
Y38500D01*
X44500Y33000D01*
X44901D01*
X45000Y32980D01*
X45000D01*
D01*
D01*
X52500Y32980D01*
X52599Y33000D01*
X72000D01*
X76980Y28020D01*
Y7000D01*
X77000Y6901D01*
Y6500D01*
X74500Y4000D01*
X70500D01*
X68000Y6500D01*
Y23500D01*
X66000Y25500D01*
X29500D01*
X27000Y23000D01*
Y15500D01*
X22500Y11000D01*
X17500Y11000D01*
X13000Y15500D01*
X13000Y20500D01*
X15000Y22500D01*
Y31000D01*
Y37000D01*
X27000Y49000D01*
X40000Y62000D01*
X40000Y66218D01*
X44000Y70218D01*
Y70621D01*
X44100Y70862D01*
Y71738D01*
X44000Y71979D01*
Y84500D01*
X38500Y90000D01*
Y96000D01*
X42000Y99500D01*
X42000Y123000D01*
X33500Y131500D01*
Y175000D01*
X29500Y179000D01*
X22500Y179000D01*
X16500Y185000D01*
Y192000D01*
X22000Y197500D01*
X36500D01*
X43500Y190500D01*
D02*
G37*
G36*
X207000Y3000D02*
X84379D01*
X84296Y3108D01*
X84221Y3779D01*
X86221Y5779D01*
X86442Y6110D01*
X86520Y6500D01*
Y35421D01*
X87120Y35669D01*
X87554Y35235D01*
X88362Y34900D01*
X89238D01*
X90046Y35235D01*
X90665Y35854D01*
X91000Y36662D01*
Y37538D01*
X90665Y38346D01*
X90046Y38965D01*
X89238Y39300D01*
X88362D01*
X87554Y38965D01*
X86935Y38346D01*
X86645Y37646D01*
X86252Y37482D01*
X86000Y37442D01*
X72721Y50721D01*
X72390Y50942D01*
X72000Y51020D01*
X54746D01*
X54516Y51574D01*
X57221Y54279D01*
X57442Y54610D01*
X57520Y55000D01*
Y73000D01*
Y81578D01*
X61721Y85779D01*
X70922Y94980D01*
X90373D01*
X92980Y92745D01*
Y75000D01*
X93058Y74610D01*
X93279Y74279D01*
X102779Y64779D01*
X103110Y64558D01*
X103500Y64480D01*
X113078D01*
X114980Y62578D01*
Y61346D01*
X114380Y61226D01*
X114165Y61746D01*
X113546Y62365D01*
X112738Y62700D01*
X111862D01*
X111054Y62365D01*
X110435Y61746D01*
X110100Y60938D01*
Y60062D01*
X110435Y59254D01*
X111054Y58635D01*
X111862Y58300D01*
X112738D01*
X113546Y58635D01*
X114165Y59254D01*
X114380Y59774D01*
X114980Y59654D01*
Y59000D01*
X115058Y58610D01*
X115279Y58279D01*
X117779Y55779D01*
X118110Y55558D01*
X118500Y55480D01*
X122500Y55480D01*
X122890Y55558D01*
X123221Y55779D01*
X125721Y58279D01*
X125942Y58610D01*
X126020Y59000D01*
Y64941D01*
X126620Y65342D01*
X126962Y65200D01*
X127838D01*
X128646Y65535D01*
X129265Y66154D01*
X129600Y66962D01*
Y67838D01*
X129265Y68646D01*
X128646Y69265D01*
X127838Y69600D01*
X126962D01*
X126154Y69265D01*
X125806Y68918D01*
X125041Y68901D01*
X116721Y77221D01*
X116390Y77442D01*
X116000Y77520D01*
X113587D01*
X113468Y78120D01*
X113746Y78235D01*
X114365Y78854D01*
X114700Y79662D01*
Y80538D01*
X114365Y81346D01*
X113746Y81965D01*
X112938Y82300D01*
X112062D01*
X111254Y81965D01*
X110661Y81373D01*
X110146Y81888D01*
X109338Y82223D01*
X108462D01*
X107654Y81888D01*
X107200Y81434D01*
X106746Y81888D01*
X105938Y82223D01*
X105062D01*
X104620Y82040D01*
X104020Y82438D01*
Y86641D01*
X104620Y87042D01*
X104962Y86900D01*
X105838D01*
X106646Y87235D01*
X107150Y87739D01*
X107654Y87235D01*
X108462Y86900D01*
X109338D01*
X110146Y87235D01*
X110408Y87497D01*
X110800Y87825D01*
X111192Y87497D01*
X111454Y87235D01*
X112262Y86900D01*
X113138D01*
X113946Y87235D01*
X114350Y87639D01*
X114854Y87135D01*
X115662Y86800D01*
X116538D01*
X117346Y87135D01*
X117965Y87754D01*
X118300Y88562D01*
Y89438D01*
X117965Y90246D01*
X117346Y90865D01*
X116538Y91200D01*
X115662D01*
X114854Y90865D01*
X114450Y90461D01*
X113946Y90965D01*
X113138Y91300D01*
X112262D01*
X111454Y90965D01*
X111192Y90703D01*
X110800Y90375D01*
X110408Y90703D01*
X110146Y90965D01*
X109338Y91300D01*
X108462D01*
X107654Y90965D01*
X107150Y90461D01*
X106646Y90965D01*
X105838Y91300D01*
X104962D01*
X104620Y91158D01*
X104020Y91559D01*
Y99000D01*
X103942Y99390D01*
X103721Y99721D01*
X99503Y103939D01*
Y105500D01*
X99489Y105570D01*
X99493Y105640D01*
X99451Y105763D01*
X99426Y105890D01*
X99386Y105949D01*
X99363Y106016D01*
X99277Y106113D01*
X99204Y106221D01*
X99146Y106260D01*
X99098Y106313D01*
X97520Y107507D01*
Y110078D01*
X109422Y121980D01*
X119078D01*
X120480Y120578D01*
Y112500D01*
X120558Y112110D01*
X120779Y111779D01*
X122779Y109779D01*
X123110Y109558D01*
X123500Y109480D01*
X126700D01*
Y108662D01*
X127035Y107854D01*
X127654Y107235D01*
X128462Y106900D01*
X129338D01*
X130146Y107235D01*
X130600Y107689D01*
X131054Y107235D01*
X131862Y106900D01*
X132738D01*
X133546Y107235D01*
X134165Y107854D01*
X134263Y108090D01*
X134851Y108207D01*
X140779Y102279D01*
X141110Y102058D01*
X141500Y101980D01*
X150000Y101980D01*
X150390Y102058D01*
X150721Y102279D01*
X155249Y106807D01*
X155837Y106690D01*
X155935Y106454D01*
X156554Y105835D01*
X157362Y105500D01*
X158238D01*
X159046Y105835D01*
X159600Y106389D01*
X160154Y105835D01*
X160962Y105500D01*
X161838D01*
X162646Y105835D01*
X163265Y106454D01*
X163409Y106801D01*
X164117Y106941D01*
X170980Y100078D01*
Y96000D01*
X171058Y95610D01*
X171279Y95279D01*
X175779Y90779D01*
X176110Y90558D01*
X176500Y90480D01*
X182500D01*
X182890Y90558D01*
X183221Y90779D01*
X186721Y94279D01*
X186942Y94610D01*
X187020Y95000D01*
Y100500D01*
X186942Y100890D01*
X186721Y101221D01*
X170721Y117221D01*
X170390Y117442D01*
X170000Y117520D01*
X155500D01*
X155110Y117442D01*
X154779Y117221D01*
X152881Y115322D01*
X152292Y115439D01*
X152165Y115746D01*
X151546Y116365D01*
X150738Y116700D01*
X149862D01*
X149054Y116365D01*
X148600Y115911D01*
X148146Y116365D01*
X147338Y116700D01*
X146462D01*
X145654Y116365D01*
X145035Y115746D01*
X144700Y114938D01*
Y114062D01*
X145035Y113254D01*
X145654Y112635D01*
X146462Y112300D01*
X147338D01*
X148146Y112635D01*
X148600Y113089D01*
X149054Y112635D01*
X149361Y112508D01*
X149478Y111919D01*
X148078Y110520D01*
X145422D01*
X133520Y122422D01*
Y129500D01*
X133442Y129890D01*
X133221Y130221D01*
X120721Y142721D01*
X120390Y142942D01*
X120000Y143020D01*
X115422D01*
X111520Y146922D01*
X111520Y179000D01*
X111442Y179390D01*
X111221Y179721D01*
X103300Y187642D01*
X103524Y188267D01*
X104227Y188455D01*
X105070Y188942D01*
X105758Y189630D01*
X106245Y190473D01*
X106497Y191413D01*
Y192387D01*
X106245Y193327D01*
X105758Y194170D01*
X105070Y194858D01*
X104227Y195345D01*
X103287Y195597D01*
X102313D01*
X101373Y195345D01*
X100530Y194858D01*
X99842Y194170D01*
X99355Y193327D01*
X99167Y192624D01*
X98542Y192400D01*
X94221Y196721D01*
X93890Y196942D01*
X93500Y197020D01*
X90500D01*
X90110Y196942D01*
X89779Y196721D01*
X87779Y194721D01*
X87711Y194619D01*
X87071Y194507D01*
X86983Y194528D01*
X86646Y194865D01*
X85838Y195200D01*
X84962D01*
X84154Y194865D01*
X83535Y194246D01*
X83200Y193438D01*
Y192562D01*
X83535Y191754D01*
X84154Y191135D01*
X84962Y190800D01*
X85838D01*
X86646Y191135D01*
X86880Y191369D01*
X87480Y191121D01*
Y188000D01*
X87558Y187610D01*
X87779Y187279D01*
X99980Y175078D01*
Y128922D01*
X82578Y111520D01*
X81688D01*
X81236Y111707D01*
X80322Y111827D01*
X75713D01*
X74799Y111707D01*
X74347Y111520D01*
X57422D01*
X51520Y117422D01*
Y130500D01*
X51442Y130890D01*
X51221Y131221D01*
X44520Y137922D01*
Y190500D01*
X44442Y190890D01*
X44221Y191221D01*
X37221Y198221D01*
X36890Y198442D01*
X36500Y198520D01*
X22000D01*
X21610Y198442D01*
X21279Y198221D01*
X15779Y192721D01*
X15558Y192390D01*
X15480Y192000D01*
Y185000D01*
X15558Y184610D01*
X15779Y184279D01*
X21779Y178279D01*
X22110Y178058D01*
X22500Y177980D01*
X29078Y177980D01*
X32480Y174578D01*
Y131500D01*
X32558Y131110D01*
X32779Y130779D01*
X40980Y122578D01*
X40980Y99922D01*
X37779Y96721D01*
X37558Y96390D01*
X37480Y96000D01*
Y90000D01*
X37558Y89610D01*
X37779Y89279D01*
X42980Y84078D01*
Y71979D01*
X43058Y71589D01*
X43080Y71535D01*
Y71065D01*
X43058Y71011D01*
X42985Y70645D01*
X39279Y66939D01*
X39058Y66608D01*
X38980Y66218D01*
X38980Y62422D01*
X26279Y49721D01*
X14279Y37721D01*
X14058Y37390D01*
X13980Y37000D01*
Y31000D01*
Y22922D01*
X12279Y21221D01*
X12058Y20890D01*
X11980Y20500D01*
X11980Y15500D01*
X12058Y15110D01*
X12279Y14779D01*
X16779Y10279D01*
X17110Y10058D01*
X17500Y9980D01*
X22500Y9980D01*
X22890Y10058D01*
X23221Y10279D01*
X27721Y14779D01*
X27942Y15110D01*
X28020Y15500D01*
Y22578D01*
X29923Y24480D01*
X65578D01*
X66980Y23078D01*
Y6500D01*
X67058Y6110D01*
X67279Y5779D01*
X69458Y3600D01*
X69210Y3000D01*
X3000D01*
Y129000D01*
X6000Y132000D01*
Y163900D01*
X3000Y166800D01*
Y207000D01*
X207000D01*
Y3000D01*
D02*
G37*
G36*
X111254Y78235D02*
X111532Y78120D01*
X111413Y77520D01*
X110173D01*
X110054Y78120D01*
X110146Y78158D01*
X110739Y78750D01*
X111254Y78235D01*
D02*
G37*
G36*
X107654Y78158D02*
X107747Y78120D01*
X107627Y77520D01*
X106773D01*
X106653Y78120D01*
X106746Y78158D01*
X107200Y78612D01*
X107654Y78158D01*
D02*
G37*
G36*
X76980Y31578D02*
Y30245D01*
X76426Y30016D01*
X72721Y33721D01*
X72390Y33942D01*
X72000Y34020D01*
X54745D01*
X54516Y34574D01*
X59422Y39480D01*
X69078D01*
X76980Y31578D01*
D02*
G37*
G36*
X85500Y36500D02*
Y6500D01*
X83500Y4500D01*
X80742D01*
X80667Y4424D01*
X80500Y4500D01*
X78000Y7000D01*
Y32000D01*
X69500Y40500D01*
X59000D01*
X52500Y34000D01*
X45000Y34000D01*
X40000Y39000D01*
Y41500D01*
X41470Y42970D01*
X41957D01*
X42186Y43000D01*
X46000Y43000D01*
X53000Y50000D01*
X72000D01*
X85500Y36500D01*
D02*
G37*
G36*
X79779Y3779D02*
X79930Y3678D01*
X80039Y3600D01*
X80044Y3534D01*
X79743Y3000D01*
X75790D01*
X75542Y3600D01*
X77326Y5384D01*
X78162Y5396D01*
X79779Y3779D01*
D02*
G37*
%LPC*%
G36*
X63738Y107600D02*
X62862D01*
X62054Y107265D01*
X61550Y106761D01*
X61046Y107265D01*
X60238Y107600D01*
X59362D01*
X58554Y107265D01*
X57935Y106646D01*
X57600Y105838D01*
Y104962D01*
X57935Y104154D01*
X58554Y103535D01*
X59362Y103200D01*
X60238D01*
X61046Y103535D01*
X61550Y104039D01*
X62054Y103535D01*
X62862Y103200D01*
X63738D01*
X64546Y103535D01*
X65165Y104154D01*
X65500Y104962D01*
Y105838D01*
X65165Y106646D01*
X64546Y107265D01*
X63738Y107600D01*
D02*
G37*
G36*
X54638D02*
X53762D01*
X52954Y107265D01*
X52335Y106646D01*
X52000Y105838D01*
Y104962D01*
X52335Y104154D01*
X52954Y103535D01*
X53762Y103200D01*
X54638D01*
X55446Y103535D01*
X56065Y104154D01*
X56400Y104962D01*
Y105838D01*
X56065Y106646D01*
X55446Y107265D01*
X54638Y107600D01*
D02*
G37*
G36*
X91238Y102100D02*
X90362D01*
X89554Y101765D01*
X89100Y101311D01*
X88646Y101765D01*
X87838Y102100D01*
X86962D01*
X86154Y101765D01*
X85700Y101311D01*
X85246Y101765D01*
X84438Y102100D01*
X83562D01*
X82754Y101765D01*
X82184Y101196D01*
X81615Y101765D01*
X80806Y102100D01*
X79931D01*
X79123Y101765D01*
X78504Y101146D01*
X78169Y100338D01*
Y99462D01*
X78504Y98654D01*
X79123Y98035D01*
X79931Y97700D01*
X80806D01*
X81615Y98035D01*
X82184Y98604D01*
X82754Y98035D01*
X83562Y97700D01*
X84438D01*
X85246Y98035D01*
X85700Y98489D01*
X86154Y98035D01*
X86962Y97700D01*
X87838D01*
X88646Y98035D01*
X89100Y98489D01*
X89554Y98035D01*
X90362Y97700D01*
X91238D01*
X92046Y98035D01*
X92665Y98654D01*
X93000Y99462D01*
Y100338D01*
X92665Y101146D01*
X92046Y101765D01*
X91238Y102100D01*
D02*
G37*
G36*
X52338Y67400D02*
X51462D01*
X50654Y67065D01*
X50035Y66446D01*
X49700Y65638D01*
Y64762D01*
X50035Y63954D01*
X50654Y63335D01*
X51462Y63000D01*
X52338D01*
X53146Y63335D01*
X53765Y63954D01*
X54100Y64762D01*
Y65638D01*
X53765Y66446D01*
X53146Y67065D01*
X52338Y67400D01*
D02*
G37*
G36*
X202387Y205597D02*
X201413D01*
X200473Y205345D01*
X199630Y204858D01*
X198942Y204170D01*
X198455Y203327D01*
X198203Y202387D01*
Y201413D01*
X198455Y200473D01*
X198942Y199630D01*
X199630Y198942D01*
X200473Y198455D01*
X201413Y198203D01*
X202387D01*
X203327Y198455D01*
X204170Y198942D01*
X204858Y199630D01*
X205345Y200473D01*
X205597Y201413D01*
Y202387D01*
X205345Y203327D01*
X204858Y204170D01*
X204170Y204858D01*
X203327Y205345D01*
X202387Y205597D01*
D02*
G37*
G36*
X192387D02*
X191413D01*
X190473Y205345D01*
X189630Y204858D01*
X188942Y204170D01*
X188455Y203327D01*
X188203Y202387D01*
Y201413D01*
X188455Y200473D01*
X188942Y199630D01*
X189630Y198942D01*
X190473Y198455D01*
X191413Y198203D01*
X192387D01*
X193327Y198455D01*
X194170Y198942D01*
X194858Y199630D01*
X195345Y200473D01*
X195597Y201413D01*
Y202387D01*
X195345Y203327D01*
X194858Y204170D01*
X194170Y204858D01*
X193327Y205345D01*
X192387Y205597D01*
D02*
G37*
G36*
X182387D02*
X181413D01*
X180473Y205345D01*
X179630Y204858D01*
X178942Y204170D01*
X178455Y203327D01*
X178203Y202387D01*
Y201413D01*
X178455Y200473D01*
X178942Y199630D01*
X179630Y198942D01*
X180473Y198455D01*
X181413Y198203D01*
X182387D01*
X183327Y198455D01*
X184170Y198942D01*
X184858Y199630D01*
X185345Y200473D01*
X185597Y201413D01*
Y202387D01*
X185345Y203327D01*
X184858Y204170D01*
X184170Y204858D01*
X183327Y205345D01*
X182387Y205597D01*
D02*
G37*
G36*
X172387D02*
X171413D01*
X170473Y205345D01*
X169630Y204858D01*
X168942Y204170D01*
X168455Y203327D01*
X168203Y202387D01*
Y201413D01*
X168455Y200473D01*
X168942Y199630D01*
X169630Y198942D01*
X170473Y198455D01*
X171413Y198203D01*
X172387D01*
X173327Y198455D01*
X174170Y198942D01*
X174858Y199630D01*
X175345Y200473D01*
X175597Y201413D01*
Y202387D01*
X175345Y203327D01*
X174858Y204170D01*
X174170Y204858D01*
X173327Y205345D01*
X172387Y205597D01*
D02*
G37*
G36*
X162387D02*
X161413D01*
X160473Y205345D01*
X159630Y204858D01*
X158942Y204170D01*
X158455Y203327D01*
X158203Y202387D01*
Y201413D01*
X158455Y200473D01*
X158942Y199630D01*
X159630Y198942D01*
X160473Y198455D01*
X161413Y198203D01*
X162387D01*
X163327Y198455D01*
X164170Y198942D01*
X164858Y199630D01*
X165345Y200473D01*
X165597Y201413D01*
Y202387D01*
X165345Y203327D01*
X164858Y204170D01*
X164170Y204858D01*
X163327Y205345D01*
X162387Y205597D01*
D02*
G37*
G36*
X152387D02*
X151413D01*
X150473Y205345D01*
X149630Y204858D01*
X148942Y204170D01*
X148455Y203327D01*
X148203Y202387D01*
Y201413D01*
X148455Y200473D01*
X148942Y199630D01*
X149630Y198942D01*
X150473Y198455D01*
X151413Y198203D01*
X152387D01*
X153327Y198455D01*
X154170Y198942D01*
X154858Y199630D01*
X155345Y200473D01*
X155597Y201413D01*
Y202387D01*
X155345Y203327D01*
X154858Y204170D01*
X154170Y204858D01*
X153327Y205345D01*
X152387Y205597D01*
D02*
G37*
G36*
X142387D02*
X141413D01*
X140473Y205345D01*
X139630Y204858D01*
X138942Y204170D01*
X138455Y203327D01*
X138203Y202387D01*
Y201413D01*
X138455Y200473D01*
X138942Y199630D01*
X139630Y198942D01*
X140473Y198455D01*
X141413Y198203D01*
X142387D01*
X143327Y198455D01*
X144170Y198942D01*
X144858Y199630D01*
X145345Y200473D01*
X145597Y201413D01*
Y202387D01*
X145345Y203327D01*
X144858Y204170D01*
X144170Y204858D01*
X143327Y205345D01*
X142387Y205597D01*
D02*
G37*
G36*
X132387D02*
X131413D01*
X130473Y205345D01*
X129630Y204858D01*
X128942Y204170D01*
X128455Y203327D01*
X128203Y202387D01*
Y201413D01*
X128455Y200473D01*
X128942Y199630D01*
X129630Y198942D01*
X130473Y198455D01*
X131413Y198203D01*
X132387D01*
X133327Y198455D01*
X134170Y198942D01*
X134858Y199630D01*
X135345Y200473D01*
X135597Y201413D01*
Y202387D01*
X135345Y203327D01*
X134858Y204170D01*
X134170Y204858D01*
X133327Y205345D01*
X132387Y205597D01*
D02*
G37*
G36*
X113287D02*
X112313D01*
X111373Y205345D01*
X110530Y204858D01*
X109842Y204170D01*
X109355Y203327D01*
X109103Y202387D01*
Y201413D01*
X109355Y200473D01*
X109842Y199630D01*
X110530Y198942D01*
X111373Y198455D01*
X112313Y198203D01*
X113287D01*
X114227Y198455D01*
X115070Y198942D01*
X115758Y199630D01*
X116245Y200473D01*
X116497Y201413D01*
Y202387D01*
X116245Y203327D01*
X115758Y204170D01*
X115070Y204858D01*
X114227Y205345D01*
X113287Y205597D01*
D02*
G37*
G36*
X103287D02*
X102313D01*
X101373Y205345D01*
X100530Y204858D01*
X99842Y204170D01*
X99355Y203327D01*
X99103Y202387D01*
Y201413D01*
X99355Y200473D01*
X99842Y199630D01*
X100530Y198942D01*
X101373Y198455D01*
X102313Y198203D01*
X103287D01*
X104227Y198455D01*
X105070Y198942D01*
X105758Y199630D01*
X106245Y200473D01*
X106497Y201413D01*
Y202387D01*
X106245Y203327D01*
X105758Y204170D01*
X105070Y204858D01*
X104227Y205345D01*
X103287Y205597D01*
D02*
G37*
G36*
X93287D02*
X92313D01*
X91373Y205345D01*
X90530Y204858D01*
X89842Y204170D01*
X89355Y203327D01*
X89103Y202387D01*
Y201413D01*
X89355Y200473D01*
X89842Y199630D01*
X90530Y198942D01*
X91373Y198455D01*
X92313Y198203D01*
X93287D01*
X94227Y198455D01*
X95070Y198942D01*
X95758Y199630D01*
X96245Y200473D01*
X96497Y201413D01*
Y202387D01*
X96245Y203327D01*
X95758Y204170D01*
X95070Y204858D01*
X94227Y205345D01*
X93287Y205597D01*
D02*
G37*
G36*
X61838Y198000D02*
X60962D01*
X60154Y197665D01*
X59535Y197046D01*
X59200Y196238D01*
Y195362D01*
X59535Y194554D01*
X60154Y193935D01*
X60962Y193600D01*
X61838D01*
X62646Y193935D01*
X63265Y194554D01*
X63600Y195362D01*
Y196238D01*
X63265Y197046D01*
X62646Y197665D01*
X61838Y198000D01*
D02*
G37*
G36*
X202387Y195597D02*
X201413D01*
X200473Y195345D01*
X199630Y194858D01*
X198942Y194170D01*
X198455Y193327D01*
X198203Y192387D01*
Y191413D01*
X198455Y190473D01*
X198942Y189630D01*
X199630Y188942D01*
X200473Y188455D01*
X201413Y188203D01*
X202387D01*
X203327Y188455D01*
X204170Y188942D01*
X204858Y189630D01*
X205345Y190473D01*
X205597Y191413D01*
Y192387D01*
X205345Y193327D01*
X204858Y194170D01*
X204170Y194858D01*
X203327Y195345D01*
X202387Y195597D01*
D02*
G37*
G36*
X192387D02*
X191413D01*
X190473Y195345D01*
X189630Y194858D01*
X188942Y194170D01*
X188455Y193327D01*
X188203Y192387D01*
Y191413D01*
X188455Y190473D01*
X188942Y189630D01*
X189630Y188942D01*
X190473Y188455D01*
X191413Y188203D01*
X192387D01*
X193327Y188455D01*
X194170Y188942D01*
X194858Y189630D01*
X195345Y190473D01*
X195597Y191413D01*
Y192387D01*
X195345Y193327D01*
X194858Y194170D01*
X194170Y194858D01*
X193327Y195345D01*
X192387Y195597D01*
D02*
G37*
G36*
X182387D02*
X181413D01*
X180473Y195345D01*
X179630Y194858D01*
X178942Y194170D01*
X178455Y193327D01*
X178203Y192387D01*
Y191413D01*
X178455Y190473D01*
X178942Y189630D01*
X179630Y188942D01*
X180473Y188455D01*
X181413Y188203D01*
X182387D01*
X183327Y188455D01*
X184170Y188942D01*
X184858Y189630D01*
X185345Y190473D01*
X185597Y191413D01*
Y192387D01*
X185345Y193327D01*
X184858Y194170D01*
X184170Y194858D01*
X183327Y195345D01*
X182387Y195597D01*
D02*
G37*
G36*
X172387D02*
X171413D01*
X170473Y195345D01*
X169630Y194858D01*
X168942Y194170D01*
X168455Y193327D01*
X168203Y192387D01*
Y191413D01*
X168455Y190473D01*
X168942Y189630D01*
X169630Y188942D01*
X170473Y188455D01*
X171413Y188203D01*
X172387D01*
X173327Y188455D01*
X174170Y188942D01*
X174858Y189630D01*
X175345Y190473D01*
X175597Y191413D01*
Y192387D01*
X175345Y193327D01*
X174858Y194170D01*
X174170Y194858D01*
X173327Y195345D01*
X172387Y195597D01*
D02*
G37*
G36*
X162387D02*
X161413D01*
X160473Y195345D01*
X159630Y194858D01*
X158942Y194170D01*
X158455Y193327D01*
X158203Y192387D01*
Y191413D01*
X158455Y190473D01*
X158942Y189630D01*
X159630Y188942D01*
X160473Y188455D01*
X161413Y188203D01*
X162387D01*
X163327Y188455D01*
X164170Y188942D01*
X164858Y189630D01*
X165345Y190473D01*
X165597Y191413D01*
Y192387D01*
X165345Y193327D01*
X164858Y194170D01*
X164170Y194858D01*
X163327Y195345D01*
X162387Y195597D01*
D02*
G37*
G36*
X152387D02*
X151413D01*
X150473Y195345D01*
X149630Y194858D01*
X148942Y194170D01*
X148455Y193327D01*
X148203Y192387D01*
Y191413D01*
X148455Y190473D01*
X148942Y189630D01*
X149630Y188942D01*
X150473Y188455D01*
X151413Y188203D01*
X152387D01*
X153327Y188455D01*
X154170Y188942D01*
X154858Y189630D01*
X155345Y190473D01*
X155597Y191413D01*
Y192387D01*
X155345Y193327D01*
X154858Y194170D01*
X154170Y194858D01*
X153327Y195345D01*
X152387Y195597D01*
D02*
G37*
G36*
X142387D02*
X141413D01*
X140473Y195345D01*
X139630Y194858D01*
X138942Y194170D01*
X138455Y193327D01*
X138203Y192387D01*
Y191413D01*
X138455Y190473D01*
X138942Y189630D01*
X139630Y188942D01*
X140473Y188455D01*
X141413Y188203D01*
X142387D01*
X143327Y188455D01*
X144170Y188942D01*
X144858Y189630D01*
X145345Y190473D01*
X145597Y191413D01*
Y192387D01*
X145345Y193327D01*
X144858Y194170D01*
X144170Y194858D01*
X143327Y195345D01*
X142387Y195597D01*
D02*
G37*
G36*
X132387D02*
X131413D01*
X130473Y195345D01*
X129630Y194858D01*
X128942Y194170D01*
X128455Y193327D01*
X128203Y192387D01*
Y191413D01*
X128455Y190473D01*
X128942Y189630D01*
X129630Y188942D01*
X130473Y188455D01*
X131413Y188203D01*
X132387D01*
X133327Y188455D01*
X134170Y188942D01*
X134858Y189630D01*
X135345Y190473D01*
X135597Y191413D01*
Y192387D01*
X135345Y193327D01*
X134858Y194170D01*
X134170Y194858D01*
X133327Y195345D01*
X132387Y195597D01*
D02*
G37*
G36*
X56421Y185200D02*
X55579D01*
X54765Y184982D01*
X54035Y184561D01*
X54000Y184526D01*
X53965Y184561D01*
X53235Y184982D01*
X52421Y185200D01*
X51579D01*
X50765Y184982D01*
X50035Y184561D01*
X49439Y183965D01*
X49018Y183235D01*
X48800Y182421D01*
Y181579D01*
X49018Y180765D01*
X49439Y180035D01*
X50035Y179439D01*
X50765Y179018D01*
X51579Y178800D01*
X52421D01*
X53235Y179018D01*
X53965Y179439D01*
X54000Y179474D01*
X54035Y179439D01*
X54765Y179018D01*
X55579Y178800D01*
X56421D01*
X57235Y179018D01*
X57965Y179439D01*
X58561Y180035D01*
X58982Y180765D01*
X59200Y181579D01*
Y182421D01*
X58982Y183235D01*
X58561Y183965D01*
X57965Y184561D01*
X57235Y184982D01*
X56421Y185200D01*
D02*
G37*
G36*
X205597Y183408D02*
X198203D01*
Y176015D01*
X205597D01*
Y183408D01*
D02*
G37*
G36*
X192387D02*
X191413D01*
X190473Y183157D01*
X189630Y182670D01*
X188942Y181982D01*
X188455Y181139D01*
X188203Y180198D01*
Y179225D01*
X188455Y178285D01*
X188942Y177442D01*
X189630Y176753D01*
X190473Y176267D01*
X191413Y176015D01*
X192387D01*
X193327Y176267D01*
X194170Y176753D01*
X194858Y177442D01*
X195345Y178285D01*
X195597Y179225D01*
Y180198D01*
X195345Y181139D01*
X194858Y181982D01*
X194170Y182670D01*
X193327Y183157D01*
X192387Y183408D01*
D02*
G37*
G36*
X202387Y173408D02*
X201413D01*
X200473Y173156D01*
X199630Y172670D01*
X198942Y171982D01*
X198455Y171139D01*
X198203Y170198D01*
Y169225D01*
X198455Y168285D01*
X198942Y167442D01*
X199630Y166753D01*
X200473Y166267D01*
X201413Y166015D01*
X202387D01*
X203327Y166267D01*
X204170Y166753D01*
X204858Y167442D01*
X205345Y168285D01*
X205597Y169225D01*
Y170198D01*
X205345Y171139D01*
X204858Y171982D01*
X204170Y172670D01*
X203327Y173156D01*
X202387Y173408D01*
D02*
G37*
G36*
X192387D02*
X191413D01*
X190473Y173156D01*
X189630Y172670D01*
X188942Y171982D01*
X188455Y171139D01*
X188203Y170198D01*
Y169225D01*
X188455Y168285D01*
X188942Y167442D01*
X189630Y166753D01*
X190473Y166267D01*
X191413Y166015D01*
X192387D01*
X193327Y166267D01*
X194170Y166753D01*
X194858Y167442D01*
X195345Y168285D01*
X195597Y169225D01*
Y170198D01*
X195345Y171139D01*
X194858Y171982D01*
X194170Y172670D01*
X193327Y173156D01*
X192387Y173408D01*
D02*
G37*
G36*
X202387Y163409D02*
X201413D01*
X200473Y163156D01*
X199630Y162670D01*
X198942Y161981D01*
X198455Y161138D01*
X198203Y160198D01*
Y159225D01*
X198455Y158285D01*
X198942Y157442D01*
X199630Y156753D01*
X200473Y156267D01*
X201413Y156015D01*
X202387D01*
X203327Y156267D01*
X204170Y156753D01*
X204858Y157442D01*
X205345Y158285D01*
X205597Y159225D01*
Y160198D01*
X205345Y161138D01*
X204858Y161981D01*
X204170Y162670D01*
X203327Y163156D01*
X202387Y163409D01*
D02*
G37*
G36*
X192387D02*
X191413D01*
X190473Y163156D01*
X189630Y162670D01*
X188942Y161981D01*
X188455Y161138D01*
X188203Y160198D01*
Y159225D01*
X188455Y158285D01*
X188942Y157442D01*
X189630Y156753D01*
X190473Y156267D01*
X191413Y156015D01*
X192387D01*
X193327Y156267D01*
X194170Y156753D01*
X194858Y157442D01*
X195345Y158285D01*
X195597Y159225D01*
Y160198D01*
X195345Y161138D01*
X194858Y161981D01*
X194170Y162670D01*
X193327Y163156D01*
X192387Y163409D01*
D02*
G37*
G36*
X150738Y153900D02*
X149862D01*
X149054Y153565D01*
X148600Y153111D01*
X148146Y153565D01*
X147338Y153900D01*
X146462D01*
X145654Y153565D01*
X145035Y152946D01*
X144700Y152138D01*
Y151262D01*
X145035Y150454D01*
X145654Y149835D01*
X146462Y149500D01*
X147338D01*
X148146Y149835D01*
X148600Y150289D01*
X149054Y149835D01*
X149862Y149500D01*
X150738D01*
X151546Y149835D01*
X152165Y150454D01*
X152500Y151262D01*
Y152138D01*
X152165Y152946D01*
X151546Y153565D01*
X150738Y153900D01*
D02*
G37*
G36*
Y148600D02*
X149862D01*
X149054Y148265D01*
X148600Y147811D01*
X148146Y148265D01*
X147338Y148600D01*
X146462D01*
X145654Y148265D01*
X145035Y147646D01*
X144700Y146838D01*
Y145962D01*
X145035Y145154D01*
X145654Y144535D01*
X146462Y144200D01*
X147338D01*
X148146Y144535D01*
X148600Y144989D01*
X149054Y144535D01*
X149862Y144200D01*
X150738D01*
X151546Y144535D01*
X152165Y145154D01*
X152500Y145962D01*
Y146838D01*
X152165Y147646D01*
X151546Y148265D01*
X150738Y148600D01*
D02*
G37*
G36*
X202387Y153409D02*
X201413D01*
X200473Y153156D01*
X199630Y152670D01*
X198942Y151981D01*
X198455Y151138D01*
X198203Y150198D01*
Y149225D01*
X198455Y148285D01*
X198942Y147442D01*
X199630Y146753D01*
X200473Y146267D01*
X201413Y146015D01*
X202387D01*
X203327Y146267D01*
X204170Y146753D01*
X204858Y147442D01*
X205345Y148285D01*
X205597Y149225D01*
Y150198D01*
X205345Y151138D01*
X204858Y151981D01*
X204170Y152670D01*
X203327Y153156D01*
X202387Y153409D01*
D02*
G37*
G36*
X192387D02*
X191413D01*
X190473Y153156D01*
X189630Y152670D01*
X188942Y151981D01*
X188455Y151138D01*
X188203Y150198D01*
Y149225D01*
X188455Y148285D01*
X188942Y147442D01*
X189630Y146753D01*
X190473Y146267D01*
X191413Y146015D01*
X192387D01*
X193327Y146267D01*
X194170Y146753D01*
X194858Y147442D01*
X195345Y148285D01*
X195597Y149225D01*
Y150198D01*
X195345Y151138D01*
X194858Y151981D01*
X194170Y152670D01*
X193327Y153156D01*
X192387Y153409D01*
D02*
G37*
G36*
X96138Y152500D02*
X95262D01*
X94454Y152165D01*
X93835Y151546D01*
X93500Y150738D01*
Y149862D01*
X93835Y149054D01*
X94289Y148600D01*
X93835Y148146D01*
X93500Y147338D01*
Y146462D01*
X93835Y145654D01*
X94454Y145035D01*
X95262Y144700D01*
X96138D01*
X96946Y145035D01*
X97565Y145654D01*
X97900Y146462D01*
Y147338D01*
X97565Y148146D01*
X97111Y148600D01*
X97565Y149054D01*
X97900Y149862D01*
Y150738D01*
X97565Y151546D01*
X96946Y152165D01*
X96138Y152500D01*
D02*
G37*
G36*
X90838D02*
X89962D01*
X89154Y152165D01*
X88535Y151546D01*
X88200Y150738D01*
Y149862D01*
X88535Y149054D01*
X88989Y148600D01*
X88535Y148146D01*
X88200Y147338D01*
Y146462D01*
X88535Y145654D01*
X89154Y145035D01*
X89962Y144700D01*
X90838D01*
X91646Y145035D01*
X92265Y145654D01*
X92600Y146462D01*
Y147338D01*
X92265Y148146D01*
X91811Y148600D01*
X92265Y149054D01*
X92600Y149862D01*
Y150738D01*
X92265Y151546D01*
X91646Y152165D01*
X90838Y152500D01*
D02*
G37*
G36*
X85538D02*
X84662D01*
X83854Y152165D01*
X83235Y151546D01*
X82900Y150738D01*
Y149862D01*
X83235Y149054D01*
X83689Y148600D01*
X83235Y148146D01*
X82900Y147338D01*
Y146462D01*
X83235Y145654D01*
X83854Y145035D01*
X84662Y144700D01*
X85538D01*
X86346Y145035D01*
X86965Y145654D01*
X87300Y146462D01*
Y147338D01*
X86965Y148146D01*
X86511Y148600D01*
X86965Y149054D01*
X87300Y149862D01*
Y150738D01*
X86965Y151546D01*
X86346Y152165D01*
X85538Y152500D01*
D02*
G37*
G36*
X80238D02*
X79362D01*
X78554Y152165D01*
X77935Y151546D01*
X77600Y150738D01*
Y149862D01*
X77935Y149054D01*
X78389Y148600D01*
X77935Y148146D01*
X77600Y147338D01*
Y146462D01*
X77935Y145654D01*
X78554Y145035D01*
X79362Y144700D01*
X80238D01*
X81046Y145035D01*
X81665Y145654D01*
X82000Y146462D01*
Y147338D01*
X81665Y148146D01*
X81211Y148600D01*
X81665Y149054D01*
X82000Y149862D01*
Y150738D01*
X81665Y151546D01*
X81046Y152165D01*
X80238Y152500D01*
D02*
G37*
G36*
X74938D02*
X74062D01*
X73254Y152165D01*
X72635Y151546D01*
X72300Y150738D01*
Y149862D01*
X72635Y149054D01*
X73089Y148600D01*
X72635Y148146D01*
X72300Y147338D01*
Y146462D01*
X72635Y145654D01*
X73254Y145035D01*
X74062Y144700D01*
X74938D01*
X75746Y145035D01*
X76365Y145654D01*
X76700Y146462D01*
Y147338D01*
X76365Y148146D01*
X75911Y148600D01*
X76365Y149054D01*
X76700Y149862D01*
Y150738D01*
X76365Y151546D01*
X75746Y152165D01*
X74938Y152500D01*
D02*
G37*
G36*
X147338Y143300D02*
X146462D01*
X145654Y142965D01*
X145035Y142346D01*
X144700Y141538D01*
Y140662D01*
X145035Y139854D01*
X145654Y139235D01*
X146462Y138900D01*
X147338D01*
X148146Y139235D01*
X148765Y139854D01*
X149100Y140662D01*
Y141538D01*
X148765Y142346D01*
X148146Y142965D01*
X147338Y143300D01*
D02*
G37*
G36*
X150738Y138000D02*
X149862D01*
X149054Y137665D01*
X148600Y137211D01*
X148146Y137665D01*
X147338Y138000D01*
X146462D01*
X145654Y137665D01*
X145035Y137046D01*
X144700Y136238D01*
Y135362D01*
X145035Y134554D01*
X145654Y133935D01*
X146462Y133600D01*
X147338D01*
X148146Y133935D01*
X148600Y134389D01*
X149054Y133935D01*
X149862Y133600D01*
X150738D01*
X151546Y133935D01*
X152165Y134554D01*
X152500Y135362D01*
Y136238D01*
X152165Y137046D01*
X151546Y137665D01*
X150738Y138000D01*
D02*
G37*
G36*
X63738Y138100D02*
X62862D01*
X62054Y137765D01*
X61500Y137211D01*
X60946Y137765D01*
X60138Y138100D01*
X59262D01*
X58454Y137765D01*
X57835Y137146D01*
X57500Y136338D01*
Y135462D01*
X57835Y134654D01*
X58454Y134035D01*
X59262Y133700D01*
X60138D01*
X60946Y134035D01*
X61500Y134589D01*
X62054Y134035D01*
X62862Y133700D01*
X63738D01*
X64546Y134035D01*
X65165Y134654D01*
X65500Y135462D01*
Y136338D01*
X65165Y137146D01*
X64546Y137765D01*
X63738Y138100D01*
D02*
G37*
G36*
X71738Y141300D02*
X70862D01*
X70054Y140965D01*
X69435Y140346D01*
X69100Y139538D01*
Y138662D01*
X69435Y137854D01*
X70054Y137235D01*
X70862Y136900D01*
X71738D01*
X72546Y137235D01*
X73165Y137854D01*
X73500Y138662D01*
Y139538D01*
X73165Y140346D01*
X72546Y140965D01*
X71738Y141300D01*
D02*
G37*
G36*
X202387Y143409D02*
X201413D01*
X200473Y143157D01*
X199630Y142670D01*
X198942Y141981D01*
X198455Y141139D01*
X198203Y140198D01*
Y139225D01*
X198455Y138285D01*
X198942Y137442D01*
X199630Y136753D01*
X200473Y136267D01*
X201413Y136015D01*
X202387D01*
X203327Y136267D01*
X204170Y136753D01*
X204858Y137442D01*
X205345Y138285D01*
X205597Y139225D01*
Y140198D01*
X205345Y141139D01*
X204858Y141981D01*
X204170Y142670D01*
X203327Y143157D01*
X202387Y143409D01*
D02*
G37*
G36*
X192387D02*
X191413D01*
X190473Y143157D01*
X189630Y142670D01*
X188942Y141981D01*
X188455Y141139D01*
X188203Y140198D01*
Y139225D01*
X188455Y138285D01*
X188942Y137442D01*
X189630Y136753D01*
X190473Y136267D01*
X191413Y136015D01*
X192387D01*
X193327Y136267D01*
X194170Y136753D01*
X194858Y137442D01*
X195345Y138285D01*
X195597Y139225D01*
Y140198D01*
X195345Y141139D01*
X194858Y141981D01*
X194170Y142670D01*
X193327Y143157D01*
X192387Y143409D01*
D02*
G37*
G36*
X150738Y132700D02*
X149862D01*
X149054Y132365D01*
X148600Y131911D01*
X148146Y132365D01*
X147338Y132700D01*
X146462D01*
X145654Y132365D01*
X145035Y131746D01*
X144700Y130938D01*
Y130062D01*
X145035Y129254D01*
X145654Y128635D01*
X146462Y128300D01*
X147338D01*
X148146Y128635D01*
X148600Y129089D01*
X149054Y128635D01*
X149862Y128300D01*
X150738D01*
X151546Y128635D01*
X152165Y129254D01*
X152500Y130062D01*
Y130938D01*
X152165Y131746D01*
X151546Y132365D01*
X150738Y132700D01*
D02*
G37*
G36*
X63715Y132600D02*
X62839D01*
X62031Y132265D01*
X61439Y131673D01*
X60946Y132165D01*
X60138Y132500D01*
X59262D01*
X58454Y132165D01*
X57835Y131546D01*
X57500Y130738D01*
Y129862D01*
X57835Y129054D01*
X58454Y128435D01*
X59262Y128100D01*
X60138D01*
X60946Y128435D01*
X61538Y129027D01*
X62031Y128535D01*
X62839Y128200D01*
X63715D01*
X64523Y128535D01*
X65142Y129154D01*
X65477Y129962D01*
Y130838D01*
X65142Y131646D01*
X64523Y132265D01*
X63715Y132600D01*
D02*
G37*
G36*
X150738Y127300D02*
X149862D01*
X149054Y126965D01*
X148550Y126461D01*
X148046Y126965D01*
X147238Y127300D01*
X146362D01*
X145554Y126965D01*
X144935Y126346D01*
X144600Y125538D01*
Y124662D01*
X144935Y123854D01*
X145554Y123235D01*
X146362Y122900D01*
X147238D01*
X148046Y123235D01*
X148550Y123739D01*
X149054Y123235D01*
X149862Y122900D01*
X150738D01*
X151546Y123235D01*
X152165Y123854D01*
X152500Y124662D01*
Y125538D01*
X152165Y126346D01*
X151546Y126965D01*
X150738Y127300D01*
D02*
G37*
G36*
X63738D02*
X62862D01*
X62054Y126965D01*
X61500Y126411D01*
X60946Y126965D01*
X60138Y127300D01*
X59262D01*
X58454Y126965D01*
X57835Y126346D01*
X57500Y125538D01*
Y124662D01*
X57835Y123854D01*
X58454Y123235D01*
X59262Y122900D01*
X60138D01*
X60946Y123235D01*
X61500Y123789D01*
X62054Y123235D01*
X62862Y122900D01*
X63738D01*
X64546Y123235D01*
X65165Y123854D01*
X65500Y124662D01*
Y125538D01*
X65165Y126346D01*
X64546Y126965D01*
X63738Y127300D01*
D02*
G37*
G36*
X202387Y133408D02*
X201413D01*
X200473Y133157D01*
X199630Y132670D01*
X198942Y131982D01*
X198455Y131139D01*
X198203Y130198D01*
Y129225D01*
X198455Y128285D01*
X198942Y127442D01*
X199630Y126753D01*
X200473Y126267D01*
X201413Y126015D01*
X202387D01*
X203327Y126267D01*
X204170Y126753D01*
X204858Y127442D01*
X205345Y128285D01*
X205597Y129225D01*
Y130198D01*
X205345Y131139D01*
X204858Y131982D01*
X204170Y132670D01*
X203327Y133157D01*
X202387Y133408D01*
D02*
G37*
G36*
X192387D02*
X191413D01*
X190473Y133157D01*
X189630Y132670D01*
X188942Y131982D01*
X188455Y131139D01*
X188203Y130198D01*
Y129225D01*
X188455Y128285D01*
X188942Y127442D01*
X189630Y126753D01*
X190473Y126267D01*
X191413Y126015D01*
X192387D01*
X193327Y126267D01*
X194170Y126753D01*
X194858Y127442D01*
X195345Y128285D01*
X195597Y129225D01*
Y130198D01*
X195345Y131139D01*
X194858Y131982D01*
X194170Y132670D01*
X193327Y133157D01*
X192387Y133408D01*
D02*
G37*
G36*
X31310Y123086D02*
X30467D01*
X29653Y122868D01*
X29289Y122657D01*
X28924Y122868D01*
X28110Y123086D01*
X27267D01*
X26453Y122868D01*
X25724Y122447D01*
X25128Y121851D01*
X24707Y121121D01*
X24488Y120307D01*
Y119465D01*
X24707Y118651D01*
X25128Y117921D01*
X25724Y117325D01*
X26453Y116904D01*
X27267Y116686D01*
X28110D01*
X28924Y116904D01*
X29289Y117115D01*
X29653Y116904D01*
X30467Y116686D01*
X31310D01*
X32124Y116904D01*
X32853Y117325D01*
X33449Y117921D01*
X33870Y118651D01*
X34089Y119465D01*
Y120307D01*
X33870Y121121D01*
X33449Y121851D01*
X32853Y122447D01*
X32124Y122868D01*
X31310Y123086D01*
D02*
G37*
G36*
X150738Y122000D02*
X149862D01*
X149054Y121665D01*
X148600Y121211D01*
X148146Y121665D01*
X147338Y122000D01*
X146462D01*
X145654Y121665D01*
X145035Y121046D01*
X144700Y120238D01*
Y119362D01*
X145035Y118554D01*
X145654Y117935D01*
X146462Y117600D01*
X147338D01*
X148146Y117935D01*
X148600Y118389D01*
X149054Y117935D01*
X149862Y117600D01*
X150738D01*
X151546Y117935D01*
X152165Y118554D01*
X152500Y119362D01*
Y120238D01*
X152165Y121046D01*
X151546Y121665D01*
X150738Y122000D01*
D02*
G37*
G36*
X63738Y121903D02*
X62862D01*
X62054Y121568D01*
X61500Y121014D01*
X60946Y121568D01*
X60138Y121903D01*
X59262D01*
X58454Y121568D01*
X57835Y120949D01*
X57500Y120141D01*
Y119265D01*
X57835Y118457D01*
X58454Y117838D01*
X59262Y117503D01*
X60138D01*
X60946Y117838D01*
X61500Y118392D01*
X62054Y117838D01*
X62862Y117503D01*
X63738D01*
X64546Y117838D01*
X65165Y118457D01*
X65500Y119265D01*
Y120141D01*
X65165Y120949D01*
X64546Y121568D01*
X63738Y121903D01*
D02*
G37*
G36*
X202387Y123408D02*
X201413D01*
X200473Y123156D01*
X199630Y122670D01*
X198942Y121982D01*
X198455Y121139D01*
X198203Y120198D01*
Y119225D01*
X198455Y118285D01*
X198942Y117442D01*
X199630Y116753D01*
X200473Y116267D01*
X201413Y116015D01*
X202387D01*
X203327Y116267D01*
X204170Y116753D01*
X204858Y117442D01*
X205345Y118285D01*
X205597Y119225D01*
Y120198D01*
X205345Y121139D01*
X204858Y121982D01*
X204170Y122670D01*
X203327Y123156D01*
X202387Y123408D01*
D02*
G37*
G36*
X192387D02*
X191413D01*
X190473Y123156D01*
X189630Y122670D01*
X188942Y121982D01*
X188455Y121139D01*
X188203Y120198D01*
Y119225D01*
X188455Y118285D01*
X188942Y117442D01*
X189630Y116753D01*
X190473Y116267D01*
X191413Y116015D01*
X192387D01*
X193327Y116267D01*
X194170Y116753D01*
X194858Y117442D01*
X195345Y118285D01*
X195597Y119225D01*
Y120198D01*
X195345Y121139D01*
X194858Y121982D01*
X194170Y122670D01*
X193327Y123156D01*
X192387Y123408D01*
D02*
G37*
G36*
X202387Y113409D02*
X201413D01*
X200473Y113156D01*
X199630Y112670D01*
X198942Y111981D01*
X198455Y111138D01*
X198203Y110198D01*
Y109225D01*
X198455Y108285D01*
X198942Y107442D01*
X199630Y106753D01*
X200473Y106267D01*
X201413Y106015D01*
X202387D01*
X203327Y106267D01*
X204170Y106753D01*
X204858Y107442D01*
X205345Y108285D01*
X205597Y109225D01*
Y110198D01*
X205345Y111138D01*
X204858Y111981D01*
X204170Y112670D01*
X203327Y113156D01*
X202387Y113409D01*
D02*
G37*
G36*
X192387D02*
X191413D01*
X190473Y113156D01*
X189630Y112670D01*
X188942Y111981D01*
X188455Y111138D01*
X188203Y110198D01*
Y109225D01*
X188455Y108285D01*
X188942Y107442D01*
X189630Y106753D01*
X190473Y106267D01*
X191413Y106015D01*
X192387D01*
X193327Y106267D01*
X194170Y106753D01*
X194858Y107442D01*
X195345Y108285D01*
X195597Y109225D01*
Y110198D01*
X195345Y111138D01*
X194858Y111981D01*
X194170Y112670D01*
X193327Y113156D01*
X192387Y113409D01*
D02*
G37*
G36*
X161838Y104600D02*
X160962D01*
X160154Y104265D01*
X159700Y103811D01*
X159246Y104265D01*
X158438Y104600D01*
X157562D01*
X156754Y104265D01*
X156135Y103646D01*
X155800Y102838D01*
Y101962D01*
X156135Y101154D01*
X156754Y100535D01*
X157562Y100200D01*
X158438D01*
X159246Y100535D01*
X159700Y100989D01*
X160154Y100535D01*
X160962Y100200D01*
X161838D01*
X162646Y100535D01*
X163265Y101154D01*
X163600Y101962D01*
Y102838D01*
X163265Y103646D01*
X162646Y104265D01*
X161838Y104600D01*
D02*
G37*
G36*
X132838Y102100D02*
X131962D01*
X131154Y101765D01*
X130600Y101211D01*
X130046Y101765D01*
X129238Y102100D01*
X128362D01*
X127554Y101765D01*
X127100Y101311D01*
X126646Y101765D01*
X125838Y102100D01*
X124962D01*
X124154Y101765D01*
X123700Y101311D01*
X123246Y101765D01*
X122438Y102100D01*
X121562D01*
X120754Y101765D01*
X120135Y101146D01*
X119800Y100338D01*
Y99462D01*
X120135Y98654D01*
X120754Y98035D01*
X121562Y97700D01*
X122438D01*
X123246Y98035D01*
X123700Y98489D01*
X124154Y98035D01*
X124962Y97700D01*
X125838D01*
X126646Y98035D01*
X127100Y98489D01*
X127554Y98035D01*
X128362Y97700D01*
X129238D01*
X130046Y98035D01*
X130600Y98589D01*
X131154Y98035D01*
X131962Y97700D01*
X132838D01*
X133646Y98035D01*
X134265Y98654D01*
X134600Y99462D01*
Y100338D01*
X134265Y101146D01*
X133646Y101765D01*
X132838Y102100D01*
D02*
G37*
G36*
X151038Y97600D02*
X150162D01*
X149354Y97265D01*
X148800Y96711D01*
X148246Y97265D01*
X147438Y97600D01*
X146562D01*
X145754Y97265D01*
X145135Y96646D01*
X144800Y95838D01*
Y94962D01*
X145135Y94154D01*
X145754Y93535D01*
X146562Y93200D01*
X147438D01*
X148246Y93535D01*
X148800Y94089D01*
X149354Y93535D01*
X150162Y93200D01*
X151038D01*
X151846Y93535D01*
X152465Y94154D01*
X152800Y94962D01*
Y95838D01*
X152465Y96646D01*
X151846Y97265D01*
X151038Y97600D01*
D02*
G37*
G36*
X202387Y103409D02*
X201413D01*
X200473Y103156D01*
X199630Y102670D01*
X198942Y101981D01*
X198455Y101138D01*
X198203Y100198D01*
Y99225D01*
X198455Y98285D01*
X198942Y97442D01*
X199630Y96753D01*
X200473Y96267D01*
X201413Y96015D01*
X202387D01*
X203327Y96267D01*
X204170Y96753D01*
X204858Y97442D01*
X205345Y98285D01*
X205597Y99225D01*
Y100198D01*
X205345Y101138D01*
X204858Y101981D01*
X204170Y102670D01*
X203327Y103156D01*
X202387Y103409D01*
D02*
G37*
G36*
X192387D02*
X191413D01*
X190473Y103156D01*
X189630Y102670D01*
X188942Y101981D01*
X188455Y101138D01*
X188203Y100198D01*
Y99225D01*
X188455Y98285D01*
X188942Y97442D01*
X189630Y96753D01*
X190473Y96267D01*
X191413Y96015D01*
X192387D01*
X193327Y96267D01*
X194170Y96753D01*
X194858Y97442D01*
X195345Y98285D01*
X195597Y99225D01*
Y100198D01*
X195345Y101138D01*
X194858Y101981D01*
X194170Y102670D01*
X193327Y103156D01*
X192387Y103409D01*
D02*
G37*
G36*
X165938Y96300D02*
X165062D01*
X164254Y95965D01*
X163635Y95346D01*
X163300Y94538D01*
Y93662D01*
X163635Y92854D01*
X164254Y92235D01*
X165062Y91900D01*
X165938D01*
X166746Y92235D01*
X167365Y92854D01*
X167700Y93662D01*
Y94538D01*
X167365Y95346D01*
X166746Y95965D01*
X165938Y96300D01*
D02*
G37*
G36*
X151038Y92300D02*
X150162D01*
X149354Y91965D01*
X148800Y91411D01*
X148246Y91965D01*
X147438Y92300D01*
X146562D01*
X145754Y91965D01*
X145135Y91346D01*
X144800Y90538D01*
Y89662D01*
X145135Y88854D01*
X145754Y88235D01*
X146562Y87900D01*
X147438D01*
X148246Y88235D01*
X148800Y88789D01*
X149354Y88235D01*
X150162Y87900D01*
X151038D01*
X151846Y88235D01*
X152465Y88854D01*
X152800Y89662D01*
Y90538D01*
X152465Y91346D01*
X151846Y91965D01*
X151038Y92300D01*
D02*
G37*
G36*
X31438Y92700D02*
X30562D01*
X29754Y92365D01*
X29135Y91746D01*
X28800Y90938D01*
Y90062D01*
X29135Y89254D01*
X29754Y88635D01*
X30562Y88300D01*
X31438D01*
X32246Y88635D01*
X32865Y89254D01*
X33200Y90062D01*
Y90938D01*
X32865Y91746D01*
X32246Y92365D01*
X31438Y92700D01*
D02*
G37*
G36*
X151038Y87000D02*
X150162D01*
X149354Y86665D01*
X148800Y86111D01*
X148246Y86665D01*
X147438Y87000D01*
X146562D01*
X145754Y86665D01*
X145135Y86046D01*
X144800Y85238D01*
Y84362D01*
X145135Y83554D01*
X145754Y82935D01*
X146562Y82600D01*
X147438D01*
X148246Y82935D01*
X148800Y83489D01*
X149354Y82935D01*
X150162Y82600D01*
X151038D01*
X151846Y82935D01*
X152465Y83554D01*
X152800Y84362D01*
Y85238D01*
X152465Y86046D01*
X151846Y86665D01*
X151038Y87000D01*
D02*
G37*
G36*
X202387Y93409D02*
X201413D01*
X200473Y93156D01*
X199630Y92670D01*
X198942Y91982D01*
X198455Y91138D01*
X198203Y90198D01*
Y89225D01*
X198455Y88285D01*
X198942Y87442D01*
X199630Y86753D01*
X200473Y86267D01*
X201413Y86015D01*
X202387D01*
X203327Y86267D01*
X204170Y86753D01*
X204858Y87442D01*
X205345Y88285D01*
X205597Y89225D01*
Y90198D01*
X205345Y91138D01*
X204858Y91982D01*
X204170Y92670D01*
X203327Y93156D01*
X202387Y93409D01*
D02*
G37*
G36*
X192387D02*
X191413D01*
X190473Y93156D01*
X189630Y92670D01*
X188942Y91982D01*
X188455Y91138D01*
X188203Y90198D01*
Y89225D01*
X188455Y88285D01*
X188942Y87442D01*
X189630Y86753D01*
X190473Y86267D01*
X191413Y86015D01*
X192387D01*
X193327Y86267D01*
X194170Y86753D01*
X194858Y87442D01*
X195345Y88285D01*
X195597Y89225D01*
Y90198D01*
X195345Y91138D01*
X194858Y91982D01*
X194170Y92670D01*
X193327Y93156D01*
X192387Y93409D01*
D02*
G37*
G36*
X151038Y81700D02*
X150162D01*
X149354Y81365D01*
X148800Y80811D01*
X148246Y81365D01*
X147438Y81700D01*
X146562D01*
X145754Y81365D01*
X145135Y80746D01*
X144800Y79938D01*
Y79062D01*
X145135Y78254D01*
X145754Y77635D01*
X146562Y77300D01*
X147438D01*
X148246Y77635D01*
X148800Y78189D01*
X149354Y77635D01*
X150162Y77300D01*
X151038D01*
X151846Y77635D01*
X152465Y78254D01*
X152800Y79062D01*
Y79938D01*
X152465Y80746D01*
X151846Y81365D01*
X151038Y81700D01*
D02*
G37*
G36*
X202387Y83408D02*
X201413D01*
X200473Y83157D01*
X199630Y82670D01*
X198942Y81981D01*
X198455Y81138D01*
X198203Y80198D01*
Y79225D01*
X198455Y78285D01*
X198942Y77442D01*
X199630Y76753D01*
X200473Y76267D01*
X201413Y76015D01*
X202387D01*
X203327Y76267D01*
X204170Y76753D01*
X204858Y77442D01*
X205345Y78285D01*
X205597Y79225D01*
Y80198D01*
X205345Y81138D01*
X204858Y81981D01*
X204170Y82670D01*
X203327Y83157D01*
X202387Y83408D01*
D02*
G37*
G36*
X192387D02*
X191413D01*
X190473Y83157D01*
X189630Y82670D01*
X188942Y81981D01*
X188455Y81138D01*
X188203Y80198D01*
Y79225D01*
X188455Y78285D01*
X188942Y77442D01*
X189630Y76753D01*
X190473Y76267D01*
X191413Y76015D01*
X192387D01*
X193327Y76267D01*
X194170Y76753D01*
X194858Y77442D01*
X195345Y78285D01*
X195597Y79225D01*
Y80198D01*
X195345Y81138D01*
X194858Y81981D01*
X194170Y82670D01*
X193327Y83157D01*
X192387Y83408D01*
D02*
G37*
G36*
X151038Y76400D02*
X150162D01*
X149354Y76065D01*
X148800Y75511D01*
X148246Y76065D01*
X147438Y76400D01*
X146562D01*
X145754Y76065D01*
X145135Y75446D01*
X144800Y74638D01*
Y73762D01*
X145135Y72954D01*
X145754Y72335D01*
X146562Y72000D01*
X147438D01*
X148246Y72335D01*
X148800Y72889D01*
X149354Y72335D01*
X150162Y72000D01*
X151038D01*
X151846Y72335D01*
X152465Y72954D01*
X152800Y73762D01*
Y74638D01*
X152465Y75446D01*
X151846Y76065D01*
X151038Y76400D01*
D02*
G37*
G36*
X171438Y75300D02*
X170562D01*
X169754Y74965D01*
X169200Y74411D01*
X168646Y74965D01*
X167838Y75300D01*
X166962D01*
X166154Y74965D01*
X165535Y74346D01*
X165200Y73538D01*
Y72662D01*
X165535Y71854D01*
X166154Y71235D01*
X166962Y70900D01*
X167838D01*
X168646Y71235D01*
X169200Y71789D01*
X169754Y71235D01*
X170562Y70900D01*
X171438D01*
X172246Y71235D01*
X172865Y71854D01*
X173200Y72662D01*
Y73538D01*
X172865Y74346D01*
X172246Y74965D01*
X171438Y75300D01*
D02*
G37*
G36*
X151038Y71100D02*
X150162D01*
X149354Y70765D01*
X148800Y70211D01*
X148246Y70765D01*
X147438Y71100D01*
X146562D01*
X145754Y70765D01*
X145135Y70146D01*
X144800Y69338D01*
Y68462D01*
X145135Y67654D01*
X145754Y67035D01*
X146562Y66700D01*
X147438D01*
X148246Y67035D01*
X148800Y67589D01*
X149354Y67035D01*
X150162Y66700D01*
X151038D01*
X151846Y67035D01*
X152465Y67654D01*
X152800Y68462D01*
Y69338D01*
X152465Y70146D01*
X151846Y70765D01*
X151038Y71100D01*
D02*
G37*
G36*
X171438Y69900D02*
X170562D01*
X169754Y69565D01*
X169300Y69111D01*
X168846Y69565D01*
X168038Y69900D01*
X167162D01*
X166354Y69565D01*
X165735Y68946D01*
X165400Y68138D01*
Y67262D01*
X165735Y66454D01*
X166354Y65835D01*
X167162Y65500D01*
X168038D01*
X168846Y65835D01*
X169300Y66289D01*
X169754Y65835D01*
X170562Y65500D01*
X171438D01*
X172246Y65835D01*
X172865Y66454D01*
X173200Y67262D01*
Y68138D01*
X172865Y68946D01*
X172246Y69565D01*
X171438Y69900D01*
D02*
G37*
G36*
X202387Y73409D02*
X201413D01*
X200473Y73156D01*
X199630Y72670D01*
X198942Y71982D01*
X198455Y71139D01*
X198203Y70198D01*
Y69225D01*
X198455Y68285D01*
X198942Y67442D01*
X199630Y66753D01*
X200473Y66267D01*
X201413Y66015D01*
X202387D01*
X203327Y66267D01*
X204170Y66753D01*
X204858Y67442D01*
X205345Y68285D01*
X205597Y69225D01*
Y70198D01*
X205345Y71139D01*
X204858Y71982D01*
X204170Y72670D01*
X203327Y73156D01*
X202387Y73409D01*
D02*
G37*
G36*
X192387D02*
X191413D01*
X190473Y73156D01*
X189630Y72670D01*
X188942Y71982D01*
X188455Y71139D01*
X188203Y70198D01*
Y69225D01*
X188455Y68285D01*
X188942Y67442D01*
X189630Y66753D01*
X190473Y66267D01*
X191413Y66015D01*
X192387D01*
X193327Y66267D01*
X194170Y66753D01*
X194858Y67442D01*
X195345Y68285D01*
X195597Y69225D01*
Y70198D01*
X195345Y71139D01*
X194858Y71982D01*
X194170Y72670D01*
X193327Y73156D01*
X192387Y73409D01*
D02*
G37*
G36*
X151038Y65700D02*
X150162D01*
X149354Y65365D01*
X148800Y64811D01*
X148246Y65365D01*
X147438Y65700D01*
X146562D01*
X145754Y65365D01*
X145135Y64746D01*
X144800Y63938D01*
Y63062D01*
X145135Y62254D01*
X145754Y61635D01*
X146562Y61300D01*
X147438D01*
X148246Y61635D01*
X148800Y62189D01*
X149354Y61635D01*
X150162Y61300D01*
X151038D01*
X151846Y61635D01*
X152465Y62254D01*
X152800Y63062D01*
Y63938D01*
X152465Y64746D01*
X151846Y65365D01*
X151038Y65700D01*
D02*
G37*
G36*
X85638Y65200D02*
X84762D01*
X83954Y64865D01*
X83335Y64246D01*
X83000Y63438D01*
Y62562D01*
X83335Y61754D01*
X83954Y61135D01*
X84762Y60800D01*
X85638D01*
X86446Y61135D01*
X87065Y61754D01*
X87400Y62562D01*
Y63438D01*
X87065Y64246D01*
X86446Y64865D01*
X85638Y65200D01*
D02*
G37*
G36*
X90938D02*
X90062D01*
X89254Y64865D01*
X88635Y64246D01*
X88300Y63438D01*
Y62562D01*
X88635Y61754D01*
X89089Y61300D01*
X88635Y60846D01*
X88300Y60038D01*
Y59162D01*
X88635Y58354D01*
X89254Y57735D01*
X90062Y57400D01*
X90938D01*
X91746Y57735D01*
X92365Y58354D01*
X92700Y59162D01*
Y60038D01*
X92365Y60846D01*
X91911Y61300D01*
X92365Y61754D01*
X92700Y62562D01*
Y63438D01*
X92365Y64246D01*
X91746Y64865D01*
X90938Y65200D01*
D02*
G37*
G36*
X80338D02*
X79462D01*
X78654Y64865D01*
X78035Y64246D01*
X77700Y63438D01*
Y62562D01*
X78035Y61754D01*
X78489Y61300D01*
X78035Y60846D01*
X77700Y60038D01*
Y59162D01*
X78035Y58354D01*
X78654Y57735D01*
X79462Y57400D01*
X80338D01*
X81146Y57735D01*
X81765Y58354D01*
X82100Y59162D01*
Y60038D01*
X81765Y60846D01*
X81311Y61300D01*
X81765Y61754D01*
X82100Y62562D01*
Y63438D01*
X81765Y64246D01*
X81146Y64865D01*
X80338Y65200D01*
D02*
G37*
G36*
X75038D02*
X74162D01*
X73354Y64865D01*
X72735Y64246D01*
X72400Y63438D01*
Y62562D01*
X72735Y61754D01*
X73189Y61300D01*
X72735Y60846D01*
X72400Y60038D01*
Y59162D01*
X72735Y58354D01*
X73354Y57735D01*
X74162Y57400D01*
X75038D01*
X75846Y57735D01*
X76465Y58354D01*
X76800Y59162D01*
Y60038D01*
X76465Y60846D01*
X76011Y61300D01*
X76465Y61754D01*
X76800Y62562D01*
Y63438D01*
X76465Y64246D01*
X75846Y64865D01*
X75038Y65200D01*
D02*
G37*
G36*
X69738D02*
X68862D01*
X68054Y64865D01*
X67435Y64246D01*
X67100Y63438D01*
Y62562D01*
X67435Y61754D01*
X67889Y61300D01*
X67435Y60846D01*
X67100Y60038D01*
Y59162D01*
X67435Y58354D01*
X68054Y57735D01*
X68862Y57400D01*
X69738D01*
X70546Y57735D01*
X71165Y58354D01*
X71500Y59162D01*
Y60038D01*
X71165Y60846D01*
X70711Y61300D01*
X71165Y61754D01*
X71500Y62562D01*
Y63438D01*
X71165Y64246D01*
X70546Y64865D01*
X69738Y65200D01*
D02*
G37*
G36*
X104038Y61700D02*
X103162D01*
X102354Y61365D01*
X101735Y60746D01*
X101400Y59938D01*
Y59062D01*
X101735Y58254D01*
X102354Y57635D01*
X103162Y57300D01*
X104038D01*
X104846Y57635D01*
X105465Y58254D01*
X105800Y59062D01*
Y59938D01*
X105465Y60746D01*
X104846Y61365D01*
X104038Y61700D01*
D02*
G37*
G36*
X96238Y65100D02*
X95362D01*
X94554Y64765D01*
X93935Y64146D01*
X93600Y63338D01*
Y62462D01*
X93935Y61654D01*
X94439Y61150D01*
X94035Y60746D01*
X93700Y59938D01*
Y59062D01*
X94035Y58254D01*
X94654Y57635D01*
X95462Y57300D01*
X96338D01*
X97146Y57635D01*
X97765Y58254D01*
X98100Y59062D01*
Y59938D01*
X97765Y60746D01*
X97261Y61250D01*
X97665Y61654D01*
X98000Y62462D01*
Y63338D01*
X97665Y64146D01*
X97046Y64765D01*
X96238Y65100D01*
D02*
G37*
G36*
X202387Y63408D02*
X201413D01*
X200473Y63156D01*
X199630Y62670D01*
X198942Y61981D01*
X198455Y61138D01*
X198203Y60198D01*
Y59225D01*
X198455Y58285D01*
X198942Y57442D01*
X199630Y56753D01*
X200473Y56267D01*
X201413Y56015D01*
X202387D01*
X203327Y56267D01*
X204170Y56753D01*
X204858Y57442D01*
X205345Y58285D01*
X205597Y59225D01*
Y60198D01*
X205345Y61138D01*
X204858Y61981D01*
X204170Y62670D01*
X203327Y63156D01*
X202387Y63408D01*
D02*
G37*
G36*
X192387D02*
X191413D01*
X190473Y63156D01*
X189630Y62670D01*
X188942Y61981D01*
X188455Y61138D01*
X188203Y60198D01*
Y59225D01*
X188455Y58285D01*
X188942Y57442D01*
X189630Y56753D01*
X190473Y56267D01*
X191413Y56015D01*
X192387D01*
X193327Y56267D01*
X194170Y56753D01*
X194858Y57442D01*
X195345Y58285D01*
X195597Y59225D01*
Y60198D01*
X195345Y61138D01*
X194858Y61981D01*
X194170Y62670D01*
X193327Y63156D01*
X192387Y63408D01*
D02*
G37*
G36*
X159838Y55100D02*
X158962D01*
X158154Y54765D01*
X157535Y54146D01*
X157200Y53338D01*
Y52462D01*
X157203Y52454D01*
X156903Y51793D01*
X156354Y51565D01*
X155735Y50946D01*
X155400Y50138D01*
Y49262D01*
X155735Y48454D01*
X156354Y47835D01*
X157162Y47500D01*
X158038D01*
X158846Y47835D01*
X159465Y48454D01*
X159800Y49262D01*
Y50138D01*
X159797Y50146D01*
X160097Y50807D01*
X160646Y51035D01*
X161265Y51654D01*
X161600Y52462D01*
Y53338D01*
X161265Y54146D01*
X160646Y54765D01*
X159838Y55100D01*
D02*
G37*
G36*
X202387Y53408D02*
X201413D01*
X200473Y53157D01*
X199630Y52670D01*
X198942Y51982D01*
X198455Y51139D01*
X198203Y50198D01*
Y49225D01*
X198455Y48285D01*
X198942Y47442D01*
X199630Y46753D01*
X200473Y46267D01*
X201413Y46015D01*
X202387D01*
X203327Y46267D01*
X204170Y46753D01*
X204858Y47442D01*
X205345Y48285D01*
X205597Y49225D01*
Y50198D01*
X205345Y51139D01*
X204858Y51982D01*
X204170Y52670D01*
X203327Y53157D01*
X202387Y53408D01*
D02*
G37*
G36*
X192387D02*
X191413D01*
X190473Y53157D01*
X189630Y52670D01*
X188942Y51982D01*
X188455Y51139D01*
X188203Y50198D01*
Y49225D01*
X188455Y48285D01*
X188942Y47442D01*
X189630Y46753D01*
X190473Y46267D01*
X191413Y46015D01*
X192387D01*
X193327Y46267D01*
X194170Y46753D01*
X194858Y47442D01*
X195345Y48285D01*
X195597Y49225D01*
Y50198D01*
X195345Y51139D01*
X194858Y51982D01*
X194170Y52670D01*
X193327Y53157D01*
X192387Y53408D01*
D02*
G37*
G36*
X121538Y44700D02*
X120662D01*
X119854Y44365D01*
X119235Y43746D01*
X118900Y42938D01*
Y42062D01*
X119235Y41254D01*
X119854Y40635D01*
X120662Y40300D01*
X121538D01*
X122346Y40635D01*
X122965Y41254D01*
X123300Y42062D01*
Y42938D01*
X122965Y43746D01*
X122346Y44365D01*
X121538Y44700D01*
D02*
G37*
G36*
X202387Y43409D02*
X201413D01*
X200473Y43156D01*
X199630Y42670D01*
X198942Y41982D01*
X198455Y41138D01*
X198203Y40198D01*
Y39225D01*
X198455Y38285D01*
X198942Y37442D01*
X199630Y36753D01*
X200473Y36267D01*
X201413Y36015D01*
X202387D01*
X203327Y36267D01*
X204170Y36753D01*
X204858Y37442D01*
X205345Y38285D01*
X205597Y39225D01*
Y40198D01*
X205345Y41138D01*
X204858Y41982D01*
X204170Y42670D01*
X203327Y43156D01*
X202387Y43409D01*
D02*
G37*
G36*
X192387D02*
X191413D01*
X190473Y43156D01*
X189630Y42670D01*
X188942Y41982D01*
X188455Y41138D01*
X188203Y40198D01*
Y39225D01*
X188455Y38285D01*
X188942Y37442D01*
X189630Y36753D01*
X190473Y36267D01*
X191413Y36015D01*
X192387D01*
X193327Y36267D01*
X194170Y36753D01*
X194858Y37442D01*
X195345Y38285D01*
X195597Y39225D01*
Y40198D01*
X195345Y41138D01*
X194858Y41982D01*
X194170Y42670D01*
X193327Y43156D01*
X192387Y43409D01*
D02*
G37*
G36*
X202387Y33408D02*
X201413D01*
X200473Y33156D01*
X199630Y32670D01*
X198942Y31982D01*
X198455Y31139D01*
X198203Y30198D01*
Y29225D01*
X198455Y28285D01*
X198942Y27442D01*
X199630Y26753D01*
X200473Y26267D01*
X201413Y26015D01*
X202387D01*
X203327Y26267D01*
X204170Y26753D01*
X204858Y27442D01*
X205345Y28285D01*
X205597Y29225D01*
Y30198D01*
X205345Y31139D01*
X204858Y31982D01*
X204170Y32670D01*
X203327Y33156D01*
X202387Y33408D01*
D02*
G37*
G36*
X192387D02*
X191413D01*
X190473Y33156D01*
X189630Y32670D01*
X188942Y31982D01*
X188455Y31139D01*
X188203Y30198D01*
Y29225D01*
X188455Y28285D01*
X188942Y27442D01*
X189630Y26753D01*
X190473Y26267D01*
X191413Y26015D01*
X192387D01*
X193327Y26267D01*
X194170Y26753D01*
X194858Y27442D01*
X195345Y28285D01*
X195597Y29225D01*
Y30198D01*
X195345Y31139D01*
X194858Y31982D01*
X194170Y32670D01*
X193327Y33156D01*
X192387Y33408D01*
D02*
G37*
G36*
X202387Y21620D02*
X201413D01*
X200473Y21368D01*
X199630Y20881D01*
X198942Y20193D01*
X198455Y19350D01*
X198203Y18410D01*
Y17436D01*
X198455Y16496D01*
X198942Y15653D01*
X199630Y14965D01*
X200473Y14478D01*
X201413Y14226D01*
X202387D01*
X203327Y14478D01*
X204170Y14965D01*
X204858Y15653D01*
X205345Y16496D01*
X205597Y17436D01*
Y18410D01*
X205345Y19350D01*
X204858Y20193D01*
X204170Y20881D01*
X203327Y21368D01*
X202387Y21620D01*
D02*
G37*
G36*
X192387D02*
X191413D01*
X190473Y21368D01*
X189630Y20881D01*
X188942Y20193D01*
X188455Y19350D01*
X188203Y18410D01*
Y17436D01*
X188455Y16496D01*
X188942Y15653D01*
X189630Y14965D01*
X190473Y14478D01*
X191413Y14226D01*
X192387D01*
X193327Y14478D01*
X194170Y14965D01*
X194858Y15653D01*
X195345Y16496D01*
X195597Y17436D01*
Y18410D01*
X195345Y19350D01*
X194858Y20193D01*
X194170Y20881D01*
X193327Y21368D01*
X192387Y21620D01*
D02*
G37*
G36*
X182387D02*
X181413D01*
X180473Y21368D01*
X179630Y20881D01*
X178942Y20193D01*
X178455Y19350D01*
X178203Y18410D01*
Y17436D01*
X178455Y16496D01*
X178942Y15653D01*
X179630Y14965D01*
X180473Y14478D01*
X181413Y14226D01*
X182387D01*
X183327Y14478D01*
X184170Y14965D01*
X184858Y15653D01*
X185345Y16496D01*
X185597Y17436D01*
Y18410D01*
X185345Y19350D01*
X184858Y20193D01*
X184170Y20881D01*
X183327Y21368D01*
X182387Y21620D01*
D02*
G37*
G36*
X172387D02*
X171413D01*
X170473Y21368D01*
X169630Y20881D01*
X168942Y20193D01*
X168455Y19350D01*
X168203Y18410D01*
Y17436D01*
X168455Y16496D01*
X168942Y15653D01*
X169630Y14965D01*
X170473Y14478D01*
X171413Y14226D01*
X172387D01*
X173327Y14478D01*
X174170Y14965D01*
X174858Y15653D01*
X175345Y16496D01*
X175597Y17436D01*
Y18410D01*
X175345Y19350D01*
X174858Y20193D01*
X174170Y20881D01*
X173327Y21368D01*
X172387Y21620D01*
D02*
G37*
G36*
X162387D02*
X161413D01*
X160473Y21368D01*
X159630Y20881D01*
X158942Y20193D01*
X158455Y19350D01*
X158203Y18410D01*
Y17436D01*
X158455Y16496D01*
X158942Y15653D01*
X159630Y14965D01*
X160473Y14478D01*
X161413Y14226D01*
X162387D01*
X163327Y14478D01*
X164170Y14965D01*
X164858Y15653D01*
X165345Y16496D01*
X165597Y17436D01*
Y18410D01*
X165345Y19350D01*
X164858Y20193D01*
X164170Y20881D01*
X163327Y21368D01*
X162387Y21620D01*
D02*
G37*
G36*
X152387D02*
X151413D01*
X150473Y21368D01*
X149630Y20881D01*
X148942Y20193D01*
X148455Y19350D01*
X148203Y18410D01*
Y17436D01*
X148455Y16496D01*
X148942Y15653D01*
X149630Y14965D01*
X150473Y14478D01*
X151413Y14226D01*
X152387D01*
X153327Y14478D01*
X154170Y14965D01*
X154858Y15653D01*
X155345Y16496D01*
X155597Y17436D01*
Y18410D01*
X155345Y19350D01*
X154858Y20193D01*
X154170Y20881D01*
X153327Y21368D01*
X152387Y21620D01*
D02*
G37*
G36*
X142387D02*
X141413D01*
X140473Y21368D01*
X139630Y20881D01*
X138942Y20193D01*
X138455Y19350D01*
X138203Y18410D01*
Y17436D01*
X138455Y16496D01*
X138942Y15653D01*
X139630Y14965D01*
X140473Y14478D01*
X141413Y14226D01*
X142387D01*
X143327Y14478D01*
X144170Y14965D01*
X144858Y15653D01*
X145345Y16496D01*
X145597Y17436D01*
Y18410D01*
X145345Y19350D01*
X144858Y20193D01*
X144170Y20881D01*
X143327Y21368D01*
X142387Y21620D01*
D02*
G37*
G36*
X132387D02*
X131413D01*
X130473Y21368D01*
X129630Y20881D01*
X128942Y20193D01*
X128455Y19350D01*
X128203Y18410D01*
Y17436D01*
X128455Y16496D01*
X128942Y15653D01*
X129630Y14965D01*
X130473Y14478D01*
X131413Y14226D01*
X132387D01*
X133327Y14478D01*
X134170Y14965D01*
X134858Y15653D01*
X135345Y16496D01*
X135597Y17436D01*
Y18410D01*
X135345Y19350D01*
X134858Y20193D01*
X134170Y20881D01*
X133327Y21368D01*
X132387Y21620D01*
D02*
G37*
G36*
X122387D02*
X121413D01*
X120473Y21368D01*
X119630Y20881D01*
X118942Y20193D01*
X118455Y19350D01*
X118203Y18410D01*
Y17436D01*
X118455Y16496D01*
X118942Y15653D01*
X119630Y14965D01*
X120473Y14478D01*
X121413Y14226D01*
X122387D01*
X123327Y14478D01*
X124170Y14965D01*
X124858Y15653D01*
X125345Y16496D01*
X125597Y17436D01*
Y18410D01*
X125345Y19350D01*
X124858Y20193D01*
X124170Y20881D01*
X123327Y21368D01*
X122387Y21620D01*
D02*
G37*
G36*
X112387D02*
X111413D01*
X110473Y21368D01*
X109630Y20881D01*
X108942Y20193D01*
X108455Y19350D01*
X108203Y18410D01*
Y17436D01*
X108455Y16496D01*
X108942Y15653D01*
X109630Y14965D01*
X110473Y14478D01*
X111413Y14226D01*
X112387D01*
X113327Y14478D01*
X114170Y14965D01*
X114858Y15653D01*
X115345Y16496D01*
X115597Y17436D01*
Y18410D01*
X115345Y19350D01*
X114858Y20193D01*
X114170Y20881D01*
X113327Y21368D01*
X112387Y21620D01*
D02*
G37*
G36*
X102387D02*
X101413D01*
X100473Y21368D01*
X99630Y20881D01*
X98942Y20193D01*
X98455Y19350D01*
X98203Y18410D01*
Y17436D01*
X98455Y16496D01*
X98942Y15653D01*
X99630Y14965D01*
X100473Y14478D01*
X101413Y14226D01*
X102387D01*
X103327Y14478D01*
X104170Y14965D01*
X104858Y15653D01*
X105345Y16496D01*
X105597Y17436D01*
Y18410D01*
X105345Y19350D01*
X104858Y20193D01*
X104170Y20881D01*
X103327Y21368D01*
X102387Y21620D01*
D02*
G37*
G36*
X92387D02*
X91413D01*
X90473Y21368D01*
X89630Y20881D01*
X88942Y20193D01*
X88455Y19350D01*
X88203Y18410D01*
Y17436D01*
X88455Y16496D01*
X88942Y15653D01*
X89630Y14965D01*
X90473Y14478D01*
X91413Y14226D01*
X92387D01*
X93327Y14478D01*
X94170Y14965D01*
X94858Y15653D01*
X95345Y16496D01*
X95597Y17436D01*
Y18410D01*
X95345Y19350D01*
X94858Y20193D01*
X94170Y20881D01*
X93327Y21368D01*
X92387Y21620D01*
D02*
G37*
G36*
X55597D02*
X48203D01*
Y14226D01*
X55597D01*
Y21620D01*
D02*
G37*
G36*
X202387Y11620D02*
X201413D01*
X200473Y11368D01*
X199630Y10881D01*
X198942Y10193D01*
X198455Y9350D01*
X198203Y8410D01*
Y7436D01*
X198455Y6496D01*
X198942Y5653D01*
X199630Y4965D01*
X200473Y4478D01*
X201413Y4226D01*
X202387D01*
X203327Y4478D01*
X204170Y4965D01*
X204858Y5653D01*
X205345Y6496D01*
X205597Y7436D01*
Y8410D01*
X205345Y9350D01*
X204858Y10193D01*
X204170Y10881D01*
X203327Y11368D01*
X202387Y11620D01*
D02*
G37*
G36*
X192387D02*
X191413D01*
X190473Y11368D01*
X189630Y10881D01*
X188942Y10193D01*
X188455Y9350D01*
X188203Y8410D01*
Y7436D01*
X188455Y6496D01*
X188942Y5653D01*
X189630Y4965D01*
X190473Y4478D01*
X191413Y4226D01*
X192387D01*
X193327Y4478D01*
X194170Y4965D01*
X194858Y5653D01*
X195345Y6496D01*
X195597Y7436D01*
Y8410D01*
X195345Y9350D01*
X194858Y10193D01*
X194170Y10881D01*
X193327Y11368D01*
X192387Y11620D01*
D02*
G37*
G36*
X182387D02*
X181413D01*
X180473Y11368D01*
X179630Y10881D01*
X178942Y10193D01*
X178455Y9350D01*
X178203Y8410D01*
Y7436D01*
X178455Y6496D01*
X178942Y5653D01*
X179630Y4965D01*
X180473Y4478D01*
X181413Y4226D01*
X182387D01*
X183327Y4478D01*
X184170Y4965D01*
X184858Y5653D01*
X185345Y6496D01*
X185597Y7436D01*
Y8410D01*
X185345Y9350D01*
X184858Y10193D01*
X184170Y10881D01*
X183327Y11368D01*
X182387Y11620D01*
D02*
G37*
G36*
X172387D02*
X171413D01*
X170473Y11368D01*
X169630Y10881D01*
X168942Y10193D01*
X168455Y9350D01*
X168203Y8410D01*
Y7436D01*
X168455Y6496D01*
X168942Y5653D01*
X169630Y4965D01*
X170473Y4478D01*
X171413Y4226D01*
X172387D01*
X173327Y4478D01*
X174170Y4965D01*
X174858Y5653D01*
X175345Y6496D01*
X175597Y7436D01*
Y8410D01*
X175345Y9350D01*
X174858Y10193D01*
X174170Y10881D01*
X173327Y11368D01*
X172387Y11620D01*
D02*
G37*
G36*
X162387D02*
X161413D01*
X160473Y11368D01*
X159630Y10881D01*
X158942Y10193D01*
X158455Y9350D01*
X158203Y8410D01*
Y7436D01*
X158455Y6496D01*
X158942Y5653D01*
X159630Y4965D01*
X160473Y4478D01*
X161413Y4226D01*
X162387D01*
X163327Y4478D01*
X164170Y4965D01*
X164858Y5653D01*
X165345Y6496D01*
X165597Y7436D01*
Y8410D01*
X165345Y9350D01*
X164858Y10193D01*
X164170Y10881D01*
X163327Y11368D01*
X162387Y11620D01*
D02*
G37*
G36*
X152387D02*
X151413D01*
X150473Y11368D01*
X149630Y10881D01*
X148942Y10193D01*
X148455Y9350D01*
X148203Y8410D01*
Y7436D01*
X148455Y6496D01*
X148942Y5653D01*
X149630Y4965D01*
X150473Y4478D01*
X151413Y4226D01*
X152387D01*
X153327Y4478D01*
X154170Y4965D01*
X154858Y5653D01*
X155345Y6496D01*
X155597Y7436D01*
Y8410D01*
X155345Y9350D01*
X154858Y10193D01*
X154170Y10881D01*
X153327Y11368D01*
X152387Y11620D01*
D02*
G37*
G36*
X142387D02*
X141413D01*
X140473Y11368D01*
X139630Y10881D01*
X138942Y10193D01*
X138455Y9350D01*
X138203Y8410D01*
Y7436D01*
X138455Y6496D01*
X138942Y5653D01*
X139630Y4965D01*
X140473Y4478D01*
X141413Y4226D01*
X142387D01*
X143327Y4478D01*
X144170Y4965D01*
X144858Y5653D01*
X145345Y6496D01*
X145597Y7436D01*
Y8410D01*
X145345Y9350D01*
X144858Y10193D01*
X144170Y10881D01*
X143327Y11368D01*
X142387Y11620D01*
D02*
G37*
G36*
X132387D02*
X131413D01*
X130473Y11368D01*
X129630Y10881D01*
X128942Y10193D01*
X128455Y9350D01*
X128203Y8410D01*
Y7436D01*
X128455Y6496D01*
X128942Y5653D01*
X129630Y4965D01*
X130473Y4478D01*
X131413Y4226D01*
X132387D01*
X133327Y4478D01*
X134170Y4965D01*
X134858Y5653D01*
X135345Y6496D01*
X135597Y7436D01*
Y8410D01*
X135345Y9350D01*
X134858Y10193D01*
X134170Y10881D01*
X133327Y11368D01*
X132387Y11620D01*
D02*
G37*
G36*
X122387D02*
X121413D01*
X120473Y11368D01*
X119630Y10881D01*
X118942Y10193D01*
X118455Y9350D01*
X118203Y8410D01*
Y7436D01*
X118455Y6496D01*
X118942Y5653D01*
X119630Y4965D01*
X120473Y4478D01*
X121413Y4226D01*
X122387D01*
X123327Y4478D01*
X124170Y4965D01*
X124858Y5653D01*
X125345Y6496D01*
X125597Y7436D01*
Y8410D01*
X125345Y9350D01*
X124858Y10193D01*
X124170Y10881D01*
X123327Y11368D01*
X122387Y11620D01*
D02*
G37*
G36*
X112387D02*
X111413D01*
X110473Y11368D01*
X109630Y10881D01*
X108942Y10193D01*
X108455Y9350D01*
X108203Y8410D01*
Y7436D01*
X108455Y6496D01*
X108942Y5653D01*
X109630Y4965D01*
X110473Y4478D01*
X111413Y4226D01*
X112387D01*
X113327Y4478D01*
X114170Y4965D01*
X114858Y5653D01*
X115345Y6496D01*
X115597Y7436D01*
Y8410D01*
X115345Y9350D01*
X114858Y10193D01*
X114170Y10881D01*
X113327Y11368D01*
X112387Y11620D01*
D02*
G37*
G36*
X102387D02*
X101413D01*
X100473Y11368D01*
X99630Y10881D01*
X98942Y10193D01*
X98455Y9350D01*
X98203Y8410D01*
Y7436D01*
X98455Y6496D01*
X98942Y5653D01*
X99630Y4965D01*
X100473Y4478D01*
X101413Y4226D01*
X102387D01*
X103327Y4478D01*
X104170Y4965D01*
X104858Y5653D01*
X105345Y6496D01*
X105597Y7436D01*
Y8410D01*
X105345Y9350D01*
X104858Y10193D01*
X104170Y10881D01*
X103327Y11368D01*
X102387Y11620D01*
D02*
G37*
G36*
X92387D02*
X91413D01*
X90473Y11368D01*
X89630Y10881D01*
X88942Y10193D01*
X88455Y9350D01*
X88203Y8410D01*
Y7436D01*
X88455Y6496D01*
X88942Y5653D01*
X89630Y4965D01*
X90473Y4478D01*
X91413Y4226D01*
X92387D01*
X93327Y4478D01*
X94170Y4965D01*
X94858Y5653D01*
X95345Y6496D01*
X95597Y7436D01*
Y8410D01*
X95345Y9350D01*
X94858Y10193D01*
X94170Y10881D01*
X93327Y11368D01*
X92387Y11620D01*
D02*
G37*
G36*
X52387D02*
X51413D01*
X50473Y11368D01*
X49630Y10881D01*
X48942Y10193D01*
X48455Y9350D01*
X48203Y8410D01*
Y7436D01*
X48455Y6496D01*
X48942Y5653D01*
X49630Y4965D01*
X50473Y4478D01*
X51413Y4226D01*
X52387D01*
X53327Y4478D01*
X54170Y4965D01*
X54858Y5653D01*
X55345Y6496D01*
X55597Y7436D01*
Y8410D01*
X55345Y9350D01*
X54858Y10193D01*
X54170Y10881D01*
X53327Y11368D01*
X52387Y11620D01*
D02*
G37*
%LPD*%
D64*
X20500Y188000D02*
X22200Y189700D01*
X24800D02*
X26500Y191400D01*
Y194000D01*
X175500Y97900D02*
X177400D01*
X181900D02*
X182000Y98000D01*
X99825Y75775D02*
Y97675D01*
X20000Y17750D02*
Y18000D01*
Y20500D01*
Y18000D02*
X23500D01*
X30900Y39700D02*
X37700Y46500D01*
X72000Y7923D02*
Y25985D01*
X36500Y186000D02*
X38500Y184000D01*
X121034Y59203D02*
Y63766D01*
X177400Y97900D02*
X177600D01*
X180000Y95500D01*
X177400Y97900D02*
X180000Y100500D01*
Y97900D02*
X181900D01*
X124695Y114046D02*
X125532Y114883D01*
X126942D01*
X126374Y115100D02*
X133100D01*
X105105Y133454D02*
X106895Y135244D01*
X105105Y133454D02*
X106895Y131665D01*
Y135244D02*
Y177805D01*
X93447Y103900D02*
X95700D01*
X94650Y102850D02*
X99825Y97675D01*
X35250Y187250D02*
X36500Y186000D01*
X32800Y189700D02*
X35250Y187250D01*
X32536Y181179D02*
Y183489D01*
X32041Y183984D02*
X32536Y183489D01*
X32041Y183984D02*
X34057Y186000D01*
X36500D01*
X93410Y106144D02*
Y112967D01*
Y104489D02*
Y106144D01*
X61600Y100700D02*
X68116D01*
X51400Y90500D02*
X61600Y100700D01*
X68116D02*
X75713Y108297D01*
X82405Y106214D02*
X91132D01*
X82234D02*
X82405D01*
X91132D02*
X93447Y103900D01*
X80322Y108297D02*
X82405Y106214D01*
X75713Y108297D02*
X80322D01*
X71400Y45000D02*
X82000Y34400D01*
X164900Y112900D02*
X175500Y102300D01*
X45700Y56300D02*
Y66800D01*
X68485Y29500D02*
X72000Y25985D01*
X44300Y48843D02*
Y54900D01*
X175500Y97900D02*
Y102300D01*
X45700Y66800D02*
X52300Y73400D01*
X149300Y106200D02*
X156000Y112900D01*
X41100Y29500D02*
X68485D01*
X156000Y112900D02*
X164900D01*
X41957Y46500D02*
X44300Y48843D01*
Y54900D02*
X45700Y56300D01*
X30900Y39700D02*
X41100Y29500D01*
X37700Y46500D02*
X41957D01*
X52300Y73400D02*
Y89600D01*
X104150Y71450D02*
X113350D01*
X117800Y135700D02*
X127200Y126300D01*
X142000Y106200D02*
X149300D01*
X56000Y45000D02*
X71400D01*
X45000Y37500D02*
X48500D01*
X56000Y45000D01*
X82000Y17923D02*
Y34400D01*
Y7923D02*
Y17923D01*
X20000Y28800D02*
X29350Y38150D01*
X99825Y75775D02*
X104150Y71450D01*
X92800Y191900D02*
Y192000D01*
Y191900D02*
X106895Y177805D01*
X93410Y112967D02*
X106895Y126452D01*
X107351Y135700D02*
X117800D01*
X106895Y126452D02*
Y131665D01*
Y135244D02*
X107351Y135700D01*
X133100Y115100D02*
X142000Y106200D01*
X127200Y116551D02*
Y126300D01*
X113350Y71450D02*
X121034Y63766D01*
X20000Y20500D02*
Y28800D01*
Y15000D02*
Y17750D01*
X19750Y18000D02*
X20000Y17750D01*
X16500Y18000D02*
X19750D01*
X27800Y39700D02*
X30900D01*
X26500Y41000D02*
X27800Y39700D01*
X30900D02*
Y42100D01*
X29500Y43500D02*
X30900Y42100D01*
X46100Y90500D02*
X51400D01*
X43400Y93200D02*
X46100Y90500D01*
X51400D02*
X52300Y89600D01*
X46500Y101600D02*
X52429Y95671D01*
Y91529D02*
Y95671D01*
X51400Y90500D02*
X52429Y91529D01*
X51400Y90500D02*
Y90500D01*
X38500Y133000D02*
X46500Y125000D01*
Y101600D02*
Y125000D01*
X24800Y189700D02*
X32800D01*
X38500Y133000D02*
Y184000D01*
X22200Y189700D02*
X24800D01*
D66*
X13260Y160984D02*
D03*
Y135000D02*
D03*
D67*
X201900Y7923D02*
D03*
Y17923D02*
D03*
X191900Y7923D02*
D03*
Y17923D02*
D03*
X181900Y7923D02*
D03*
Y17923D02*
D03*
X171900Y7923D02*
D03*
Y17923D02*
D03*
X161900Y7923D02*
D03*
Y17923D02*
D03*
X151900Y7923D02*
D03*
Y17923D02*
D03*
X141900Y7923D02*
D03*
Y17923D02*
D03*
X131900Y7923D02*
D03*
Y17923D02*
D03*
X121900Y7923D02*
D03*
Y17923D02*
D03*
X111900Y7923D02*
D03*
Y17923D02*
D03*
X101900Y7923D02*
D03*
Y17923D02*
D03*
X91900Y7923D02*
D03*
Y17923D02*
D03*
X81900Y7923D02*
D03*
Y17923D02*
D03*
X71900Y7923D02*
D03*
Y17923D02*
D03*
X61900Y7923D02*
D03*
Y17923D02*
D03*
X51900Y7923D02*
D03*
X191900Y179712D02*
D03*
X201900Y169712D02*
D03*
X191900D02*
D03*
X201900Y159712D02*
D03*
X191900D02*
D03*
X201900Y149712D02*
D03*
X191900D02*
D03*
X201900Y139712D02*
D03*
X191900D02*
D03*
X201900Y129712D02*
D03*
X191900D02*
D03*
X201900Y119712D02*
D03*
X191900D02*
D03*
X201900Y109712D02*
D03*
X191900D02*
D03*
X201900Y99712D02*
D03*
X191900D02*
D03*
X201900Y89712D02*
D03*
X191900D02*
D03*
X201900Y79712D02*
D03*
X191900D02*
D03*
X201900Y69712D02*
D03*
X191900D02*
D03*
X201900Y59712D02*
D03*
X191900D02*
D03*
X201900Y49712D02*
D03*
X191900D02*
D03*
X201900Y39712D02*
D03*
X191900D02*
D03*
X201900Y29712D02*
D03*
X191900D02*
D03*
X131900Y201900D02*
D03*
Y191900D02*
D03*
X141900Y201900D02*
D03*
Y191900D02*
D03*
X151900Y201900D02*
D03*
Y191900D02*
D03*
X161900Y201900D02*
D03*
Y191900D02*
D03*
X171900Y201900D02*
D03*
Y191900D02*
D03*
X181900Y201900D02*
D03*
Y191900D02*
D03*
X191900Y201900D02*
D03*
Y191900D02*
D03*
X201900Y201900D02*
D03*
Y191900D02*
D03*
X112800D02*
D03*
Y201900D02*
D03*
X102800Y191900D02*
D03*
Y201900D02*
D03*
X92800Y191900D02*
D03*
Y201900D02*
D03*
D68*
X51900Y17923D02*
D03*
D69*
X201900Y179712D02*
D03*
D70*
X95700Y150300D02*
D03*
X146900Y130500D02*
D03*
X116100Y89000D02*
D03*
X64700Y22400D02*
D03*
X167600Y67700D02*
D03*
X146900Y119800D02*
D03*
X112700Y89100D02*
D03*
X62000Y12923D02*
D03*
X158000Y102400D02*
D03*
X150300Y125100D02*
D03*
X108900Y80023D02*
D03*
X4600Y23000D02*
D03*
X175500Y97900D02*
D03*
X90400Y150300D02*
D03*
X105500Y80023D02*
D03*
X4500Y12200D02*
D03*
X119100Y60600D02*
D03*
X95700Y146900D02*
D03*
X108900Y89100D02*
D03*
X11000Y23000D02*
D03*
X30000Y182000D02*
D03*
X51400Y90500D02*
D03*
X90400Y146900D02*
D03*
X132300Y109100D02*
D03*
X11000Y12200D02*
D03*
X32536Y181179D02*
D03*
X43400Y93200D02*
D03*
X71300Y139100D02*
D03*
X132400Y99900D02*
D03*
X14500Y86200D02*
D03*
X32041Y183984D02*
D03*
X24800Y189700D02*
D03*
X79800Y150300D02*
D03*
X45000Y37500D02*
D03*
X14500Y96700D02*
D03*
X79730Y106268D02*
D03*
X44300Y54900D02*
D03*
X74500Y150300D02*
D03*
X45000Y41000D02*
D03*
X14500Y107200D02*
D03*
X81184Y108297D02*
D03*
X30900Y39700D02*
D03*
X74600Y59600D02*
D03*
X42000Y39500D02*
D03*
X7400Y121100D02*
D03*
X82405Y106214D02*
D03*
X95900Y59500D02*
D03*
X63300Y135900D02*
D03*
X16500Y18000D02*
D03*
X7400Y128300D02*
D03*
X147000Y68900D02*
D03*
Y84800D02*
D03*
X20000Y20500D02*
D03*
X14500Y128300D02*
D03*
X79900Y59600D02*
D03*
X150600Y68900D02*
D03*
X23500Y18000D02*
D03*
X147000Y95400D02*
D03*
X85100Y150300D02*
D03*
X85200Y63000D02*
D03*
X20000Y15000D02*
D03*
X69300Y63000D02*
D03*
X150600Y84800D02*
D03*
X95800Y62900D02*
D03*
X29500Y43500D02*
D03*
X51900Y65200D02*
D03*
X127400Y67400D02*
D03*
X172500Y180400D02*
D03*
X26500Y41000D02*
D03*
X59700Y135900D02*
D03*
X171000Y67700D02*
D03*
X4500Y38000D02*
D03*
X94955Y106169D02*
D03*
X79800Y146900D02*
D03*
X161400Y102400D02*
D03*
X4500Y43600D02*
D03*
X93410Y104489D02*
D03*
X167400Y73100D02*
D03*
X74600Y63000D02*
D03*
X4500Y54600D02*
D03*
X106895Y134929D02*
D03*
X157800Y107700D02*
D03*
X85100Y146900D02*
D03*
X4500Y65300D02*
D03*
X105105Y133454D02*
D03*
X69300Y59600D02*
D03*
X90500Y63000D02*
D03*
X4500Y78000D02*
D03*
X126500Y112500D02*
D03*
X59700Y119703D02*
D03*
X54200Y105400D02*
D03*
X4500Y86200D02*
D03*
X120500Y106500D02*
D03*
X150600Y79500D02*
D03*
Y63500D02*
D03*
X64368Y37492D02*
D03*
X126942Y114883D02*
D03*
X31000Y90500D02*
D03*
X90500Y59600D02*
D03*
X69200Y150400D02*
D03*
X124695Y114046D02*
D03*
X112300Y60500D02*
D03*
X147000Y63500D02*
D03*
X181700Y162000D02*
D03*
X123500Y54500D02*
D03*
X121100Y42500D02*
D03*
X94500Y127100D02*
D03*
X154500Y180800D02*
D03*
X118884Y58265D02*
D03*
X88800Y37100D02*
D03*
X104700Y135700D02*
D03*
X124800Y170500D02*
D03*
X121034Y59203D02*
D03*
X171000Y73100D02*
D03*
X147000Y74200D02*
D03*
X80300Y113100D02*
D03*
X84700Y168500D02*
D03*
X20500Y188000D02*
D03*
X165500Y94100D02*
D03*
X150600Y74200D02*
D03*
X128800Y99900D02*
D03*
X169200Y149200D02*
D03*
X26500Y194000D02*
D03*
X161400Y107700D02*
D03*
X159400Y52900D02*
D03*
X128900Y109100D02*
D03*
X170247Y55847D02*
D03*
X180000Y100500D02*
D03*
X150600Y95400D02*
D03*
X157600Y49700D02*
D03*
X95700Y103900D02*
D03*
X166000Y46200D02*
D03*
X182000Y98000D02*
D03*
X150300Y146400D02*
D03*
X63300Y125100D02*
D03*
X87400Y99900D02*
D03*
X174800Y29600D02*
D03*
X180000Y95500D02*
D03*
X146900Y141100D02*
D03*
X63300Y119703D02*
D03*
X59800Y105400D02*
D03*
X157200Y27100D02*
D03*
X27689Y119886D02*
D03*
X150300Y114500D02*
D03*
X59700Y130300D02*
D03*
X90800Y99900D02*
D03*
X148400Y27000D02*
D03*
X30889Y119886D02*
D03*
X59700Y125100D02*
D03*
X85400Y193000D02*
D03*
X80369Y99900D02*
D03*
X144200Y30100D02*
D03*
X52000Y182000D02*
D03*
X146900Y151700D02*
D03*
X63277Y130400D02*
D03*
X63300Y105400D02*
D03*
X135767Y29867D02*
D03*
X56000Y182000D02*
D03*
X79900Y63000D02*
D03*
X61400Y195800D02*
D03*
X101500Y103900D02*
D03*
X41900Y71300D02*
D03*
X33000Y117000D02*
D03*
X150300Y135800D02*
D03*
X146800Y125100D02*
D03*
X84000Y99900D02*
D03*
X31600Y102000D02*
D03*
X25530Y117053D02*
D03*
X146900Y114500D02*
D03*
X150600Y90100D02*
D03*
X103600Y59500D02*
D03*
X22800Y127500D02*
D03*
X59300Y182000D02*
D03*
X74500Y146900D02*
D03*
X150300Y130500D02*
D03*
X105400Y89100D02*
D03*
X19000Y121300D02*
D03*
X48000Y182000D02*
D03*
X150300Y151700D02*
D03*
X146900Y135800D02*
D03*
X125400Y99900D02*
D03*
X13900Y116400D02*
D03*
X146900Y146400D02*
D03*
X150300Y119800D02*
D03*
X122000Y99900D02*
D03*
X7400Y96700D02*
D03*
X147000Y79500D02*
D03*
Y90100D02*
D03*
X112500Y80100D02*
D03*
X7400Y107200D02*
D03*
M02*
