ISO-10303-21;
HEADER;
FILE_DESCRIPTION (( 'STEP AP214' ),
    '1' );
FILE_NAME ('10.50.40.20.25.STEP',
    '2024-11-08T15:51:36',
    ( 'LENOVO' ),
    ( '' ),
    'SwSTEP 2.0',
    'SolidWorks 2021',
    '' );
FILE_SCHEMA (( 'AUTOMOTIVE_DESIGN' ));
ENDSEC;

DATA;
#1 = LINE ( 'NONE', #387, #8 ) ;
#2 =( NAMED_UNIT ( * ) SI_UNIT ( $, .STERADIAN. ) SOLID_ANGLE_UNIT ( ) );
#3 = SURFACE_STYLE_USAGE ( .BOTH. , #432 ) ;
#4 = PRESENTATION_LAYER_ASSIGNMENT (  '', '', ( #1331 ) ) ;
#5 = PRESENTATION_STYLE_ASSIGNMENT (( #426 ) ) ;
#6 = EDGE_CURVE ( 'NONE', #809, #633, #829, .T. ) ;
#7 = EDGE_CURVE ( 'NONE', #809, #1213, #833, .T. ) ;
#8 = VECTOR ( 'NONE', #1366, 1000.000000000000000 ) ;
#9 = LINE ( 'NONE', #1053, #992 ) ;
#10 = EDGE_CURVE ( 'NONE', #1105, #176, #836, .T. ) ;
#11 = MANIFOLD_SOLID_BREP ( 'Boss-Extrude2', #400 ) ;
#12 = DIRECTION ( 'NONE',  ( 0.000000000000000000, 1.000000000000000000, 0.000000000000000000 ) ) ;
#13 =( NAMED_UNIT ( * ) SI_UNIT ( $, .STERADIAN. ) SOLID_ANGLE_UNIT ( ) );
#14 = VECTOR ( 'NONE', #730, 1000.000000000000000 ) ;
#15 = SURFACE_STYLE_USAGE ( .BOTH. , #1189 ) ;
#16 = SURFACE_STYLE_FILL_AREA ( #100 ) ;
#17 = ADVANCED_FACE ( 'NONE', ( #928 ), #522, .F. ) ;
#18 = FACE_OUTER_BOUND ( 'NONE', #1330, .T. ) ;
#19 = LINE ( 'NONE', #530, #491 ) ;
#20 = LINE ( 'NONE', #219, #964 ) ;
#21 = CARTESIAN_POINT ( 'NONE',  ( 0.2499999999999995837, 0.02000000000000010450, 0.2500000000000000000 ) ) ;
#22 = DIRECTION ( 'NONE',  ( -1.000000000000000000, 0.000000000000000000, 0.000000000000000000 ) ) ;
#23 = VECTOR ( 'NONE', #412, 1000.000000000000000 ) ;
#24 =( NAMED_UNIT ( * ) PLANE_ANGLE_UNIT ( ) SI_UNIT ( $, .RADIAN. ) );
#25 = AXIS2_PLACEMENT_3D ( 'NONE', #1272, #1403, #73 ) ;
#26 = EDGE_CURVE ( 'NONE', #1100, #813, #1398, .T. ) ;
#27 = DIRECTION ( 'NONE',  ( 0.000000000000000000, 0.000000000000000000, -1.000000000000000000 ) ) ;
#28 = ADVANCED_FACE ( 'NONE', ( #900 ), #1211, .F. ) ;
#29 = PLANE ( 'NONE',  #427 ) ;
#30 =( NAMED_UNIT ( * ) PLANE_ANGLE_UNIT ( ) SI_UNIT ( $, .RADIAN. ) );
#31 = VECTOR ( 'NONE', #1151, 1000.000000000000000 ) ;
#32 = DIRECTION ( 'NONE',  ( -1.000000000000000000, 0.000000000000000000, -0.000000000000000000 ) ) ;
#33 = CARTESIAN_POINT ( 'NONE',  ( -0.2999999999999996558, 0.3799999999999998934, 0.2500000000000000000 ) ) ;
#34 = COLOUR_RGB ( '',0.2509803921568627416, 0.2509803921568627416, 0.2509803921568627416 ) ;
#35 = PRESENTATION_STYLE_ASSIGNMENT (( #859 ) ) ;
#36 = DIRECTION ( 'NONE',  ( 1.000000000000000000, 0.000000000000000000, -0.000000000000000000 ) ) ;
#37 = CARTESIAN_POINT ( 'NONE',  ( -0.4799999999999995381, 0.3799999999999998934, -1.275280449438102925 ) ) ;
#38 = DIRECTION ( 'NONE',  ( -0.000000000000000000, 0.000000000000000000, 1.000000000000000000 ) ) ;
#39 = COLOUR_RGB ( '',0.7921568627450980005, 0.8196078431372548767, 0.9333333333333333481 ) ;
#40 = DIRECTION ( 'NONE',  ( 1.000000000000000000, -9.856383386231858827E-17, 0.000000000000000000 ) ) ;
#41 = LINE ( 'NONE', #815, #984 ) ;
#42 = AXIS2_PLACEMENT_3D ( 'NONE', #1021, #1030, #826 ) ;
#43 = PRESENTATION_STYLE_ASSIGNMENT (( #1237 ) ) ;
#44 = EDGE_CURVE ( 'NONE', #423, #715, #454, .T. ) ;
#45 = CARTESIAN_POINT ( 'NONE',  ( 0.2499999999999995837, 0.02000000000000010450, -0.2500000000000000000 ) ) ;
#46 = LINE ( 'NONE', #265, #499 ) ;
#47 = DIRECTION ( 'NONE',  ( 0.000000000000000000, -0.000000000000000000, -1.000000000000000000 ) ) ;
#48 = DIRECTION ( 'NONE',  ( -1.325790700050209484E-16, -1.000000000000000000, 0.000000000000000000 ) ) ;
#49 = LINE ( 'NONE', #336, #533 ) ;
#50 = ADVANCED_FACE ( 'NONE', ( #434 ), #745, .F. ) ;
#51 = LINE ( 'NONE', #473, #534 ) ;
#52 = DIRECTION ( 'NONE',  ( 1.000000000000000000, 0.000000000000000000, 0.000000000000000000 ) ) ;
#53 = VECTOR ( 'NONE', #1102, 1000.000000000000000 ) ;
#54 = FACE_OUTER_BOUND ( 'NONE', #261, .T. ) ;
#55 = LINE ( 'NONE', #552, #1001 ) ;
#56 = MECHANICAL_DESIGN_GEOMETRIC_PRESENTATION_REPRESENTATION (  '', ( #752 ), #127 ) ;
#57 = DIRECTION ( 'NONE',  ( 1.325790700050209484E-16, -1.000000000000000000, 0.000000000000000000 ) ) ;
#58 = CARTESIAN_POINT ( 'NONE',  ( 0.2999999999999997113, 0.3799999999999998934, -0.2500000000000000000 ) ) ;
#59 = DIRECTION ( 'NONE',  ( -1.000000000000000000, 5.421010862427522959E-15, 0.000000000000000000 ) ) ;
#60 = VECTOR ( 'NONE', #12, 1000.000000000000000 ) ;
#61 = PRESENTATION_LAYER_ASSIGNMENT (  '', '', ( #684 ) ) ;
#62 = EDGE_CURVE ( 'NONE', #1293, #378, #475, .T. ) ;
#63 = UNCERTAINTY_MEASURE_WITH_UNIT (LENGTH_MEASURE( 1.000000000000000082E-05 ), #1341, 'distance_accuracy_value', 'NONE');
#64 = VECTOR ( 'NONE', #1007, 1000.000000000000000 ) ;
#65 = VECTOR ( 'NONE', #775, 1000.000000000000000 ) ;
#66 = CARTESIAN_POINT ( 'NONE',  ( 0.4999999999999995559, -6.123233995736762338E-17, -0.2500000000000000000 ) ) ;
#67 = CARTESIAN_POINT ( 'NONE',  ( -0.4799999999999995381, 0.3799999999999998934, 0.2500000000000000000 ) ) ;
#68 = COLOUR_RGB ( '',1.000000000000000000, 1.000000000000000000, 1.000000000000000000 ) ;
#69 = PRODUCT_CONTEXT ( 'NONE', #1357, 'mechanical' ) ;
#70 = CARTESIAN_POINT ( 'NONE',  ( -0.4999999999999995559, -6.123233995736762338E-17, 0.2500000000000000000 ) ) ;
#71 = LINE ( 'NONE', #989, #60 ) ;
#72 = CARTESIAN_POINT ( 'NONE',  ( 0.4799999999999995381, 0.02000000000000007327, -0.2500000000000000000 ) ) ;
#73 = DIRECTION ( 'NONE',  ( -9.856383386231858827E-17, -1.000000000000000000, 0.000000000000000000 ) ) ;
#74 = AXIS2_PLACEMENT_3D ( 'NONE', #848, #759, #880 ) ;
#75 = VECTOR ( 'NONE', #134, 1000.000000000000000 ) ;
#76 = STYLED_ITEM ( 'NONE', ( #1311 ), #11 ) ;
#77 = DIRECTION ( 'NONE',  ( 9.856383386231858827E-17, 1.000000000000000000, -0.000000000000000000 ) ) ;
#78 = CARTESIAN_POINT ( 'NONE',  ( -0.2999999999999997669, 0.3799999999999998934, -0.2500000000000000000 ) ) ;
#79 = EDGE_CURVE ( 'NONE', #1288, #882, #1358, .T. ) ;
#80 = EDGE_CURVE ( 'NONE', #1223, #1260, #461, .T. ) ;
#81 = UNCERTAINTY_MEASURE_WITH_UNIT (LENGTH_MEASURE( 1.000000000000000082E-05 ), #656, 'distance_accuracy_value', 'NONE');
#82 = CARTESIAN_POINT ( 'NONE',  ( -0.2499999999999995837, 0.02000000000000010450, 0.2500000000000000000 ) ) ;
#83 = DIRECTION ( 'NONE',  ( 1.000000000000000000, -0.000000000000000000, -6.776263578034403699E-16 ) ) ;
#84 = SURFACE_STYLE_FILL_AREA ( #1197 ) ;
#85 = LINE ( 'NONE', #183, #1018 ) ;
#86 = DIRECTION ( 'NONE',  ( 0.000000000000000000, 0.000000000000000000, 1.000000000000000000 ) ) ;
#87 = PLANE ( 'NONE',  #1319 ) ;
#88 = CARTESIAN_POINT ( 'NONE',  ( -0.4799999999999995381, 0.02000000000000007327, 0.2500000000000000000 ) ) ;
#89 = AXIS2_PLACEMENT_3D ( 'NONE', #757, #208, #199 ) ;
#90 = CARTESIAN_POINT ( 'NONE',  ( -0.2499999999999995837, 0.000000000000000000, 0.2500000000000000000 ) ) ;
#91 = EDGE_CURVE ( 'NONE', #657, #1168, #1394, .T. ) ;
#92 = DIRECTION ( 'NONE',  ( 0.000000000000000000, 1.000000000000000000, 0.000000000000000000 ) ) ;
#93 = FILL_AREA_STYLE ('',( #1381 ) ) ;
#94 = CARTESIAN_POINT ( 'NONE',  ( -0.3799999999999996714, 0.3799999999999998934, -0.1666666666666665186 ) ) ;
#95 = UNCERTAINTY_MEASURE_WITH_UNIT (LENGTH_MEASURE( 1.000000000000000082E-05 ), #1083, 'distance_accuracy_value', 'NONE');
#96 = LINE ( 'NONE', #1295, #573 ) ;
#97 = SURFACE_SIDE_STYLE ('',( #914 ) ) ;
#98 = COLOUR_RGB ( '',0.2509803921568627416, 0.2509803921568627416, 0.2509803921568627416 ) ;
#99 = DIRECTION ( 'NONE',  ( -0.000000000000000000, -0.000000000000000000, -1.000000000000000000 ) ) ;
#100 = FILL_AREA_STYLE ('',( #591 ) ) ;
#101 = DIRECTION ( 'NONE',  ( -0.000000000000000000, -0.000000000000000000, -1.000000000000000000 ) ) ;
#102 = COLOUR_RGB ( '',0.2509803921568627416, 0.2509803921568627416, 0.2509803921568627416 ) ;
#103 = DIRECTION ( 'NONE',  ( 0.000000000000000000, 1.000000000000000000, 0.000000000000000000 ) ) ;
#104 = CARTESIAN_POINT ( 'NONE',  ( -0.4799999999999995381, 0.02000000000000007327, -0.2500000000000000000 ) ) ;
#105 = ADVANCED_FACE ( 'NONE', ( #906 ), #874, .T. ) ;
#106 = CARTESIAN_POINT ( 'NONE',  ( -0.2999999999999996003, 0.3799999999999998934, 0.1666666666666666297 ) ) ;
#107 = PRESENTATION_LAYER_ASSIGNMENT (  '', '', ( #371 ) ) ;
#108 = LINE ( 'NONE', #532, #1061 ) ;
#109 = PRESENTATION_STYLE_ASSIGNMENT (( #15 ) ) ;
#110 = EDGE_CURVE ( 'NONE', #227, #200, #1380, .T. ) ;
#111 = CARTESIAN_POINT ( 'NONE',  ( 0.4799999999999995381, 0.02000000000000007327, 0.2500000000000000000 ) ) ;
#112 = DIRECTION ( 'NONE',  ( 6.776263578034402713E-16, -6.678945175126634464E-32, 1.000000000000000000 ) ) ;
#113 =( NAMED_UNIT ( * ) SI_UNIT ( $, .STERADIAN. ) SOLID_ANGLE_UNIT ( ) );
#114 = PRESENTATION_STYLE_ASSIGNMENT (( #929 ) ) ;
#115 =( NAMED_UNIT ( * ) SI_UNIT ( $, .STERADIAN. ) SOLID_ANGLE_UNIT ( ) );
#116 =( NAMED_UNIT ( * ) SI_UNIT ( $, .STERADIAN. ) SOLID_ANGLE_UNIT ( ) );
#117 = VECTOR ( 'NONE', #22, 1000.000000000000000 ) ;
#118 = VECTOR ( 'NONE', #1228, 1000.000000000000000 ) ;
#119 =( NAMED_UNIT ( * ) PLANE_ANGLE_UNIT ( ) SI_UNIT ( $, .RADIAN. ) );
#120 = FACE_OUTER_BOUND ( 'NONE', #816, .T. ) ;
#121 = LINE ( 'NONE', #800, #1077 ) ;
#122 = DIRECTION ( 'NONE',  ( -1.000000000000000000, 0.000000000000000000, -0.000000000000000000 ) ) ;
#123 = FILL_AREA_STYLE_COLOUR ( '', #34 ) ;
#124 = LINE ( 'NONE', #1383, #163 ) ;
#125 = CARTESIAN_POINT ( 'NONE',  ( 0.4999999999999995559, 0.3999999999999999112, 0.2500000000000000000 ) ) ;
#126 = VECTOR ( 'NONE', #220, 1000.000000000000000 ) ;
#127 =( GEOMETRIC_REPRESENTATION_CONTEXT ( 3 ) GLOBAL_UNCERTAINTY_ASSIGNED_CONTEXT ( ( #579 ) ) GLOBAL_UNIT_ASSIGNED_CONTEXT ( ( #549, #982, #116 ) ) REPRESENTATION_CONTEXT ( 'NONE', 'WORKASPACE' ) );
#128 = LINE ( 'NONE', #1058, #136 ) ;
#129 = DIRECTION ( 'NONE',  ( 0.000000000000000000, -1.000000000000000000, 0.000000000000000000 ) ) ;
#130 = FACE_OUTER_BOUND ( 'NONE', #701, .T. ) ;
#131 = EDGE_CURVE ( 'NONE', #727, #827, #912, .T. ) ;
#132 = ADVANCED_FACE ( 'NONE', ( #938 ), #541, .F. ) ;
#133 = SURFACE_STYLE_FILL_AREA ( #359 ) ;
#134 = DIRECTION ( 'NONE',  ( 0.000000000000000000, 1.000000000000000000, 0.000000000000000000 ) ) ;
#135 = LINE ( 'NONE', #259, #1076 ) ;
#136 = VECTOR ( 'NONE', #407, 1000.000000000000000 ) ;
#137 = DIRECTION ( 'NONE',  ( 0.000000000000000000, -0.000000000000000000, 1.000000000000000000 ) ) ;
#138 = FACE_OUTER_BOUND ( 'NONE', #334, .T. ) ;
#139 = SURFACE_SIDE_STYLE ('',( #979 ) ) ;
#140 = VECTOR ( 'NONE', #101, 1000.000000000000000 ) ;
#141 = FACE_OUTER_BOUND ( 'NONE', #318, .T. ) ;
#142 = FACE_OUTER_BOUND ( 'NONE', #234, .T. ) ;
#143 = VECTOR ( 'NONE', #488, 1000.000000000000000 ) ;
#144 = CARTESIAN_POINT ( 'NONE',  ( -0.4799999999999995381, 0.3799999999999998934, -0.2500000000000000000 ) ) ;
#145 = ADVANCED_FACE ( 'NONE', ( #1402 ), #1002, .F. ) ;
#146 = LINE ( 'NONE', #626, #140 ) ;
#147 = MECHANICAL_DESIGN_GEOMETRIC_PRESENTATION_REPRESENTATION (  '', ( #1368 ), #855 ) ;
#148 = FACE_OUTER_BOUND ( 'NONE', #1128, .T. ) ;
#149 = VECTOR ( 'NONE', #940, 1000.000000000000000 ) ;
#150 = STYLED_ITEM ( 'NONE', ( #1362 ), #184 ) ;
#151 = DIRECTION ( 'NONE',  ( 0.000000000000000000, 0.000000000000000000, 1.000000000000000000 ) ) ;
#152 = EDGE_CURVE ( 'NONE', #1168, #176, #446, .T. ) ;
#153 = VECTOR ( 'NONE', #703, 1000.000000000000000 ) ;
#154 = SURFACE_STYLE_FILL_AREA ( #238 ) ;
#155 = FACE_OUTER_BOUND ( 'NONE', #222, .T. ) ;
#156 = DIRECTION ( 'NONE',  ( 2.168404344971008868E-16, 0.000000000000000000, -1.000000000000000000 ) ) ;
#157 = FACE_OUTER_BOUND ( 'NONE', #179, .T. ) ;
#158 =( NAMED_UNIT ( * ) PLANE_ANGLE_UNIT ( ) SI_UNIT ( $, .RADIAN. ) );
#159 = CARTESIAN_POINT ( 'NONE',  ( -0.4799999999999995381, 0.02000000000000007327, -1.275280449438102925 ) ) ;
#160 = COLOUR_RGB ( '',1.000000000000000000, 1.000000000000000000, 1.000000000000000000 ) ;
#161 = PLANE ( 'NONE',  #1070 ) ;
#162 =( LENGTH_UNIT ( ) NAMED_UNIT ( * ) SI_UNIT ( .MILLI., .METRE. ) );
#163 = VECTOR ( 'NONE', #1039, 1000.000000000000000 ) ;
#164 =( GEOMETRIC_REPRESENTATION_CONTEXT ( 3 ) GLOBAL_UNCERTAINTY_ASSIGNED_CONTEXT ( ( #566 ) ) GLOBAL_UNIT_ASSIGNED_CONTEXT ( ( #915, #494, #275 ) ) REPRESENTATION_CONTEXT ( 'NONE', 'WORKASPACE' ) );
#165 = ORIENTED_EDGE ( 'NONE', *, *, #1337, .T. ) ;
#166 = PLANE ( 'NONE',  #42 ) ;
#167 = EDGE_LOOP ( 'NONE', ( #1254, #767, #784, #896 ) ) ;
#168 = UNCERTAINTY_MEASURE_WITH_UNIT (LENGTH_MEASURE( 1.000000000000000082E-05 ), #327, 'distance_accuracy_value', 'NONE');
#169 = ORIENTED_EDGE ( 'NONE', *, *, #1009, .F. ) ;
#170 = CARTESIAN_POINT ( 'NONE',  ( -0.3799999999999995604, 0.3999999999999999112, 0.2500000000000000000 ) ) ;
#171 = CARTESIAN_POINT ( 'NONE',  ( 0.4999999999999995559, -6.123233995736762338E-17, 0.2500000000000000000 ) ) ;
#172 = EDGE_LOOP ( 'NONE', ( #740, #396, #803, #254 ) ) ;
#173 = CARTESIAN_POINT ( 'NONE',  ( 0.3800000000000001155, 0.3799999999999997824, 0.2499999999999998890 ) ) ;
#174 = ORIENTED_EDGE ( 'NONE', *, *, #805, .F. ) ;
#175 = MECHANICAL_DESIGN_GEOMETRIC_PRESENTATION_REPRESENTATION (  '', ( #903 ), #505 ) ;
#176 = VERTEX_POINT ( 'NONE', #245 ) ;
#177 = DIRECTION ( 'NONE',  ( 0.000000000000000000, -1.000000000000000000, -0.000000000000000000 ) ) ;
#178 = STYLED_ITEM ( 'NONE', ( #1012 ), #526 ) ;
#179 = EDGE_LOOP ( 'NONE', ( #851, #1188, #1234, #1338 ) ) ;
#180 = EDGE_CURVE ( 'NONE', #227, #849, #947, .T. ) ;
#181 = DIRECTION ( 'NONE',  ( -0.000000000000000000, -0.000000000000000000, -1.000000000000000000 ) ) ;
#182 = VERTEX_POINT ( 'NONE', #807 ) ;
#183 = CARTESIAN_POINT ( 'NONE',  ( 0.2499999999999995837, 0.000000000000000000, 0.2500000000000000000 ) ) ;
#184 = MANIFOLD_SOLID_BREP ( 'Cut-Extrude1[2]', #774 ) ;
#185 = VERTEX_POINT ( 'NONE', #1252 ) ;
#186 = DIRECTION ( 'NONE',  ( 0.000000000000000000, 1.000000000000000000, 0.000000000000000000 ) ) ;
#187 =( LENGTH_UNIT ( ) NAMED_UNIT ( * ) SI_UNIT ( .MILLI., .METRE. ) );
#188 = PLANE ( 'NONE',  #1385 ) ;
#189 = ORIENTED_EDGE ( 'NONE', *, *, #1098, .F. ) ;
#190 = ORIENTED_EDGE ( 'NONE', *, *, #211, .F. ) ;
#191 = PRODUCT_DEFINITION_FORMATION_WITH_SPECIFIED_SOURCE ( 'ANY', '', #1164, .NOT_KNOWN. ) ;
#192 = VERTEX_POINT ( 'NONE', #45 ) ;
#193 = CARTESIAN_POINT ( 'NONE',  ( 0.3000000000000000444, 0.3799999999999997824, -0.1666666666666666297 ) ) ;
#194 = CARTESIAN_POINT ( 'NONE',  ( -0.2999999999999996558, -0.4010249675906649713, 0.2500000000000000000 ) ) ;
#195 = EDGE_CURVE ( 'NONE', #335, #755, #46, .T. ) ;
#196 = ADVANCED_FACE ( 'NONE', ( #971 ), #166, .F. ) ;
#197 = ORIENTED_EDGE ( 'NONE', *, *, #980, .T. ) ;
#198 = CARTESIAN_POINT ( 'NONE',  ( -0.4999999999999995559, 0.3999999999999999112, 0.2500000000000000000 ) ) ;
#199 = DIRECTION ( 'NONE',  ( 0.000000000000000000, 0.000000000000000000, -1.000000000000000000 ) ) ;
#200 = VERTEX_POINT ( 'NONE', #383 ) ;
#201 = ORIENTED_EDGE ( 'NONE', *, *, #324, .F. ) ;
#202 = CARTESIAN_POINT ( 'NONE',  ( 0.3000000000000000444, 0.3799999999999997824, -0.1666666666666666297 ) ) ;
#203 = DIRECTION ( 'NONE',  ( 1.000000000000000000, 0.000000000000000000, 0.000000000000000000 ) ) ;
#204 = ORIENTED_EDGE ( 'NONE', *, *, #1095, .T. ) ;
#205 = DIRECTION ( 'NONE',  ( 1.807003620809176604E-16, 1.000000000000000000, -3.918314502740964016E-32 ) ) ;
#206 = CARTESIAN_POINT ( 'NONE',  ( 0.3800000000000001155, 0.3799999999999997824, 0.1666666666666665186 ) ) ;
#207 = ORIENTED_EDGE ( 'NONE', *, *, #6, .F. ) ;
#208 = DIRECTION ( 'NONE',  ( 1.000000000000000000, 0.000000000000000000, 0.000000000000000000 ) ) ;
#209 =( GEOMETRIC_REPRESENTATION_CONTEXT ( 3 ) GLOBAL_UNCERTAINTY_ASSIGNED_CONTEXT ( ( #235 ) ) GLOBAL_UNIT_ASSIGNED_CONTEXT ( ( #571, #158, #115 ) ) REPRESENTATION_CONTEXT ( 'NONE', 'WORKASPACE' ) );
#210 = VERTEX_POINT ( 'NONE', #377 ) ;
#211 = EDGE_CURVE ( 'NONE', #697, #1288, #512, .T. ) ;
#212 = EDGE_CURVE ( 'NONE', #1168, #398, #41, .T. ) ;
#213 = ORIENTED_EDGE ( 'NONE', *, *, #324, .T. ) ;
#214 = DIRECTION ( 'NONE',  ( 0.000000000000000000, 0.000000000000000000, 1.000000000000000000 ) ) ;
#215 = FILL_AREA_STYLE_COLOUR ( '', #460 ) ;
#216 = VERTEX_POINT ( 'NONE', #481 ) ;
#217 = DIRECTION ( 'NONE',  ( 1.000000000000000000, -0.000000000000000000, -0.000000000000000000 ) ) ;
#218 = ORIENTED_EDGE ( 'NONE', *, *, #1271, .F. ) ;
#219 = CARTESIAN_POINT ( 'NONE',  ( -0.3799999999999996714, 0.3799999999999998934, -0.2499999999999998890 ) ) ;
#220 = DIRECTION ( 'NONE',  ( 1.000000000000000000, 2.449293598294704935E-16, -0.000000000000000000 ) ) ;
#221 = ORIENTED_EDGE ( 'NONE', *, *, #510, .F. ) ;
#222 = EDGE_LOOP ( 'NONE', ( #824, #1172, #1243, #713 ) ) ;
#223 = PLANE ( 'NONE',  #321 ) ;
#224 = DIRECTION ( 'NONE',  ( 0.000000000000000000, -1.000000000000000000, 0.000000000000000000 ) ) ;
#225 = CLOSED_SHELL ( 'NONE', ( #1291, #958, #50, #28, #1094, #132, #196, #457, #1104, #628, #574, #442, #145, #660 ) ) ;
#226 = CARTESIAN_POINT ( 'NONE',  ( -0.4799999999999995381, 0.3799999999999998934, 0.2500000000000000000 ) ) ;
#227 = VERTEX_POINT ( 'NONE', #597 ) ;
#228 = MECHANICAL_DESIGN_GEOMETRIC_PRESENTATION_REPRESENTATION (  '', ( #1008 ), #1190 ) ;
#229 = EDGE_CURVE ( 'NONE', #697, #227, #986, .T. ) ;
#230 = SURFACE_STYLE_USAGE ( .BOTH. , #1307 ) ;
#231 = ORIENTED_EDGE ( 'NONE', *, *, #131, .F. ) ;
#232 = FILL_AREA_STYLE ('',( #123 ) ) ;
#233 = ADVANCED_FACE ( 'NONE', ( #537 ), #1219, .T. ) ;
#234 = EDGE_LOOP ( 'NONE', ( #663, #169, #825, #1140 ) ) ;
#235 = UNCERTAINTY_MEASURE_WITH_UNIT (LENGTH_MEASURE( 1.000000000000000082E-05 ), #571, 'distance_accuracy_value', 'NONE');
#236 = ORIENTED_EDGE ( 'NONE', *, *, #1294, .F. ) ;
#237 = VERTEX_POINT ( 'NONE', #285 ) ;
#238 = FILL_AREA_STYLE ('',( #1321 ) ) ;
#239 = ORIENTED_EDGE ( 'NONE', *, *, #486, .T. ) ;
#240 = SURFACE_SIDE_STYLE ('',( #527 ) ) ;
#241 = SURFACE_SIDE_STYLE ('',( #846 ) ) ;
#242 = ORIENTED_EDGE ( 'NONE', *, *, #212, .F. ) ;
#243 = MECHANICAL_DESIGN_GEOMETRIC_PRESENTATION_REPRESENTATION (  '', ( #957 ), #337 ) ;
#244 = VERTEX_POINT ( 'NONE', #389 ) ;
#245 = CARTESIAN_POINT ( 'NONE',  ( -0.2999999999999997113, 0.3999999999999999667, -0.1666666666666665741 ) ) ;
#246 = AXIS2_PLACEMENT_3D ( 'NONE', #766, #585, #32 ) ;
#247 = EDGE_LOOP ( 'NONE', ( #1116, #738, #276, #782 ) ) ;
#248 = EDGE_CURVE ( 'NONE', #662, #820, #506, .T. ) ;
#249 = FILL_AREA_STYLE ('',( #692 ) ) ;
#250 = CARTESIAN_POINT ( 'NONE',  ( -0.3799999999999996714, 0.3799999999999998934, -0.2500000000000000000 ) ) ;
#251 = ORIENTED_EDGE ( 'NONE', *, *, #841, .F. ) ;
#252 = CARTESIAN_POINT ( 'NONE',  ( 0.2999999999999996558, -0.4010249675906650824, -0.2500000000000000000 ) ) ;
#253 = DIRECTION ( 'NONE',  ( 0.000000000000000000, 0.000000000000000000, 1.000000000000000000 ) ) ;
#254 = ORIENTED_EDGE ( 'NONE', *, *, #907, .T. ) ;
#255 = CARTESIAN_POINT ( 'NONE',  ( -0.4999999999999995559, 0.3999999999999999112, 0.2500000000000000000 ) ) ;
#256 = ORIENTED_EDGE ( 'NONE', *, *, #599, .T. ) ;
#257 = ORIENTED_EDGE ( 'NONE', *, *, #1255, .F. ) ;
#258 = DIRECTION ( 'NONE',  ( -2.449293598294704935E-16, 1.000000000000000000, 0.000000000000000000 ) ) ;
#259 = CARTESIAN_POINT ( 'NONE',  ( 0.4799999999999995381, 0.3799999999999998934, -0.2500000000000000000 ) ) ;
#260 = ORIENTED_EDGE ( 'NONE', *, *, #152, .F. ) ;
#261 = EDGE_LOOP ( 'NONE', ( #760, #379, #288, #256 ) ) ;
#262 = PRESENTATION_LAYER_ASSIGNMENT (  '', '', ( #903 ) ) ;
#263 = STYLED_ITEM ( 'NONE', ( #464 ), #105 ) ;
#264 = ORIENTED_EDGE ( 'NONE', *, *, #1209, .F. ) ;
#265 = CARTESIAN_POINT ( 'NONE',  ( 0.2499999999999995837, 0.000000000000000000, -0.2500000000000000000 ) ) ;
#266 = EDGE_CURVE ( 'NONE', #182, #1293, #51, .T. ) ;
#267 = EDGE_CURVE ( 'NONE', #715, #809, #975, .T. ) ;
#268 = VERTEX_POINT ( 'NONE', #1015 ) ;
#269 = ADVANCED_FACE ( 'NONE', ( #523 ), #316, .T. ) ;
#270 =( NAMED_UNIT ( * ) SI_UNIT ( $, .STERADIAN. ) SOLID_ANGLE_UNIT ( ) );
#271 = ORIENTED_EDGE ( 'NONE', *, *, #965, .F. ) ;
#272 = ORIENTED_EDGE ( 'NONE', *, *, #469, .F. ) ;
#273 = DIRECTION ( 'NONE',  ( 9.856383386231858827E-17, 1.000000000000000000, 0.000000000000000000 ) ) ;
#274 = ORIENTED_EDGE ( 'NONE', *, *, #907, .F. ) ;
#275 =( NAMED_UNIT ( * ) SI_UNIT ( $, .STERADIAN. ) SOLID_ANGLE_UNIT ( ) );
#276 = ORIENTED_EDGE ( 'NONE', *, *, #1323, .T. ) ;
#277 = DIRECTION ( 'NONE',  ( 1.000000000000000000, 1.325790700050209484E-16, 0.000000000000000000 ) ) ;
#278 = CARTESIAN_POINT ( 'NONE',  ( -0.2499999999999995837, 0.000000000000000000, -0.2500000000000000000 ) ) ;
#279 = ORIENTED_EDGE ( 'NONE', *, *, #392, .F. ) ;
#280 = CARTESIAN_POINT ( 'NONE',  ( -0.3799999999999996714, 0.3799999999999998934, -0.1666666666666665186 ) ) ;
#281 = STYLED_ITEM ( 'NONE', ( #559 ), #482 ) ;
#282 = VERTEX_POINT ( 'NONE', #414 ) ;
#283 = EDGE_CURVE ( 'NONE', #1327, #335, #990, .T. ) ;
#284 = ORIENTED_EDGE ( 'NONE', *, *, #685, .T. ) ;
#285 = CARTESIAN_POINT ( 'NONE',  ( 0.3000000000000001554, 0.3999999999999998557, 0.1666666666666665741 ) ) ;
#286 = EDGE_LOOP ( 'NONE', ( #213, #801, #204, #1123 ) ) ;
#287 = SURFACE_SIDE_STYLE ('',( #1352 ) ) ;
#288 = ORIENTED_EDGE ( 'NONE', *, *, #789, .F. ) ;
#289 = DIRECTION ( 'NONE',  ( 9.856383386231858827E-17, 1.000000000000000000, -0.000000000000000000 ) ) ;
#290 = APPLICATION_CONTEXT ( 'automotive_design' ) ;
#291 = DIRECTION ( 'NONE',  ( 1.000000000000000000, -0.000000000000000000, 0.000000000000000000 ) ) ;
#292 = ORIENTED_EDGE ( 'NONE', *, *, #7, .T. ) ;
#293 = CARTESIAN_POINT ( 'NONE',  ( -0.4799999999999995381, 0.3799999999999998934, -1.275280449438102925 ) ) ;
#294 = CARTESIAN_POINT ( 'NONE',  ( 0.000000000000000000, 0.000000000000000000, -0.2500000000000000000 ) ) ;
#295 = ORIENTED_EDGE ( 'NONE', *, *, #62, .F. ) ;
#296 =( NAMED_UNIT ( * ) PLANE_ANGLE_UNIT ( ) SI_UNIT ( $, .RADIAN. ) );
#297 = ORIENTED_EDGE ( 'NONE', *, *, #704, .T. ) ;
#298 = CARTESIAN_POINT ( 'NONE',  ( -0.4799999999999995381, 0.3799999999999998934, 0.2500000000000000000 ) ) ;
#299 = CARTESIAN_POINT ( 'NONE',  ( 0.4799999999999995381, 0.3799999999999998934, 0.2500000000000000000 ) ) ;
#300 = VERTEX_POINT ( 'NONE', #1305 ) ;
#301 = PLANE ( 'NONE',  #700 ) ;
#302 = PRESENTATION_LAYER_ASSIGNMENT (  '', '', ( #281 ) ) ;
#303 = EDGE_CURVE ( 'NONE', #355, #378, #953, .T. ) ;
#304 = VERTEX_POINT ( 'NONE', #1367 ) ;
#305 = ORIENTED_EDGE ( 'NONE', *, *, #342, .F. ) ;
#306 = CARTESIAN_POINT ( 'NONE',  ( 0.2999999999999996003, 0.3999999999999999112, 0.2500000000000000000 ) ) ;
#307 = SURFACE_SIDE_STYLE ('',( #602 ) ) ;
#308 = ORIENTED_EDGE ( 'NONE', *, *, #385, .T. ) ;
#309 = DIRECTION ( 'NONE',  ( -6.776263578034402713E-16, 6.678945175126634464E-32, -1.000000000000000000 ) ) ;
#310 = DIRECTION ( 'NONE',  ( 9.856383386231858827E-17, 1.000000000000000000, 0.000000000000000000 ) ) ;
#311 = VERTEX_POINT ( 'NONE', #613 ) ;
#312 = DIRECTION ( 'NONE',  ( -5.421010862427522959E-15, -1.000000000000000000, 0.000000000000000000 ) ) ;
#313 = DIRECTION ( 'NONE',  ( -1.000000000000000000, 9.856383386231858827E-17, 0.000000000000000000 ) ) ;
#314 = EDGE_LOOP ( 'NONE', ( #1356, #893, #369, #1206 ) ) ;
#315 = ORIENTED_EDGE ( 'NONE', *, *, #637, .F. ) ;
#316 = PLANE ( 'NONE',  #89 ) ;
#317 = AXIS2_PLACEMENT_3D ( 'NONE', #702, #309, #810 ) ;
#318 = EDGE_LOOP ( 'NONE', ( #231, #644, #725, #763, #1125, #1282, #1112, #1244 ) ) ;
#319 = SURFACE_SIDE_STYLE ('',( #517 ) ) ;
#320 = CARTESIAN_POINT ( 'NONE',  ( 0.2499999999999995837, 0.000000000000000000, 0.2500000000000000000 ) ) ;
#321 = AXIS2_PLACEMENT_3D ( 'NONE', #883, #459, #554 ) ;
#322 = ORIENTED_EDGE ( 'NONE', *, *, #704, .F. ) ;
#323 = CARTESIAN_POINT ( 'NONE',  ( 0.3800000000000001155, 0.3799999999999997824, 0.2499999999999998890 ) ) ;
#324 = EDGE_CURVE ( 'NONE', #1220, #820, #9, .T. ) ;
#325 = ORIENTED_EDGE ( 'NONE', *, *, #653, .F. ) ;
#326 = ORIENTED_EDGE ( 'NONE', *, *, #1192, .T. ) ;
#327 =( LENGTH_UNIT ( ) NAMED_UNIT ( * ) SI_UNIT ( .MILLI., .METRE. ) );
#328 = DIRECTION ( 'NONE',  ( 0.000000000000000000, -0.000000000000000000, 1.000000000000000000 ) ) ;
#329 = ORIENTED_EDGE ( 'NONE', *, *, #1371, .T. ) ;
#330 = CARTESIAN_POINT ( 'NONE',  ( 0.3800000000000000044, 0.3799999999999997824, -0.2500000000000000000 ) ) ;
#331 = CARTESIAN_POINT ( 'NONE',  ( 0.2499999999999995837, 0.02000000000000010450, 0.2500000000000000000 ) ) ;
#332 = ORIENTED_EDGE ( 'NONE', *, *, #448, .F. ) ;
#333 = CARTESIAN_POINT ( 'NONE',  ( -0.2999999999999997113, 0.3999999999999999667, -0.2500000000000000000 ) ) ;
#334 = EDGE_LOOP ( 'NONE', ( #1212, #1249, #1135, #638 ) ) ;
#335 = VERTEX_POINT ( 'NONE', #834 ) ;
#336 = CARTESIAN_POINT ( 'NONE',  ( -0.4799999999999995381, 0.3799999999999998934, 0.2500000000000000000 ) ) ;
#337 =( GEOMETRIC_REPRESENTATION_CONTEXT ( 3 ) GLOBAL_UNCERTAINTY_ASSIGNED_CONTEXT ( ( #502 ) ) GLOBAL_UNIT_ASSIGNED_CONTEXT ( ( #162, #489, #682 ) ) REPRESENTATION_CONTEXT ( 'NONE', 'WORKASPACE' ) );
#338 = PLANE ( 'NONE',  #864 ) ;
#339 = PLANE ( 'NONE',  #1169 ) ;
#340 =( GEOMETRIC_REPRESENTATION_CONTEXT ( 3 ) GLOBAL_UNCERTAINTY_ASSIGNED_CONTEXT ( ( #808 ) ) GLOBAL_UNIT_ASSIGNED_CONTEXT ( ( #1193, #119, #557 ) ) REPRESENTATION_CONTEXT ( 'NONE', 'WORKASPACE' ) );
#341 = ORIENTED_EDGE ( 'NONE', *, *, #303, .F. ) ;
#342 = EDGE_CURVE ( 'NONE', #1183, #185, #49, .T. ) ;
#343 = ORIENTED_EDGE ( 'NONE', *, *, #1152, .F. ) ;
#344 = DIRECTION ( 'NONE',  ( -1.000000000000000000, -1.325790700050209484E-16, 0.000000000000000000 ) ) ;
#345 = ORIENTED_EDGE ( 'NONE', *, *, #889, .F. ) ;
#346 = EDGE_LOOP ( 'NONE', ( #812, #642, #1278, #1138 ) ) ;
#347 =( NAMED_UNIT ( * ) PLANE_ANGLE_UNIT ( ) SI_UNIT ( $, .RADIAN. ) );
#348 = CARTESIAN_POINT ( 'NONE',  ( 0.000000000000000000, 0.000000000000000000, -0.2500000000000000000 ) ) ;
#349 = UNCERTAINTY_MEASURE_WITH_UNIT (LENGTH_MEASURE( 1.000000000000000082E-05 ), #783, 'distance_accuracy_value', 'NONE');
#350 = ORIENTED_EDGE ( 'NONE', *, *, #6, .T. ) ;
#351 = ORIENTED_EDGE ( 'NONE', *, *, #1152, .T. ) ;
#352 = ORIENTED_EDGE ( 'NONE', *, *, #842, .T. ) ;
#353 = ADVANCED_FACE ( 'NONE', ( #54 ), #543, .F. ) ;
#354 = AXIS2_PLACEMENT_3D ( 'NONE', #1325, #38, #52 ) ;
#355 = VERTEX_POINT ( 'NONE', #88 ) ;
#356 =( GEOMETRIC_REPRESENTATION_CONTEXT ( 3 ) GLOBAL_UNCERTAINTY_ASSIGNED_CONTEXT ( ( #1369 ) ) GLOBAL_UNIT_ASSIGNED_CONTEXT ( ( #794, #943, #1147 ) ) REPRESENTATION_CONTEXT ( 'NONE', 'WORKASPACE' ) );
#357 = ORIENTED_EDGE ( 'NONE', *, *, #655, .T. ) ;
#358 = SURFACE_STYLE_USAGE ( .BOTH. , #241 ) ;
#359 = FILL_AREA_STYLE ('',( #1117 ) ) ;
#360 = ORIENTED_EDGE ( 'NONE', *, *, #1323, .F. ) ;
#361 = ORIENTED_EDGE ( 'NONE', *, *, #44, .T. ) ;
#362 =( NAMED_UNIT ( * ) SI_UNIT ( $, .STERADIAN. ) SOLID_ANGLE_UNIT ( ) );
#363 = ORIENTED_EDGE ( 'NONE', *, *, #80, .T. ) ;
#364 = ADVANCED_FACE ( 'NONE', ( #956 ), #1389, .F. ) ;
#365 =( LENGTH_UNIT ( ) NAMED_UNIT ( * ) SI_UNIT ( .MILLI., .METRE. ) );
#366 = DIRECTION ( 'NONE',  ( -1.000000000000000000, 0.000000000000000000, 0.000000000000000000 ) ) ;
#367 = ORIENTED_EDGE ( 'NONE', *, *, #965, .T. ) ;
#368 = CARTESIAN_POINT ( 'NONE',  ( 0.4799999999999995381, 0.02000000000000007327, 0.2500000000000000000 ) ) ;
#369 = ORIENTED_EDGE ( 'NONE', *, *, #448, .T. ) ;
#370 = ORIENTED_EDGE ( 'NONE', *, *, #589, .T. ) ;
#371 = STYLED_ITEM ( 'NONE', ( #35 ), #269 ) ;
#372 = EDGE_LOOP ( 'NONE', ( #658, #325, #646, #251 ) ) ;
#373 = EDGE_CURVE ( 'NONE', #849, #1327, #55, .T. ) ;
#374 = DIRECTION ( 'NONE',  ( -1.000000000000000000, 0.000000000000000000, 0.000000000000000000 ) ) ;
#375 = VECTOR ( 'NONE', #515, 1000.000000000000000 ) ;
#376 = ORIENTED_EDGE ( 'NONE', *, *, #867, .T. ) ;
#377 = CARTESIAN_POINT ( 'NONE',  ( -0.4999999999999995559, 0.3999999999999999112, -0.2500000000000000000 ) ) ;
#378 = VERTEX_POINT ( 'NONE', #654 ) ;
#379 = ORIENTED_EDGE ( 'NONE', *, *, #842, .F. ) ;
#380 = EDGE_LOOP ( 'NONE', ( #1335, #284, #305, #410, #709, #308, #723, #780 ) ) ;
#381 = MECHANICAL_DESIGN_GEOMETRIC_PRESENTATION_REPRESENTATION (  '', ( #1331 ), #1203 ) ;
#382 = ORIENTED_EDGE ( 'NONE', *, *, #1294, .T. ) ;
#383 = CARTESIAN_POINT ( 'NONE',  ( 0.3800000000000001155, 0.3999999999999998557, 0.1666666666666665186 ) ) ;
#384 = EDGE_CURVE ( 'NONE', #793, #182, #19, .T. ) ;
#385 = EDGE_CURVE ( 'NONE', #640, #832, #20, .T. ) ;
#386 = DIRECTION ( 'NONE',  ( 0.000000000000000000, 0.000000000000000000, -1.000000000000000000 ) ) ;
#387 = CARTESIAN_POINT ( 'NONE',  ( 0.2499999999999995837, 0.02000000000000010450, 0.2500000000000000000 ) ) ;
#388 = CARTESIAN_POINT ( 'NONE',  ( 0.3000000000000001554, 0.3799999999999997824, 0.1666666666666665741 ) ) ;
#389 = CARTESIAN_POINT ( 'NONE',  ( 0.4799999999999995381, 0.02000000000000007327, 0.2500000000000000000 ) ) ;
#390 = DIRECTION ( 'NONE',  ( 1.000000000000000000, -0.000000000000000000, -6.776263578034403699E-16 ) ) ;
#391 = PRESENTATION_LAYER_ASSIGNMENT (  '', '', ( #178 ) ) ;
#392 = EDGE_CURVE ( 'NONE', #1260, #176, #496, .T. ) ;
#393 = AXIS2_PLACEMENT_3D ( 'NONE', #198, #129, #641 ) ;
#394 = DIRECTION ( 'NONE',  ( 5.421010862427522959E-15, -1.000000000000000000, 0.000000000000000000 ) ) ;
#395 = EDGE_CURVE ( 'NONE', #1288, #200, #96, .T. ) ;
#396 = ORIENTED_EDGE ( 'NONE', *, *, #384, .F. ) ;
#397 = DIRECTION ( 'NONE',  ( 1.000000000000000000, -1.807003620809176604E-16, 0.000000000000000000 ) ) ;
#398 = VERTEX_POINT ( 'NONE', #987 ) ;
#399 = DIRECTION ( 'NONE',  ( -0.000000000000000000, -0.000000000000000000, -1.000000000000000000 ) ) ;
#400 = CLOSED_SHELL ( 'NONE', ( #1235, #482, #861, #269, #847, #974 ) ) ;
#401 = ORIENTED_EDGE ( 'NONE', *, *, #131, .T. ) ;
#402 = LINE ( 'NONE', #804, #873 ) ;
#403 = CARTESIAN_POINT ( 'NONE',  ( 0.3000000000000000444, 0.3799999999999997824, -0.1666666666666666297 ) ) ;
#404 = EDGE_LOOP ( 'NONE', ( #1268, #678, #675, #201 ) ) ;
#405 =( NAMED_UNIT ( * ) PLANE_ANGLE_UNIT ( ) SI_UNIT ( $, .RADIAN. ) );
#406 = ORIENTED_EDGE ( 'NONE', *, *, #666, .T. ) ;
#407 = DIRECTION ( 'NONE',  ( 0.000000000000000000, -0.000000000000000000, -1.000000000000000000 ) ) ;
#408 = DIRECTION ( 'NONE',  ( -1.000000000000000000, -0.000000000000000000, -0.000000000000000000 ) ) ;
#409 =( GEOMETRIC_REPRESENTATION_CONTEXT ( 3 ) GLOBAL_UNCERTAINTY_ASSIGNED_CONTEXT ( ( #63 ) ) GLOBAL_UNIT_ASSIGNED_CONTEXT ( ( #1341, #1131, #1347 ) ) REPRESENTATION_CONTEXT ( 'NONE', 'WORKASPACE' ) );
#410 = ORIENTED_EDGE ( 'NONE', *, *, #1035, .T. ) ;
#411 = DIRECTION ( 'NONE',  ( -9.856383386231858827E-17, -1.000000000000000000, 0.000000000000000000 ) ) ;
#412 = DIRECTION ( 'NONE',  ( 0.000000000000000000, 0.000000000000000000, 1.000000000000000000 ) ) ;
#413 = ORIENTED_EDGE ( 'NONE', *, *, #805, .T. ) ;
#414 = CARTESIAN_POINT ( 'NONE',  ( 0.2499999999999995837, 0.02000000000000010450, 0.2500000000000000000 ) ) ;
#415 = ORIENTED_EDGE ( 'NONE', *, *, #229, .F. ) ;
#416 = CARTESIAN_POINT ( 'NONE',  ( 0.3000000000000001554, 0.3799999999999997824, 0.1666666666666665741 ) ) ;
#417 = VECTOR ( 'NONE', #47, 1000.000000000000000 ) ;
#418 = ORIENTED_EDGE ( 'NONE', *, *, #531, .T. ) ;
#419 = LINE ( 'NONE', #293, #876 ) ;
#420 = DIRECTION ( 'NONE',  ( 1.000000000000000000, -9.856383386231858827E-17, 0.000000000000000000 ) ) ;
#421 = ORIENTED_EDGE ( 'NONE', *, *, #80, .F. ) ;
#422 = APPLICATION_PROTOCOL_DEFINITION ( 'draft international standard', 'automotive_design', 1998, #1357 ) ;
#423 = VERTEX_POINT ( 'NONE', #1090 ) ;
#424 = PRESENTATION_STYLE_ASSIGNMENT (( #850 ) ) ;
#425 = COLOUR_RGB ( '',0.7921568627450980005, 0.8196078431372548767, 0.9333333333333333481 ) ;
#426 = SURFACE_STYLE_USAGE ( .BOTH. , #1298 ) ;
#427 = AXIS2_PLACEMENT_3D ( 'NONE', #677, #1037, #1024 ) ;
#428 = CARTESIAN_POINT ( 'NONE',  ( -0.2999999999999996003, 0.3999999999999999667, 0.2500000000000000000 ) ) ;
#429 =( LENGTH_UNIT ( ) NAMED_UNIT ( * ) SI_UNIT ( .MILLI., .METRE. ) );
#430 = DIRECTION ( 'NONE',  ( -1.000000000000000000, -0.000000000000000000, -0.000000000000000000 ) ) ;
#431 =( GEOMETRIC_REPRESENTATION_CONTEXT ( 3 ) GLOBAL_UNCERTAINTY_ASSIGNED_CONTEXT ( ( #1143 ) ) GLOBAL_UNIT_ASSIGNED_CONTEXT ( ( #187, #24, #2 ) ) REPRESENTATION_CONTEXT ( 'NONE', 'WORKASPACE' ) );
#432 = SURFACE_SIDE_STYLE ('',( #495 ) ) ;
#433 = VECTOR ( 'NONE', #217, 1000.000000000000000 ) ;
#434 = FACE_OUTER_BOUND ( 'NONE', #1160, .T. ) ;
#435 = DIRECTION ( 'NONE',  ( 1.000000000000000000, 0.000000000000000000, 0.000000000000000000 ) ) ;
#436 = CARTESIAN_POINT ( 'NONE',  ( 0.3800000000000000044, 0.3799999999999997824, -0.2500000000000000000 ) ) ;
#437 = FILL_AREA_STYLE ('',( #748 ) ) ;
#438 = VECTOR ( 'NONE', #659, 1000.000000000000000 ) ;
#439 = CARTESIAN_POINT ( 'NONE',  ( -0.4999999999999995559, 0.3999999999999999112, -0.2500000000000000000 ) ) ;
#440 = CARTESIAN_POINT ( 'NONE',  ( -0.2499999999999995837, 0.02000000000000010450, -0.2500000000000000000 ) ) ;
#441 = VECTOR ( 'NONE', #399, 1000.000000000000000 ) ;
#442 = ADVANCED_FACE ( 'NONE', ( #551 ), #636, .F. ) ;
#443 = LINE ( 'NONE', #280, #946 ) ;
#444 = AXIS2_PLACEMENT_3D ( 'NONE', #294, #1292, #1195 ) ;
#445 = VECTOR ( 'NONE', #99, 1000.000000000000000 ) ;
#446 = LINE ( 'NONE', #550, #1377 ) ;
#447 = EDGE_CURVE ( 'NONE', #633, #423, #1014, .T. ) ;
#448 = EDGE_CURVE ( 'NONE', #1327, #1269, #85, .T. ) ;
#449 = VECTOR ( 'NONE', #1313, 1000.000000000000000 ) ;
#450 = DIRECTION ( 'NONE',  ( 0.000000000000000000, 0.000000000000000000, 1.000000000000000000 ) ) ;
#451 = VECTOR ( 'NONE', #741, 1000.000000000000000 ) ;
#452 = VECTOR ( 'NONE', #750, 1000.000000000000000 ) ;
#453 = PLANE ( 'NONE',  #246 ) ;
#454 = LINE ( 'NONE', #1200, #898 ) ;
#455 = DIRECTION ( 'NONE',  ( 9.856383386231858827E-17, 1.000000000000000000, 0.000000000000000000 ) ) ;
#456 = SURFACE_STYLE_USAGE ( .BOTH. , #240 ) ;
#457 = ADVANCED_FACE ( 'NONE', ( #1004 ), #338, .F. ) ;
#458 = LINE ( 'NONE', #66, #634 ) ;
#459 = DIRECTION ( 'NONE',  ( 0.000000000000000000, -1.000000000000000000, 0.000000000000000000 ) ) ;
#460 = COLOUR_RGB ( '',1.000000000000000000, 1.000000000000000000, 1.000000000000000000 ) ;
#461 = LINE ( 'NONE', #1062, #936 ) ;
#462 = DIRECTION ( 'NONE',  ( 1.000000000000000000, -0.000000000000000000, -0.000000000000000000 ) ) ;
#463 = LINE ( 'NONE', #711, #935 ) ;
#464 = PRESENTATION_STYLE_ASSIGNMENT (( #772 ) ) ;
#465 = AXIS2_PLACEMENT_3D ( 'NONE', #125, #1028, #504 ) ;
#466 = MECHANICAL_DESIGN_GEOMETRIC_PRESENTATION_REPRESENTATION (  '', ( #263 ), #340 ) ;
#467 = COLOUR_RGB ( '',0.2509803921568627416, 0.2509803921568627416, 0.2509803921568627416 ) ;
#468 = DIRECTION ( 'NONE',  ( 1.000000000000000000, 0.000000000000000000, 0.000000000000000000 ) ) ;
#469 = EDGE_CURVE ( 'NONE', #1269, #282, #1029, .T. ) ;
#470 = DIRECTION ( 'NONE',  ( 0.000000000000000000, 1.000000000000000000, 0.000000000000000000 ) ) ;
#471 = VECTOR ( 'NONE', #724, 1000.000000000000000 ) ;
#472 = VECTOR ( 'NONE', #27, 1000.000000000000000 ) ;
#473 = CARTESIAN_POINT ( 'NONE',  ( -0.2499999999999995837, 0.02000000000000010450, -0.2500000000000000000 ) ) ;
#474 = COLOUR_RGB ( '',0.2509803921568627416, 0.2509803921568627416, 0.2509803921568627416 ) ;
#475 = LINE ( 'NONE', #440, #910 ) ;
#476 = CARTESIAN_POINT ( 'NONE',  ( 0.000000000000000000, 0.000000000000000000, -0.2500000000000000000 ) ) ;
#477 = CARTESIAN_POINT ( 'NONE',  ( 0.2999999999999997113, 0.3999999999999998557, -0.2500000000000000000 ) ) ;
#478 = VECTOR ( 'NONE', #462, 1000.000000000000000 ) ;
#479 = VECTOR ( 'NONE', #1300, 1000.000000000000000 ) ;
#480 = VECTOR ( 'NONE', #714, 1000.000000000000000 ) ;
#481 = CARTESIAN_POINT ( 'NONE',  ( -0.4799999999999995381, 0.3799999999999998934, -0.2500000000000000000 ) ) ;
#482 = ADVANCED_FACE ( 'NONE', ( #558 ), #453, .F. ) ;
#483 = LINE ( 'NONE', #72, #471 ) ;
#484 = VECTOR ( 'NONE', #1141, 1000.000000000000000 ) ;
#485 = PRESENTATION_LAYER_ASSIGNMENT (  '', '', ( #1368 ) ) ;
#486 = EDGE_CURVE ( 'NONE', #813, #697, #539, .T. ) ;
#487 = LINE ( 'NONE', #1173, #445 ) ;
#488 = DIRECTION ( 'NONE',  ( 0.000000000000000000, 0.000000000000000000, 1.000000000000000000 ) ) ;
#489 =( NAMED_UNIT ( * ) PLANE_ANGLE_UNIT ( ) SI_UNIT ( $, .RADIAN. ) );
#490 = LINE ( 'NONE', #1267, #1400 ) ;
#491 = VECTOR ( 'NONE', #865, 1000.000000000000000 ) ;
#492 = LINE ( 'NONE', #629, #920 ) ;
#493 = COLOUR_RGB ( '',1.000000000000000000, 1.000000000000000000, 1.000000000000000000 ) ;
#494 =( NAMED_UNIT ( * ) PLANE_ANGLE_UNIT ( ) SI_UNIT ( $, .RADIAN. ) );
#495 = SURFACE_STYLE_FILL_AREA ( #648 ) ;
#496 = LINE ( 'NONE', #1174, #968 ) ;
#497 = ADVANCED_FACE ( 'NONE', ( #1023 ), #1011, .T. ) ;
#498 = DIRECTION ( 'NONE',  ( 1.000000000000000000, 0.000000000000000000, 0.000000000000000000 ) ) ;
#499 = VECTOR ( 'NONE', #1245, 1000.000000000000000 ) ;
#500 = DIRECTION ( 'NONE',  ( 0.000000000000000000, 0.000000000000000000, -1.000000000000000000 ) ) ;
#501 = CARTESIAN_POINT ( 'NONE',  ( -0.2999999999999996003, 0.3999999999999999667, 0.1666666666666666297 ) ) ;
#502 = UNCERTAINTY_MEASURE_WITH_UNIT (LENGTH_MEASURE( 1.000000000000000082E-05 ), #162, 'distance_accuracy_value', 'NONE');
#503 = VECTOR ( 'NONE', #151, 1000.000000000000000 ) ;
#504 = DIRECTION ( 'NONE',  ( -0.000000000000000000, 0.000000000000000000, -1.000000000000000000 ) ) ;
#505 =( GEOMETRIC_REPRESENTATION_CONTEXT ( 3 ) GLOBAL_UNCERTAINTY_ASSIGNED_CONTEXT ( ( #651 ) ) GLOBAL_UNIT_ASSIGNED_CONTEXT ( ( #429, #30, #362 ) ) REPRESENTATION_CONTEXT ( 'NONE', 'WORKASPACE' ) );
#506 = LINE ( 'NONE', #159, #503 ) ;
#507 = FILL_AREA_STYLE ('',( #676 ) ) ;
#508 = AXIS2_PLACEMENT_3D ( 'NONE', #320, #839, #973 ) ;
#509 = VECTOR ( 'NONE', #397, 1000.000000000000000 ) ;
#510 = EDGE_CURVE ( 'NONE', #1100, #1144, #1031, .T. ) ;
#511 = LINE ( 'NONE', #687, #31 ) ;
#512 = LINE ( 'NONE', #173, #484 ) ;
#513 = CARTESIAN_POINT ( 'NONE',  ( 0.2499999999999995837, 0.000000000000000000, -0.2500000000000000000 ) ) ;
#514 = DIRECTION ( 'NONE',  ( 0.000000000000000000, 1.000000000000000000, 0.000000000000000000 ) ) ;
#515 = DIRECTION ( 'NONE',  ( 9.856383386231858827E-17, 1.000000000000000000, 0.000000000000000000 ) ) ;
#516 = DIRECTION ( 'NONE',  ( 0.000000000000000000, -0.000000000000000000, -1.000000000000000000 ) ) ;
#517 = SURFACE_STYLE_FILL_AREA ( #93 ) ;
#518 = COLOUR_RGB ( '',0.2509803921568627416, 0.2509803921568627416, 0.2509803921568627416 ) ;
#519 = DIRECTION ( 'NONE',  ( 0.000000000000000000, -0.000000000000000000, -1.000000000000000000 ) ) ;
#520 = PLANE ( 'NONE',  #1046 ) ;
#521 = CARTESIAN_POINT ( 'NONE',  ( -0.2999999999999996003, 0.3999999999999999112, 0.2500000000000000000 ) ) ;
#522 = PLANE ( 'NONE',  #1093 ) ;
#523 = FACE_OUTER_BOUND ( 'NONE', #785, .T. ) ;
#524 = PRODUCT_DEFINITION ( 'UNKNOWN', '', #191, #822 ) ;
#525 = EDGE_CURVE ( 'NONE', #686, #1210, #71, .T. ) ;
#526 = MANIFOLD_SOLID_BREP ( 'Boss-Extrude3', #1191 ) ;
#527 = SURFACE_STYLE_FILL_AREA ( #232 ) ;
#528 = VECTOR ( 'NONE', #1042, 1000.000000000000000 ) ;
#529 = EDGE_CURVE ( 'NONE', #849, #827, #545, .T. ) ;
#530 = CARTESIAN_POINT ( 'NONE',  ( -0.2499999999999995837, 0.000000000000000000, 0.2500000000000000000 ) ) ;
#531 = EDGE_CURVE ( 'NONE', #749, #1296, #1016, .T. ) ;
#532 = CARTESIAN_POINT ( 'NONE',  ( -0.4999999999999995559, 0.3999999999999999112, 0.2500000000000000000 ) ) ;
#533 = VECTOR ( 'NONE', #435, 1000.000000000000000 ) ;
#534 = VECTOR ( 'NONE', #577, 1000.000000000000000 ) ;
#535 = DIRECTION ( 'NONE',  ( 1.000000000000000000, 0.000000000000000000, 0.000000000000000000 ) ) ;
#536 = PRESENTATION_STYLE_ASSIGNMENT (( #456 ) ) ;
#537 = FACE_OUTER_BOUND ( 'NONE', #1142, .T. ) ;
#538 = DIRECTION ( 'NONE',  ( -2.168404344971008868E-16, 0.000000000000000000, 1.000000000000000000 ) ) ;
#539 = LINE ( 'NONE', #568, #1033 ) ;
#540 = MECHANICAL_DESIGN_GEOMETRIC_PRESENTATION_REPRESENTATION (  '', ( #178 ), #570 ) ;
#541 = PLANE ( 'NONE',  #393 ) ;
#542 = MECHANICAL_DESIGN_GEOMETRIC_PRESENTATION_REPRESENTATION (  '', ( #76 ), #356 ) ;
#543 = PLANE ( 'NONE',  #650 ) ;
#544 = DIRECTION ( 'NONE',  ( 1.000000000000000000, 0.000000000000000000, 0.000000000000000000 ) ) ;
#545 = LINE ( 'NONE', #999, #547 ) ;
#546 = PLANE ( 'NONE',  #835 ) ;
#547 = VECTOR ( 'NONE', #1208, 1000.000000000000000 ) ;
#548 = SURFACE_SIDE_STYLE ('',( #1041 ) ) ;
#549 =( LENGTH_UNIT ( ) NAMED_UNIT ( * ) SI_UNIT ( .MILLI., .METRE. ) );
#550 = CARTESIAN_POINT ( 'NONE',  ( -0.2999999999999996003, 0.3999999999999999112, 0.2500000000000000000 ) ) ;
#551 = FACE_OUTER_BOUND ( 'NONE', #1118, .T. ) ;
#552 = CARTESIAN_POINT ( 'NONE',  ( 0.4999999999999995559, -6.123233995736762338E-17, 0.2500000000000000000 ) ) ;
#553 = UNCERTAINTY_MEASURE_WITH_UNIT (LENGTH_MEASURE( 1.000000000000000082E-05 ), #1232, 'distance_accuracy_value', 'NONE');
#554 = DIRECTION ( 'NONE',  ( 0.000000000000000000, -0.000000000000000000, -1.000000000000000000 ) ) ;
#555 = PRESENTATION_LAYER_ASSIGNMENT (  '', '', ( #1388 ) ) ;
#556 = EDGE_CURVE ( 'NONE', #1238, #727, #146, .T. ) ;
#557 =( NAMED_UNIT ( * ) SI_UNIT ( $, .STERADIAN. ) SOLID_ANGLE_UNIT ( ) );
#558 = FACE_OUTER_BOUND ( 'NONE', #286, .T. ) ;
#559 = PRESENTATION_STYLE_ASSIGNMENT (( #1214 ) ) ;
#560 = CARTESIAN_POINT ( 'NONE',  ( 0.4999999999999995559, 0.3999999999999999112, 0.2500000000000000000 ) ) ;
#561 = VECTOR ( 'NONE', #538, 1000.000000000000000 ) ;
#562 = ADVANCED_FACE ( 'NONE', ( #138 ), #645, .T. ) ;
#563 = FILL_AREA_STYLE_COLOUR ( '', #467 ) ;
#564 = PRESENTATION_STYLE_ASSIGNMENT (( #681 ) ) ;
#565 = SURFACE_STYLE_FILL_AREA ( #1017 ) ;
#566 = UNCERTAINTY_MEASURE_WITH_UNIT (LENGTH_MEASURE( 1.000000000000000082E-05 ), #915, 'distance_accuracy_value', 'NONE');
#567 = PRESENTATION_LAYER_ASSIGNMENT (  '', '', ( #752 ) ) ;
#568 = CARTESIAN_POINT ( 'NONE',  ( 0.4799999999999995381, 0.3799999999999998934, 0.2500000000000000000 ) ) ;
#569 = CARTESIAN_POINT ( 'NONE',  ( -0.2999999999999996003, 0.3799999999999998934, 0.1666666666666666297 ) ) ;
#570 =( GEOMETRIC_REPRESENTATION_CONTEXT ( 3 ) GLOBAL_UNCERTAINTY_ASSIGNED_CONTEXT ( ( #1060 ) ) GLOBAL_UNIT_ASSIGNED_CONTEXT ( ( #998, #1101, #1057 ) ) REPRESENTATION_CONTEXT ( 'NONE', 'WORKASPACE' ) );
#571 =( LENGTH_UNIT ( ) NAMED_UNIT ( * ) SI_UNIT ( .MILLI., .METRE. ) );
#572 = EDGE_CURVE ( 'NONE', #1345, #210, #108, .T. ) ;
#573 = VECTOR ( 'NONE', #624, 1000.000000000000000 ) ;
#574 = ADVANCED_FACE ( 'NONE', ( #1066 ), #1154, .F. ) ;
#575 = PRODUCT_DEFINITION_SHAPE ( 'NONE', 'NONE',  #524 ) ;
#576 =( NAMED_UNIT ( * ) PLANE_ANGLE_UNIT ( ) SI_UNIT ( $, .RADIAN. ) );
#577 = DIRECTION ( 'NONE',  ( -0.000000000000000000, 1.000000000000000000, -0.000000000000000000 ) ) ;
#578 = VECTOR ( 'NONE', #535, 1000.000000000000000 ) ;
#579 = UNCERTAINTY_MEASURE_WITH_UNIT (LENGTH_MEASURE( 1.000000000000000082E-05 ), #549, 'distance_accuracy_value', 'NONE');
#580 = LINE ( 'NONE', #278, #605 ) ;
#581 = AXIS2_PLACEMENT_3D ( 'NONE', #593, #1265, #86 ) ;
#582 = LINE ( 'NONE', #1139, #603 ) ;
#583 = ADVANCED_FACE ( 'NONE', ( #610 ), #1176, .T. ) ;
#584 = AXIS2_PLACEMENT_3D ( 'NONE', #1289, #313, #411 ) ;
#585 = DIRECTION ( 'NONE',  ( 0.000000000000000000, 0.000000000000000000, -1.000000000000000000 ) ) ;
#586 = CARTESIAN_POINT ( 'NONE',  ( -0.4799999999999995381, 0.02000000000000007327, -0.2500000000000000000 ) ) ;
#587 = LINE ( 'NONE', #1111, #1043 ) ;
#588 = FACE_OUTER_BOUND ( 'NONE', #346, .T. ) ;
#589 = EDGE_CURVE ( 'NONE', #695, #793, #1054, .T. ) ;
#590 = DIRECTION ( 'NONE',  ( 0.000000000000000000, 1.000000000000000000, 0.000000000000000000 ) ) ;
#591 = FILL_AREA_STYLE_COLOUR ( '', #493 ) ;
#592 = COLOUR_RGB ( '',0.2509803921568627416, 0.2509803921568627416, 0.2509803921568627416 ) ;
#593 = CARTESIAN_POINT ( 'NONE',  ( -0.4799999999999995381, 0.02000000000000007327, -1.275280449438102925 ) ) ;
#594 = DIRECTION ( 'NONE',  ( 9.856383386231858827E-17, 1.000000000000000000, -0.000000000000000000 ) ) ;
#595 = VECTOR ( 'NONE', #720, 1000.000000000000000 ) ;
#596 = LINE ( 'NONE', #1122, #143 ) ;
#597 = CARTESIAN_POINT ( 'NONE',  ( 0.3800000000000001155, 0.3999999999999998557, 0.2499999999999998890 ) ) ;
#598 = MECHANICAL_DESIGN_GEOMETRIC_PRESENTATION_REPRESENTATION (  '', ( #1322 ), #431 ) ;
#599 = EDGE_CURVE ( 'NONE', #882, #237, #1067, .T. ) ;
#600 = FILL_AREA_STYLE_COLOUR ( '', #1363 ) ;
#601 = DIRECTION ( 'NONE',  ( 0.000000000000000000, 0.000000000000000000, -1.000000000000000000 ) ) ;
#602 = SURFACE_STYLE_FILL_AREA ( #776 ) ;
#603 = VECTOR ( 'NONE', #1250, 1000.000000000000000 ) ;
#604 = SURFACE_SIDE_STYLE ('',( #902 ) ) ;
#605 = VECTOR ( 'NONE', #710, 1000.000000000000000 ) ;
#606 = LINE ( 'NONE', #1068, #578 ) ;
#607 = LINE ( 'NONE', #1241, #1056 ) ;
#608 = PLANE ( 'NONE',  #508 ) ;
#609 = LINE ( 'NONE', #67, #1049 ) ;
#610 = FACE_OUTER_BOUND ( 'NONE', #869, .T. ) ;
#611 = DIRECTION ( 'NONE',  ( 0.000000000000000000, 0.000000000000000000, 1.000000000000000000 ) ) ;
#612 = LINE ( 'NONE', #919, #1052 ) ;
#613 = CARTESIAN_POINT ( 'NONE',  ( 0.4799999999999995381, 0.3799999999999998934, -0.2500000000000000000 ) ) ;
#614 = PRESENTATION_STYLE_ASSIGNMENT (( #901 ) ) ;
#615 = LINE ( 'NONE', #144, #1097 ) ;
#616 = MECHANICAL_DESIGN_GEOMETRIC_PRESENTATION_REPRESENTATION (  '', ( #684 ), #888 ) ;
#617 = VECTOR ( 'NONE', #186, 1000.000000000000000 ) ;
#618 = CARTESIAN_POINT ( 'NONE',  ( -0.2499999999999995837, 0.02000000000000010450, 0.2500000000000000000 ) ) ;
#619 = DIRECTION ( 'NONE',  ( 0.000000000000000000, 0.000000000000000000, 1.000000000000000000 ) ) ;
#620 = VECTOR ( 'NONE', #674, 1000.000000000000000 ) ;
#621 = CARTESIAN_POINT ( 'NONE',  ( -0.3799999999999995604, 0.3999999999999999667, 0.2500000000000000000 ) ) ;
#622 = CARTESIAN_POINT ( 'NONE',  ( -0.3799999999999996714, 0.3999999999999999667, -0.1666666666666665186 ) ) ;
#623 = LINE ( 'NONE', #696, #620 ) ;
#624 = DIRECTION ( 'NONE',  ( 9.856383386231858827E-17, 1.000000000000000000, -0.000000000000000000 ) ) ;
#625 = ADVANCED_FACE ( 'NONE', ( #142 ), #339, .F. ) ;
#626 = CARTESIAN_POINT ( 'NONE',  ( 0.3800000000000000044, 0.3999999999999998557, -0.2500000000000000000 ) ) ;
#627 = ORIENTED_EDGE ( 'NONE', *, *, #1312, .F. ) ;
#628 = ADVANCED_FACE ( 'NONE', ( #130 ), #792, .T. ) ;
#629 = CARTESIAN_POINT ( 'NONE',  ( 0.4799999999999995381, 0.02000000000000007327, 0.2500000000000000000 ) ) ;
#630 = EDGE_LOOP ( 'NONE', ( #165, #1146, #1126, #1284 ) ) ;
#631 = AXIS2_PLACEMENT_3D ( 'NONE', #1221, #679, #909 ) ;
#632 = CARTESIAN_POINT ( 'NONE',  ( -0.4999999999999995559, -6.123233995736762338E-17, -0.2500000000000000000 ) ) ;
#633 = VERTEX_POINT ( 'NONE', #58 ) ;
#634 = VECTOR ( 'NONE', #177, 1000.000000000000000 ) ;
#635 = AXIS2_PLACEMENT_3D ( 'NONE', #37, #590, #137 ) ;
#636 = PLANE ( 'NONE',  #25 ) ;
#637 = EDGE_CURVE ( 'NONE', #640, #1223, #607, .T. ) ;
#638 = ORIENTED_EDGE ( 'NONE', *, *, #7, .F. ) ;
#639 = DIRECTION ( 'NONE',  ( 9.856383386231858827E-17, 1.000000000000000000, 0.000000000000000000 ) ) ;
#640 = VERTEX_POINT ( 'NONE', #250 ) ;
#641 = DIRECTION ( 'NONE',  ( 0.000000000000000000, -0.000000000000000000, -1.000000000000000000 ) ) ;
#642 = ORIENTED_EDGE ( 'NONE', *, *, #841, .T. ) ;
#643 = DIRECTION ( 'NONE',  ( 1.000000000000000000, 5.421010862427522959E-15, 0.000000000000000000 ) ) ;
#644 = ORIENTED_EDGE ( 'NONE', *, *, #556, .F. ) ;
#645 = PLANE ( 'NONE',  #74 ) ;
#646 = ORIENTED_EDGE ( 'NONE', *, *, #525, .F. ) ;
#647 = FILL_AREA_STYLE_COLOUR ( '', #160 ) ;
#648 = FILL_AREA_STYLE ('',( #215 ) ) ;
#649 = VERTEX_POINT ( 'NONE', #170 ) ;
#650 = AXIS2_PLACEMENT_3D ( 'NONE', #306, #643, #394 ) ;
#651 = UNCERTAINTY_MEASURE_WITH_UNIT (LENGTH_MEASURE( 1.000000000000000082E-05 ), #429, 'distance_accuracy_value', 'NONE');
#652 = EDGE_CURVE ( 'NONE', #1246, #182, #580, .T. ) ;
#653 = EDGE_CURVE ( 'NONE', #1210, #768, #1040, .T. ) ;
#654 = CARTESIAN_POINT ( 'NONE',  ( -0.4799999999999995381, 0.02000000000000007327, -0.2500000000000000000 ) ) ;
#655 = EDGE_CURVE ( 'NONE', #311, #1296, #135, .T. ) ;
#656 =( LENGTH_UNIT ( ) NAMED_UNIT ( * ) SI_UNIT ( .MILLI., .METRE. ) );
#657 = VERTEX_POINT ( 'NONE', #569 ) ;
#658 = ORIENTED_EDGE ( 'NONE', *, *, #1227, .F. ) ;
#659 = DIRECTION ( 'NONE',  ( -1.000000000000000000, -0.000000000000000000, 6.776263578034403699E-16 ) ) ;
#660 = ADVANCED_FACE ( 'NONE', ( #148 ), #161, .F. ) ;
#661 = ORIENTED_EDGE ( 'NONE', *, *, #395, .F. ) ;
#662 = VERTEX_POINT ( 'NONE', #586 ) ;
#663 = ORIENTED_EDGE ( 'NONE', *, *, #556, .T. ) ;
#664 = MECHANICAL_DESIGN_GEOMETRIC_PRESENTATION_REPRESENTATION (  '', ( #1034 ), #409 ) ;
#665 = ORIENTED_EDGE ( 'NONE', *, *, #980, .F. ) ;
#666 = EDGE_CURVE ( 'NONE', #1201, #1238, #1080, .T. ) ;
#667 = CARTESIAN_POINT ( 'NONE',  ( 7.228014483236704444E-17, 0.3999999999999999112, -1.567325801096385169E-32 ) ) ;
#668 = EDGE_LOOP ( 'NONE', ( #878, #415, #744, #866, #343, #272, #332, #1230 ) ) ;
#669 = ADVANCED_FACE ( 'NONE', ( #120 ), #1205, .F. ) ;
#670 = ORIENTED_EDGE ( 'NONE', *, *, #447, .T. ) ;
#671 = SURFACE_SIDE_STYLE ('',( #565 ) ) ;
#672 = CARTESIAN_POINT ( 'NONE',  ( -0.2999999999999996003, 0.3799999999999998934, 0.1666666666666666297 ) ) ;
#673 = ORIENTED_EDGE ( 'NONE', *, *, #1336, .F. ) ;
#674 = DIRECTION ( 'NONE',  ( 9.856383386231858827E-17, 1.000000000000000000, -0.000000000000000000 ) ) ;
#675 = ORIENTED_EDGE ( 'NONE', *, *, #248, .T. ) ;
#676 = FILL_AREA_STYLE_COLOUR ( '', #425 ) ;
#677 = CARTESIAN_POINT ( 'NONE',  ( -0.2499999999999995837, 0.02000000000000010450, 0.2500000000000000000 ) ) ;
#678 = ORIENTED_EDGE ( 'NONE', *, *, #1227, .T. ) ;
#679 = DIRECTION ( 'NONE',  ( 0.000000000000000000, 0.000000000000000000, 1.000000000000000000 ) ) ;
#680 = ORIENTED_EDGE ( 'NONE', *, *, #789, .T. ) ;
#681 = SURFACE_STYLE_USAGE ( .BOTH. , #799 ) ;
#682 =( NAMED_UNIT ( * ) SI_UNIT ( $, .STERADIAN. ) SOLID_ANGLE_UNIT ( ) );
#683 = ORIENTED_EDGE ( 'NONE', *, *, #195, .T. ) ;
#684 = STYLED_ITEM ( 'NONE', ( #424 ), #974 ) ;
#685 = EDGE_CURVE ( 'NONE', #304, #185, #587, .T. ) ;
#686 = VERTEX_POINT ( 'NONE', #1233 ) ;
#687 = CARTESIAN_POINT ( 'NONE',  ( -0.2999999999999997113, 0.3999999999999999667, -0.2500000000000000000 ) ) ;
#688 = CARTESIAN_POINT ( 'NONE',  ( -0.2999999999999997113, 0.3799999999999998934, -0.2500000000000000000 ) ) ;
#689 = MANIFOLD_SOLID_BREP ( 'Cut-Extrude1[1]', #225 ) ;
#690 = ORIENTED_EDGE ( 'NONE', *, *, #211, .T. ) ;
#691 = VERTEX_POINT ( 'NONE', #1115 ) ;
#692 = FILL_AREA_STYLE_COLOUR ( '', #102 ) ;
#693 = CARTESIAN_POINT ( 'NONE',  ( 0.3800000000000001155, 0.3799999999999998934, 0.2500000000000000000 ) ) ;
#694 = PLANE ( 'NONE',  #1019 ) ;
#695 = VERTEX_POINT ( 'NONE', #1027 ) ;
#696 = CARTESIAN_POINT ( 'NONE',  ( -0.3799999999999995604, 0.3799999999999998934, 0.2500000000000000000 ) ) ;
#697 = VERTEX_POINT ( 'NONE', #693 ) ;
#698 = SURFACE_STYLE_USAGE ( .BOTH. , #604 ) ;
#699 = ORIENTED_EDGE ( 'NONE', *, *, #857, .T. ) ;
#700 = AXIS2_PLACEMENT_3D ( 'NONE', #743, #1167, #1248 ) ;
#701 = EDGE_LOOP ( 'NONE', ( #315, #761, #322, #295, #1346, #1301, #764, #735 ) ) ;
#702 = CARTESIAN_POINT ( 'NONE',  ( 0.3000000000000001554, 0.3799999999999997824, 0.1666666666666665741 ) ) ;
#703 = DIRECTION ( 'NONE',  ( 1.000000000000000000, 0.000000000000000000, 0.000000000000000000 ) ) ;
#704 = EDGE_CURVE ( 'NONE', #378, #216, #121, .T. ) ;
#705 = ORIENTED_EDGE ( 'NONE', *, *, #1036, .T. ) ;
#706 = EDGE_LOOP ( 'NONE', ( #1106, #350, #670, #361 ) ) ;
#707 = CARTESIAN_POINT ( 'NONE',  ( 0.4999999999999995559, 0.3999999999999999112, 0.2500000000000000000 ) ) ;
#708 = ORIENTED_EDGE ( 'NONE', *, *, #10, .F. ) ;
#709 = ORIENTED_EDGE ( 'NONE', *, *, #718, .T. ) ;
#710 = DIRECTION ( 'NONE',  ( 1.000000000000000000, 2.449293598294704935E-16, -0.000000000000000000 ) ) ;
#711 = CARTESIAN_POINT ( 'NONE',  ( 0.2999999999999995448, -0.4010249675906650824, 0.2500000000000000000 ) ) ;
#712 = ORIENTED_EDGE ( 'NONE', *, *, #342, .T. ) ;
#713 = ORIENTED_EDGE ( 'NONE', *, *, #773, .F. ) ;
#714 = DIRECTION ( 'NONE',  ( 9.856383386231858827E-17, 1.000000000000000000, -0.000000000000000000 ) ) ;
#715 = VERTEX_POINT ( 'NONE', #33 ) ;
#716 = CARTESIAN_POINT ( 'NONE',  ( -0.4999999999999995559, -6.123233995736762338E-17, 0.2500000000000000000 ) ) ;
#717 =( GEOMETRIC_REPRESENTATION_CONTEXT ( 3 ) GLOBAL_UNCERTAINTY_ASSIGNED_CONTEXT ( ( #168 ) ) GLOBAL_UNIT_ASSIGNED_CONTEXT ( ( #327, #955, #854 ) ) REPRESENTATION_CONTEXT ( 'NONE', 'WORKASPACE' ) );
#718 = EDGE_CURVE ( 'NONE', #216, #640, #615, .T. ) ;
#719 = ORIENTED_EDGE ( 'NONE', *, *, #1134, .T. ) ;
#720 = DIRECTION ( 'NONE',  ( 9.856383386231858827E-17, 1.000000000000000000, -0.000000000000000000 ) ) ;
#721 = EDGE_CURVE ( 'NONE', #1210, #1240, #596, .T. ) ;
#722 = PLANE ( 'NONE',  #1130 ) ;
#723 = ORIENTED_EDGE ( 'NONE', *, *, #739, .T. ) ;
#724 = DIRECTION ( 'NONE',  ( 0.000000000000000000, 1.000000000000000000, 0.000000000000000000 ) ) ;
#725 = ORIENTED_EDGE ( 'NONE', *, *, #666, .F. ) ;
#726 = DIRECTION ( 'NONE',  ( 0.000000000000000000, 0.000000000000000000, 1.000000000000000000 ) ) ;
#727 = VERTEX_POINT ( 'NONE', #811 ) ;
#728 = CARTESIAN_POINT ( 'NONE',  ( 0.3000000000000001554, 0.3999999999999998557, 0.1666666666666665741 ) ) ;
#729 = ORIENTED_EDGE ( 'NONE', *, *, #384, .T. ) ;
#730 = DIRECTION ( 'NONE',  ( -1.000000000000000000, -1.325790700050209484E-16, 0.000000000000000000 ) ) ;
#731 = DIRECTION ( 'NONE',  ( 1.000000000000000000, 0.000000000000000000, -0.000000000000000000 ) ) ;
#732 = CARTESIAN_POINT ( 'NONE',  ( 0.4799999999999995381, 0.02000000000000007327, 0.2500000000000000000 ) ) ;
#733 = ORIENTED_EDGE ( 'NONE', *, *, #1050, .T. ) ;
#734 = CARTESIAN_POINT ( 'NONE',  ( -0.2999999999999997113, 0.3799999999999998934, -0.1666666666666665741 ) ) ;
#735 = ORIENTED_EDGE ( 'NONE', *, *, #857, .F. ) ;
#736 = CARTESIAN_POINT ( 'NONE',  ( 0.2999999999999997113, 0.3799999999999998934, -0.2500000000000000000 ) ) ;
#737 = MECHANICAL_DESIGN_GEOMETRIC_PRESENTATION_REPRESENTATION (  '', ( #371 ), #717 ) ;
#738 = ORIENTED_EDGE ( 'NONE', *, *, #1336, .T. ) ;
#739 = EDGE_CURVE ( 'NONE', #832, #1105, #612, .T. ) ;
#740 = ORIENTED_EDGE ( 'NONE', *, *, #652, .T. ) ;
#741 = DIRECTION ( 'NONE',  ( -0.000000000000000000, -0.000000000000000000, -1.000000000000000000 ) ) ;
#742 = CARTESIAN_POINT ( 'NONE',  ( 0.2499999999999995837, 0.02000000000000010450, 0.2500000000000000000 ) ) ;
#743 = CARTESIAN_POINT ( 'NONE',  ( 0.000000000000000000, 0.000000000000000000, 0.2500000000000000000 ) ) ;
#744 = ORIENTED_EDGE ( 'NONE', *, *, #486, .F. ) ;
#745 = PLANE ( 'NONE',  #1108 ) ;
#746 = ORIENTED_EDGE ( 'NONE', *, *, #1390, .F. ) ;
#747 = ORIENTED_EDGE ( 'NONE', *, *, #44, .F. ) ;
#748 = FILL_AREA_STYLE_COLOUR ( '', #474 ) ;
#749 = VERTEX_POINT ( 'NONE', #1355 ) ;
#750 = DIRECTION ( 'NONE',  ( 9.856383386231858827E-17, 1.000000000000000000, -0.000000000000000000 ) ) ;
#751 = ORIENTED_EDGE ( 'NONE', *, *, #1150, .F. ) ;
#752 = STYLED_ITEM ( 'NONE', ( #1386 ), #1235 ) ;
#753 = ADVANCED_FACE ( 'NONE', ( #157 ), #520, .F. ) ;
#754 = ADVANCED_BREP_SHAPE_REPRESENTATION ( '10.50.40.20.25', ( #11, #526, #689, #184, #631 ), #1148 ) ;
#755 = VERTEX_POINT ( 'NONE', #513 ) ;
#756 =( GEOMETRIC_REPRESENTATION_CONTEXT ( 3 ) GLOBAL_UNCERTAINTY_ASSIGNED_CONTEXT ( ( #553 ) ) GLOBAL_UNIT_ASSIGNED_CONTEXT ( ( #1232, #1204, #1114 ) ) REPRESENTATION_CONTEXT ( 'NONE', 'WORKASPACE' ) );
#757 = CARTESIAN_POINT ( 'NONE',  ( 0.4799999999999995381, 0.02000000000000007327, -1.275280449438102925 ) ) ;
#758 = EDGE_CURVE ( 'NONE', #282, #192, #1092, .T. ) ;
#759 = DIRECTION ( 'NONE',  ( -1.000000000000000000, 9.856383386231858827E-17, 2.168404344971008868E-16 ) ) ;
#760 = ORIENTED_EDGE ( 'NONE', *, *, #978, .T. ) ;
#761 = ORIENTED_EDGE ( 'NONE', *, *, #718, .F. ) ;
#762 = CARTESIAN_POINT ( 'NONE',  ( -0.4799999999999995381, 0.3799999999999998934, 0.2500000000000000000 ) ) ;
#763 = ORIENTED_EDGE ( 'NONE', *, *, #978, .F. ) ;
#764 = ORIENTED_EDGE ( 'NONE', *, *, #1225, .F. ) ;
#765 = CARTESIAN_POINT ( 'NONE',  ( -0.4799999999999995381, 0.02000000000000007327, 0.2500000000000000000 ) ) ;
#766 = CARTESIAN_POINT ( 'NONE',  ( 0.000000000000000000, 0.000000000000000000, 0.2500000000000000000 ) ) ;
#767 = ORIENTED_EDGE ( 'NONE', *, *, #529, .F. ) ;
#768 = VERTEX_POINT ( 'NONE', #1374 ) ;
#769 = PLANE ( 'NONE',  #465 ) ;
#770 = PRESENTATION_LAYER_ASSIGNMENT (  '', '', ( #957 ) ) ;
#771 = ORIENTED_EDGE ( 'NONE', *, *, #303, .T. ) ;
#772 = SURFACE_STYLE_USAGE ( .BOTH. , #97 ) ;
#773 = EDGE_CURVE ( 'NONE', #1240, #1220, #609, .T. ) ;
#774 = CLOSED_SHELL ( 'NONE', ( #753, #669, #17, #845, #353, #872, #1162, #779, #1013, #583, #625, #364, #996, #1179 ) ) ;
#775 = DIRECTION ( 'NONE',  ( 0.000000000000000000, -0.000000000000000000, -1.000000000000000000 ) ) ;
#776 = FILL_AREA_STYLE ('',( #1391 ) ) ;
#777 = ORIENTED_EDGE ( 'NONE', *, *, #685, .F. ) ;
#778 = DIRECTION ( 'NONE',  ( 1.000000000000000000, -9.856383386231858827E-17, 2.168404344971008868E-16 ) ) ;
#779 = ADVANCED_FACE ( 'NONE', ( #1081 ), #608, .F. ) ;
#780 = ORIENTED_EDGE ( 'NONE', *, *, #1274, .F. ) ;
#781 = EDGE_LOOP ( 'NONE', ( #257, #221, #1276, #705 ) ) ;
#782 = ORIENTED_EDGE ( 'NONE', *, *, #1312, .T. ) ;
#783 =( LENGTH_UNIT ( ) NAMED_UNIT ( * ) SI_UNIT ( .MILLI., .METRE. ) );
#784 = ORIENTED_EDGE ( 'NONE', *, *, #373, .T. ) ;
#785 = EDGE_LOOP ( 'NONE', ( #218, #1259, #1103, #1120 ) ) ;
#786 = PRESENTATION_LAYER_ASSIGNMENT (  '', '', ( #1107 ) ) ;
#787 = EDGE_CURVE ( 'NONE', #715, #300, #1069, .T. ) ;
#788 = ORIENTED_EDGE ( 'NONE', *, *, #1009, .T. ) ;
#789 = EDGE_CURVE ( 'NONE', #882, #691, #128, .T. ) ;
#790 = ORIENTED_EDGE ( 'NONE', *, *, #1192, .F. ) ;
#791 = DIRECTION ( 'NONE',  ( -1.000000000000000000, 0.000000000000000000, 0.000000000000000000 ) ) ;
#792 = PLANE ( 'NONE',  #942 ) ;
#793 = VERTEX_POINT ( 'NONE', #1157 ) ;
#794 =( LENGTH_UNIT ( ) NAMED_UNIT ( * ) SI_UNIT ( .MILLI., .METRE. ) );
#795 = ORIENTED_EDGE ( 'NONE', *, *, #1035, .F. ) ;
#796 = ORIENTED_EDGE ( 'NONE', *, *, #266, .T. ) ;
#797 = DIRECTION ( 'NONE',  ( -2.168404344971008868E-16, 0.000000000000000000, -1.000000000000000000 ) ) ;
#798 = ORIENTED_EDGE ( 'NONE', *, *, #1050, .F. ) ;
#799 = SURFACE_SIDE_STYLE ('',( #1020 ) ) ;
#800 = CARTESIAN_POINT ( 'NONE',  ( -0.4799999999999995381, 0.02000000000000007327, -0.2500000000000000000 ) ) ;
#801 = ORIENTED_EDGE ( 'NONE', *, *, #1171, .T. ) ;
#802 = AXIS2_PLACEMENT_3D ( 'NONE', #1297, #112, #1263 ) ;
#803 = ORIENTED_EDGE ( 'NONE', *, *, #589, .F. ) ;
#804 = CARTESIAN_POINT ( 'NONE',  ( 0.2499999999999995837, 0.000000000000000000, 0.2500000000000000000 ) ) ;
#805 = EDGE_CURVE ( 'NONE', #355, #1183, #124, .T. ) ;
#806 = ORIENTED_EDGE ( 'NONE', *, *, #447, .F. ) ;
#807 = CARTESIAN_POINT ( 'NONE',  ( -0.2499999999999995837, 0.000000000000000000, -0.2500000000000000000 ) ) ;
#808 = UNCERTAINTY_MEASURE_WITH_UNIT (LENGTH_MEASURE( 1.000000000000000082E-05 ), #1193, 'distance_accuracy_value', 'NONE');
#809 = VERTEX_POINT ( 'NONE', #78 ) ;
#810 = DIRECTION ( 'NONE',  ( -1.000000000000000000, 0.000000000000000000, 6.776263578034402713E-16 ) ) ;
#811 = CARTESIAN_POINT ( 'NONE',  ( 0.3800000000000000044, 0.3999999999999999112, -0.2500000000000000000 ) ) ;
#812 = ORIENTED_EDGE ( 'NONE', *, *, #248, .F. ) ;
#813 = VERTEX_POINT ( 'NONE', #299 ) ;
#814 = EDGE_LOOP ( 'NONE', ( #367, #418, #1264, #1153, #239, #690, #890, #680 ) ) ;
#815 = CARTESIAN_POINT ( 'NONE',  ( -0.2999999999999996003, 0.3999999999999999667, 0.1666666666666666297 ) ) ;
#816 = EDGE_LOOP ( 'NONE', ( #345, #1194, #351, #886 ) ) ;
#817 = AXIS2_PLACEMENT_3D ( 'NONE', #918, #1026, #498 ) ;
#818 = CARTESIAN_POINT ( 'NONE',  ( -0.2499999999999995837, 0.02000000000000010450, 0.2500000000000000000 ) ) ;
#819 = CARTESIAN_POINT ( 'NONE',  ( 0.2499999999999995837, 0.02000000000000010450, 0.2500000000000000000 ) ) ;
#820 = VERTEX_POINT ( 'NONE', #1266 ) ;
#821 = DIRECTION ( 'NONE',  ( 9.856383386231858827E-17, 1.000000000000000000, 0.000000000000000000 ) ) ;
#822 = PRODUCT_DEFINITION_CONTEXT ( 'detailed design', #290, 'design' ) ;
#823 = AXIS2_PLACEMENT_3D ( 'NONE', #819, #48, #1109 ) ;
#824 = ORIENTED_EDGE ( 'NONE', *, *, #721, .F. ) ;
#825 = ORIENTED_EDGE ( 'NONE', *, *, #531, .F. ) ;
#826 = DIRECTION ( 'NONE',  ( 0.000000000000000000, 0.000000000000000000, -1.000000000000000000 ) ) ;
#827 = VERTEX_POINT ( 'NONE', #1285 ) ;
#828 =( NAMED_UNIT ( * ) PLANE_ANGLE_UNIT ( ) SI_UNIT ( $, .RADIAN. ) );
#829 = LINE ( 'NONE', #1048, #1299 ) ;
#830 = CARTESIAN_POINT ( 'NONE',  ( -0.2999999999999997113, 0.3799999999999998934, -0.1666666666666665741 ) ) ;
#831 = FILL_AREA_STYLE ('',( #843 ) ) ;
#832 = VERTEX_POINT ( 'NONE', #94 ) ;
#833 = LINE ( 'NONE', #931, #375 ) ;
#834 = CARTESIAN_POINT ( 'NONE',  ( 0.4999999999999995559, -6.123233995736762338E-17, -0.2500000000000000000 ) ) ;
#835 = AXIS2_PLACEMENT_3D ( 'NONE', #1178, #92, #328 ) ;
#836 = LINE ( 'NONE', #734, #1306 ) ;
#837 = MECHANICAL_DESIGN_GEOMETRIC_PRESENTATION_REPRESENTATION (  '', ( #150 ), #164 ) ;
#838 = CARTESIAN_POINT ( 'NONE',  ( 0.3800000000000000044, 0.3799999999999997824, -0.1666666666666666297 ) ) ;
#839 = DIRECTION ( 'NONE',  ( 2.449293598294704935E-16, 1.000000000000000000, 0.000000000000000000 ) ) ;
#840 = EDGE_LOOP ( 'NONE', ( #1309, #708, #1226, #1113 ) ) ;
#841 = EDGE_CURVE ( 'NONE', #662, #686, #606, .T. ) ;
#842 = EDGE_CURVE ( 'NONE', #691, #1201, #1085, .T. ) ;
#843 = FILL_AREA_STYLE_COLOUR ( '', #844 ) ;
#844 = COLOUR_RGB ( '',1.000000000000000000, 1.000000000000000000, 1.000000000000000000 ) ;
#845 = ADVANCED_FACE ( 'NONE', ( #1055 ), #1145, .F. ) ;
#846 = SURFACE_STYLE_FILL_AREA ( #831 ) ;
#847 = ADVANCED_FACE ( 'NONE', ( #155 ), #1084, .T. ) ;
#848 = CARTESIAN_POINT ( 'NONE',  ( -0.2999999999999997669, -0.4010249675906649713, -0.2500000000000000000 ) ) ;
#849 = VERTEX_POINT ( 'NONE', #560 ) ;
#850 = SURFACE_STYLE_USAGE ( .BOTH. , #287 ) ;
#851 = ORIENTED_EDGE ( 'NONE', *, *, #1025, .F. ) ;
#852 = DIRECTION ( 'NONE',  ( 9.856383386231858827E-17, 1.000000000000000000, -0.000000000000000000 ) ) ;
#853 = PLANE ( 'NONE',  #444 ) ;
#854 =( NAMED_UNIT ( * ) SI_UNIT ( $, .STERADIAN. ) SOLID_ANGLE_UNIT ( ) );
#855 =( GEOMETRIC_REPRESENTATION_CONTEXT ( 3 ) GLOBAL_UNCERTAINTY_ASSIGNED_CONTEXT ( ( #349 ) ) GLOBAL_UNIT_ASSIGNED_CONTEXT ( ( #783, #576, #270 ) ) REPRESENTATION_CONTEXT ( 'NONE', 'WORKASPACE' ) );
#856 = DIRECTION ( 'NONE',  ( -0.000000000000000000, -0.000000000000000000, -1.000000000000000000 ) ) ;
#857 = EDGE_CURVE ( 'NONE', #1223, #210, #1075, .T. ) ;
#858 = UNCERTAINTY_MEASURE_WITH_UNIT (LENGTH_MEASURE( 1.000000000000000082E-05 ), #1136, 'distance_accuracy_value', 'NONE');
#859 = SURFACE_STYLE_USAGE ( .BOTH. , #948 ) ;
#860 =( NAMED_UNIT ( * ) SI_UNIT ( $, .STERADIAN. ) SOLID_ANGLE_UNIT ( ) );
#861 = ADVANCED_FACE ( 'NONE', ( #588 ), #223, .T. ) ;
#862 = CARTESIAN_POINT ( 'NONE',  ( -0.3799999999999996714, 0.3999999999999999667, -0.2499999999999998890 ) ) ;
#863 = ORIENTED_EDGE ( 'NONE', *, *, #572, .T. ) ;
#864 = AXIS2_PLACEMENT_3D ( 'NONE', #1326, #258, #891 ) ;
#865 = DIRECTION ( 'NONE',  ( -0.000000000000000000, -0.000000000000000000, -1.000000000000000000 ) ) ;
#866 = ORIENTED_EDGE ( 'NONE', *, *, #26, .F. ) ;
#867 = EDGE_CURVE ( 'NONE', #185, #649, #623, .T. ) ;
#868 =( NAMED_UNIT ( * ) SI_UNIT ( $, .STERADIAN. ) SOLID_ANGLE_UNIT ( ) );
#869 = EDGE_LOOP ( 'NONE', ( #788, #401, #1158, #683, #1175, #1218, #1187, #357 ) ) ;
#870 = LINE ( 'NONE', #70, #887 ) ;
#871 = ORIENTED_EDGE ( 'NONE', *, *, #91, .F. ) ;
#872 = ADVANCED_FACE ( 'NONE', ( #141 ), #769, .F. ) ;
#873 = VECTOR ( 'NONE', #516, 1000.000000000000000 ) ;
#874 = PLANE ( 'NONE',  #1290 ) ;
#875 = ORIENTED_EDGE ( 'NONE', *, *, #1150, .T. ) ;
#876 = VECTOR ( 'NONE', #611, 1000.000000000000000 ) ;
#877 = CARTESIAN_POINT ( 'NONE',  ( 0.3800000000000000044, 0.3799999999999997824, -0.2500000000000000000 ) ) ;
#878 = ORIENTED_EDGE ( 'NONE', *, *, #180, .F. ) ;
#879 = FACE_OUTER_BOUND ( 'NONE', #1340, .T. ) ;
#880 = DIRECTION ( 'NONE',  ( 2.168404344971008868E-16, 0.000000000000000000, 1.000000000000000000 ) ) ;
#881 = LINE ( 'NONE', #1038, #417 ) ;
#882 = VERTEX_POINT ( 'NONE', #388 ) ;
#883 = CARTESIAN_POINT ( 'NONE',  ( -0.4799999999999995381, 0.02000000000000007327, -1.275280449438102925 ) ) ;
#884 = EDGE_LOOP ( 'NONE', ( #796, #665, #1110, #729 ) ) ;
#885 = PRODUCT_RELATED_PRODUCT_CATEGORY ( 'part', '', ( #1164 ) ) ;
#886 = ORIENTED_EDGE ( 'NONE', *, *, #510, .T. ) ;
#887 = VECTOR ( 'NONE', #181, 1000.000000000000000 ) ;
#888 =( GEOMETRIC_REPRESENTATION_CONTEXT ( 3 ) GLOBAL_UNCERTAINTY_ASSIGNED_CONTEXT ( ( #858 ) ) GLOBAL_UNIT_ASSIGNED_CONTEXT ( ( #1136, #828, #961 ) ) REPRESENTATION_CONTEXT ( 'NONE', 'WORKASPACE' ) );
#889 = EDGE_CURVE ( 'NONE', #192, #1144, #582, .T. ) ;
#890 = ORIENTED_EDGE ( 'NONE', *, *, #79, .T. ) ;
#891 = DIRECTION ( 'NONE',  ( -1.000000000000000000, -2.449293598294704935E-16, 0.000000000000000000 ) ) ;
#892 = DIRECTION ( 'NONE',  ( 0.000000000000000000, 1.000000000000000000, 0.000000000000000000 ) ) ;
#893 = ORIENTED_EDGE ( 'NONE', *, *, #283, .F. ) ;
#894 = DIRECTION ( 'NONE',  ( 9.856383386231858827E-17, 1.000000000000000000, -0.000000000000000000 ) ) ;
#895 = VECTOR ( 'NONE', #1354, 1000.000000000000000 ) ;
#896 = ORIENTED_EDGE ( 'NONE', *, *, #283, .T. ) ;
#897 = FILL_AREA_STYLE_COLOUR ( '', #518 ) ;
#898 = VECTOR ( 'NONE', #1074, 1000.000000000000000 ) ;
#899 = VECTOR ( 'NONE', #1045, 1000.000000000000000 ) ;
#900 = FACE_OUTER_BOUND ( 'NONE', #380, .T. ) ;
#901 = SURFACE_STYLE_USAGE ( .BOTH. , #1315 ) ;
#902 = SURFACE_STYLE_FILL_AREA ( #507 ) ;
#903 = STYLED_ITEM ( 'NONE', ( #983 ), #754 ) ;
#904 = AXIS2_PLACEMENT_3D ( 'NONE', #226, #985, #1099 ) ;
#905 = DIRECTION ( 'NONE',  ( -0.000000000000000000, -0.000000000000000000, -1.000000000000000000 ) ) ;
#906 = FACE_OUTER_BOUND ( 'NONE', #247, .T. ) ;
#907 = EDGE_CURVE ( 'NONE', #695, #1246, #870, .T. ) ;
#908 = EDGE_CURVE ( 'NONE', #1269, #755, #402, .T. ) ;
#909 = DIRECTION ( 'NONE',  ( 1.000000000000000000, 0.000000000000000000, 0.000000000000000000 ) ) ;
#910 = VECTOR ( 'NONE', #344, 1000.000000000000000 ) ;
#911 = LINE ( 'NONE', #716, #917 ) ;
#912 = LINE ( 'NONE', #1318, #433 ) ;
#913 = VECTOR ( 'NONE', #519, 1000.000000000000000 ) ;
#914 = SURFACE_STYLE_FILL_AREA ( #1384 ) ;
#915 =( LENGTH_UNIT ( ) NAMED_UNIT ( * ) SI_UNIT ( .MILLI., .METRE. ) );
#916 = VECTOR ( 'NONE', #1286, 1000.000000000000000 ) ;
#917 = VECTOR ( 'NONE', #1342, 1000.000000000000000 ) ;
#918 = CARTESIAN_POINT ( 'NONE',  ( 0.000000000000000000, 0.000000000000000000, 0.2500000000000000000 ) ) ;
#919 = CARTESIAN_POINT ( 'NONE',  ( -0.2999999999999997113, 0.3799999999999998934, -0.1666666666666665741 ) ) ;
#920 = VECTOR ( 'NONE', #514, 1000.000000000000000 ) ;
#921 = PRESENTATION_LAYER_ASSIGNMENT (  '', '', ( #1322 ) ) ;
#922 = LINE ( 'NONE', #939, #932 ) ;
#923 = LINE ( 'NONE', #1051, #23 ) ;
#924 = EDGE_CURVE ( 'NONE', #768, #1220, #419, .T. ) ;
#925 = FACE_OUTER_BOUND ( 'NONE', #668, .T. ) ;
#926 = FACE_OUTER_BOUND ( 'NONE', #1132, .T. ) ;
#927 = SURFACE_STYLE_FILL_AREA ( #437 ) ;
#928 = FACE_OUTER_BOUND ( 'NONE', #781, .T. ) ;
#929 = SURFACE_STYLE_USAGE ( .BOTH. , #548 ) ;
#930 = CARTESIAN_POINT ( 'NONE',  ( 0.2999999999999997113, 0.3999999999999998557, -0.2500000000000000000 ) ) ;
#931 = CARTESIAN_POINT ( 'NONE',  ( -0.2999999999999997669, -0.4010249675906649713, -0.2500000000000000000 ) ) ;
#932 = VECTOR ( 'NONE', #77, 1000.000000000000000 ) ;
#933 = VECTOR ( 'NONE', #224, 1000.000000000000000 ) ;
#934 = DIRECTION ( 'NONE',  ( -1.000000000000000000, 0.000000000000000000, 0.000000000000000000 ) ) ;
#935 = VECTOR ( 'NONE', #821, 1000.000000000000000 ) ;
#936 = VECTOR ( 'NONE', #1170, 1000.000000000000000 ) ;
#937 = FACE_OUTER_BOUND ( 'NONE', #167, .T. ) ;
#938 = FACE_OUTER_BOUND ( 'NONE', #1229, .T. ) ;
#939 = CARTESIAN_POINT ( 'NONE',  ( 0.3800000000000000044, 0.3799999999999997824, -0.2500000000000000000 ) ) ;
#940 = DIRECTION ( 'NONE',  ( 0.000000000000000000, -0.000000000000000000, -1.000000000000000000 ) ) ;
#941 = FACE_OUTER_BOUND ( 'NONE', #1273, .T. ) ;
#942 = AXIS2_PLACEMENT_3D ( 'NONE', #476, #386, #1334 ) ;
#943 =( NAMED_UNIT ( * ) PLANE_ANGLE_UNIT ( ) SI_UNIT ( $, .RADIAN. ) );
#944 = EDGE_CURVE ( 'NONE', #793, #1256, #1339, .T. ) ;
#945 = CARTESIAN_POINT ( 'NONE',  ( -0.2499999999999995837, 0.02000000000000010450, 0.2500000000000000000 ) ) ;
#946 = VECTOR ( 'NONE', #852, 1000.000000000000000 ) ;
#947 = LINE ( 'NONE', #707, #478 ) ;
#948 = SURFACE_SIDE_STYLE ('',( #16 ) ) ;
#949 = LINE ( 'NONE', #1317, #913 ) ;
#950 = VECTOR ( 'NONE', #289, 1000.000000000000000 ) ;
#951 = PLANE ( 'NONE',  #817 ) ;
#952 = LINE ( 'NONE', #618, #14 ) ;
#953 = LINE ( 'NONE', #765, #528 ) ;
#954 = CARTESIAN_POINT ( 'NONE',  ( 0.2499999999999995837, 0.000000000000000000, 0.2500000000000000000 ) ) ;
#955 =( NAMED_UNIT ( * ) PLANE_ANGLE_UNIT ( ) SI_UNIT ( $, .RADIAN. ) );
#956 = FACE_OUTER_BOUND ( 'NONE', #1165, .T. ) ;
#957 = STYLED_ITEM ( 'NONE', ( #536 ), #1324 ) ;
#958 = ADVANCED_FACE ( 'NONE', ( #879 ), #1257, .F. ) ;
#959 = VECTOR ( 'NONE', #203, 1000.000000000000000 ) ;
#960 = VECTOR ( 'NONE', #1064, 1000.000000000000000 ) ;
#961 =( NAMED_UNIT ( * ) SI_UNIT ( $, .STERADIAN. ) SOLID_ANGLE_UNIT ( ) );
#962 = PRESENTATION_LAYER_ASSIGNMENT (  '', '', ( #76 ) ) ;
#963 = LINE ( 'NONE', #104, #933 ) ;
#964 = VECTOR ( 'NONE', #726, 1000.000000000000000 ) ;
#965 = EDGE_CURVE ( 'NONE', #691, #749, #1348, .T. ) ;
#966 = CARTESIAN_POINT ( 'NONE',  ( 0.3000000000000001554, 0.3799999999999997824, 0.1666666666666665741 ) ) ;
#967 = LINE ( 'NONE', #1071, #916 ) ;
#968 = VECTOR ( 'NONE', #83, 1000.000000000000000 ) ;
#969 = FACE_OUTER_BOUND ( 'NONE', #706, .T. ) ;
#970 = UNCERTAINTY_MEASURE_WITH_UNIT (LENGTH_MEASURE( 1.000000000000000082E-05 ), #365, 'distance_accuracy_value', 'NONE');
#971 = FACE_OUTER_BOUND ( 'NONE', #1216, .T. ) ;
#972 = SURFACE_STYLE_USAGE ( .BOTH. , #319 ) ;
#973 = DIRECTION ( 'NONE',  ( 1.000000000000000000, -2.449293598294704935E-16, 0.000000000000000000 ) ) ;
#974 = ADVANCED_FACE ( 'NONE', ( #1361 ), #1166, .T. ) ;
#975 = LINE ( 'NONE', #688, #997 ) ;
#976 = VECTOR ( 'NONE', #273, 1000.000000000000000 ) ;
#977 = MECHANICAL_DESIGN_GEOMETRIC_PRESENTATION_REPRESENTATION (  '', ( #1388 ), #1222 ) ;
#978 = EDGE_CURVE ( 'NONE', #237, #1201, #881, .T. ) ;
#979 = SURFACE_STYLE_FILL_AREA ( #1360 ) ;
#980 = EDGE_CURVE ( 'NONE', #1256, #1293, #1392, .T. ) ;
#981 = DIRECTION ( 'NONE',  ( -0.000000000000000000, -0.000000000000000000, 1.000000000000000000 ) ) ;
#982 =( NAMED_UNIT ( * ) PLANE_ANGLE_UNIT ( ) SI_UNIT ( $, .RADIAN. ) );
#983 = PRESENTATION_STYLE_ASSIGNMENT (( #972 ) ) ;
#984 = VECTOR ( 'NONE', #934, 1000.000000000000000 ) ;
#985 = DIRECTION ( 'NONE',  ( 0.000000000000000000, 1.000000000000000000, 0.000000000000000000 ) ) ;
#986 = LINE ( 'NONE', #1124, #480 ) ;
#987 = CARTESIAN_POINT ( 'NONE',  ( -0.3799999999999995604, 0.3999999999999999667, 0.1666666666666666297 ) ) ;
#988 = LINE ( 'NONE', #428, #509 ) ;
#989 = CARTESIAN_POINT ( 'NONE',  ( 0.4799999999999995381, 0.02000000000000007327, -0.2500000000000000000 ) ) ;
#990 = LINE ( 'NONE', #1186, #960 ) ;
#991 = LINE ( 'NONE', #728, #64 ) ;
#992 = VECTOR ( 'NONE', #1378, 1000.000000000000000 ) ;
#993 = CARTESIAN_POINT ( 'NONE',  ( 0.3800000000000001155, 0.3999999999999998557, 0.2499999999999998890 ) ) ;
#994 = CARTESIAN_POINT ( 'NONE',  ( -0.2999999999999997113, 0.3999999999999999667, -0.2500000000000000000 ) ) ;
#995 = PRESENTATION_LAYER_ASSIGNMENT (  '', '', ( #1034 ) ) ;
#996 = ADVANCED_FACE ( 'NONE', ( #1399 ), #1333, .F. ) ;
#997 = VECTOR ( 'NONE', #797, 1000.000000000000000 ) ;
#998 =( LENGTH_UNIT ( ) NAMED_UNIT ( * ) SI_UNIT ( .MILLI., .METRE. ) );
#999 = CARTESIAN_POINT ( 'NONE',  ( 0.4999999999999995559, 0.3999999999999999112, 0.2500000000000000000 ) ) ;
#1000 = VECTOR ( 'NONE', #1396, 1000.000000000000000 ) ;
#1001 = VECTOR ( 'NONE', #1161, 1000.000000000000000 ) ;
#1002 = PLANE ( 'NONE',  #584 ) ;
#1003 = LINE ( 'NONE', #477, #53 ) ;
#1004 = FACE_OUTER_BOUND ( 'NONE', #172, .T. ) ;
#1005 = LINE ( 'NONE', #621, #1000 ) ;
#1006 = LINE ( 'NONE', #1270, #976 ) ;
#1007 = DIRECTION ( 'NONE',  ( -1.000000000000000000, -0.000000000000000000, 6.776263578034403699E-16 ) ) ;
#1008 = STYLED_ITEM ( 'NONE', ( #564 ), #497 ) ;
#1009 = EDGE_CURVE ( 'NONE', #1296, #727, #922, .T. ) ;
#1010 = VECTOR ( 'NONE', #856, 1000.000000000000000 ) ;
#1011 = PLANE ( 'NONE',  #1119 ) ;
#1012 = PRESENTATION_STYLE_ASSIGNMENT (( #230 ) ) ;
#1013 = ADVANCED_FACE ( 'NONE', ( #925 ), #951, .F. ) ;
#1014 = LINE ( 'NONE', #736, #561 ) ;
#1015 = CARTESIAN_POINT ( 'NONE',  ( 0.2999999999999996003, 0.3999999999999998557, 0.2500000000000000000 ) ) ;
#1016 = LINE ( 'NONE', #330, #1010 ) ;
#1017 = FILL_AREA_STYLE ('',( #1320 ) ) ;
#1018 = VECTOR ( 'NONE', #1078, 1000.000000000000000 ) ;
#1019 = AXIS2_PLACEMENT_3D ( 'NONE', #252, #778, #156 ) ;
#1020 = SURFACE_STYLE_FILL_AREA ( #249 ) ;
#1021 = CARTESIAN_POINT ( 'NONE',  ( -0.4999999999999995559, -6.123233995736762338E-17, 0.2500000000000000000 ) ) ;
#1022 = EDGE_CURVE ( 'NONE', #827, #335, #458, .T. ) ;
#1023 = FACE_OUTER_BOUND ( 'NONE', #1314, .T. ) ;
#1024 = DIRECTION ( 'NONE',  ( 0.000000000000000000, 0.000000000000000000, 1.000000000000000000 ) ) ;
#1025 = EDGE_CURVE ( 'NONE', #755, #192, #1088, .T. ) ;
#1026 = DIRECTION ( 'NONE',  ( 0.000000000000000000, 0.000000000000000000, -1.000000000000000000 ) ) ;
#1027 = CARTESIAN_POINT ( 'NONE',  ( -0.4999999999999995559, -6.123233995736762338E-17, 0.2500000000000000000 ) ) ;
#1028 = DIRECTION ( 'NONE',  ( 0.000000000000000000, -1.000000000000000000, -0.000000000000000000 ) ) ;
#1029 = LINE ( 'NONE', #21, #75 ) ;
#1030 = DIRECTION ( 'NONE',  ( 1.000000000000000000, 0.000000000000000000, 0.000000000000000000 ) ) ;
#1031 = LINE ( 'NONE', #111, #65 ) ;
#1032 = CARTESIAN_POINT ( 'NONE',  ( 0.3000000000000000444, 0.3999999999999998557, -0.1666666666666666297 ) ) ;
#1033 = VECTOR ( 'NONE', #791, 1000.000000000000000 ) ;
#1034 = STYLED_ITEM ( 'NONE', ( #43 ), #233 ) ;
#1035 = EDGE_CURVE ( 'NONE', #1183, #216, #1089, .T. ) ;
#1036 = EDGE_CURVE ( 'NONE', #813, #311, #949, .T. ) ;
#1037 = DIRECTION ( 'NONE',  ( -1.000000000000000000, 0.000000000000000000, 0.000000000000000000 ) ) ;
#1038 = CARTESIAN_POINT ( 'NONE',  ( 0.2999999999999996003, 0.3999999999999999112, 0.2500000000000000000 ) ) ;
#1039 = DIRECTION ( 'NONE',  ( 0.000000000000000000, 1.000000000000000000, 0.000000000000000000 ) ) ;
#1040 = LINE ( 'NONE', #1127, #117 ) ;
#1041 = SURFACE_STYLE_FILL_AREA ( #1365 ) ;
#1042 = DIRECTION ( 'NONE',  ( -0.000000000000000000, -0.000000000000000000, -1.000000000000000000 ) ) ;
#1043 = VECTOR ( 'NONE', #981, 1000.000000000000000 ) ;
#1044 = COLOUR_RGB ( '',1.000000000000000000, 1.000000000000000000, 1.000000000000000000 ) ;
#1045 = DIRECTION ( 'NONE',  ( -0.000000000000000000, 1.000000000000000000, -0.000000000000000000 ) ) ;
#1046 = AXIS2_PLACEMENT_3D ( 'NONE', #742, #731, #619 ) ;
#1047 = SHAPE_DEFINITION_REPRESENTATION ( #575, #754 ) ;
#1048 = CARTESIAN_POINT ( 'NONE',  ( -0.2999999999999997669, 0.3799999999999998934, -0.2500000000000000000 ) ) ;
#1049 = VECTOR ( 'NONE', #430, 1000.000000000000000 ) ;
#1050 = EDGE_CURVE ( 'NONE', #1256, #355, #952, .T. ) ;
#1051 = CARTESIAN_POINT ( 'NONE',  ( 0.4799999999999995381, 0.02000000000000007327, -1.275280449438102925 ) ) ;
#1052 = VECTOR ( 'NONE', #390, 1000.000000000000000 ) ;
#1053 = CARTESIAN_POINT ( 'NONE',  ( -0.4799999999999995381, 0.02000000000000007327, 0.2500000000000000000 ) ) ;
#1054 = LINE ( 'NONE', #90, #126 ) ;
#1055 = FACE_OUTER_BOUND ( 'NONE', #814, .T. ) ;
#1056 = VECTOR ( 'NONE', #594, 1000.000000000000000 ) ;
#1057 =( NAMED_UNIT ( * ) SI_UNIT ( $, .STERADIAN. ) SOLID_ANGLE_UNIT ( ) );
#1058 = CARTESIAN_POINT ( 'NONE',  ( 0.2999999999999997113, 0.3799999999999998934, 0.2500000000000000000 ) ) ;
#1059 = CARTESIAN_POINT ( 'NONE',  ( -0.3799999999999995604, 0.3799999999999998934, 0.1666666666666666297 ) ) ;
#1060 = UNCERTAINTY_MEASURE_WITH_UNIT (LENGTH_MEASURE( 1.000000000000000082E-05 ), #998, 'distance_accuracy_value', 'NONE');
#1061 = VECTOR ( 'NONE', #1065, 1000.000000000000000 ) ;
#1062 = CARTESIAN_POINT ( 'NONE',  ( -0.3799999999999996714, 0.3999999999999999667, -0.2499999999999998890 ) ) ;
#1063 = VECTOR ( 'NONE', #310, 1000.000000000000000 ) ;
#1064 = DIRECTION ( 'NONE',  ( 0.000000000000000000, -0.000000000000000000, -1.000000000000000000 ) ) ;
#1065 = DIRECTION ( 'NONE',  ( -0.000000000000000000, -0.000000000000000000, -1.000000000000000000 ) ) ;
#1066 = FACE_OUTER_BOUND ( 'NONE', #840, .T. ) ;
#1067 = LINE ( 'NONE', #416, #1086 ) ;
#1068 = CARTESIAN_POINT ( 'NONE',  ( -0.4799999999999995381, 0.02000000000000007327, -0.2500000000000000000 ) ) ;
#1069 = LINE ( 'NONE', #194, #1063 ) ;
#1070 = AXIS2_PLACEMENT_3D ( 'NONE', #672, #500, #374 ) ;
#1071 = CARTESIAN_POINT ( 'NONE',  ( -0.4999999999999995559, -6.123233995736762338E-17, -0.2500000000000000000 ) ) ;
#1072 = EDGE_CURVE ( 'NONE', #749, #1238, #1373, .T. ) ;
#1073 = PRESENTATION_STYLE_ASSIGNMENT (( #1308 ) ) ;
#1074 = DIRECTION ( 'NONE',  ( -1.000000000000000000, 0.000000000000000000, -0.000000000000000000 ) ) ;
#1075 = LINE ( 'NONE', #439, #118 ) ;
#1076 = VECTOR ( 'NONE', #366, 1000.000000000000000 ) ;
#1077 = VECTOR ( 'NONE', #892, 1000.000000000000000 ) ;
#1078 = DIRECTION ( 'NONE',  ( -1.000000000000000000, 2.449293598294704935E-16, 0.000000000000000000 ) ) ;
#1079 =( LENGTH_UNIT ( ) NAMED_UNIT ( * ) SI_UNIT ( .MILLI., .METRE. ) );
#1080 = LINE ( 'NONE', #1215, #153 ) ;
#1081 = FACE_OUTER_BOUND ( 'NONE', #314, .T. ) ;
#1082 = COLOUR_RGB ( '',0.7921568627450980005, 0.8196078431372548767, 0.9333333333333333481 ) ;
#1083 =( LENGTH_UNIT ( ) NAMED_UNIT ( * ) SI_UNIT ( .MILLI., .METRE. ) );
#1084 = PLANE ( 'NONE',  #635 ) ;
#1085 = LINE ( 'NONE', #202, #595 ) ;
#1086 = VECTOR ( 'NONE', #1283, 1000.000000000000000 ) ;
#1087 = DIRECTION ( 'NONE',  ( -1.000000000000000000, 0.000000000000000000, 0.000000000000000000 ) ) ;
#1088 = LINE ( 'NONE', #1364, #617 ) ;
#1089 = LINE ( 'NONE', #298, #441 ) ;
#1090 = CARTESIAN_POINT ( 'NONE',  ( 0.2999999999999996003, 0.3799999999999998934, 0.2500000000000000000 ) ) ;
#1091 = FILL_AREA_STYLE_COLOUR ( '', #98 ) ;
#1092 = LINE ( 'NONE', #331, #149 ) ;
#1093 = AXIS2_PLACEMENT_3D ( 'NONE', #1159, #36, #253 ) ;
#1094 = ADVANCED_FACE ( 'NONE', ( #18 ), #722, .F. ) ;
#1095 = EDGE_CURVE ( 'NONE', #244, #1240, #492, .T. ) ;
#1096 =( NAMED_UNIT ( * ) PLANE_ANGLE_UNIT ( ) SI_UNIT ( $, .RADIAN. ) );
#1097 = VECTOR ( 'NONE', #468, 1000.000000000000000 ) ;
#1098 = EDGE_CURVE ( 'NONE', #832, #1260, #443, .T. ) ;
#1099 = DIRECTION ( 'NONE',  ( 0.000000000000000000, -0.000000000000000000, 1.000000000000000000 ) ) ;
#1100 = VERTEX_POINT ( 'NONE', #732 ) ;
#1101 =( NAMED_UNIT ( * ) PLANE_ANGLE_UNIT ( ) SI_UNIT ( $, .RADIAN. ) );
#1102 = DIRECTION ( 'NONE',  ( 2.168404344971008868E-16, -0.000000000000000000, -1.000000000000000000 ) ) ;
#1103 = ORIENTED_EDGE ( 'NONE', *, *, #721, .T. ) ;
#1104 = ADVANCED_FACE ( 'NONE', ( #941 ), #301, .F. ) ;
#1105 = VERTEX_POINT ( 'NONE', #830 ) ;
#1106 = ORIENTED_EDGE ( 'NONE', *, *, #267, .T. ) ;
#1107 = STYLED_ITEM ( 'NONE', ( #109 ), #861 ) ;
#1108 = AXIS2_PLACEMENT_3D ( 'NONE', #1302, #1087, #450 ) ;
#1109 = DIRECTION ( 'NONE',  ( -1.000000000000000000, 1.325790700050209484E-16, 0.000000000000000000 ) ) ;
#1110 = ORIENTED_EDGE ( 'NONE', *, *, #944, .F. ) ;
#1111 = CARTESIAN_POINT ( 'NONE',  ( -0.3799999999999995604, 0.3799999999999998934, 0.2500000000000000000 ) ) ;
#1112 = ORIENTED_EDGE ( 'NONE', *, *, #180, .T. ) ;
#1113 = ORIENTED_EDGE ( 'NONE', *, *, #1098, .T. ) ;
#1114 =( NAMED_UNIT ( * ) SI_UNIT ( $, .STERADIAN. ) SOLID_ANGLE_UNIT ( ) );
#1115 = CARTESIAN_POINT ( 'NONE',  ( 0.3000000000000000444, 0.3799999999999997824, -0.1666666666666666297 ) ) ;
#1116 = ORIENTED_EDGE ( 'NONE', *, *, #1353, .T. ) ;
#1117 = FILL_AREA_STYLE_COLOUR ( '', #1044 ) ;
#1118 = EDGE_LOOP ( 'NONE', ( #363, #189, #1247, #1343 ) ) ;
#1119 = AXIS2_PLACEMENT_3D ( 'NONE', #1121, #1404, #122 ) ;
#1120 = ORIENTED_EDGE ( 'NONE', *, *, #1095, .F. ) ;
#1121 = CARTESIAN_POINT ( 'NONE',  ( -0.2999999999999997669, -0.4010249675906649713, -0.2500000000000000000 ) ) ;
#1122 = CARTESIAN_POINT ( 'NONE',  ( 0.4799999999999995381, 0.3799999999999998934, -1.275280449438102925 ) ) ;
#1123 = ORIENTED_EDGE ( 'NONE', *, *, #773, .T. ) ;
#1124 = CARTESIAN_POINT ( 'NONE',  ( 0.3800000000000001155, 0.3799999999999997824, 0.2499999999999998890 ) ) ;
#1125 = ORIENTED_EDGE ( 'NONE', *, *, #1337, .F. ) ;
#1126 = ORIENTED_EDGE ( 'NONE', *, *, #79, .F. ) ;
#1127 = CARTESIAN_POINT ( 'NONE',  ( -0.4799999999999995381, 0.3799999999999998934, -0.2500000000000000000 ) ) ;
#1128 = EDGE_LOOP ( 'NONE', ( #1163, #751, #264, #1350 ) ) ;
#1129 = ORIENTED_EDGE ( 'NONE', *, *, #1371, .F. ) ;
#1130 = AXIS2_PLACEMENT_3D ( 'NONE', #521, #59, #312 ) ;
#1131 =( NAMED_UNIT ( * ) PLANE_ANGLE_UNIT ( ) SI_UNIT ( $, .RADIAN. ) );
#1132 = EDGE_LOOP ( 'NONE', ( #1185, #661, #190, #1262 ) ) ;
#1133 = MECHANICAL_DESIGN_GEOMETRIC_PRESENTATION_REPRESENTATION (  '', ( #281 ), #756 ) ;
#1134 = EDGE_CURVE ( 'NONE', #649, #1345, #490, .T. ) ;
#1135 = ORIENTED_EDGE ( 'NONE', *, *, #1353, .F. ) ;
#1136 =( LENGTH_UNIT ( ) NAMED_UNIT ( * ) SI_UNIT ( .MILLI., .METRE. ) );
#1137 = CARTESIAN_POINT ( 'NONE',  ( -0.2999999999999996003, 0.3799999999999998934, 0.1666666666666666297 ) ) ;
#1138 = ORIENTED_EDGE ( 'NONE', *, *, #1171, .F. ) ;
#1139 = CARTESIAN_POINT ( 'NONE',  ( 0.2499999999999995837, 0.02000000000000010450, -0.2500000000000000000 ) ) ;
#1140 = ORIENTED_EDGE ( 'NONE', *, *, #1072, .T. ) ;
#1141 = DIRECTION ( 'NONE',  ( 0.000000000000000000, 0.000000000000000000, -1.000000000000000000 ) ) ;
#1142 = EDGE_LOOP ( 'NONE', ( #747, #326, #673, #1155 ) ) ;
#1143 = UNCERTAINTY_MEASURE_WITH_UNIT (LENGTH_MEASURE( 1.000000000000000082E-05 ), #187, 'distance_accuracy_value', 'NONE');
#1144 = VERTEX_POINT ( 'NONE', #1258 ) ;
#1145 = PLANE ( 'NONE',  #1207 ) ;
#1146 = ORIENTED_EDGE ( 'NONE', *, *, #599, .F. ) ;
#1147 =( NAMED_UNIT ( * ) SI_UNIT ( $, .STERADIAN. ) SOLID_ANGLE_UNIT ( ) );
#1148 =( GEOMETRIC_REPRESENTATION_CONTEXT ( 3 ) GLOBAL_UNCERTAINTY_ASSIGNED_CONTEXT ( ( #95 ) ) GLOBAL_UNIT_ASSIGNED_CONTEXT ( ( #1083, #1096, #13 ) ) REPRESENTATION_CONTEXT ( 'NONE', 'WORKASPACE' ) );
#1149 = ORIENTED_EDGE ( 'NONE', *, *, #1274, .T. ) ;
#1150 = EDGE_CURVE ( 'NONE', #304, #398, #1376, .T. ) ;
#1151 = DIRECTION ( 'NONE',  ( 2.168404344971008868E-16, 0.000000000000000000, 1.000000000000000000 ) ) ;
#1152 = EDGE_CURVE ( 'NONE', #282, #1100, #1, .T. ) ;
#1153 = ORIENTED_EDGE ( 'NONE', *, *, #1036, .F. ) ;
#1154 = PLANE ( 'NONE',  #802 ) ;
#1155 = ORIENTED_EDGE ( 'NONE', *, *, #787, .F. ) ;
#1156 = CARTESIAN_POINT ( 'NONE',  ( -0.2499999999999995837, 0.02000000000000010450, 0.2500000000000000000 ) ) ;
#1157 = CARTESIAN_POINT ( 'NONE',  ( -0.2499999999999995837, 0.000000000000000000, 0.2500000000000000000 ) ) ;
#1158 = ORIENTED_EDGE ( 'NONE', *, *, #1022, .T. ) ;
#1159 = CARTESIAN_POINT ( 'NONE',  ( 0.4799999999999995381, 0.02000000000000007327, 0.2500000000000000000 ) ) ;
#1160 = EDGE_LOOP ( 'NONE', ( #297, #795, #174, #771 ) ) ;
#1161 = DIRECTION ( 'NONE',  ( 0.000000000000000000, -1.000000000000000000, -0.000000000000000000 ) ) ;
#1162 = ADVANCED_FACE ( 'NONE', ( #937 ), #188, .F. ) ;
#1163 = ORIENTED_EDGE ( 'NONE', *, *, #212, .T. ) ;
#1164 = PRODUCT ( '10.50.40.20.25', '10.50.40.20.25', '', ( #69 ) ) ;
#1165 = EDGE_LOOP ( 'NONE', ( #406, #1280, #271, #352 ) ) ;
#1166 = PLANE ( 'NONE',  #581 ) ;
#1167 = DIRECTION ( 'NONE',  ( 0.000000000000000000, 0.000000000000000000, -1.000000000000000000 ) ) ;
#1168 = VERTEX_POINT ( 'NONE', #501 ) ;
#1169 = AXIS2_PLACEMENT_3D ( 'NONE', #436, #40, #455 ) ;
#1170 = DIRECTION ( 'NONE',  ( 0.000000000000000000, 0.000000000000000000, 1.000000000000000000 ) ) ;
#1171 = EDGE_CURVE ( 'NONE', #820, #244, #1401, .T. ) ;
#1172 = ORIENTED_EDGE ( 'NONE', *, *, #653, .T. ) ;
#1173 = CARTESIAN_POINT ( 'NONE',  ( -0.2999999999999997113, 0.3799999999999998934, 0.2500000000000000000 ) ) ;
#1174 = CARTESIAN_POINT ( 'NONE',  ( -0.2999999999999997113, 0.3999999999999999667, -0.1666666666666665741 ) ) ;
#1175 = ORIENTED_EDGE ( 'NONE', *, *, #1025, .T. ) ;
#1176 = PLANE ( 'NONE',  #1349 ) ;
#1177 = DIRECTION ( 'NONE',  ( -1.000000000000000000, 1.807003620809175864E-16, -0.000000000000000000 ) ) ;
#1178 = CARTESIAN_POINT ( 'NONE',  ( -0.4799999999999995381, 0.3799999999999998934, -1.275280449438102925 ) ) ;
#1179 = ADVANCED_FACE ( 'NONE', ( #926 ), #87, .F. ) ;
#1180 = EDGE_LOOP ( 'NONE', ( #806, #329, #360, #790 ) ) ;
#1181 = CARTESIAN_POINT ( 'NONE',  ( 0.4799999999999995381, 0.3799999999999998934, 0.2500000000000000000 ) ) ;
#1182 = CARTESIAN_POINT ( 'NONE',  ( 0.4799999999999995381, 0.3799999999999998934, -0.2500000000000000000 ) ) ;
#1183 = VERTEX_POINT ( 'NONE', #1242 ) ;
#1184 = DIRECTION ( 'NONE',  ( -1.000000000000000000, 1.807003620809176604E-16, 0.000000000000000000 ) ) ;
#1185 = ORIENTED_EDGE ( 'NONE', *, *, #110, .T. ) ;
#1186 = CARTESIAN_POINT ( 'NONE',  ( 0.4999999999999995559, -6.123233995736762338E-17, 0.2500000000000000000 ) ) ;
#1187 = ORIENTED_EDGE ( 'NONE', *, *, #1255, .T. ) ;
#1188 = ORIENTED_EDGE ( 'NONE', *, *, #908, .F. ) ;
#1189 = SURFACE_SIDE_STYLE ('',( #133 ) ) ;
#1190 =( GEOMETRIC_REPRESENTATION_CONTEXT ( 3 ) GLOBAL_UNCERTAINTY_ASSIGNED_CONTEXT ( ( #970 ) ) GLOBAL_UNIT_ASSIGNED_CONTEXT ( ( #365, #347, #868 ) ) REPRESENTATION_CONTEXT ( 'NONE', 'WORKASPACE' ) );
#1191 = CLOSED_SHELL ( 'NONE', ( #562, #497, #1316, #233, #105, #1324 ) ) ;
#1192 = EDGE_CURVE ( 'NONE', #423, #268, #463, .T. ) ;
#1193 =( LENGTH_UNIT ( ) NAMED_UNIT ( * ) SI_UNIT ( .MILLI., .METRE. ) );
#1194 = ORIENTED_EDGE ( 'NONE', *, *, #758, .F. ) ;
#1195 = DIRECTION ( 'NONE',  ( -1.000000000000000000, 0.000000000000000000, -0.000000000000000000 ) ) ;
#1196 = ORIENTED_EDGE ( 'NONE', *, *, #1390, .T. ) ;
#1197 = FILL_AREA_STYLE ('',( #1091 ) ) ;
#1198 = VERTEX_POINT ( 'NONE', #930 ) ;
#1199 = ORIENTED_EDGE ( 'NONE', *, *, #1225, .T. ) ;
#1200 = CARTESIAN_POINT ( 'NONE',  ( -0.2999999999999996558, 0.3799999999999998934, 0.2500000000000000000 ) ) ;
#1201 = VERTEX_POINT ( 'NONE', #1032 ) ;
#1202 = ORIENTED_EDGE ( 'NONE', *, *, #944, .T. ) ;
#1203 =( GEOMETRIC_REPRESENTATION_CONTEXT ( 3 ) GLOBAL_UNCERTAINTY_ASSIGNED_CONTEXT ( ( #81 ) ) GLOBAL_UNIT_ASSIGNED_CONTEXT ( ( #656, #296, #113 ) ) REPRESENTATION_CONTEXT ( 'NONE', 'WORKASPACE' ) );
#1204 =( NAMED_UNIT ( * ) PLANE_ANGLE_UNIT ( ) SI_UNIT ( $, .RADIAN. ) );
#1205 = PLANE ( 'NONE',  #823 ) ;
#1206 = ORIENTED_EDGE ( 'NONE', *, *, #908, .T. ) ;
#1207 = AXIS2_PLACEMENT_3D ( 'NONE', #1181, #103, #214 ) ;
#1208 = DIRECTION ( 'NONE',  ( 0.000000000000000000, -0.000000000000000000, -1.000000000000000000 ) ) ;
#1209 = EDGE_CURVE ( 'NONE', #657, #304, #1393, .T. ) ;
#1210 = VERTEX_POINT ( 'NONE', #1182 ) ;
#1211 = PLANE ( 'NONE',  #904 ) ;
#1212 = ORIENTED_EDGE ( 'NONE', *, *, #267, .F. ) ;
#1213 = VERTEX_POINT ( 'NONE', #333 ) ;
#1214 = SURFACE_STYLE_USAGE ( .BOTH. , #671 ) ;
#1215 = CARTESIAN_POINT ( 'NONE',  ( 0.3000000000000000444, 0.3999999999999998557, -0.1666666666666666297 ) ) ;
#1216 = EDGE_LOOP ( 'NONE', ( #1199, #274, #236, #863 ) ) ;
#1217 = APPLICATION_PROTOCOL_DEFINITION ( 'draft international standard', 'automotive_design', 1998, #290 ) ;
#1218 = ORIENTED_EDGE ( 'NONE', *, *, #889, .T. ) ;
#1219 = PLANE ( 'NONE',  #354 ) ;
#1220 = VERTEX_POINT ( 'NONE', #762 ) ;
#1221 = CARTESIAN_POINT ( 'NONE',  ( 0.000000000000000000, 0.000000000000000000, 0.000000000000000000 ) ) ;
#1222 =( GEOMETRIC_REPRESENTATION_CONTEXT ( 3 ) GLOBAL_UNCERTAINTY_ASSIGNED_CONTEXT ( ( #1351 ) ) GLOBAL_UNIT_ASSIGNED_CONTEXT ( ( #1079, #405, #860 ) ) REPRESENTATION_CONTEXT ( 'NONE', 'WORKASPACE' ) );
#1223 = VERTEX_POINT ( 'NONE', #862 ) ;
#1224 = PRESENTATION_LAYER_ASSIGNMENT (  '', '', ( #150 ) ) ;
#1225 = EDGE_CURVE ( 'NONE', #210, #1246, #967, .T. ) ;
#1226 = ORIENTED_EDGE ( 'NONE', *, *, #739, .F. ) ;
#1227 = EDGE_CURVE ( 'NONE', #768, #662, #963, .T. ) ;
#1228 = DIRECTION ( 'NONE',  ( -1.000000000000000000, -0.000000000000000000, -0.000000000000000000 ) ) ;
#1229 = EDGE_LOOP ( 'NONE', ( #1304, #746, #242, #1328, #279, #421, #699, #1344 ) ) ;
#1230 = ORIENTED_EDGE ( 'NONE', *, *, #373, .F. ) ;
#1231 = ORIENTED_EDGE ( 'NONE', *, *, #10, .T. ) ;
#1232 =( LENGTH_UNIT ( ) NAMED_UNIT ( * ) SI_UNIT ( .MILLI., .METRE. ) );
#1233 = CARTESIAN_POINT ( 'NONE',  ( 0.4799999999999995381, 0.02000000000000007327, -0.2500000000000000000 ) ) ;
#1234 = ORIENTED_EDGE ( 'NONE', *, *, #469, .T. ) ;
#1235 = ADVANCED_FACE ( 'NONE', ( #1397 ), #853, .T. ) ;
#1236 = EDGE_LOOP ( 'NONE', ( #1196, #1329, #777, #875 ) ) ;
#1237 = SURFACE_STYLE_USAGE ( .BOTH. , #139 ) ;
#1238 = VERTEX_POINT ( 'NONE', #1279 ) ;
#1239 = AXIS2_PLACEMENT_3D ( 'NONE', #403, #1281, #1261 ) ;
#1240 = VERTEX_POINT ( 'NONE', #1359 ) ;
#1241 = CARTESIAN_POINT ( 'NONE',  ( -0.3799999999999996714, 0.3799999999999998934, -0.2499999999999998890 ) ) ;
#1242 = CARTESIAN_POINT ( 'NONE',  ( -0.4799999999999995381, 0.3799999999999998934, 0.2500000000000000000 ) ) ;
#1243 = ORIENTED_EDGE ( 'NONE', *, *, #924, .T. ) ;
#1244 = ORIENTED_EDGE ( 'NONE', *, *, #529, .T. ) ;
#1245 = DIRECTION ( 'NONE',  ( -1.000000000000000000, 2.449293598294704935E-16, 0.000000000000000000 ) ) ;
#1246 = VERTEX_POINT ( 'NONE', #632 ) ;
#1247 = ORIENTED_EDGE ( 'NONE', *, *, #385, .F. ) ;
#1248 = DIRECTION ( 'NONE',  ( -1.000000000000000000, 0.000000000000000000, -0.000000000000000000 ) ) ;
#1249 = ORIENTED_EDGE ( 'NONE', *, *, #787, .T. ) ;
#1250 = DIRECTION ( 'NONE',  ( 1.000000000000000000, -1.325790700050209484E-16, 0.000000000000000000 ) ) ;
#1251 = ORIENTED_EDGE ( 'NONE', *, *, #62, .T. ) ;
#1252 = CARTESIAN_POINT ( 'NONE',  ( -0.3799999999999995604, 0.3799999999999998934, 0.2500000000000000000 ) ) ;
#1253 = MECHANICAL_DESIGN_GEOMETRIC_PRESENTATION_REPRESENTATION (  '', ( #1107 ), #209 ) ;
#1254 = ORIENTED_EDGE ( 'NONE', *, *, #1022, .F. ) ;
#1255 = EDGE_CURVE ( 'NONE', #1144, #311, #483, .T. ) ;
#1256 = VERTEX_POINT ( 'NONE', #82 ) ;
#1257 = PLANE ( 'NONE',  #1287 ) ;
#1258 = CARTESIAN_POINT ( 'NONE',  ( 0.4799999999999995381, 0.02000000000000007327, -0.2500000000000000000 ) ) ;
#1259 = ORIENTED_EDGE ( 'NONE', *, *, #525, .T. ) ;
#1260 = VERTEX_POINT ( 'NONE', #622 ) ;
#1261 = DIRECTION ( 'NONE',  ( 1.000000000000000000, 0.000000000000000000, 0.000000000000000000 ) ) ;
#1262 = ORIENTED_EDGE ( 'NONE', *, *, #229, .T. ) ;
#1263 = DIRECTION ( 'NONE',  ( 1.000000000000000000, 0.000000000000000000, -6.776263578034402713E-16 ) ) ;
#1264 = ORIENTED_EDGE ( 'NONE', *, *, #655, .F. ) ;
#1265 = DIRECTION ( 'NONE',  ( -1.000000000000000000, 0.000000000000000000, 0.000000000000000000 ) ) ;
#1266 = CARTESIAN_POINT ( 'NONE',  ( -0.4799999999999995381, 0.02000000000000007327, 0.2500000000000000000 ) ) ;
#1267 = CARTESIAN_POINT ( 'NONE',  ( -0.4999999999999995559, 0.3999999999999999112, 0.2500000000000000000 ) ) ;
#1268 = ORIENTED_EDGE ( 'NONE', *, *, #924, .F. ) ;
#1269 = VERTEX_POINT ( 'NONE', #954 ) ;
#1270 = CARTESIAN_POINT ( 'NONE',  ( 0.2999999999999996558, -0.4010249675906650824, -0.2500000000000000000 ) ) ;
#1271 = EDGE_CURVE ( 'NONE', #686, #244, #923, .T. ) ;
#1272 = CARTESIAN_POINT ( 'NONE',  ( -0.3799999999999996714, 0.3799999999999998934, -0.2499999999999998890 ) ) ;
#1273 = EDGE_LOOP ( 'NONE', ( #712, #376, #719, #382, #370, #1202, #733, #413 ) ) ;
#1274 = EDGE_CURVE ( 'NONE', #657, #1105, #487, .T. ) ;
#1275 = DIRECTION ( 'NONE',  ( 0.000000000000000000, 0.000000000000000000, -1.000000000000000000 ) ) ;
#1276 = ORIENTED_EDGE ( 'NONE', *, *, #26, .T. ) ;
#1277 = CARTESIAN_POINT ( 'NONE',  ( -0.4799999999999995381, 0.02000000000000007327, 0.2500000000000000000 ) ) ;
#1278 = ORIENTED_EDGE ( 'NONE', *, *, #1271, .T. ) ;
#1279 = CARTESIAN_POINT ( 'NONE',  ( 0.3800000000000000044, 0.3999999999999998557, -0.1666666666666666297 ) ) ;
#1280 = ORIENTED_EDGE ( 'NONE', *, *, #1072, .F. ) ;
#1281 = DIRECTION ( 'NONE',  ( -0.000000000000000000, 0.000000000000000000, 1.000000000000000000 ) ) ;
#1282 = ORIENTED_EDGE ( 'NONE', *, *, #110, .F. ) ;
#1283 = DIRECTION ( 'NONE',  ( 9.856383386231858827E-17, 1.000000000000000000, -0.000000000000000000 ) ) ;
#1284 = ORIENTED_EDGE ( 'NONE', *, *, #395, .T. ) ;
#1285 = CARTESIAN_POINT ( 'NONE',  ( 0.4999999999999995559, 0.3999999999999999112, -0.2500000000000000000 ) ) ;
#1286 = DIRECTION ( 'NONE',  ( -0.000000000000000000, -1.000000000000000000, -0.000000000000000000 ) ) ;
#1287 = AXIS2_PLACEMENT_3D ( 'NONE', #1156, #57, #277 ) ;
#1288 = VERTEX_POINT ( 'NONE', #206 ) ;
#1289 = CARTESIAN_POINT ( 'NONE',  ( -0.3799999999999995604, 0.3799999999999998934, 0.2500000000000000000 ) ) ;
#1290 = AXIS2_PLACEMENT_3D ( 'NONE', #667, #205, #1184 ) ;
#1291 = ADVANCED_FACE ( 'NONE', ( #1405 ), #29, .F. ) ;
#1292 = DIRECTION ( 'NONE',  ( 0.000000000000000000, 0.000000000000000000, -1.000000000000000000 ) ) ;
#1293 = VERTEX_POINT ( 'NONE', #1303 ) ;
#1294 = EDGE_CURVE ( 'NONE', #1345, #695, #911, .T. ) ;
#1295 = CARTESIAN_POINT ( 'NONE',  ( 0.3800000000000001155, 0.3799999999999997824, 0.1666666666666665186 ) ) ;
#1296 = VERTEX_POINT ( 'NONE', #877 ) ;
#1297 = CARTESIAN_POINT ( 'NONE',  ( -0.2999999999999997113, 0.3799999999999998934, -0.1666666666666665741 ) ) ;
#1298 = SURFACE_SIDE_STYLE ('',( #927 ) ) ;
#1299 = VECTOR ( 'NONE', #291, 1000.000000000000000 ) ;
#1300 = DIRECTION ( 'NONE',  ( -1.000000000000000000, 0.000000000000000000, 0.000000000000000000 ) ) ;
#1301 = ORIENTED_EDGE ( 'NONE', *, *, #652, .F. ) ;
#1302 = CARTESIAN_POINT ( 'NONE',  ( -0.4799999999999995381, 0.02000000000000007327, 0.2500000000000000000 ) ) ;
#1303 = CARTESIAN_POINT ( 'NONE',  ( -0.2499999999999995837, 0.02000000000000010450, -0.2500000000000000000 ) ) ;
#1304 = ORIENTED_EDGE ( 'NONE', *, *, #1134, .F. ) ;
#1305 = CARTESIAN_POINT ( 'NONE',  ( -0.2999999999999996003, 0.3999999999999999667, 0.2500000000000000000 ) ) ;
#1306 = VECTOR ( 'NONE', #894, 1000.000000000000000 ) ;
#1307 = SURFACE_SIDE_STYLE ('',( #84 ) ) ;
#1308 = SURFACE_STYLE_USAGE ( .BOTH. , #307 ) ;
#1309 = ORIENTED_EDGE ( 'NONE', *, *, #392, .T. ) ;
#1310 = PRESENTATION_LAYER_ASSIGNMENT (  '', '', ( #1008 ) ) ;
#1311 = PRESENTATION_STYLE_ASSIGNMENT (( #358 ) ) ;
#1312 = EDGE_CURVE ( 'NONE', #1198, #1213, #1379, .T. ) ;
#1313 = DIRECTION ( 'NONE',  ( 9.856383386231858827E-17, 1.000000000000000000, -0.000000000000000000 ) ) ;
#1314 = EDGE_LOOP ( 'NONE', ( #207, #292, #627, #1129 ) ) ;
#1315 = SURFACE_SIDE_STYLE ('',( #154 ) ) ;
#1316 = ADVANCED_FACE ( 'NONE', ( #1382 ), #694, .T. ) ;
#1317 = CARTESIAN_POINT ( 'NONE',  ( 0.4799999999999995381, 0.3799999999999998934, 0.2500000000000000000 ) ) ;
#1318 = CARTESIAN_POINT ( 'NONE',  ( 0.4999999999999995559, 0.3999999999999999112, -0.2500000000000000000 ) ) ;
#1319 = AXIS2_PLACEMENT_3D ( 'NONE', #323, #420, #639 ) ;
#1320 = FILL_AREA_STYLE_COLOUR ( '', #68 ) ;
#1321 = FILL_AREA_STYLE_COLOUR ( '', #1082 ) ;
#1322 = STYLED_ITEM ( 'NONE', ( #114 ), #847 ) ;
#1323 = EDGE_CURVE ( 'NONE', #268, #1198, #1003, .T. ) ;
#1324 = ADVANCED_FACE ( 'NONE', ( #969 ), #546, .F. ) ;
#1325 = CARTESIAN_POINT ( 'NONE',  ( -0.2999999999999996558, -0.4010249675906649713, 0.2500000000000000000 ) ) ;
#1326 = CARTESIAN_POINT ( 'NONE',  ( -0.2499999999999995837, 0.000000000000000000, 0.2500000000000000000 ) ) ;
#1327 = VERTEX_POINT ( 'NONE', #1395 ) ;
#1328 = ORIENTED_EDGE ( 'NONE', *, *, #152, .T. ) ;
#1329 = ORIENTED_EDGE ( 'NONE', *, *, #867, .F. ) ;
#1330 = EDGE_LOOP ( 'NONE', ( #260, #871, #1149, #1231 ) ) ;
#1331 = STYLED_ITEM ( 'NONE', ( #5 ), #1316 ) ;
#1332 = PRESENTATION_LAYER_ASSIGNMENT (  '', '', ( #263 ) ) ;
#1333 = PLANE ( 'NONE',  #317 ) ;
#1334 = DIRECTION ( 'NONE',  ( -1.000000000000000000, 0.000000000000000000, -0.000000000000000000 ) ) ;
#1335 = ORIENTED_EDGE ( 'NONE', *, *, #1209, .T. ) ;
#1336 = EDGE_CURVE ( 'NONE', #300, #268, #988, .T. ) ;
#1337 = EDGE_CURVE ( 'NONE', #200, #237, #991, .T. ) ;
#1338 = ORIENTED_EDGE ( 'NONE', *, *, #758, .T. ) ;
#1339 = LINE ( 'NONE', #945, #899 ) ;
#1340 = EDGE_LOOP ( 'NONE', ( #1251, #341, #798, #197 ) ) ;
#1341 =( LENGTH_UNIT ( ) NAMED_UNIT ( * ) SI_UNIT ( .MILLI., .METRE. ) );
#1342 = DIRECTION ( 'NONE',  ( -0.000000000000000000, -1.000000000000000000, -0.000000000000000000 ) ) ;
#1343 = ORIENTED_EDGE ( 'NONE', *, *, #637, .T. ) ;
#1344 = ORIENTED_EDGE ( 'NONE', *, *, #572, .F. ) ;
#1345 = VERTEX_POINT ( 'NONE', #255 ) ;
#1346 = ORIENTED_EDGE ( 'NONE', *, *, #266, .F. ) ;
#1347 =( NAMED_UNIT ( * ) SI_UNIT ( $, .STERADIAN. ) SOLID_ANGLE_UNIT ( ) );
#1348 = LINE ( 'NONE', #193, #895 ) ;
#1349 = AXIS2_PLACEMENT_3D ( 'NONE', #348, #1275, #544 ) ;
#1350 = ORIENTED_EDGE ( 'NONE', *, *, #91, .T. ) ;
#1351 = UNCERTAINTY_MEASURE_WITH_UNIT (LENGTH_MEASURE( 1.000000000000000082E-05 ), #1079, 'distance_accuracy_value', 'NONE');
#1352 = SURFACE_STYLE_FILL_AREA ( #1372 ) ;
#1353 = EDGE_CURVE ( 'NONE', #1213, #300, #511, .T. ) ;
#1354 = DIRECTION ( 'NONE',  ( 1.000000000000000000, 0.000000000000000000, 0.000000000000000000 ) ) ;
#1355 = CARTESIAN_POINT ( 'NONE',  ( 0.3800000000000000044, 0.3799999999999997824, -0.1666666666666666297 ) ) ;
#1356 = ORIENTED_EDGE ( 'NONE', *, *, #195, .F. ) ;
#1357 = APPLICATION_CONTEXT ( 'automotive_design' ) ;
#1358 = LINE ( 'NONE', #966, #438 ) ;
#1359 = CARTESIAN_POINT ( 'NONE',  ( 0.4799999999999995381, 0.3799999999999998934, 0.2500000000000000000 ) ) ;
#1360 = FILL_AREA_STYLE ('',( #897 ) ) ;
#1361 = FACE_OUTER_BOUND ( 'NONE', #404, .T. ) ;
#1362 = PRESENTATION_STYLE_ASSIGNMENT (( #698 ) ) ;
#1363 = COLOUR_RGB ( '',1.000000000000000000, 1.000000000000000000, 1.000000000000000000 ) ;
#1364 = CARTESIAN_POINT ( 'NONE',  ( 0.2499999999999995837, 0.02000000000000010450, -0.2500000000000000000 ) ) ;
#1365 = FILL_AREA_STYLE ('',( #647 ) ) ;
#1366 = DIRECTION ( 'NONE',  ( 1.000000000000000000, -1.325790700050209484E-16, 0.000000000000000000 ) ) ;
#1367 = CARTESIAN_POINT ( 'NONE',  ( -0.3799999999999995604, 0.3799999999999998934, 0.1666666666666666297 ) ) ;
#1368 = STYLED_ITEM ( 'NONE', ( #614 ), #689 ) ;
#1369 = UNCERTAINTY_MEASURE_WITH_UNIT (LENGTH_MEASURE( 1.000000000000000082E-05 ), #794, 'distance_accuracy_value', 'NONE');
#1370 = VECTOR ( 'NONE', #1177, 1000.000000000000000 ) ;
#1371 = EDGE_CURVE ( 'NONE', #633, #1198, #1006, .T. ) ;
#1372 = FILL_AREA_STYLE ('',( #600 ) ) ;
#1373 = LINE ( 'NONE', #838, #950 ) ;
#1374 = CARTESIAN_POINT ( 'NONE',  ( -0.4799999999999995381, 0.3799999999999998934, -0.2500000000000000000 ) ) ;
#1375 = DIRECTION ( 'NONE',  ( -1.000000000000000000, 0.000000000000000000, 0.000000000000000000 ) ) ;
#1376 = LINE ( 'NONE', #1059, #452 ) ;
#1377 = VECTOR ( 'NONE', #905, 1000.000000000000000 ) ;
#1378 = DIRECTION ( 'NONE',  ( -0.000000000000000000, -1.000000000000000000, -0.000000000000000000 ) ) ;
#1379 = LINE ( 'NONE', #994, #1370 ) ;
#1380 = LINE ( 'NONE', #993, #472 ) ;
#1381 = FILL_AREA_STYLE_COLOUR ( '', #39 ) ;
#1382 = FACE_OUTER_BOUND ( 'NONE', #1180, .T. ) ;
#1383 = CARTESIAN_POINT ( 'NONE',  ( -0.4799999999999995381, 0.02000000000000007327, 0.2500000000000000000 ) ) ;
#1384 = FILL_AREA_STYLE ('',( #563 ) ) ;
#1385 = AXIS2_PLACEMENT_3D ( 'NONE', #171, #1375, #601 ) ;
#1386 = PRESENTATION_STYLE_ASSIGNMENT (( #3 ) ) ;
#1387 = VECTOR ( 'NONE', #470, 1000.000000000000000 ) ;
#1388 = STYLED_ITEM ( 'NONE', ( #1073 ), #562 ) ;
#1389 = PLANE ( 'NONE',  #1239 ) ;
#1390 = EDGE_CURVE ( 'NONE', #398, #649, #1005, .T. ) ;
#1391 = FILL_AREA_STYLE_COLOUR ( '', #592 ) ;
#1392 = LINE ( 'NONE', #818, #451 ) ;
#1393 = LINE ( 'NONE', #1137, #479 ) ;
#1394 = LINE ( 'NONE', #106, #449 ) ;
#1395 = CARTESIAN_POINT ( 'NONE',  ( 0.4999999999999995559, -6.123233995736762338E-17, 0.2500000000000000000 ) ) ;
#1396 = DIRECTION ( 'NONE',  ( -0.000000000000000000, -0.000000000000000000, 1.000000000000000000 ) ) ;
#1397 = FACE_OUTER_BOUND ( 'NONE', #372, .T. ) ;
#1398 = LINE ( 'NONE', #368, #1387 ) ;
#1399 = FACE_OUTER_BOUND ( 'NONE', #630, .T. ) ;
#1400 = VECTOR ( 'NONE', #408, 1000.000000000000000 ) ;
#1401 = LINE ( 'NONE', #1277, #959 ) ;
#1402 = FACE_OUTER_BOUND ( 'NONE', #1236, .T. ) ;
#1403 = DIRECTION ( 'NONE',  ( -1.000000000000000000, 9.856383386231858827E-17, 0.000000000000000000 ) ) ;
#1404 = DIRECTION ( 'NONE',  ( 0.000000000000000000, 0.000000000000000000, -1.000000000000000000 ) ) ;
#1405 = FACE_OUTER_BOUND ( 'NONE', #884, .T. ) ;
ENDSEC;
END-ISO-10303-21;
