G04*
G04 #@! TF.GenerationSoftware,Altium Limited,Altium Designer,26.10.1 (5)*
G04*
G04 Layer_Color=8421504*
G04 Board_Origin=9800000|9800000*
%FSLAX25Y25*%
%MOIN*%
G70*
G04*
G04 #@! TF.SameCoordinates,9D01E2D7-551C-4C3F-8480-1F6566D9E9C8*
G04*
G04*
G04 #@! TF.FilePolarity,Positive*
G04*
G01*
G75*
G04:AMPARAMS|DCode=17|XSize=62.99mil|YSize=11.02mil|CornerRadius=1.38mil|HoleSize=0mil|Usage=FLASHONLY|Rotation=45.000|XOffset=0mil|YOffset=0mil|HoleType=Round|Shape=RoundedRectangle|*
%AMROUNDEDRECTD17*
21,1,0.06299,0.00827,0,0,45.0*
21,1,0.06024,0.01102,0,0,45.0*
1,1,0.00276,0.02422,0.01837*
1,1,0.00276,-0.01837,-0.02422*
1,1,0.00276,-0.02422,-0.01837*
1,1,0.00276,0.01837,0.02422*
%
%ADD17ROUNDEDRECTD17*%
G04:AMPARAMS|DCode=18|XSize=11.02mil|YSize=62.99mil|CornerRadius=1.38mil|HoleSize=0mil|Usage=FLASHONLY|Rotation=45.000|XOffset=0mil|YOffset=0mil|HoleType=Round|Shape=RoundedRectangle|*
%AMROUNDEDRECTD18*
21,1,0.01102,0.06024,0,0,45.0*
21,1,0.00827,0.06299,0,0,45.0*
1,1,0.00276,0.02422,-0.01837*
1,1,0.00276,0.01837,-0.02422*
1,1,0.00276,-0.02422,0.01837*
1,1,0.00276,-0.01837,0.02422*
%
%ADD18ROUNDEDRECTD18*%
%ADD19R,0.05315X0.01575*%
%ADD20R,0.05512X0.06299*%
%ADD21R,0.07480X0.07480*%
G04:AMPARAMS|DCode=22|XSize=36.61mil|YSize=51.58mil|CornerRadius=2.75mil|HoleSize=0mil|Usage=FLASHONLY|Rotation=0.000|XOffset=0mil|YOffset=0mil|HoleType=Round|Shape=RoundedRectangle|*
%AMROUNDEDRECTD22*
21,1,0.03661,0.04608,0,0,0.0*
21,1,0.03112,0.05158,0,0,0.0*
1,1,0.00549,0.01556,-0.02304*
1,1,0.00549,-0.01556,-0.02304*
1,1,0.00549,-0.01556,0.02304*
1,1,0.00549,0.01556,0.02304*
%
%ADD22ROUNDEDRECTD22*%
G04:AMPARAMS|DCode=23|XSize=127.56mil|YSize=51.58mil|CornerRadius=3.87mil|HoleSize=0mil|Usage=FLASHONLY|Rotation=0.000|XOffset=0mil|YOffset=0mil|HoleType=Round|Shape=RoundedRectangle|*
%AMROUNDEDRECTD23*
21,1,0.12756,0.04384,0,0,0.0*
21,1,0.11982,0.05158,0,0,0.0*
1,1,0.00774,0.05991,-0.02192*
1,1,0.00774,-0.05991,-0.02192*
1,1,0.00774,-0.05991,0.02192*
1,1,0.00774,0.05991,0.02192*
%
%ADD23ROUNDEDRECTD23*%
%ADD24R,0.05512X0.04724*%
%ADD25R,0.04331X0.03937*%
%ADD26R,0.03937X0.04331*%
G04:AMPARAMS|DCode=27|XSize=77.56mil|YSize=24.02mil|CornerRadius=3mil|HoleSize=0mil|Usage=FLASHONLY|Rotation=180.000|XOffset=0mil|YOffset=0mil|HoleType=Round|Shape=RoundedRectangle|*
%AMROUNDEDRECTD27*
21,1,0.07756,0.01801,0,0,180.0*
21,1,0.07156,0.02402,0,0,180.0*
1,1,0.00600,-0.03578,0.00901*
1,1,0.00600,0.03578,0.00901*
1,1,0.00600,0.03578,-0.00901*
1,1,0.00600,-0.03578,-0.00901*
%
%ADD27ROUNDEDRECTD27*%
%ADD28R,0.04095X0.04016*%
%ADD29R,0.04724X0.05512*%
%ADD30R,0.02200X0.05200*%
%ADD31R,0.02953X0.03937*%
%ADD32R,0.04016X0.04095*%
%ADD33R,0.03150X0.03150*%
%ADD34R,0.05906X0.08346*%
%ADD35R,0.12598X0.05906*%
%ADD36R,0.04375X0.02365*%
D17*
X66916Y100323D02*
D03*
X68308Y98931D02*
D03*
X69700Y97539D02*
D03*
X71092Y96147D02*
D03*
X72484Y94755D02*
D03*
X73876Y93363D02*
D03*
X75268Y91971D02*
D03*
X76660Y90579D02*
D03*
X78052Y89188D02*
D03*
X79444Y87796D02*
D03*
X80836Y86404D02*
D03*
X82228Y85012D02*
D03*
X83620Y83620D02*
D03*
X85012Y82228D02*
D03*
X86404Y80836D02*
D03*
X87796Y79444D02*
D03*
X89188Y78052D02*
D03*
X90579Y76660D02*
D03*
X91971Y75268D02*
D03*
X93363Y73876D02*
D03*
X94755Y72484D02*
D03*
X96147Y71092D02*
D03*
X97539Y69700D02*
D03*
X98931Y68308D02*
D03*
X100323Y66916D02*
D03*
X143084Y109677D02*
D03*
X141692Y111069D02*
D03*
X140300Y112461D02*
D03*
X138908Y113853D02*
D03*
X137516Y115245D02*
D03*
X136124Y116637D02*
D03*
X134732Y118029D02*
D03*
X133340Y119421D02*
D03*
X131948Y120812D02*
D03*
X130556Y122204D02*
D03*
X129164Y123596D02*
D03*
X127772Y124988D02*
D03*
X126380Y126380D02*
D03*
X124988Y127772D02*
D03*
X123596Y129164D02*
D03*
X122204Y130556D02*
D03*
X120812Y131948D02*
D03*
X119421Y133340D02*
D03*
X118029Y134732D02*
D03*
X116637Y136124D02*
D03*
X115245Y137516D02*
D03*
X113853Y138908D02*
D03*
X112461Y140300D02*
D03*
X111069Y141692D02*
D03*
X109677Y143084D02*
D03*
D18*
Y66916D02*
D03*
X111069Y68308D02*
D03*
X112461Y69700D02*
D03*
X113853Y71092D02*
D03*
X115245Y72484D02*
D03*
X116637Y73876D02*
D03*
X118029Y75268D02*
D03*
X119421Y76660D02*
D03*
X120812Y78052D02*
D03*
X122204Y79444D02*
D03*
X123596Y80836D02*
D03*
X124988Y82228D02*
D03*
X126380Y83620D02*
D03*
X127772Y85012D02*
D03*
X129164Y86404D02*
D03*
X130556Y87796D02*
D03*
X131948Y89188D02*
D03*
X133340Y90579D02*
D03*
X134732Y91971D02*
D03*
X136124Y93363D02*
D03*
X137516Y94755D02*
D03*
X138908Y96147D02*
D03*
X140300Y97539D02*
D03*
X141692Y98931D02*
D03*
X143084Y100323D02*
D03*
X100323Y143084D02*
D03*
X98931Y141692D02*
D03*
X97539Y140300D02*
D03*
X96147Y138908D02*
D03*
X94755Y137516D02*
D03*
X93363Y136124D02*
D03*
X91971Y134732D02*
D03*
X90579Y133340D02*
D03*
X89188Y131948D02*
D03*
X87796Y130556D02*
D03*
X86404Y129164D02*
D03*
X85012Y127772D02*
D03*
X83620Y126380D02*
D03*
X82228Y124988D02*
D03*
X80836Y123596D02*
D03*
X79444Y122204D02*
D03*
X78052Y120812D02*
D03*
X76660Y119421D02*
D03*
X75268Y118029D02*
D03*
X73876Y116637D02*
D03*
X72484Y115245D02*
D03*
X71092Y113853D02*
D03*
X69700Y112461D02*
D03*
X68308Y111069D02*
D03*
X66916Y109677D02*
D03*
D19*
X23792Y153110D02*
D03*
Y150551D02*
D03*
Y147992D02*
D03*
Y145433D02*
D03*
Y142874D02*
D03*
D20*
X22906Y160591D02*
D03*
Y135394D02*
D03*
D21*
X13260Y152717D02*
D03*
Y143268D02*
D03*
D22*
X8984Y7331D02*
D03*
X18000D02*
D03*
X27016D02*
D03*
X8984Y48081D02*
D03*
X18000D02*
D03*
X27016D02*
D03*
D23*
X18000Y33669D02*
D03*
Y74420D02*
D03*
D24*
X166225Y34653D02*
D03*
X174886D02*
D03*
Y41346D02*
D03*
X166225D02*
D03*
D25*
X85853Y177500D02*
D03*
X92546D02*
D03*
X112747D02*
D03*
X106053D02*
D03*
X71075Y40986D02*
D03*
X64382D02*
D03*
X49854Y33998D02*
D03*
X56546D02*
D03*
X45254Y71100D02*
D03*
X51947D02*
D03*
X71047Y33998D02*
D03*
X64354D02*
D03*
X49854Y48202D02*
D03*
X56546D02*
D03*
X71046Y26998D02*
D03*
X64353D02*
D03*
X154200Y174500D02*
D03*
X147507D02*
D03*
X151000Y34000D02*
D03*
X144307D02*
D03*
X49854Y26998D02*
D03*
X56546D02*
D03*
X71047Y47998D02*
D03*
X64354D02*
D03*
X49854Y40998D02*
D03*
X56546D02*
D03*
D26*
X38199Y77946D02*
D03*
Y71253D02*
D03*
X176400Y156046D02*
D03*
Y149354D02*
D03*
X175500Y49154D02*
D03*
Y55847D02*
D03*
D27*
X69000Y168000D02*
D03*
Y173000D02*
D03*
Y178000D02*
D03*
Y183000D02*
D03*
Y188000D02*
D03*
Y193000D02*
D03*
Y198000D02*
D03*
Y203000D02*
D03*
X41717D02*
D03*
Y198000D02*
D03*
Y193000D02*
D03*
Y188000D02*
D03*
Y183000D02*
D03*
Y178000D02*
D03*
Y173000D02*
D03*
Y168000D02*
D03*
D28*
X106506Y170500D02*
D03*
X112294D02*
D03*
X45713Y78001D02*
D03*
X51500D02*
D03*
X169806Y94300D02*
D03*
X175594D02*
D03*
X169706Y101500D02*
D03*
X175494D02*
D03*
X40341Y152730D02*
D03*
X34554D02*
D03*
X40341Y145729D02*
D03*
X34554D02*
D03*
X83994Y27100D02*
D03*
X78206D02*
D03*
X84000Y34101D02*
D03*
X78213D02*
D03*
X84023Y41102D02*
D03*
X78236D02*
D03*
X84000Y48103D02*
D03*
X78213D02*
D03*
X97413Y28899D02*
D03*
X103200D02*
D03*
X97513Y35900D02*
D03*
X103300D02*
D03*
D29*
X175847Y164783D02*
D03*
Y173444D02*
D03*
X169153D02*
D03*
Y164783D02*
D03*
D30*
X46334Y108956D02*
D03*
X42200D02*
D03*
X38066D02*
D03*
Y99556D02*
D03*
X42200D02*
D03*
X46334D02*
D03*
D31*
X7518Y89589D02*
D03*
Y113211D02*
D03*
X22282Y89589D02*
D03*
Y113211D02*
D03*
D32*
X161400Y174594D02*
D03*
Y168806D02*
D03*
X158154Y39894D02*
D03*
Y34106D02*
D03*
D33*
X118660Y29867D02*
D03*
Y36166D02*
D03*
X125261D02*
D03*
Y29867D02*
D03*
X112059Y29951D02*
D03*
Y36251D02*
D03*
X131862Y36166D02*
D03*
Y29867D02*
D03*
D34*
X39000Y25927D02*
D03*
Y9273D02*
D03*
D35*
X16500Y178732D02*
D03*
Y195268D02*
D03*
D36*
X52391Y85900D02*
D03*
X38809D02*
D03*
M02*
