G04*
G04 #@! TF.GenerationSoftware,Altium Limited,Altium Designer,26.10.1 (5)*
G04*
G04 Layer_Color=8388736*
G04 Board_Origin=9800000|9800000*
%FSLAX25Y25*%
%MOIN*%
G70*
G04*
G04 #@! TF.SameCoordinates,9D01E2D7-551C-4C3F-8480-1F6566D9E9C8*
G04*
G04*
G04 #@! TF.FilePolarity,Negative*
G04*
G01*
G75*
%ADD30R,0.02200X0.05200*%
%ADD36R,0.04375X0.02365*%
G04:AMPARAMS|DCode=37|XSize=66.99mil|YSize=15.02mil|CornerRadius=3.38mil|HoleSize=0mil|Usage=FLASHONLY|Rotation=45.000|XOffset=0mil|YOffset=0mil|HoleType=Round|Shape=RoundedRectangle|*
%AMROUNDEDRECTD37*
21,1,0.06699,0.00827,0,0,45.0*
21,1,0.06024,0.01502,0,0,45.0*
1,1,0.00676,0.02422,0.01837*
1,1,0.00676,-0.01837,-0.02422*
1,1,0.00676,-0.02422,-0.01837*
1,1,0.00676,0.01837,0.02422*
%
%ADD37ROUNDEDRECTD37*%
G04:AMPARAMS|DCode=38|XSize=15.02mil|YSize=66.99mil|CornerRadius=3.38mil|HoleSize=0mil|Usage=FLASHONLY|Rotation=45.000|XOffset=0mil|YOffset=0mil|HoleType=Round|Shape=RoundedRectangle|*
%AMROUNDEDRECTD38*
21,1,0.01502,0.06024,0,0,45.0*
21,1,0.00827,0.06699,0,0,45.0*
1,1,0.00676,0.02422,-0.01837*
1,1,0.00676,0.01837,-0.02422*
1,1,0.00676,-0.02422,0.01837*
1,1,0.00676,-0.01837,0.02422*
%
%ADD38ROUNDEDRECTD38*%
%ADD39R,0.05715X0.01975*%
%ADD40R,0.05912X0.06699*%
%ADD41R,0.07880X0.07880*%
G04:AMPARAMS|DCode=42|XSize=40.61mil|YSize=55.58mil|CornerRadius=4.75mil|HoleSize=0mil|Usage=FLASHONLY|Rotation=0.000|XOffset=0mil|YOffset=0mil|HoleType=Round|Shape=RoundedRectangle|*
%AMROUNDEDRECTD42*
21,1,0.04061,0.04608,0,0,0.0*
21,1,0.03112,0.05558,0,0,0.0*
1,1,0.00949,0.01556,-0.02304*
1,1,0.00949,-0.01556,-0.02304*
1,1,0.00949,-0.01556,0.02304*
1,1,0.00949,0.01556,0.02304*
%
%ADD42ROUNDEDRECTD42*%
G04:AMPARAMS|DCode=43|XSize=131.56mil|YSize=55.58mil|CornerRadius=5.87mil|HoleSize=0mil|Usage=FLASHONLY|Rotation=0.000|XOffset=0mil|YOffset=0mil|HoleType=Round|Shape=RoundedRectangle|*
%AMROUNDEDRECTD43*
21,1,0.13156,0.04384,0,0,0.0*
21,1,0.11982,0.05558,0,0,0.0*
1,1,0.01174,0.05991,-0.02192*
1,1,0.01174,-0.05991,-0.02192*
1,1,0.01174,-0.05991,0.02192*
1,1,0.01174,0.05991,0.02192*
%
%ADD43ROUNDEDRECTD43*%
%ADD44R,0.05912X0.05124*%
%ADD45R,0.04731X0.04337*%
%ADD46R,0.04337X0.04731*%
G04:AMPARAMS|DCode=47|XSize=85.59mil|YSize=32.05mil|CornerRadius=7.02mil|HoleSize=0mil|Usage=FLASHONLY|Rotation=180.000|XOffset=0mil|YOffset=0mil|HoleType=Round|Shape=RoundedRectangle|*
%AMROUNDEDRECTD47*
21,1,0.08559,0.01801,0,0,180.0*
21,1,0.07156,0.03205,0,0,180.0*
1,1,0.01404,-0.03578,0.00901*
1,1,0.01404,0.03578,0.00901*
1,1,0.01404,0.03578,-0.00901*
1,1,0.01404,-0.03578,-0.00901*
%
%ADD47ROUNDEDRECTD47*%
%ADD48R,0.04494X0.04416*%
%ADD49R,0.05124X0.05912*%
%ADD50R,0.03353X0.04337*%
%ADD51R,0.04416X0.04494*%
%ADD52R,0.03550X0.03550*%
%ADD53R,0.06709X0.09150*%
%ADD54R,0.12998X0.06306*%
%ADD55O,0.07487X0.03943*%
%ADD56C,0.05794*%
%ADD57R,0.05794X0.05794*%
%ADD58R,0.05794X0.05794*%
G36*
X179840Y142086D02*
X180002D01*
Y142063D01*
X180094D01*
Y142040D01*
X180164D01*
Y142017D01*
X180233D01*
Y141994D01*
X180279D01*
Y141971D01*
X180325D01*
Y141947D01*
X180372D01*
Y141924D01*
X180395D01*
Y141901D01*
X180441D01*
Y141878D01*
X180487D01*
Y141855D01*
X180510D01*
Y141832D01*
X180534D01*
Y141809D01*
X180580D01*
Y141786D01*
X180603D01*
Y141762D01*
X180626D01*
Y141739D01*
X180649D01*
Y141716D01*
X180672D01*
Y141693D01*
X180695D01*
Y141670D01*
X180719D01*
Y141647D01*
X180742D01*
Y141624D01*
X180765D01*
Y141601D01*
X180788D01*
Y141577D01*
X180811D01*
Y141554D01*
X180834D01*
Y141508D01*
X180857D01*
Y141485D01*
X180880D01*
Y141439D01*
X180903D01*
Y141416D01*
X180927D01*
Y141369D01*
X180950D01*
Y141323D01*
X180973D01*
Y141277D01*
X180996D01*
Y141207D01*
X181019D01*
Y141161D01*
X181042D01*
Y141069D01*
X181065D01*
Y140953D01*
X181088D01*
Y127355D01*
X181065D01*
Y127286D01*
X181042D01*
Y127239D01*
X181019D01*
Y127193D01*
X180996D01*
Y127170D01*
X180973D01*
Y127147D01*
X180950D01*
Y127124D01*
X180927D01*
Y127101D01*
X180903D01*
Y127077D01*
X180857D01*
Y127054D01*
X180834D01*
Y127031D01*
X180765D01*
Y127008D01*
X180695D01*
Y126985D01*
X180279D01*
Y126962D01*
X180210D01*
Y126939D01*
X180164D01*
Y126916D01*
X180117D01*
Y126892D01*
X180094D01*
Y126869D01*
X180048D01*
Y126846D01*
X180025D01*
Y126823D01*
X180002D01*
Y126800D01*
X179979D01*
Y126754D01*
X179955D01*
Y126731D01*
X179932D01*
Y126707D01*
X179909D01*
Y126661D01*
X179886D01*
Y126592D01*
X179863D01*
Y126546D01*
X179840D01*
Y126199D01*
X179863D01*
Y126129D01*
X179886D01*
Y126083D01*
X179909D01*
Y126037D01*
X179932D01*
Y126014D01*
X179955D01*
Y125967D01*
X179979D01*
Y125944D01*
X180002D01*
Y125921D01*
X180025D01*
Y125898D01*
X180048D01*
Y125875D01*
X180071D01*
Y125852D01*
X180117D01*
Y125829D01*
X180140D01*
Y125805D01*
X180187D01*
Y125782D01*
X180256D01*
Y125759D01*
X180765D01*
Y125736D01*
X180834D01*
Y125713D01*
X180880D01*
Y125690D01*
X180903D01*
Y125667D01*
X180927D01*
Y125644D01*
X180950D01*
Y125620D01*
X180973D01*
Y125597D01*
X180996D01*
Y125574D01*
X181019D01*
Y125528D01*
X181042D01*
Y125482D01*
X181065D01*
Y125412D01*
X181088D01*
Y124325D01*
X181065D01*
Y124187D01*
X181042D01*
Y124117D01*
X181019D01*
Y124048D01*
X180996D01*
Y123978D01*
X180973D01*
Y123932D01*
X180950D01*
Y123886D01*
X180927D01*
Y123840D01*
X180903D01*
Y123817D01*
X180880D01*
Y123770D01*
X180857D01*
Y123747D01*
X180834D01*
Y123701D01*
X180811D01*
Y123678D01*
X180788D01*
Y123655D01*
X180765D01*
Y123632D01*
X180742D01*
Y123608D01*
X180719D01*
Y123585D01*
X180695D01*
Y123562D01*
X180672D01*
Y123539D01*
X180649D01*
Y123516D01*
X180626D01*
Y123493D01*
X180603D01*
Y123470D01*
X180580D01*
Y123447D01*
X180534D01*
Y123423D01*
X180510D01*
Y123400D01*
X180464D01*
Y123377D01*
X180441D01*
Y123354D01*
X180395D01*
Y123331D01*
X180349D01*
Y123308D01*
X180302D01*
Y123285D01*
X180256D01*
Y123262D01*
X180187D01*
Y123238D01*
X180117D01*
Y123215D01*
X180025D01*
Y123192D01*
X179886D01*
Y123169D01*
X164114D01*
Y123192D01*
X163929D01*
Y123215D01*
X163837D01*
Y123238D01*
X163767D01*
Y123262D01*
X163698D01*
Y123285D01*
X163652D01*
Y123308D01*
X163605D01*
Y123331D01*
X163559D01*
Y123354D01*
X163513D01*
Y123377D01*
X163467D01*
Y123400D01*
X163443D01*
Y123423D01*
X163397D01*
Y123447D01*
X163374D01*
Y123470D01*
X163351D01*
Y123493D01*
X163328D01*
Y123516D01*
X163305D01*
Y123539D01*
X163258D01*
Y123562D01*
X163235D01*
Y123585D01*
X163212D01*
Y123632D01*
X163189D01*
Y123655D01*
X163166D01*
Y123678D01*
X163143D01*
Y123701D01*
X163120D01*
Y123724D01*
X163096D01*
Y123770D01*
X163073D01*
Y123793D01*
X163050D01*
Y123840D01*
X163027D01*
Y123863D01*
X163004D01*
Y123909D01*
X162981D01*
Y123955D01*
X162958D01*
Y124002D01*
X162935D01*
Y124071D01*
X162911D01*
Y124140D01*
X162888D01*
Y124210D01*
X162865D01*
Y124325D01*
X162842D01*
Y137392D01*
X162865D01*
Y137461D01*
X162888D01*
Y137507D01*
X162911D01*
Y137530D01*
X162935D01*
Y137577D01*
X162958D01*
Y137600D01*
X162981D01*
Y137623D01*
X163027D01*
Y137646D01*
X163050D01*
Y137669D01*
X163096D01*
Y137692D01*
X163143D01*
Y137715D01*
X163258D01*
Y137738D01*
X163420D01*
Y137715D01*
X163513D01*
Y137738D01*
X163605D01*
Y137762D01*
X163675D01*
Y137785D01*
X163721D01*
Y137808D01*
X163767D01*
Y137831D01*
X163790D01*
Y137854D01*
X163813D01*
Y137877D01*
X163837D01*
Y137900D01*
X163860D01*
Y137923D01*
X163883D01*
Y137947D01*
X163906D01*
Y137993D01*
X163929D01*
Y138039D01*
X163952D01*
Y138085D01*
X163975D01*
Y138132D01*
X163998D01*
Y138479D01*
X163975D01*
Y138548D01*
X163952D01*
Y138594D01*
X163929D01*
Y138640D01*
X163906D01*
Y138663D01*
X163883D01*
Y138687D01*
X163860D01*
Y138710D01*
X163837D01*
Y138733D01*
X163813D01*
Y138756D01*
X163790D01*
Y138779D01*
X163767D01*
Y138802D01*
X163744D01*
Y138825D01*
X163698D01*
Y138848D01*
X163628D01*
Y138872D01*
X163559D01*
Y138895D01*
X163189D01*
Y138918D01*
X163120D01*
Y138941D01*
X163073D01*
Y138964D01*
X163027D01*
Y138987D01*
X163004D01*
Y139010D01*
X162981D01*
Y139033D01*
X162958D01*
Y139057D01*
X162935D01*
Y139080D01*
X162911D01*
Y139126D01*
X162888D01*
Y139172D01*
X162865D01*
Y139242D01*
X162842D01*
Y140953D01*
X162865D01*
Y141069D01*
X162888D01*
Y141138D01*
X162911D01*
Y141207D01*
X162935D01*
Y141277D01*
X162958D01*
Y141323D01*
X162981D01*
Y141369D01*
X163004D01*
Y141416D01*
X163027D01*
Y141439D01*
X163050D01*
Y141485D01*
X163073D01*
Y141508D01*
X163096D01*
Y141554D01*
X163120D01*
Y141577D01*
X163143D01*
Y141601D01*
X163166D01*
Y141624D01*
X163189D01*
Y141647D01*
X163212D01*
Y141670D01*
X163235D01*
Y141693D01*
X163258D01*
Y141716D01*
X163282D01*
Y141739D01*
X163305D01*
Y141762D01*
X163328D01*
Y141786D01*
X163351D01*
Y141809D01*
X163374D01*
Y141832D01*
X163420D01*
Y141855D01*
X163443D01*
Y141878D01*
X163490D01*
Y141901D01*
X163536D01*
Y141924D01*
X163559D01*
Y141947D01*
X163605D01*
Y141971D01*
X163652D01*
Y141994D01*
X163721D01*
Y142017D01*
X163790D01*
Y142040D01*
X163860D01*
Y142063D01*
X163975D01*
Y142086D01*
X177851D01*
Y142109D01*
X179840D01*
Y142086D01*
D02*
G37*
G36*
X161339Y122082D02*
X161316D01*
Y122059D01*
X161293D01*
Y122036D01*
X161246D01*
Y122013D01*
X161223D01*
Y121990D01*
X161200D01*
Y121967D01*
X161177D01*
Y121943D01*
X161131D01*
Y121920D01*
X161108D01*
Y121897D01*
X161084D01*
Y121874D01*
X161061D01*
Y121851D01*
X161038D01*
Y121828D01*
X160992D01*
Y121805D01*
X160969D01*
Y121782D01*
X160946D01*
Y121758D01*
X160923D01*
Y121735D01*
X160899D01*
Y121712D01*
X160853D01*
Y121689D01*
X160830D01*
Y121666D01*
X160807D01*
Y121643D01*
X160784D01*
Y121620D01*
X160761D01*
Y121597D01*
X160738D01*
Y121573D01*
X160691D01*
Y121550D01*
X160668D01*
Y121527D01*
X160645D01*
Y121504D01*
X160622D01*
Y121481D01*
X160576D01*
Y121458D01*
X160553D01*
Y121435D01*
X160529D01*
Y121412D01*
X160506D01*
Y121388D01*
X160483D01*
Y121365D01*
X160460D01*
Y121342D01*
X160483D01*
Y121319D01*
X160506D01*
Y121296D01*
X160529D01*
Y121273D01*
X160553D01*
Y121250D01*
X160576D01*
Y121227D01*
X160599D01*
Y121203D01*
X160622D01*
Y121180D01*
X160645D01*
Y121157D01*
X160668D01*
Y121134D01*
X160691D01*
Y121111D01*
X160714D01*
Y121088D01*
X160738D01*
Y121065D01*
X160761D01*
Y121042D01*
X160784D01*
Y121018D01*
X160807D01*
Y120995D01*
X160830D01*
Y120972D01*
X160853D01*
Y120949D01*
X160876D01*
Y120926D01*
X160899D01*
Y120880D01*
X160923D01*
Y120856D01*
X160946D01*
Y120833D01*
X160969D01*
Y120810D01*
X160992D01*
Y120787D01*
X161015D01*
Y120764D01*
X161038D01*
Y120741D01*
X161061D01*
Y120718D01*
X161084D01*
Y120695D01*
X161108D01*
Y120671D01*
X161131D01*
Y120648D01*
X161154D01*
Y120625D01*
X161177D01*
Y120602D01*
X161200D01*
Y120579D01*
X161223D01*
Y120556D01*
X161246D01*
Y120533D01*
X161269D01*
Y120510D01*
X161293D01*
Y120486D01*
X161316D01*
Y120463D01*
X161339D01*
Y120440D01*
X161362D01*
Y120394D01*
X160645D01*
Y120417D01*
X160622D01*
Y120440D01*
X160599D01*
Y120463D01*
X160576D01*
Y120486D01*
X160553D01*
Y120510D01*
X160529D01*
Y120533D01*
X160506D01*
Y120556D01*
X160483D01*
Y120579D01*
X160460D01*
Y120602D01*
X160437D01*
Y120625D01*
X160414D01*
Y120648D01*
X160391D01*
Y120671D01*
X160368D01*
Y120695D01*
X160345D01*
Y120741D01*
X160321D01*
Y120764D01*
X160298D01*
Y120787D01*
X160275D01*
Y120810D01*
X160252D01*
Y120833D01*
X160229D01*
Y120856D01*
X160206D01*
Y120880D01*
X160183D01*
Y120903D01*
X160160D01*
Y120926D01*
X160136D01*
Y120949D01*
X160113D01*
Y120972D01*
X160090D01*
Y120995D01*
X160067D01*
Y121018D01*
X160044D01*
Y121042D01*
X160021D01*
Y121065D01*
X159998D01*
Y121088D01*
X159882D01*
Y121065D01*
X159766D01*
Y120417D01*
X159743D01*
Y120394D01*
X159188D01*
Y120417D01*
X159165D01*
Y122105D01*
X159766D01*
Y121458D01*
X159813D01*
Y121481D01*
X159836D01*
Y121504D01*
X159859D01*
Y121527D01*
X159882D01*
Y121550D01*
X159905D01*
Y121573D01*
X159951D01*
Y121597D01*
X159975D01*
Y121620D01*
X159998D01*
Y121643D01*
X160021D01*
Y121666D01*
X160044D01*
Y121689D01*
X160090D01*
Y121712D01*
X160113D01*
Y121735D01*
X160136D01*
Y121758D01*
X160160D01*
Y121782D01*
X160183D01*
Y121805D01*
X160229D01*
Y121828D01*
X160252D01*
Y121851D01*
X160275D01*
Y121874D01*
X160298D01*
Y121897D01*
X160321D01*
Y121920D01*
X160368D01*
Y121943D01*
X160391D01*
Y121967D01*
X160414D01*
Y121990D01*
X160437D01*
Y122013D01*
X160460D01*
Y122036D01*
X160506D01*
Y122059D01*
X160529D01*
Y122082D01*
X160553D01*
Y122105D01*
X161339D01*
Y122082D01*
D02*
G37*
G36*
X184835Y120417D02*
X184812D01*
Y120394D01*
X184187D01*
Y120417D01*
X184164D01*
Y120440D01*
X184141D01*
Y120463D01*
X184118D01*
Y120486D01*
X184095D01*
Y120510D01*
X184072D01*
Y120556D01*
X184049D01*
Y120579D01*
X184026D01*
Y120602D01*
X184002D01*
Y120625D01*
X183979D01*
Y120648D01*
X183956D01*
Y120671D01*
X183933D01*
Y120695D01*
X183910D01*
Y120741D01*
X183887D01*
Y120764D01*
X183864D01*
Y120787D01*
X183841D01*
Y120810D01*
X183817D01*
Y120833D01*
X183794D01*
Y120856D01*
X183771D01*
Y120880D01*
X183748D01*
Y120926D01*
X183725D01*
Y120949D01*
X183702D01*
Y120972D01*
X183679D01*
Y120995D01*
X183656D01*
Y121018D01*
X183632D01*
Y121042D01*
X183609D01*
Y121088D01*
X183586D01*
Y121111D01*
X183563D01*
Y121134D01*
X183540D01*
Y121157D01*
X183517D01*
Y121180D01*
X183494D01*
Y121227D01*
X183470D01*
Y121250D01*
X183447D01*
Y121273D01*
X183424D01*
Y121296D01*
X183401D01*
Y121319D01*
X183378D01*
Y121342D01*
X183355D01*
Y121388D01*
X183332D01*
Y121412D01*
X183309D01*
Y120394D01*
X182730D01*
Y122105D01*
X183378D01*
Y122082D01*
X183401D01*
Y122059D01*
X183424D01*
Y122036D01*
X183447D01*
Y122013D01*
X183470D01*
Y121967D01*
X183494D01*
Y121943D01*
X183517D01*
Y121920D01*
X183540D01*
Y121897D01*
X183563D01*
Y121874D01*
X183586D01*
Y121851D01*
X183609D01*
Y121828D01*
X183632D01*
Y121782D01*
X183656D01*
Y121758D01*
X183679D01*
Y121735D01*
X183702D01*
Y121712D01*
X183725D01*
Y121689D01*
X183748D01*
Y121666D01*
X183771D01*
Y121620D01*
X183794D01*
Y121597D01*
X183817D01*
Y121573D01*
X183841D01*
Y121550D01*
X183864D01*
Y121527D01*
X183887D01*
Y121504D01*
X183910D01*
Y121481D01*
X183933D01*
Y121435D01*
X183956D01*
Y121412D01*
X183979D01*
Y121388D01*
X184002D01*
Y121365D01*
X184026D01*
Y121342D01*
X184049D01*
Y121319D01*
X184072D01*
Y121273D01*
X184095D01*
Y121250D01*
X184118D01*
Y121227D01*
X184141D01*
Y121203D01*
X184164D01*
Y121180D01*
X184187D01*
Y121157D01*
X184211D01*
Y121134D01*
X184234D01*
Y121111D01*
X184257D01*
Y122105D01*
X184835D01*
Y120417D01*
D02*
G37*
G36*
X166288Y120833D02*
Y120810D01*
Y120394D01*
X165640D01*
Y120417D01*
X165617D01*
Y120440D01*
X165594D01*
Y120463D01*
X165571D01*
Y120486D01*
X165548D01*
Y120510D01*
X165525D01*
Y120533D01*
X165502D01*
Y120556D01*
X165479D01*
Y120579D01*
X165455D01*
Y120602D01*
X165432D01*
Y120625D01*
X165409D01*
Y120648D01*
X165386D01*
Y120671D01*
X165363D01*
Y120695D01*
X165340D01*
Y120718D01*
X165317D01*
Y120741D01*
X165294D01*
Y120764D01*
X165270D01*
Y120787D01*
X165247D01*
Y120810D01*
X165224D01*
Y120833D01*
X165201D01*
Y120856D01*
X165178D01*
Y120880D01*
X165155D01*
Y120903D01*
X165132D01*
Y120926D01*
X165108D01*
Y120949D01*
X165085D01*
Y120995D01*
X165062D01*
Y121018D01*
X165039D01*
Y121042D01*
X165016D01*
Y121065D01*
X164993D01*
Y121088D01*
X164970D01*
Y121111D01*
X164947D01*
Y121134D01*
X164923D01*
Y121157D01*
X164900D01*
Y121180D01*
X164877D01*
Y121203D01*
X164854D01*
Y121227D01*
X164831D01*
Y121250D01*
X164808D01*
Y121273D01*
X164785D01*
Y121296D01*
X164762D01*
Y121319D01*
X164738D01*
Y121342D01*
X164715D01*
Y121365D01*
X164692D01*
Y121412D01*
X164646D01*
Y120394D01*
X164091D01*
Y122105D01*
X164738D01*
Y122082D01*
X164762D01*
Y122059D01*
X164785D01*
Y122036D01*
X164808D01*
Y122013D01*
X164831D01*
Y121990D01*
X164854D01*
Y121967D01*
X164877D01*
Y121943D01*
X164900D01*
Y121920D01*
X164923D01*
Y121897D01*
X164947D01*
Y121851D01*
X164970D01*
Y121828D01*
X164993D01*
Y121805D01*
X165016D01*
Y121782D01*
X165039D01*
Y121758D01*
X165062D01*
Y121735D01*
X165085D01*
Y121712D01*
X165108D01*
Y121689D01*
X165132D01*
Y121666D01*
X165155D01*
Y121643D01*
X165178D01*
Y121620D01*
X165201D01*
Y121597D01*
X165224D01*
Y121573D01*
X165247D01*
Y121550D01*
X165270D01*
Y121527D01*
X165294D01*
Y121504D01*
X165317D01*
Y121481D01*
X165340D01*
Y121435D01*
X165363D01*
Y121412D01*
X165386D01*
Y121388D01*
X165409D01*
Y121365D01*
X165432D01*
Y121342D01*
X165455D01*
Y121319D01*
X165479D01*
Y121296D01*
X165502D01*
Y121273D01*
X165525D01*
Y121250D01*
X165548D01*
Y121227D01*
X165571D01*
Y121203D01*
X165594D01*
Y121180D01*
X165617D01*
Y121157D01*
X165640D01*
Y121134D01*
X165664D01*
Y121111D01*
X165687D01*
Y121088D01*
X165710D01*
Y122105D01*
X166288D01*
Y120833D01*
D02*
G37*
G36*
X179007Y122059D02*
X178984D01*
Y122013D01*
X178961D01*
Y121967D01*
X178938D01*
Y121920D01*
X178915D01*
Y121897D01*
X178892D01*
Y121851D01*
X178868D01*
Y121805D01*
X178845D01*
Y121758D01*
X178822D01*
Y121712D01*
X178799D01*
Y121666D01*
X178776D01*
Y121620D01*
X178753D01*
Y121573D01*
X178730D01*
Y121527D01*
X178707D01*
Y121481D01*
X178683D01*
Y121435D01*
X178660D01*
Y121388D01*
X178637D01*
Y121342D01*
X178614D01*
Y121296D01*
X178591D01*
Y121250D01*
X178568D01*
Y121203D01*
X178545D01*
Y121180D01*
X178522D01*
Y121134D01*
X178498D01*
Y121088D01*
X178475D01*
Y121042D01*
X178452D01*
Y120995D01*
X178429D01*
Y120949D01*
X178406D01*
Y120903D01*
X178383D01*
Y120856D01*
X178360D01*
Y120810D01*
X178337D01*
Y120764D01*
X178313D01*
Y120718D01*
X178290D01*
Y120671D01*
X178267D01*
Y120648D01*
X178244D01*
Y120602D01*
X178221D01*
Y120556D01*
X178198D01*
Y120510D01*
X178175D01*
Y120463D01*
X178152D01*
Y120417D01*
X178128D01*
Y120394D01*
X177527D01*
Y120417D01*
X177504D01*
Y120463D01*
X177481D01*
Y120510D01*
X177458D01*
Y120556D01*
X177435D01*
Y120602D01*
X177411D01*
Y120648D01*
X177388D01*
Y120695D01*
X177365D01*
Y120741D01*
X177342D01*
Y120787D01*
X177319D01*
Y120833D01*
X177296D01*
Y120880D01*
X177273D01*
Y120926D01*
X177250D01*
Y120972D01*
X177226D01*
Y121018D01*
X177203D01*
Y121065D01*
X177180D01*
Y121111D01*
X177157D01*
Y121157D01*
X177134D01*
Y121203D01*
X177111D01*
Y121250D01*
X177088D01*
Y121296D01*
X177065D01*
Y121319D01*
Y121342D01*
X177041D01*
Y121388D01*
X177018D01*
Y121435D01*
X176995D01*
Y121481D01*
X176972D01*
Y121527D01*
X176949D01*
Y121573D01*
X176926D01*
Y121620D01*
X176903D01*
Y121666D01*
X176880D01*
Y121712D01*
X176857D01*
Y121758D01*
X176833D01*
Y121805D01*
X176810D01*
Y121851D01*
X176787D01*
Y121897D01*
X176764D01*
Y121943D01*
X176741D01*
Y121990D01*
X176718D01*
Y122036D01*
X176695D01*
Y122082D01*
X176672D01*
Y122105D01*
X177273D01*
Y122059D01*
X177296D01*
Y122013D01*
X177319D01*
Y121967D01*
X177342D01*
Y121920D01*
X177365D01*
Y121897D01*
X177388D01*
Y121851D01*
X177411D01*
Y121805D01*
X177435D01*
Y121758D01*
X177458D01*
Y121712D01*
X177481D01*
Y121666D01*
X177504D01*
Y121643D01*
X177527D01*
Y121597D01*
X177550D01*
Y121550D01*
X177573D01*
Y121504D01*
X177596D01*
Y121458D01*
X177620D01*
Y121412D01*
X177643D01*
Y121365D01*
X177666D01*
Y121342D01*
X177689D01*
Y121296D01*
X177712D01*
Y121250D01*
X177735D01*
Y121203D01*
X177758D01*
Y121157D01*
X177781D01*
Y121111D01*
X177805D01*
Y121065D01*
X177828D01*
Y121018D01*
X177851D01*
Y121042D01*
X177874D01*
Y121065D01*
X177897D01*
Y121111D01*
X177920D01*
Y121157D01*
X177943D01*
Y121203D01*
X177966D01*
Y121250D01*
X177990D01*
Y121296D01*
X178013D01*
Y121342D01*
X178036D01*
Y121365D01*
X178059D01*
Y121412D01*
X178082D01*
Y121458D01*
X178105D01*
Y121504D01*
X178128D01*
Y121550D01*
X178152D01*
Y121597D01*
X178175D01*
Y121643D01*
X178198D01*
Y121689D01*
X178221D01*
Y121712D01*
X178244D01*
Y121758D01*
X178267D01*
Y121805D01*
X178290D01*
Y121851D01*
X178313D01*
Y121897D01*
X178337D01*
Y121920D01*
X178360D01*
Y121967D01*
X178383D01*
Y122013D01*
X178406D01*
Y122059D01*
X178429D01*
Y122105D01*
X179007D01*
Y122059D01*
D02*
G37*
G36*
X181805Y121920D02*
Y121897D01*
Y121735D01*
X181782D01*
Y121712D01*
X180557D01*
Y121481D01*
X181620D01*
Y121065D01*
X180557D01*
Y120833D01*
X181805D01*
Y120810D01*
X181828D01*
Y120417D01*
X181805D01*
Y120394D01*
X180002D01*
Y120417D01*
X179979D01*
Y122105D01*
X181805D01*
Y121920D01*
D02*
G37*
G36*
X175700Y121712D02*
X174451D01*
Y121481D01*
X175538D01*
Y121065D01*
X174451D01*
Y120833D01*
X175723D01*
Y120810D01*
X175746D01*
Y120417D01*
X175723D01*
Y120394D01*
X173896D01*
Y122105D01*
X175700D01*
Y121712D01*
D02*
G37*
G36*
X172694Y121689D02*
X172671D01*
Y121643D01*
X172648D01*
Y121620D01*
X172624D01*
Y121597D01*
X172601D01*
Y121573D01*
X172578D01*
Y121550D01*
X172555D01*
Y121504D01*
X172532D01*
Y121481D01*
X172509D01*
Y121458D01*
X172486D01*
Y121435D01*
X172462D01*
Y121388D01*
X172439D01*
Y121365D01*
X172416D01*
Y121342D01*
X172393D01*
Y121296D01*
X172370D01*
Y121273D01*
X172347D01*
Y121250D01*
X172324D01*
Y121227D01*
X172301D01*
Y121180D01*
X172277D01*
Y121157D01*
X172254D01*
Y121134D01*
X172231D01*
Y121111D01*
X172208D01*
Y121065D01*
X172185D01*
Y121042D01*
X172162D01*
Y121018D01*
X172139D01*
Y120972D01*
X172116D01*
Y120949D01*
X172092D01*
Y120926D01*
X172069D01*
Y120880D01*
X172046D01*
Y120856D01*
X172023D01*
Y120833D01*
X172000D01*
Y120810D01*
X171977D01*
Y120764D01*
X171954D01*
Y120741D01*
X171931D01*
Y120718D01*
X171907D01*
Y120671D01*
X171884D01*
Y120648D01*
X171861D01*
Y120625D01*
X171838D01*
Y120602D01*
X171815D01*
Y120556D01*
X171792D01*
Y120533D01*
X171769D01*
Y120510D01*
X171746D01*
Y120463D01*
X171722D01*
Y120440D01*
X171699D01*
Y120417D01*
X171676D01*
Y120394D01*
X170983D01*
Y120440D01*
X171006D01*
Y120463D01*
X171029D01*
Y120486D01*
X171052D01*
Y120533D01*
X171075D01*
Y120556D01*
X171098D01*
Y120579D01*
X171121D01*
Y120625D01*
X171144D01*
Y120648D01*
X171168D01*
Y120671D01*
X171191D01*
Y120695D01*
X171214D01*
Y120718D01*
X171237D01*
Y120764D01*
X171260D01*
Y120787D01*
X171283D01*
Y120810D01*
X171306D01*
Y120833D01*
X171329D01*
Y120880D01*
X171353D01*
Y120903D01*
X171376D01*
Y120926D01*
X171399D01*
Y120949D01*
X171422D01*
Y120995D01*
X171445D01*
Y121018D01*
X171468D01*
Y121042D01*
X171491D01*
Y121065D01*
X171514D01*
Y121111D01*
X171537D01*
Y121134D01*
X171561D01*
Y121157D01*
X171584D01*
Y121180D01*
X171607D01*
Y121227D01*
X171630D01*
Y121250D01*
X171653D01*
Y121273D01*
X171676D01*
Y121319D01*
X171699D01*
Y121342D01*
X171722D01*
Y121365D01*
X171746D01*
Y121388D01*
X171769D01*
Y121412D01*
X171792D01*
Y121458D01*
X171815D01*
Y121481D01*
X171838D01*
Y121504D01*
X171861D01*
Y121550D01*
X171884D01*
Y121573D01*
X171907D01*
Y121597D01*
X171931D01*
Y121620D01*
X171954D01*
Y121643D01*
X171977D01*
Y121689D01*
X170844D01*
Y122082D01*
X170867D01*
Y122105D01*
X172694D01*
Y121689D01*
D02*
G37*
G36*
X169526Y121712D02*
X169502D01*
Y121689D01*
X168092D01*
Y121666D01*
X168069D01*
Y121643D01*
X168045D01*
Y121620D01*
X168022D01*
Y121203D01*
Y121180D01*
Y120903D01*
X168045D01*
Y120856D01*
X168069D01*
Y120833D01*
X168138D01*
Y120810D01*
X168924D01*
Y120833D01*
X168994D01*
Y120856D01*
X169017D01*
Y120926D01*
X169040D01*
Y121065D01*
X168462D01*
Y121458D01*
X169572D01*
Y120648D01*
X169549D01*
Y120602D01*
X169526D01*
Y120556D01*
X169502D01*
Y120533D01*
X169479D01*
Y120510D01*
X169456D01*
Y120486D01*
X169433D01*
Y120463D01*
X169387D01*
Y120440D01*
X169341D01*
Y120417D01*
X169225D01*
Y120394D01*
X167814D01*
Y120417D01*
X167722D01*
Y120440D01*
X167675D01*
Y120463D01*
X167629D01*
Y120486D01*
X167606D01*
Y120510D01*
X167583D01*
Y120533D01*
X167560D01*
Y120556D01*
X167537D01*
Y120579D01*
X167514D01*
Y120625D01*
X167490D01*
Y120671D01*
X167467D01*
Y121828D01*
X167490D01*
Y121897D01*
X167514D01*
Y121920D01*
X167537D01*
Y121967D01*
X167560D01*
Y121990D01*
X167583D01*
Y122013D01*
X167606D01*
Y122036D01*
X167652D01*
Y122059D01*
X167699D01*
Y122082D01*
X167768D01*
Y122105D01*
X169526D01*
Y121712D01*
D02*
G37*
G36*
X162935Y120463D02*
Y120440D01*
Y120394D01*
X162380D01*
Y120417D01*
X162356D01*
Y122105D01*
X162935D01*
Y120463D01*
D02*
G37*
G36*
X176579Y119399D02*
X176602D01*
Y119145D01*
X175654D01*
Y119099D01*
X175631D01*
Y119029D01*
X175654D01*
Y119006D01*
X175677D01*
Y118983D01*
X176394D01*
Y118960D01*
X176486D01*
Y118937D01*
X176533D01*
Y118914D01*
X176579D01*
Y118868D01*
X176602D01*
Y118821D01*
X176625D01*
Y118428D01*
X176602D01*
Y118382D01*
X176579D01*
Y118359D01*
X176556D01*
Y118336D01*
X176533D01*
Y118313D01*
X176486D01*
Y118289D01*
X176417D01*
Y118266D01*
X175307D01*
Y118544D01*
X176255D01*
Y118567D01*
X176278D01*
Y118590D01*
X176301D01*
Y118683D01*
X176278D01*
Y118706D01*
X176255D01*
Y118729D01*
X175469D01*
Y118752D01*
X175399D01*
Y118775D01*
X175353D01*
Y118798D01*
X175330D01*
Y118844D01*
X175307D01*
Y118891D01*
X175284D01*
Y119238D01*
X175307D01*
Y119284D01*
X175330D01*
Y119330D01*
X175353D01*
Y119353D01*
X175399D01*
Y119376D01*
X175446D01*
Y119399D01*
X175561D01*
Y119423D01*
X176024D01*
Y119399D01*
X176348D01*
Y119423D01*
X176579D01*
Y119399D01*
D02*
G37*
G36*
X173596D02*
X173919D01*
Y119376D01*
X173943D01*
Y119353D01*
X173989D01*
Y119330D01*
X174012D01*
Y119284D01*
X174035D01*
Y119238D01*
X174058D01*
Y118983D01*
X174035D01*
Y118937D01*
X174012D01*
Y118891D01*
X173966D01*
Y118844D01*
X174012D01*
Y118821D01*
X174035D01*
Y118775D01*
X174058D01*
Y118729D01*
X174081D01*
Y118498D01*
X174058D01*
Y118428D01*
X174035D01*
Y118382D01*
X174012D01*
Y118359D01*
X173989D01*
Y118336D01*
X173966D01*
Y118313D01*
X173896D01*
Y118289D01*
X172694D01*
Y118313D01*
X172671D01*
Y119399D01*
X172879D01*
Y119423D01*
X173272D01*
Y119399D01*
X173434D01*
Y119423D01*
X173596D01*
Y119399D01*
D02*
G37*
G36*
X183332Y118752D02*
X177920D01*
Y119053D01*
X183332D01*
Y118752D01*
D02*
G37*
G36*
X166080D02*
X160668D01*
Y119053D01*
X166080D01*
Y118752D01*
D02*
G37*
G36*
X170798Y119376D02*
X170821D01*
Y119330D01*
X170844D01*
Y119284D01*
X170867D01*
Y119261D01*
X170890D01*
Y119214D01*
X170913D01*
Y119168D01*
X170936D01*
Y119145D01*
X170959D01*
Y119099D01*
X170983D01*
Y119053D01*
X171006D01*
Y119006D01*
X171029D01*
Y118960D01*
X171052D01*
Y118937D01*
X171075D01*
Y118891D01*
X171098D01*
Y118844D01*
X171121D01*
Y118798D01*
X171144D01*
Y118775D01*
X171168D01*
Y118729D01*
X171191D01*
Y118683D01*
X171214D01*
Y118636D01*
X171237D01*
Y118590D01*
X171260D01*
Y118567D01*
X171283D01*
Y118521D01*
X171306D01*
Y118474D01*
X171329D01*
Y118428D01*
X171353D01*
Y118405D01*
X171376D01*
Y118359D01*
X171399D01*
Y118313D01*
X171422D01*
Y118289D01*
X171052D01*
Y118313D01*
X171029D01*
Y118359D01*
X171006D01*
Y118405D01*
X170983D01*
Y118451D01*
X170959D01*
Y118474D01*
X170936D01*
Y118521D01*
X170219D01*
Y118474D01*
X170196D01*
Y118428D01*
X170173D01*
Y118405D01*
X170150D01*
Y118359D01*
X170127D01*
Y118313D01*
X170104D01*
Y118289D01*
X169757D01*
Y118359D01*
X169780D01*
Y118382D01*
X169803D01*
Y118428D01*
X169826D01*
Y118474D01*
X169849D01*
Y118521D01*
X169872D01*
Y118544D01*
X169896D01*
Y118590D01*
X169919D01*
Y118636D01*
X169942D01*
Y118659D01*
X169965D01*
Y118706D01*
X169988D01*
Y118752D01*
X170011D01*
Y118798D01*
X170034D01*
Y118844D01*
X170057D01*
Y118868D01*
X170080D01*
Y118891D01*
Y118914D01*
X170104D01*
Y118960D01*
X170127D01*
Y118983D01*
X170150D01*
Y119029D01*
X170173D01*
Y119076D01*
X170196D01*
Y119099D01*
X170219D01*
Y119145D01*
X170242D01*
Y119191D01*
X170266D01*
Y119238D01*
X170289D01*
Y119261D01*
X170312D01*
Y119307D01*
X170335D01*
Y119353D01*
X170358D01*
Y119376D01*
X170381D01*
Y119399D01*
X170798D01*
Y119376D01*
D02*
G37*
G36*
X167722Y119399D02*
X167745D01*
Y118567D01*
X168647D01*
Y118544D01*
X168670D01*
Y118313D01*
X168647D01*
Y118289D01*
X167398D01*
Y118313D01*
X167375D01*
Y118336D01*
X167398D01*
Y118359D01*
X167375D01*
Y118382D01*
X167398D01*
Y118405D01*
X167375D01*
Y118544D01*
X167398D01*
Y118636D01*
X167375D01*
Y119214D01*
X167398D01*
Y119284D01*
Y119307D01*
Y119399D01*
X167514D01*
Y119423D01*
X167722D01*
Y119399D01*
D02*
G37*
%LPC*%
G36*
X179817Y141416D02*
X178221D01*
Y141392D01*
X178198D01*
Y141369D01*
X178175D01*
Y140768D01*
Y140745D01*
Y140514D01*
X178198D01*
Y140282D01*
X178221D01*
Y140259D01*
X178244D01*
Y140236D01*
X178267D01*
Y140213D01*
X178290D01*
Y140190D01*
X178313D01*
Y140167D01*
X178337D01*
Y140144D01*
X178360D01*
Y140120D01*
X178383D01*
Y140097D01*
X178406D01*
Y140074D01*
X178429D01*
Y140051D01*
X178452D01*
Y140028D01*
X178475D01*
Y140005D01*
X178498D01*
Y139982D01*
X178522D01*
Y139959D01*
X178545D01*
Y139935D01*
X178568D01*
Y139912D01*
X178591D01*
Y139889D01*
X178614D01*
Y139866D01*
X178637D01*
Y139843D01*
X178660D01*
Y139820D01*
X178683D01*
Y139797D01*
X178707D01*
Y139773D01*
X178730D01*
Y139750D01*
X178753D01*
Y139727D01*
X178776D01*
Y139704D01*
X178799D01*
Y139681D01*
X178822D01*
Y139658D01*
X178845D01*
Y139635D01*
X178868D01*
Y139612D01*
X178892D01*
Y139588D01*
X178915D01*
Y139565D01*
X178938D01*
Y139542D01*
X178961D01*
Y139519D01*
X178984D01*
Y139496D01*
X179007D01*
Y139473D01*
X179030D01*
Y139450D01*
X179053D01*
Y139427D01*
X179077D01*
Y139403D01*
X179100D01*
Y139380D01*
X179123D01*
Y139357D01*
X179146D01*
Y139334D01*
X179169D01*
Y139311D01*
X179192D01*
Y139288D01*
X180302D01*
Y139311D01*
X180325D01*
Y139334D01*
X180349D01*
Y140884D01*
X180325D01*
Y140930D01*
X180302D01*
Y140976D01*
X180279D01*
Y141022D01*
X180256D01*
Y141045D01*
X180233D01*
Y141069D01*
X180210D01*
Y141092D01*
X180187D01*
Y141138D01*
X180164D01*
Y141161D01*
X180140D01*
Y141184D01*
X180117D01*
Y141207D01*
X180094D01*
Y141230D01*
X180071D01*
Y141254D01*
X180025D01*
Y141277D01*
X180002D01*
Y141300D01*
X179979D01*
Y141323D01*
X179955D01*
Y141346D01*
X179909D01*
Y141369D01*
X179886D01*
Y141392D01*
X179817D01*
Y141416D01*
D02*
G37*
G36*
X174359Y141369D02*
X173781D01*
Y141346D01*
X173758D01*
Y140467D01*
X173781D01*
Y139103D01*
X173758D01*
Y139080D01*
X173734D01*
Y139057D01*
X173711D01*
Y139033D01*
X173688D01*
Y138987D01*
X173665D01*
Y138964D01*
X173642D01*
Y138941D01*
X173619D01*
Y138918D01*
X173596D01*
Y138895D01*
X173573D01*
Y138872D01*
X173549D01*
Y138848D01*
X173526D01*
Y138825D01*
X173503D01*
Y138802D01*
X173480D01*
Y138779D01*
X173457D01*
Y138756D01*
X173434D01*
Y138733D01*
X173411D01*
Y138710D01*
X173388D01*
Y138687D01*
X173364D01*
Y138663D01*
X173341D01*
Y138640D01*
X173318D01*
Y138617D01*
X173295D01*
Y138594D01*
X173272D01*
Y138571D01*
X173249D01*
Y138548D01*
X173226D01*
Y138525D01*
X173203D01*
Y138502D01*
X173179D01*
Y138479D01*
X173156D01*
Y138455D01*
X173133D01*
Y138432D01*
X173110D01*
Y138409D01*
X173087D01*
Y138386D01*
X173064D01*
Y138363D01*
X173041D01*
Y138340D01*
X173018D01*
Y138317D01*
X172994D01*
Y138294D01*
X172971D01*
Y138270D01*
X172948D01*
Y138247D01*
X172925D01*
Y138224D01*
X172902D01*
Y138201D01*
X172879D01*
Y138178D01*
X172856D01*
Y138155D01*
X172833D01*
Y138132D01*
X172809D01*
Y138108D01*
X172786D01*
Y138085D01*
X172763D01*
Y138039D01*
X172740D01*
Y138016D01*
X172717D01*
Y137993D01*
X172694D01*
Y137970D01*
X172671D01*
Y137947D01*
X172648D01*
Y137923D01*
X172624D01*
Y137900D01*
X172601D01*
Y137877D01*
X172578D01*
Y137854D01*
X172555D01*
Y137831D01*
X172532D01*
Y137808D01*
X172509D01*
Y137785D01*
X172486D01*
Y137762D01*
X172462D01*
Y137738D01*
X172439D01*
Y137715D01*
X172416D01*
Y137692D01*
X172393D01*
Y137669D01*
X172370D01*
Y137646D01*
X172347D01*
Y137623D01*
X172324D01*
Y135726D01*
X172902D01*
Y136860D01*
Y136883D01*
Y137392D01*
X172925D01*
Y137461D01*
X172948D01*
Y137484D01*
X172971D01*
Y137507D01*
X172994D01*
Y137530D01*
X173018D01*
Y137553D01*
X173041D01*
Y137577D01*
X173064D01*
Y137600D01*
X173087D01*
Y137623D01*
X173110D01*
Y137646D01*
X173133D01*
Y137669D01*
X173156D01*
Y137692D01*
X173179D01*
Y137715D01*
X173203D01*
Y137738D01*
X173226D01*
Y137762D01*
X173249D01*
Y137785D01*
X173272D01*
Y137808D01*
X173295D01*
Y137831D01*
X173318D01*
Y137854D01*
X173341D01*
Y137877D01*
X173364D01*
Y137900D01*
X173388D01*
Y137923D01*
X173411D01*
Y137947D01*
X173434D01*
Y137970D01*
X173457D01*
Y137993D01*
X173480D01*
Y138016D01*
X173503D01*
Y138039D01*
X173526D01*
Y138085D01*
X173573D01*
Y138108D01*
X173596D01*
Y138132D01*
X173619D01*
Y138155D01*
X173642D01*
Y138178D01*
X173665D01*
Y138224D01*
X173688D01*
Y138247D01*
X173711D01*
Y138270D01*
X173734D01*
Y138294D01*
X173758D01*
Y138317D01*
X173781D01*
Y138340D01*
X173827D01*
Y138386D01*
X173850D01*
Y138409D01*
X173873D01*
Y138432D01*
X173896D01*
Y138455D01*
X173919D01*
Y138479D01*
X173943D01*
Y138502D01*
X173966D01*
Y138525D01*
X173989D01*
Y138548D01*
X174012D01*
Y138571D01*
X174035D01*
Y138594D01*
X174058D01*
Y138617D01*
X174081D01*
Y138640D01*
X174104D01*
Y138663D01*
X174128D01*
Y138687D01*
X174151D01*
Y138710D01*
X174174D01*
Y138733D01*
X174197D01*
Y138756D01*
X174220D01*
Y138779D01*
X174243D01*
Y138802D01*
X174266D01*
Y138825D01*
X174290D01*
Y138848D01*
X174313D01*
Y138872D01*
X174336D01*
Y138895D01*
X174359D01*
Y138918D01*
X174382D01*
Y138941D01*
X174405D01*
Y140167D01*
X174382D01*
Y141346D01*
X174359D01*
Y141369D01*
D02*
G37*
G36*
X173133D02*
X172555D01*
Y141346D01*
X172532D01*
Y139959D01*
X172555D01*
Y139450D01*
X172532D01*
Y139403D01*
X172509D01*
Y139380D01*
X172486D01*
Y139357D01*
X172462D01*
Y139334D01*
X172439D01*
Y139311D01*
X172416D01*
Y139288D01*
X172393D01*
Y139265D01*
X172370D01*
Y139242D01*
X172347D01*
Y139218D01*
X172324D01*
Y139195D01*
X172301D01*
Y139149D01*
X172277D01*
Y139126D01*
X172254D01*
Y139103D01*
X172231D01*
Y139080D01*
X172208D01*
Y139057D01*
X172185D01*
Y139033D01*
X172162D01*
Y139010D01*
X172139D01*
Y138987D01*
X172116D01*
Y138964D01*
X172092D01*
Y138941D01*
X172069D01*
Y138918D01*
X172046D01*
Y138895D01*
X172023D01*
Y138872D01*
X172000D01*
Y138848D01*
X171977D01*
Y138825D01*
X171954D01*
Y138802D01*
X171931D01*
Y138779D01*
X171907D01*
Y138756D01*
X171884D01*
Y138733D01*
X171861D01*
Y138710D01*
X171838D01*
Y138687D01*
X171815D01*
Y138663D01*
X171792D01*
Y138640D01*
X171769D01*
Y138617D01*
X171746D01*
Y138594D01*
X171722D01*
Y138548D01*
X171699D01*
Y138525D01*
X171676D01*
Y138502D01*
X171653D01*
Y138479D01*
X171630D01*
Y138455D01*
X171607D01*
Y138432D01*
X171584D01*
Y138409D01*
X171561D01*
Y138386D01*
X171537D01*
Y138363D01*
X171514D01*
Y138340D01*
X171491D01*
Y138317D01*
X171468D01*
Y138294D01*
X171445D01*
Y138270D01*
X171422D01*
Y138247D01*
X171399D01*
Y138224D01*
X171376D01*
Y138201D01*
X171353D01*
Y138178D01*
X171329D01*
Y138155D01*
X171306D01*
Y138132D01*
X171283D01*
Y138085D01*
X171260D01*
Y138062D01*
X171237D01*
Y138039D01*
X171214D01*
Y138016D01*
X171191D01*
Y137993D01*
X171168D01*
Y137970D01*
X171144D01*
Y137947D01*
X171121D01*
Y137923D01*
X171098D01*
Y137900D01*
X171075D01*
Y137877D01*
X171052D01*
Y137854D01*
X171029D01*
Y135726D01*
X171676D01*
Y137831D01*
X171699D01*
Y137854D01*
X171722D01*
Y137877D01*
X171746D01*
Y137900D01*
X171769D01*
Y137923D01*
X171792D01*
Y137947D01*
X171815D01*
Y137970D01*
X171838D01*
Y137993D01*
X171861D01*
Y138016D01*
X171884D01*
Y138039D01*
X171907D01*
Y138062D01*
X171931D01*
Y138085D01*
X171954D01*
Y138108D01*
X171977D01*
Y138132D01*
X172000D01*
Y138155D01*
X172023D01*
Y138201D01*
X172046D01*
Y138224D01*
X172069D01*
Y138247D01*
X172092D01*
Y138270D01*
X172139D01*
Y138294D01*
X172162D01*
Y138317D01*
X172185D01*
Y138363D01*
X172208D01*
Y138386D01*
X172231D01*
Y138409D01*
X172254D01*
Y138432D01*
X172277D01*
Y138455D01*
X172301D01*
Y138479D01*
X172324D01*
Y138502D01*
X172347D01*
Y138525D01*
X172370D01*
Y138548D01*
X172393D01*
Y138571D01*
X172416D01*
Y138594D01*
X172439D01*
Y138617D01*
X172462D01*
Y138640D01*
X172486D01*
Y138663D01*
X172509D01*
Y138687D01*
X172532D01*
Y138710D01*
X172555D01*
Y138733D01*
X172578D01*
Y138756D01*
X172601D01*
Y138779D01*
X172624D01*
Y138802D01*
X172648D01*
Y138825D01*
X172671D01*
Y138848D01*
X172694D01*
Y138872D01*
X172717D01*
Y138895D01*
X172740D01*
Y138918D01*
X172763D01*
Y138941D01*
X172786D01*
Y138964D01*
X172809D01*
Y138987D01*
X172833D01*
Y139010D01*
X172856D01*
Y139033D01*
X172879D01*
Y139057D01*
X172902D01*
Y139080D01*
X172925D01*
Y139103D01*
X172948D01*
Y139126D01*
X172971D01*
Y139149D01*
X172994D01*
Y139172D01*
X173018D01*
Y139195D01*
X173041D01*
Y139218D01*
X173064D01*
Y139242D01*
X173087D01*
Y139265D01*
X173110D01*
Y139288D01*
X173133D01*
Y139334D01*
X173156D01*
Y140097D01*
X173133D01*
Y141369D01*
D02*
G37*
G36*
X171884D02*
X164276D01*
Y141346D01*
X164160D01*
Y141323D01*
X164091D01*
Y141300D01*
X164045D01*
Y141277D01*
X163998D01*
Y141254D01*
X163952D01*
Y141230D01*
X163929D01*
Y141207D01*
X163906D01*
Y141184D01*
X163883D01*
Y141161D01*
X163860D01*
Y141138D01*
X163837D01*
Y141115D01*
X163813D01*
Y141092D01*
X163790D01*
Y141069D01*
X163767D01*
Y141022D01*
X163744D01*
Y140976D01*
X163721D01*
Y140930D01*
X163698D01*
Y140884D01*
X163675D01*
Y140791D01*
X163652D01*
Y139588D01*
X163721D01*
Y139565D01*
X163813D01*
Y139542D01*
X163883D01*
Y139519D01*
X163952D01*
Y139496D01*
X163998D01*
Y139473D01*
X164045D01*
Y139450D01*
X164091D01*
Y139427D01*
X164137D01*
Y139403D01*
X164160D01*
Y139380D01*
X164207D01*
Y139357D01*
X164230D01*
Y139334D01*
X164253D01*
Y139311D01*
X164299D01*
Y139288D01*
X164322D01*
Y139265D01*
X164345D01*
Y139242D01*
X164368D01*
Y139218D01*
X164392D01*
Y139195D01*
X164415D01*
Y139172D01*
X164438D01*
Y139149D01*
X164461D01*
Y139103D01*
X164484D01*
Y139080D01*
X164507D01*
Y139057D01*
X164530D01*
Y139010D01*
X164553D01*
Y138964D01*
X164577D01*
Y138941D01*
X164600D01*
Y138895D01*
X164623D01*
Y138825D01*
X164646D01*
Y138779D01*
X164669D01*
Y138710D01*
X164692D01*
Y138640D01*
X164715D01*
Y138502D01*
X164738D01*
Y138108D01*
X164715D01*
Y137993D01*
X164692D01*
Y137923D01*
X164669D01*
Y137854D01*
X164646D01*
Y137785D01*
X164623D01*
Y137738D01*
X164600D01*
Y137692D01*
X164577D01*
Y137646D01*
X164553D01*
Y137600D01*
X164530D01*
Y137577D01*
X164507D01*
Y137530D01*
X164484D01*
Y137507D01*
X164461D01*
Y137484D01*
X164438D01*
Y137461D01*
X164415D01*
Y137438D01*
X164392D01*
Y137415D01*
X164368D01*
Y137392D01*
X164345D01*
Y137368D01*
X164322D01*
Y137345D01*
X164299D01*
Y137322D01*
X164276D01*
Y137299D01*
X164253D01*
Y137276D01*
X164230D01*
Y137253D01*
X164183D01*
Y137230D01*
X164160D01*
Y137206D01*
X164114D01*
Y137183D01*
X164068D01*
Y137160D01*
X164022D01*
Y137137D01*
X163975D01*
Y137114D01*
X163929D01*
Y137091D01*
X163860D01*
Y137068D01*
X163767D01*
Y137045D01*
X163675D01*
Y126592D01*
X164831D01*
Y126569D01*
X164877D01*
Y126546D01*
X164900D01*
Y126522D01*
X164923D01*
Y126499D01*
X164947D01*
Y126476D01*
X164970D01*
Y126453D01*
X164993D01*
Y126430D01*
X165016D01*
Y126407D01*
X165039D01*
Y126384D01*
X165062D01*
Y126360D01*
X165085D01*
Y126337D01*
X165108D01*
Y126314D01*
X165132D01*
Y126291D01*
X165155D01*
Y126268D01*
X165178D01*
Y126245D01*
X165201D01*
Y126222D01*
X165224D01*
Y126199D01*
X165247D01*
Y126175D01*
X165270D01*
Y126152D01*
X165294D01*
Y126129D01*
X165317D01*
Y126106D01*
X165340D01*
Y126083D01*
X165363D01*
Y126060D01*
X165386D01*
Y126037D01*
X165409D01*
Y126014D01*
X165432D01*
Y125990D01*
X165455D01*
Y125967D01*
X165479D01*
Y125944D01*
X165502D01*
Y125921D01*
X165525D01*
Y125898D01*
X165548D01*
Y125875D01*
X165571D01*
Y125852D01*
X165594D01*
Y125829D01*
X165617D01*
Y125805D01*
X165640D01*
Y125782D01*
X165664D01*
Y125759D01*
X165687D01*
Y125736D01*
X165710D01*
Y125713D01*
X165733D01*
Y125690D01*
X165756D01*
Y125667D01*
X165779D01*
Y125644D01*
X165802D01*
Y125620D01*
X165825D01*
Y125597D01*
X165849D01*
Y125574D01*
X165872D01*
Y125551D01*
X165895D01*
Y125528D01*
X165918D01*
Y125505D01*
X165941D01*
Y125482D01*
X165964D01*
Y125459D01*
X165987D01*
Y125435D01*
X166010D01*
Y125412D01*
X166033D01*
Y125389D01*
X166057D01*
Y125366D01*
X166080D01*
Y125343D01*
X166103D01*
Y125320D01*
X166126D01*
Y125158D01*
X166149D01*
Y124140D01*
X166172D01*
Y123932D01*
X167907D01*
Y123955D01*
X167930D01*
Y126152D01*
X167953D01*
Y126199D01*
X167976D01*
Y126222D01*
X167999D01*
Y126245D01*
X168022D01*
Y126268D01*
X168045D01*
Y126291D01*
X168069D01*
Y126314D01*
X168092D01*
Y126337D01*
X168115D01*
Y126360D01*
X168138D01*
Y126384D01*
X168161D01*
Y126407D01*
X168184D01*
Y126430D01*
X168207D01*
Y126453D01*
X168230D01*
Y126476D01*
X168254D01*
Y126499D01*
X168277D01*
Y126522D01*
X168300D01*
Y126546D01*
X168323D01*
Y126569D01*
X168346D01*
Y126592D01*
X168369D01*
Y126615D01*
X168392D01*
Y126638D01*
X168415D01*
Y126661D01*
X168439D01*
Y126684D01*
X168462D01*
Y126707D01*
X168485D01*
Y126731D01*
X168508D01*
Y126754D01*
X168531D01*
Y126777D01*
X168554D01*
Y126800D01*
X168577D01*
Y126823D01*
X168600D01*
Y126846D01*
X168624D01*
Y126869D01*
X168647D01*
Y126892D01*
X168670D01*
Y126916D01*
X168693D01*
Y126939D01*
X168716D01*
Y126962D01*
X168739D01*
Y126985D01*
X168762D01*
Y127008D01*
X168786D01*
Y127031D01*
X168809D01*
Y127054D01*
X168832D01*
Y127077D01*
X168855D01*
Y127101D01*
X168878D01*
Y127124D01*
X168901D01*
Y127147D01*
X168924D01*
Y127170D01*
X168947D01*
Y127193D01*
X168971D01*
Y127216D01*
X168994D01*
Y127239D01*
X169017D01*
Y127262D01*
X169040D01*
Y127286D01*
X169063D01*
Y127309D01*
X169086D01*
Y127332D01*
X169109D01*
Y127355D01*
X169132D01*
Y127378D01*
X169156D01*
Y127401D01*
X169179D01*
Y127424D01*
X169202D01*
Y127447D01*
X169225D01*
Y127494D01*
X169248D01*
Y127517D01*
X169271D01*
Y127540D01*
X169294D01*
Y127563D01*
X169317D01*
Y127586D01*
X169341D01*
Y127609D01*
X169364D01*
Y127632D01*
X169387D01*
Y127655D01*
X169410D01*
Y127679D01*
X169433D01*
Y128951D01*
X169156D01*
Y128974D01*
X169040D01*
Y128997D01*
X168971D01*
Y129020D01*
X168924D01*
Y129043D01*
X168878D01*
Y129066D01*
X168832D01*
Y129089D01*
X168786D01*
Y129112D01*
X168762D01*
Y129136D01*
X168716D01*
Y129159D01*
X168693D01*
Y129182D01*
X168670D01*
Y129205D01*
X168647D01*
Y129228D01*
X168624D01*
Y129251D01*
X168600D01*
Y129297D01*
X168577D01*
Y129321D01*
X168554D01*
Y129344D01*
X168531D01*
Y129390D01*
X168508D01*
Y129436D01*
X168485D01*
Y129482D01*
X168462D01*
Y129529D01*
X168439D01*
Y129621D01*
X168415D01*
Y129760D01*
X168392D01*
Y130454D01*
X167606D01*
Y130431D01*
X167467D01*
Y130408D01*
X167444D01*
Y130384D01*
X167421D01*
Y130361D01*
X167398D01*
Y130338D01*
X167375D01*
Y130315D01*
X167352D01*
Y130292D01*
X167329D01*
Y130269D01*
X167305D01*
Y130246D01*
X167282D01*
Y130222D01*
X167259D01*
Y130199D01*
X167236D01*
Y130176D01*
X167213D01*
Y130153D01*
X167190D01*
Y130130D01*
X167167D01*
Y130107D01*
X167143D01*
Y130084D01*
X167120D01*
Y130061D01*
X167097D01*
Y130037D01*
X167074D01*
Y130014D01*
X167051D01*
Y129991D01*
X167028D01*
Y129968D01*
X167005D01*
Y129945D01*
X166982D01*
Y129922D01*
X166958D01*
Y129899D01*
X166935D01*
Y129876D01*
X166912D01*
Y129852D01*
X166889D01*
Y129829D01*
X166866D01*
Y129806D01*
X166843D01*
Y129783D01*
X166797D01*
Y129760D01*
X166773D01*
Y129737D01*
X166750D01*
Y129714D01*
X166727D01*
Y129691D01*
X166704D01*
Y129667D01*
X166681D01*
Y129644D01*
X166658D01*
Y129621D01*
X166635D01*
Y129598D01*
X166612D01*
Y129575D01*
X166588D01*
Y129552D01*
X166565D01*
Y129529D01*
X166542D01*
Y129506D01*
X166519D01*
Y129482D01*
X166496D01*
Y129459D01*
X166473D01*
Y128766D01*
X166496D01*
Y128742D01*
X166565D01*
Y128719D01*
X166612D01*
Y128696D01*
X166658D01*
Y128673D01*
X166681D01*
Y128650D01*
X166727D01*
Y128627D01*
X166750D01*
Y128604D01*
X166773D01*
Y128580D01*
X166797D01*
Y128557D01*
X166843D01*
Y128511D01*
X166866D01*
Y128488D01*
X166889D01*
Y128465D01*
X166912D01*
Y128442D01*
X166935D01*
Y128419D01*
X166958D01*
Y128372D01*
X166982D01*
Y128326D01*
X167005D01*
Y128280D01*
X167028D01*
Y128234D01*
X167051D01*
Y128164D01*
X167074D01*
Y128095D01*
X167097D01*
Y127679D01*
X167074D01*
Y127586D01*
X167051D01*
Y127540D01*
X167028D01*
Y127471D01*
X167005D01*
Y127424D01*
X166982D01*
Y127401D01*
X166958D01*
Y127355D01*
X166935D01*
Y127332D01*
X166912D01*
Y127286D01*
X166889D01*
Y127262D01*
X166866D01*
Y127239D01*
X166843D01*
Y127216D01*
X166820D01*
Y127193D01*
X166797D01*
Y127170D01*
X166750D01*
Y127147D01*
X166727D01*
Y127124D01*
X166704D01*
Y127101D01*
X166658D01*
Y127077D01*
X166612D01*
Y127054D01*
X166588D01*
Y127031D01*
X166519D01*
Y127008D01*
X166473D01*
Y126985D01*
X166380D01*
Y126962D01*
X166218D01*
Y126939D01*
X166057D01*
Y126962D01*
X165895D01*
Y126985D01*
X165802D01*
Y127008D01*
X165756D01*
Y127031D01*
X165710D01*
Y127054D01*
X165664D01*
Y127077D01*
X165617D01*
Y127101D01*
X165594D01*
Y127124D01*
X165548D01*
Y127147D01*
X165525D01*
Y127170D01*
X165502D01*
Y127193D01*
X165479D01*
Y127216D01*
X165455D01*
Y127239D01*
X165432D01*
Y127262D01*
X165409D01*
Y127309D01*
X165386D01*
Y127332D01*
X165363D01*
Y127355D01*
X165340D01*
Y127401D01*
X165317D01*
Y127447D01*
X165294D01*
Y127494D01*
X165270D01*
Y127563D01*
X165247D01*
Y127632D01*
X165224D01*
Y127748D01*
X165201D01*
Y127979D01*
X165224D01*
Y128095D01*
X165247D01*
Y128187D01*
X165270D01*
Y128234D01*
X165294D01*
Y128280D01*
X165317D01*
Y128326D01*
X165340D01*
Y128372D01*
X165363D01*
Y128395D01*
X165386D01*
Y128442D01*
X165409D01*
Y128465D01*
X165432D01*
Y128488D01*
X165455D01*
Y128511D01*
X165479D01*
Y128534D01*
X165502D01*
Y128557D01*
X165525D01*
Y128580D01*
X165548D01*
Y128604D01*
X165571D01*
Y128627D01*
X165617D01*
Y128650D01*
X165640D01*
Y128673D01*
X165687D01*
Y128696D01*
X165733D01*
Y128719D01*
X165779D01*
Y128742D01*
X165849D01*
Y128766D01*
X165872D01*
Y129714D01*
X165895D01*
Y129737D01*
X165918D01*
Y129760D01*
X165941D01*
Y129783D01*
X165964D01*
Y129806D01*
X165987D01*
Y129829D01*
X166010D01*
Y129852D01*
X166033D01*
Y129876D01*
X166057D01*
Y129899D01*
X166080D01*
Y129922D01*
X166103D01*
Y129945D01*
X166126D01*
Y129968D01*
X166149D01*
Y129991D01*
X166172D01*
Y130014D01*
X166195D01*
Y130037D01*
X166218D01*
Y130061D01*
X166242D01*
Y130084D01*
X166265D01*
Y130107D01*
X166288D01*
Y130130D01*
X166311D01*
Y130153D01*
X166334D01*
Y130176D01*
X166357D01*
Y130199D01*
X166380D01*
Y130222D01*
X166403D01*
Y130246D01*
X166427D01*
Y130269D01*
X166450D01*
Y130292D01*
X166473D01*
Y130315D01*
X166519D01*
Y130338D01*
X166542D01*
Y130361D01*
X166565D01*
Y130384D01*
X166588D01*
Y130408D01*
X166612D01*
Y130431D01*
X166635D01*
Y130454D01*
X166658D01*
Y130477D01*
X166681D01*
Y130500D01*
X166704D01*
Y130523D01*
X166727D01*
Y130546D01*
X166750D01*
Y130569D01*
X166773D01*
Y130593D01*
X166797D01*
Y130616D01*
X166820D01*
Y130639D01*
X166843D01*
Y130662D01*
X166866D01*
Y130685D01*
X166889D01*
Y130708D01*
X166912D01*
Y130731D01*
X166935D01*
Y130754D01*
X166958D01*
Y130778D01*
X166982D01*
Y130801D01*
X167005D01*
Y130824D01*
X167028D01*
Y130847D01*
X167051D01*
Y130870D01*
X167074D01*
Y130893D01*
X167097D01*
Y130916D01*
X167120D01*
Y130939D01*
X167143D01*
Y130963D01*
X167167D01*
Y130986D01*
X167190D01*
Y131009D01*
X168392D01*
Y131633D01*
X168254D01*
Y131610D01*
X165987D01*
Y131587D01*
X165964D01*
Y131518D01*
X165941D01*
Y131471D01*
X165918D01*
Y131448D01*
X165895D01*
Y131402D01*
X165872D01*
Y131356D01*
X165849D01*
Y131333D01*
X165825D01*
Y131309D01*
X165802D01*
Y131286D01*
X165779D01*
Y131263D01*
X165756D01*
Y131240D01*
X165733D01*
Y131217D01*
X165710D01*
Y131194D01*
X165687D01*
Y131171D01*
X165664D01*
Y131148D01*
X165617D01*
Y131124D01*
X165594D01*
Y131101D01*
X165548D01*
Y131078D01*
X165502D01*
Y131055D01*
X165455D01*
Y131032D01*
X165386D01*
Y131009D01*
X165317D01*
Y130986D01*
X165178D01*
Y130963D01*
X164993D01*
Y130986D01*
X164854D01*
Y131009D01*
X164762D01*
Y131032D01*
X164715D01*
Y131055D01*
X164646D01*
Y131078D01*
X164623D01*
Y131101D01*
X164577D01*
Y131124D01*
X164530D01*
Y131148D01*
X164507D01*
Y131171D01*
X164484D01*
Y131194D01*
X164461D01*
Y131217D01*
X164438D01*
Y131240D01*
X164415D01*
Y131263D01*
X164392D01*
Y131286D01*
X164368D01*
Y131309D01*
X164345D01*
Y131333D01*
X164322D01*
Y131379D01*
X164299D01*
Y131402D01*
X164276D01*
Y131448D01*
X164253D01*
Y131494D01*
X164230D01*
Y131564D01*
X164207D01*
Y131633D01*
X164183D01*
Y131749D01*
X164160D01*
Y132026D01*
X164183D01*
Y132119D01*
X164207D01*
Y132211D01*
X164230D01*
Y132258D01*
X164253D01*
Y132304D01*
X164276D01*
Y132350D01*
X164299D01*
Y132396D01*
X164322D01*
Y132420D01*
X164345D01*
Y132443D01*
X164368D01*
Y132466D01*
X164392D01*
Y132512D01*
X164415D01*
Y132535D01*
X164438D01*
Y132558D01*
X164461D01*
Y132581D01*
X164507D01*
Y132605D01*
X164530D01*
Y132628D01*
X164553D01*
Y132651D01*
X164600D01*
Y132674D01*
X164623D01*
Y132697D01*
X164669D01*
Y132720D01*
X164715D01*
Y132743D01*
X164762D01*
Y132766D01*
X164831D01*
Y132790D01*
X164923D01*
Y132813D01*
X165294D01*
Y132790D01*
X165386D01*
Y132766D01*
X165455D01*
Y132743D01*
X165525D01*
Y132720D01*
X165571D01*
Y132697D01*
X165594D01*
Y132674D01*
X165640D01*
Y132651D01*
X165664D01*
Y132628D01*
X165687D01*
Y132605D01*
X165733D01*
Y132581D01*
X165756D01*
Y132558D01*
X165779D01*
Y132535D01*
X165802D01*
Y132512D01*
X165825D01*
Y132466D01*
X165849D01*
Y132443D01*
X165872D01*
Y132420D01*
X165895D01*
Y132373D01*
X165918D01*
Y132327D01*
X165941D01*
Y132281D01*
X165964D01*
Y132211D01*
X165987D01*
Y132188D01*
X166172D01*
Y132211D01*
X168392D01*
Y132836D01*
X168415D01*
Y132859D01*
X168392D01*
Y132882D01*
X166912D01*
Y132905D01*
X166889D01*
Y132928D01*
X166866D01*
Y132951D01*
X166843D01*
Y132975D01*
X166820D01*
Y132998D01*
X166797D01*
Y133021D01*
X166773D01*
Y133044D01*
X166750D01*
Y133067D01*
X166727D01*
Y133090D01*
X166704D01*
Y133113D01*
X166681D01*
Y133136D01*
X166658D01*
Y133159D01*
X166635D01*
Y133183D01*
X166612D01*
Y133206D01*
X166588D01*
Y133229D01*
X166565D01*
Y133252D01*
X166542D01*
Y133275D01*
X166519D01*
Y133298D01*
X166496D01*
Y133321D01*
X166473D01*
Y133368D01*
X166450D01*
Y133391D01*
X166427D01*
Y133414D01*
X166403D01*
Y133437D01*
X166380D01*
Y133460D01*
X166357D01*
Y133483D01*
X166334D01*
Y133506D01*
X166311D01*
Y133529D01*
X166288D01*
Y133553D01*
X166265D01*
Y133576D01*
X166242D01*
Y133599D01*
X166218D01*
Y133622D01*
X166195D01*
Y133645D01*
X166172D01*
Y133668D01*
X166149D01*
Y133691D01*
X166126D01*
Y133714D01*
X166103D01*
Y133738D01*
X166080D01*
Y133761D01*
X166057D01*
Y133784D01*
X166033D01*
Y133807D01*
X166010D01*
Y133830D01*
X165987D01*
Y133853D01*
X165964D01*
Y133876D01*
X165941D01*
Y133899D01*
X165918D01*
Y133923D01*
X165895D01*
Y133946D01*
X165872D01*
Y133969D01*
X165849D01*
Y133992D01*
X165825D01*
Y134015D01*
X165802D01*
Y134038D01*
X165779D01*
Y134061D01*
X165756D01*
Y134084D01*
X165733D01*
Y134108D01*
X165710D01*
Y134131D01*
X165687D01*
Y134154D01*
X165664D01*
Y134177D01*
X165640D01*
Y134200D01*
X165617D01*
Y134640D01*
X165594D01*
Y135403D01*
X165548D01*
Y135426D01*
X165479D01*
Y135449D01*
X165432D01*
Y135472D01*
X165386D01*
Y135495D01*
X165363D01*
Y135518D01*
X165317D01*
Y135541D01*
X165294D01*
Y135565D01*
X165270D01*
Y135588D01*
X165247D01*
Y135611D01*
X165224D01*
Y135634D01*
X165201D01*
Y135657D01*
X165178D01*
Y135680D01*
X165155D01*
Y135726D01*
X165132D01*
Y135750D01*
X165108D01*
Y135796D01*
X165085D01*
Y135842D01*
X165062D01*
Y135888D01*
X165039D01*
Y135935D01*
X165016D01*
Y136027D01*
X164993D01*
Y136189D01*
X164970D01*
Y136305D01*
X164993D01*
Y136443D01*
X165016D01*
Y136536D01*
X165039D01*
Y136582D01*
X165062D01*
Y136652D01*
X165085D01*
Y136675D01*
X165108D01*
Y136721D01*
X165132D01*
Y136767D01*
X165155D01*
Y136790D01*
X165178D01*
Y136813D01*
X165201D01*
Y136860D01*
X165224D01*
Y136883D01*
X165247D01*
Y136906D01*
X165270D01*
Y136929D01*
X165317D01*
Y136952D01*
X165340D01*
Y136975D01*
X165363D01*
Y136998D01*
X165409D01*
Y137022D01*
X165432D01*
Y137045D01*
X165479D01*
Y137068D01*
X165525D01*
Y137091D01*
X165571D01*
Y137114D01*
X165640D01*
Y137137D01*
X165733D01*
Y137160D01*
X166080D01*
Y137137D01*
X166195D01*
Y137114D01*
X166265D01*
Y137091D01*
X166311D01*
Y137068D01*
X166357D01*
Y137045D01*
X166380D01*
Y137022D01*
X166427D01*
Y136998D01*
X166450D01*
Y136975D01*
X166473D01*
Y136952D01*
X166519D01*
Y136929D01*
X166542D01*
Y136906D01*
X166565D01*
Y136883D01*
X166588D01*
Y136860D01*
X166612D01*
Y136813D01*
X166635D01*
Y136790D01*
X166658D01*
Y136744D01*
X166681D01*
Y136721D01*
X166704D01*
Y136675D01*
X166727D01*
Y136605D01*
X166750D01*
Y136559D01*
X166773D01*
Y136467D01*
X166797D01*
Y136073D01*
X166773D01*
Y135981D01*
X166750D01*
Y135912D01*
X166727D01*
Y135865D01*
X166704D01*
Y135819D01*
X166681D01*
Y135796D01*
X166658D01*
Y135750D01*
X166635D01*
Y135726D01*
X166612D01*
Y135703D01*
X166588D01*
Y135657D01*
X166565D01*
Y135634D01*
X166542D01*
Y135611D01*
X166519D01*
Y135588D01*
X166496D01*
Y135565D01*
X166450D01*
Y135541D01*
X166427D01*
Y135518D01*
X166403D01*
Y135495D01*
X166357D01*
Y135472D01*
X166311D01*
Y135449D01*
X166265D01*
Y135426D01*
X166242D01*
Y135403D01*
X166218D01*
Y134593D01*
X166242D01*
Y134478D01*
X166265D01*
Y134455D01*
X166288D01*
Y134431D01*
X166311D01*
Y134408D01*
X166334D01*
Y134385D01*
X166357D01*
Y134362D01*
X166380D01*
Y134316D01*
X166403D01*
Y134293D01*
X166427D01*
Y134269D01*
X166450D01*
Y134246D01*
X166473D01*
Y134223D01*
X166496D01*
Y134200D01*
X166519D01*
Y134177D01*
X166542D01*
Y134154D01*
X166565D01*
Y134131D01*
X166588D01*
Y134108D01*
X166612D01*
Y134084D01*
X166635D01*
Y134061D01*
X166658D01*
Y134038D01*
X166681D01*
Y134015D01*
X166704D01*
Y133992D01*
X166727D01*
Y133969D01*
X166750D01*
Y133946D01*
X166773D01*
Y133923D01*
X166797D01*
Y133899D01*
X166820D01*
Y133876D01*
X166843D01*
Y133853D01*
X166866D01*
Y133830D01*
X166889D01*
Y133807D01*
X166912D01*
Y133784D01*
X166935D01*
Y133761D01*
X166958D01*
Y133738D01*
X166982D01*
Y133691D01*
X167005D01*
Y133668D01*
X167028D01*
Y133645D01*
X167051D01*
Y133622D01*
X167074D01*
Y133599D01*
X167097D01*
Y133576D01*
X167120D01*
Y133553D01*
X167143D01*
Y133529D01*
X167167D01*
Y133506D01*
X167190D01*
Y133483D01*
X167236D01*
Y133460D01*
X168207D01*
Y133483D01*
X168392D01*
Y134084D01*
X168415D01*
Y134108D01*
X168392D01*
Y134131D01*
X167675D01*
Y134154D01*
X167629D01*
Y134177D01*
X167606D01*
Y134200D01*
X167583D01*
Y134223D01*
X167560D01*
Y134246D01*
X167537D01*
Y134293D01*
X167514D01*
Y134316D01*
X167490D01*
Y134339D01*
X167467D01*
Y134362D01*
X167444D01*
Y134385D01*
X167421D01*
Y134408D01*
X167398D01*
Y134431D01*
X167375D01*
Y134455D01*
X167305D01*
Y134478D01*
X167259D01*
Y134501D01*
X167236D01*
Y134524D01*
X167213D01*
Y134547D01*
X167190D01*
Y134570D01*
X167167D01*
Y134593D01*
X167143D01*
Y134640D01*
X167120D01*
Y134732D01*
X167097D01*
Y134825D01*
X167120D01*
Y134917D01*
X167143D01*
Y134940D01*
X167167D01*
Y134986D01*
X167190D01*
Y135010D01*
X167213D01*
Y135033D01*
X167236D01*
Y135056D01*
X167282D01*
Y135079D01*
X167329D01*
Y135102D01*
X167560D01*
Y135079D01*
X167606D01*
Y135056D01*
X167629D01*
Y135033D01*
X167675D01*
Y135010D01*
X167699D01*
Y134963D01*
X167722D01*
Y134940D01*
X167745D01*
Y134871D01*
X167768D01*
Y134778D01*
X167791D01*
Y134755D01*
X167814D01*
Y134732D01*
X167837D01*
Y134709D01*
X167860D01*
Y134686D01*
X168415D01*
Y135033D01*
X168439D01*
Y135125D01*
X168462D01*
Y135171D01*
X168485D01*
Y135241D01*
X168508D01*
Y135264D01*
X168531D01*
Y135310D01*
X168554D01*
Y135356D01*
X168577D01*
Y135380D01*
X168600D01*
Y135403D01*
X168624D01*
Y135426D01*
X168647D01*
Y135449D01*
X168670D01*
Y135472D01*
X168693D01*
Y135495D01*
X168716D01*
Y135518D01*
X168739D01*
Y135541D01*
X168762D01*
Y135565D01*
X168809D01*
Y135588D01*
X168855D01*
Y135611D01*
X168878D01*
Y135634D01*
X168924D01*
Y135657D01*
X168994D01*
Y135680D01*
X169063D01*
Y135703D01*
X169179D01*
Y135726D01*
X169225D01*
Y136143D01*
X169202D01*
Y136166D01*
X169156D01*
Y136189D01*
X169132D01*
Y136212D01*
X169109D01*
Y136235D01*
X169086D01*
Y136258D01*
X169040D01*
Y136282D01*
X169017D01*
Y136305D01*
X168994D01*
Y136328D01*
X168971D01*
Y136351D01*
X168924D01*
Y136374D01*
X168901D01*
Y136397D01*
X168878D01*
Y136420D01*
X168855D01*
Y136443D01*
X168809D01*
Y136467D01*
X168786D01*
Y136490D01*
X168762D01*
Y136513D01*
X168739D01*
Y136536D01*
X168693D01*
Y136559D01*
X168670D01*
Y136582D01*
X168647D01*
Y136605D01*
X168624D01*
Y136628D01*
X168577D01*
Y136652D01*
X168554D01*
Y136675D01*
X168531D01*
Y136698D01*
X168485D01*
Y136721D01*
X168462D01*
Y136744D01*
X168439D01*
Y136767D01*
X168415D01*
Y136790D01*
X168369D01*
Y136813D01*
X168346D01*
Y136837D01*
X168323D01*
Y136860D01*
X168300D01*
Y136883D01*
X168254D01*
Y136906D01*
X168230D01*
Y136929D01*
X168207D01*
Y136952D01*
X168184D01*
Y136975D01*
X168138D01*
Y136998D01*
X168115D01*
Y137022D01*
X168092D01*
Y137045D01*
X168069D01*
Y137068D01*
X168045D01*
Y137091D01*
X167999D01*
Y137114D01*
X167976D01*
Y137137D01*
X167953D01*
Y137160D01*
X167930D01*
Y137183D01*
X167884D01*
Y137206D01*
X167860D01*
Y137230D01*
X167837D01*
Y137253D01*
X167814D01*
Y137276D01*
X167768D01*
Y137299D01*
X167745D01*
Y137322D01*
X167722D01*
Y137345D01*
X167675D01*
Y137368D01*
X167652D01*
Y137392D01*
X167629D01*
Y137415D01*
X167606D01*
Y137438D01*
X167583D01*
Y137461D01*
X167537D01*
Y137484D01*
X167514D01*
Y137507D01*
X167490D01*
Y137530D01*
X167467D01*
Y137553D01*
X167421D01*
Y137577D01*
X167398D01*
Y137600D01*
X167375D01*
Y138802D01*
X167329D01*
Y138825D01*
X167259D01*
Y138848D01*
X167213D01*
Y138872D01*
X167190D01*
Y138895D01*
X167143D01*
Y138918D01*
X167120D01*
Y138941D01*
X167074D01*
Y138964D01*
X167051D01*
Y138987D01*
X167028D01*
Y139010D01*
X167005D01*
Y139033D01*
X166982D01*
Y139080D01*
X166958D01*
Y139103D01*
X166935D01*
Y139126D01*
X166912D01*
Y139172D01*
X166889D01*
Y139218D01*
X166866D01*
Y139265D01*
X166843D01*
Y139334D01*
X166820D01*
Y139403D01*
X166797D01*
Y139588D01*
X166773D01*
Y139681D01*
X166797D01*
Y139843D01*
X166820D01*
Y139912D01*
X166843D01*
Y139982D01*
X166866D01*
Y140028D01*
X166889D01*
Y140074D01*
X166912D01*
Y140097D01*
X166935D01*
Y140144D01*
X166958D01*
Y140167D01*
X166982D01*
Y140190D01*
X167005D01*
Y140236D01*
X167028D01*
Y140259D01*
X167051D01*
Y140282D01*
X167097D01*
Y140305D01*
X167120D01*
Y140329D01*
X167143D01*
Y140352D01*
X167167D01*
Y140375D01*
X167213D01*
Y140398D01*
X167259D01*
Y140421D01*
X167305D01*
Y140444D01*
X167352D01*
Y140467D01*
X167421D01*
Y140490D01*
X167490D01*
Y140514D01*
X167907D01*
Y140490D01*
X167999D01*
Y140467D01*
X168045D01*
Y140444D01*
X168092D01*
Y140421D01*
X168138D01*
Y140398D01*
X168184D01*
Y140375D01*
X168207D01*
Y140352D01*
X168254D01*
Y140329D01*
X168277D01*
Y140305D01*
X168300D01*
Y140282D01*
X168323D01*
Y140259D01*
X168346D01*
Y140236D01*
X168369D01*
Y140213D01*
X168392D01*
Y140167D01*
X168415D01*
Y140144D01*
X168439D01*
Y140097D01*
X168462D01*
Y140074D01*
X168485D01*
Y140005D01*
X168508D01*
Y139959D01*
X168531D01*
Y139889D01*
X168554D01*
Y139773D01*
X168577D01*
Y139519D01*
X168554D01*
Y139403D01*
X168531D01*
Y139357D01*
X168508D01*
Y139288D01*
X168485D01*
Y139242D01*
X168462D01*
Y139195D01*
X168439D01*
Y139172D01*
X168415D01*
Y139126D01*
X168392D01*
Y139103D01*
X168369D01*
Y139080D01*
X168346D01*
Y139057D01*
X168323D01*
Y139033D01*
X168300D01*
Y139010D01*
X168277D01*
Y138987D01*
X168254D01*
Y138964D01*
X168230D01*
Y138941D01*
X168207D01*
Y138918D01*
X168161D01*
Y138895D01*
X168138D01*
Y138872D01*
X168092D01*
Y138848D01*
X168045D01*
Y138825D01*
X167976D01*
Y138802D01*
X167953D01*
Y137923D01*
X167976D01*
Y137900D01*
X167999D01*
Y137877D01*
X168022D01*
Y137854D01*
X168069D01*
Y137831D01*
X168092D01*
Y137808D01*
X168115D01*
Y137785D01*
X168138D01*
Y137762D01*
X168184D01*
Y137738D01*
X168207D01*
Y137715D01*
X168230D01*
Y137692D01*
X168277D01*
Y137669D01*
X168300D01*
Y137646D01*
X168323D01*
Y137623D01*
X168346D01*
Y137600D01*
X168392D01*
Y137577D01*
X168415D01*
Y137553D01*
X168439D01*
Y137530D01*
X168462D01*
Y137507D01*
X168508D01*
Y137484D01*
X168531D01*
Y137461D01*
X168554D01*
Y137438D01*
X168577D01*
Y137415D01*
X168624D01*
Y137392D01*
X168647D01*
Y137368D01*
X168670D01*
Y137345D01*
X168693D01*
Y137322D01*
X168739D01*
Y137299D01*
X168762D01*
Y137276D01*
X168786D01*
Y137253D01*
X168809D01*
Y137230D01*
X168855D01*
Y137206D01*
X168878D01*
Y137183D01*
X168901D01*
Y137160D01*
X168947D01*
Y137137D01*
X168971D01*
Y137114D01*
X168994D01*
Y137091D01*
X169017D01*
Y137068D01*
X169040D01*
Y137045D01*
X169086D01*
Y137022D01*
X169109D01*
Y136998D01*
X169132D01*
Y136975D01*
X169156D01*
Y136952D01*
X169202D01*
Y136929D01*
X169225D01*
Y136906D01*
X169248D01*
Y136883D01*
X169271D01*
Y136860D01*
X169317D01*
Y136837D01*
X169341D01*
Y136813D01*
X169364D01*
Y136790D01*
X169387D01*
Y136767D01*
X169433D01*
Y136744D01*
X169456D01*
Y136721D01*
X169479D01*
Y136698D01*
X169502D01*
Y136675D01*
X169549D01*
Y136652D01*
X169572D01*
Y136628D01*
X169595D01*
Y136605D01*
X169618D01*
Y136582D01*
X169664D01*
Y136559D01*
X169687D01*
Y136536D01*
X169711D01*
Y136513D01*
X169757D01*
Y136490D01*
X169780D01*
Y136467D01*
X169803D01*
Y136443D01*
X169826D01*
Y135726D01*
X170404D01*
Y137877D01*
X170381D01*
Y138085D01*
X170404D01*
Y138132D01*
X170427D01*
Y138178D01*
X170451D01*
Y138201D01*
X170474D01*
Y138224D01*
X170497D01*
Y138247D01*
X170520D01*
Y138270D01*
X170543D01*
Y138294D01*
X170566D01*
Y138317D01*
X170589D01*
Y138340D01*
X170612D01*
Y138363D01*
X170636D01*
Y138386D01*
X170659D01*
Y138409D01*
X170682D01*
Y138432D01*
X170705D01*
Y138455D01*
X170728D01*
Y138479D01*
X170751D01*
Y138502D01*
X170774D01*
Y138525D01*
X170798D01*
Y138548D01*
X170821D01*
Y138571D01*
X170844D01*
Y138594D01*
X170867D01*
Y138617D01*
X170890D01*
Y138640D01*
X170913D01*
Y138663D01*
X170936D01*
Y138687D01*
X170959D01*
Y138710D01*
X170983D01*
Y138733D01*
X171006D01*
Y138756D01*
X171029D01*
Y138779D01*
X171052D01*
Y138802D01*
X171075D01*
Y138825D01*
X171098D01*
Y138848D01*
X171121D01*
Y138872D01*
X171144D01*
Y138895D01*
X171168D01*
Y138918D01*
X171191D01*
Y138941D01*
X171214D01*
Y138964D01*
X171237D01*
Y138987D01*
X171260D01*
Y139010D01*
X171283D01*
Y139033D01*
X171306D01*
Y139057D01*
X171329D01*
Y139080D01*
X171353D01*
Y139103D01*
X171376D01*
Y139126D01*
X171399D01*
Y139149D01*
X171422D01*
Y139195D01*
X171445D01*
Y139218D01*
X171468D01*
Y139242D01*
X171491D01*
Y139265D01*
X171514D01*
Y139288D01*
X171537D01*
Y139311D01*
X171561D01*
Y139334D01*
X171584D01*
Y139357D01*
X171607D01*
Y139380D01*
X171630D01*
Y139403D01*
X171653D01*
Y139427D01*
X171676D01*
Y139450D01*
X171699D01*
Y139473D01*
X171722D01*
Y139496D01*
X171746D01*
Y139519D01*
X171769D01*
Y139542D01*
X171792D01*
Y139565D01*
X171815D01*
Y139588D01*
X171838D01*
Y139612D01*
X171861D01*
Y139635D01*
X171884D01*
Y139658D01*
X171907D01*
Y140652D01*
X171884D01*
Y141369D01*
D02*
G37*
G36*
X177481D02*
X175053D01*
Y141346D01*
X175030D01*
Y140537D01*
X175053D01*
Y138872D01*
X175076D01*
Y138687D01*
X175053D01*
Y138663D01*
X175030D01*
Y138640D01*
X175006D01*
Y138617D01*
X174983D01*
Y138594D01*
X174960D01*
Y138571D01*
X174937D01*
Y138548D01*
X174914D01*
Y138525D01*
X174891D01*
Y138502D01*
X174868D01*
Y138479D01*
X174845D01*
Y138455D01*
X174821D01*
Y138409D01*
X174798D01*
Y138386D01*
X174775D01*
Y138363D01*
X174752D01*
Y138340D01*
X174729D01*
Y138317D01*
X174706D01*
Y138294D01*
X174683D01*
Y138270D01*
X174660D01*
Y138247D01*
X174636D01*
Y138224D01*
X174613D01*
Y138201D01*
X174590D01*
Y138178D01*
X174567D01*
Y138155D01*
X174544D01*
Y138132D01*
X174521D01*
Y138108D01*
X174498D01*
Y138085D01*
X174475D01*
Y138062D01*
X174451D01*
Y138039D01*
X174428D01*
Y138016D01*
X174405D01*
Y137993D01*
X174382D01*
Y137970D01*
X174359D01*
Y137947D01*
X174336D01*
Y137923D01*
X174313D01*
Y137900D01*
X174290D01*
Y137877D01*
X174266D01*
Y137854D01*
X174243D01*
Y137831D01*
X174220D01*
Y137808D01*
X174197D01*
Y137785D01*
X174174D01*
Y137762D01*
X174151D01*
Y137738D01*
X174128D01*
Y137715D01*
X174104D01*
Y137692D01*
X174081D01*
Y137669D01*
X174058D01*
Y137646D01*
X174035D01*
Y137623D01*
X174012D01*
Y137600D01*
X173989D01*
Y137577D01*
X173966D01*
Y137553D01*
X173943D01*
Y137530D01*
X173919D01*
Y137507D01*
X173896D01*
Y137484D01*
X173873D01*
Y137438D01*
X173850D01*
Y137415D01*
X173827D01*
Y137392D01*
X173804D01*
Y137368D01*
X173781D01*
Y137345D01*
X173758D01*
Y137322D01*
X173734D01*
Y137299D01*
X173711D01*
Y137276D01*
X173688D01*
Y137253D01*
X173665D01*
Y137230D01*
X173642D01*
Y137206D01*
X173619D01*
Y137183D01*
X173596D01*
Y137160D01*
X173573D01*
Y135726D01*
X174590D01*
Y135703D01*
X174706D01*
Y135680D01*
X174775D01*
Y135657D01*
X174845D01*
Y135634D01*
X174891D01*
Y135611D01*
X174937D01*
Y135588D01*
X174960D01*
Y135565D01*
X174983D01*
Y135541D01*
X175030D01*
Y135518D01*
X175053D01*
Y135495D01*
X175076D01*
Y135472D01*
X175099D01*
Y135449D01*
X175122D01*
Y135426D01*
X175145D01*
Y135403D01*
X175168D01*
Y135380D01*
X175191D01*
Y135333D01*
X175215D01*
Y135310D01*
X175238D01*
Y135264D01*
X175261D01*
Y135218D01*
X175284D01*
Y135171D01*
X175307D01*
Y135102D01*
X175330D01*
Y135010D01*
X175353D01*
Y134686D01*
X175885D01*
Y134709D01*
X175908D01*
Y134732D01*
X175931D01*
Y134755D01*
X175954D01*
Y134778D01*
X175978D01*
Y134825D01*
X176001D01*
Y134848D01*
X176024D01*
Y134871D01*
X176047D01*
Y134894D01*
X176070D01*
Y135958D01*
X176024D01*
Y135981D01*
X175954D01*
Y136004D01*
X175908D01*
Y136027D01*
X175862D01*
Y136050D01*
X175839D01*
Y136073D01*
X175793D01*
Y136097D01*
X175769D01*
Y136120D01*
X175746D01*
Y136143D01*
X175723D01*
Y136166D01*
X175700D01*
Y136189D01*
X175677D01*
Y136212D01*
X175654D01*
Y136235D01*
X175631D01*
Y136282D01*
X175608D01*
Y136305D01*
X175584D01*
Y136351D01*
X175561D01*
Y136397D01*
X175538D01*
Y136443D01*
X175515D01*
Y136513D01*
X175492D01*
Y136582D01*
X175469D01*
Y136744D01*
X175446D01*
Y136883D01*
X175469D01*
Y137022D01*
X175492D01*
Y137091D01*
X175515D01*
Y137160D01*
X175538D01*
Y137206D01*
X175561D01*
Y137253D01*
X175584D01*
Y137299D01*
X175608D01*
Y137322D01*
X175631D01*
Y137368D01*
X175654D01*
Y137392D01*
X175677D01*
Y137415D01*
X175700D01*
Y137438D01*
X175723D01*
Y137461D01*
X175746D01*
Y137484D01*
X175769D01*
Y137507D01*
X175793D01*
Y137530D01*
X175839D01*
Y137553D01*
X175862D01*
Y137577D01*
X175908D01*
Y137600D01*
X175931D01*
Y137623D01*
X175978D01*
Y137646D01*
X176047D01*
Y137669D01*
X176116D01*
Y137692D01*
X176209D01*
Y137715D01*
X176579D01*
Y137692D01*
X176672D01*
Y137669D01*
X176718D01*
Y137646D01*
X176787D01*
Y137623D01*
X176833D01*
Y137600D01*
X176857D01*
Y137577D01*
X176903D01*
Y137553D01*
X176926D01*
Y137530D01*
X176949D01*
Y137507D01*
X176995D01*
Y137484D01*
X177018D01*
Y137438D01*
X177041D01*
Y137415D01*
X177065D01*
Y137392D01*
X177088D01*
Y137368D01*
X177111D01*
Y137322D01*
X177134D01*
Y137299D01*
X177157D01*
Y137253D01*
X177180D01*
Y137206D01*
X177203D01*
Y137160D01*
X177226D01*
Y137068D01*
X177250D01*
Y136952D01*
X177273D01*
Y136698D01*
X177250D01*
Y136582D01*
X177226D01*
Y136513D01*
X177203D01*
Y136443D01*
X177180D01*
Y136397D01*
X177157D01*
Y136351D01*
X177134D01*
Y136328D01*
X177111D01*
Y136282D01*
X177088D01*
Y136258D01*
X177065D01*
Y136235D01*
X177041D01*
Y136212D01*
X177018D01*
Y136189D01*
X176995D01*
Y136166D01*
X176972D01*
Y136143D01*
X176949D01*
Y136120D01*
X176926D01*
Y136097D01*
X176880D01*
Y136073D01*
X176857D01*
Y136050D01*
X176810D01*
Y136027D01*
X176764D01*
Y136004D01*
X176718D01*
Y135981D01*
X176672D01*
Y135958D01*
X176648D01*
Y135912D01*
X176625D01*
Y135565D01*
X176648D01*
Y135333D01*
X176625D01*
Y134663D01*
X176602D01*
Y134640D01*
X176579D01*
Y134616D01*
X176556D01*
Y134593D01*
X176533D01*
Y134570D01*
X176510D01*
Y134547D01*
X176486D01*
Y134501D01*
X176463D01*
Y134478D01*
X176440D01*
Y134455D01*
X176417D01*
Y134431D01*
X176394D01*
Y134408D01*
X176371D01*
Y134385D01*
X176348D01*
Y134362D01*
X176325D01*
Y134339D01*
X176301D01*
Y134316D01*
X176278D01*
Y134293D01*
X176255D01*
Y134269D01*
X176232D01*
Y134246D01*
X176209D01*
Y134223D01*
X176186D01*
Y134200D01*
X176163D01*
Y134177D01*
X176140D01*
Y134154D01*
X176116D01*
Y134131D01*
X175353D01*
Y133483D01*
X176325D01*
Y133460D01*
X176348D01*
Y133483D01*
X177296D01*
Y133506D01*
X177319D01*
Y133529D01*
X177365D01*
Y133553D01*
X177388D01*
Y133576D01*
X177411D01*
Y133599D01*
X177435D01*
Y133622D01*
X177458D01*
Y133645D01*
X177481D01*
Y133668D01*
X177504D01*
Y133691D01*
X177527D01*
Y133714D01*
X177550D01*
Y133738D01*
X177573D01*
Y133761D01*
X177596D01*
Y133784D01*
X177620D01*
Y133807D01*
X177643D01*
Y133830D01*
X177666D01*
Y133853D01*
X177689D01*
Y133876D01*
X177735D01*
Y133899D01*
X177758D01*
Y133923D01*
X177781D01*
Y133946D01*
X177805D01*
Y133969D01*
X177828D01*
Y133992D01*
X177851D01*
Y134015D01*
X177874D01*
Y134038D01*
X177897D01*
Y134061D01*
X177920D01*
Y134084D01*
X177943D01*
Y134108D01*
X177966D01*
Y134131D01*
X177990D01*
Y134154D01*
X178013D01*
Y134177D01*
X178036D01*
Y134200D01*
X178059D01*
Y134223D01*
X178082D01*
Y134246D01*
X178105D01*
Y134269D01*
X178128D01*
Y134293D01*
X178152D01*
Y134316D01*
X178198D01*
Y134339D01*
X178221D01*
Y134362D01*
X178244D01*
Y134385D01*
X178267D01*
Y134408D01*
X178290D01*
Y134431D01*
X178313D01*
Y134455D01*
X178337D01*
Y134478D01*
X178360D01*
Y134501D01*
X178383D01*
Y134524D01*
X178406D01*
Y134547D01*
X178429D01*
Y134570D01*
X178452D01*
Y134755D01*
X178429D01*
Y134778D01*
X178383D01*
Y134801D01*
X178337D01*
Y134825D01*
X178313D01*
Y134848D01*
X178267D01*
Y134871D01*
X178244D01*
Y134894D01*
X178221D01*
Y134917D01*
X178198D01*
Y134940D01*
X178175D01*
Y134963D01*
X178152D01*
Y134986D01*
X178128D01*
Y135010D01*
X178105D01*
Y135033D01*
X178082D01*
Y135079D01*
X178059D01*
Y135102D01*
X178036D01*
Y135148D01*
X178013D01*
Y135218D01*
X177990D01*
Y135287D01*
X177966D01*
Y135380D01*
X177943D01*
Y135750D01*
X177966D01*
Y135842D01*
X177990D01*
Y135912D01*
X178013D01*
Y135958D01*
X178036D01*
Y136004D01*
X178059D01*
Y136027D01*
X178082D01*
Y136073D01*
X178105D01*
Y136097D01*
X178128D01*
Y136120D01*
X178152D01*
Y136166D01*
X178175D01*
Y136189D01*
X178198D01*
Y136212D01*
X178221D01*
Y136235D01*
X178267D01*
Y136258D01*
X178290D01*
Y136282D01*
X178313D01*
Y136305D01*
X178360D01*
Y136328D01*
X178383D01*
Y136351D01*
X178429D01*
Y136374D01*
X178475D01*
Y136397D01*
X178522D01*
Y136420D01*
X178614D01*
Y136443D01*
X178707D01*
Y136467D01*
X179007D01*
Y136443D01*
X179100D01*
Y136420D01*
X179192D01*
Y136397D01*
X179238D01*
Y136374D01*
X179285D01*
Y136351D01*
X179331D01*
Y136328D01*
X179354D01*
Y136305D01*
X179377D01*
Y136282D01*
X179423D01*
Y136258D01*
X179447D01*
Y136235D01*
X179470D01*
Y136212D01*
X179493D01*
Y136189D01*
X179516D01*
Y136166D01*
X179539D01*
Y136143D01*
X179562D01*
Y136097D01*
X179585D01*
Y136073D01*
X179608D01*
Y136027D01*
X179632D01*
Y135981D01*
X179655D01*
Y135912D01*
X179678D01*
Y135865D01*
X179701D01*
Y135773D01*
X179724D01*
Y135403D01*
X179701D01*
Y135333D01*
X179678D01*
Y135264D01*
X179655D01*
Y135218D01*
X179632D01*
Y135171D01*
X179608D01*
Y135125D01*
X179585D01*
Y135102D01*
X179562D01*
Y135056D01*
X179539D01*
Y135033D01*
X179516D01*
Y135010D01*
X179493D01*
Y134986D01*
X179470D01*
Y134963D01*
X179447D01*
Y134940D01*
X179423D01*
Y134917D01*
X179400D01*
Y134894D01*
X179377D01*
Y134871D01*
X179331D01*
Y134848D01*
X179308D01*
Y134825D01*
X179262D01*
Y134801D01*
X179238D01*
Y134778D01*
X179169D01*
Y134755D01*
X179123D01*
Y134732D01*
X179053D01*
Y134709D01*
X179030D01*
Y134616D01*
X179053D01*
Y134293D01*
X179030D01*
Y134269D01*
X179007D01*
Y134246D01*
X178984D01*
Y134223D01*
X178961D01*
Y134200D01*
X178938D01*
Y134177D01*
X178915D01*
Y134154D01*
X178892D01*
Y134131D01*
X178868D01*
Y134108D01*
X178845D01*
Y134084D01*
X178822D01*
Y134061D01*
X178776D01*
Y134038D01*
X178753D01*
Y134015D01*
X178730D01*
Y133992D01*
X178707D01*
Y133969D01*
X178683D01*
Y133946D01*
X178660D01*
Y133923D01*
X178637D01*
Y133899D01*
X178614D01*
Y133876D01*
X178591D01*
Y133853D01*
X178568D01*
Y133830D01*
X178545D01*
Y133807D01*
X178522D01*
Y133784D01*
X178498D01*
Y133761D01*
X178475D01*
Y133738D01*
X178452D01*
Y133714D01*
X178429D01*
Y133691D01*
X178406D01*
Y133668D01*
X178383D01*
Y133645D01*
X178360D01*
Y133622D01*
X178313D01*
Y133599D01*
X178290D01*
Y133576D01*
X178267D01*
Y133553D01*
X178244D01*
Y133529D01*
X178221D01*
Y133506D01*
X178198D01*
Y133483D01*
X178175D01*
Y133460D01*
X178152D01*
Y133437D01*
X178128D01*
Y133414D01*
X178105D01*
Y133391D01*
X178082D01*
Y133368D01*
X178059D01*
Y133344D01*
X178036D01*
Y133321D01*
X178013D01*
Y133298D01*
X177990D01*
Y133275D01*
X177966D01*
Y133252D01*
X177943D01*
Y133229D01*
X177920D01*
Y133206D01*
X177897D01*
Y133183D01*
X177874D01*
Y133159D01*
X177828D01*
Y133136D01*
X177805D01*
Y133113D01*
X177781D01*
Y133090D01*
X177758D01*
Y133067D01*
X177735D01*
Y133044D01*
X177712D01*
Y133021D01*
X177689D01*
Y132998D01*
X177666D01*
Y132975D01*
X177643D01*
Y132951D01*
X177620D01*
Y132928D01*
X177596D01*
Y132905D01*
X177573D01*
Y132882D01*
X175376D01*
Y132859D01*
X175353D01*
Y132211D01*
X178036D01*
Y132281D01*
X178059D01*
Y132327D01*
X178082D01*
Y132373D01*
X178105D01*
Y132396D01*
X178128D01*
Y132443D01*
X178152D01*
Y132466D01*
X178175D01*
Y132489D01*
X178198D01*
Y132512D01*
X178221D01*
Y132535D01*
X178244D01*
Y132558D01*
X178267D01*
Y132581D01*
X178290D01*
Y132605D01*
X178313D01*
Y132628D01*
X178360D01*
Y132651D01*
X178383D01*
Y132674D01*
X178429D01*
Y132697D01*
X178475D01*
Y132720D01*
X178522D01*
Y132743D01*
X178568D01*
Y132766D01*
X178637D01*
Y132790D01*
X178730D01*
Y132813D01*
X179100D01*
Y132790D01*
X179192D01*
Y132766D01*
X179262D01*
Y132743D01*
X179308D01*
Y132720D01*
X179354D01*
Y132697D01*
X179400D01*
Y132674D01*
X179423D01*
Y132651D01*
X179447D01*
Y132628D01*
X179493D01*
Y132605D01*
X179516D01*
Y132581D01*
X179539D01*
Y132558D01*
X179562D01*
Y132535D01*
X179585D01*
Y132512D01*
X179608D01*
Y132489D01*
X179632D01*
Y132466D01*
X179655D01*
Y132420D01*
X179678D01*
Y132373D01*
X179701D01*
Y132350D01*
X179724D01*
Y132304D01*
X179747D01*
Y132234D01*
X179770D01*
Y132165D01*
X179794D01*
Y132073D01*
X179817D01*
Y131726D01*
X179794D01*
Y131610D01*
X179770D01*
Y131541D01*
X179747D01*
Y131494D01*
X179724D01*
Y131448D01*
X179701D01*
Y131425D01*
X179678D01*
Y131379D01*
X179655D01*
Y131356D01*
X179632D01*
Y131333D01*
X179608D01*
Y131286D01*
X179585D01*
Y131263D01*
X179562D01*
Y131240D01*
X179539D01*
Y131217D01*
X179493D01*
Y131194D01*
X179470D01*
Y131171D01*
X179447D01*
Y131148D01*
X179423D01*
Y131124D01*
X179377D01*
Y131101D01*
X179331D01*
Y131078D01*
X179285D01*
Y131055D01*
X179238D01*
Y131032D01*
X179192D01*
Y131009D01*
X179100D01*
Y130986D01*
X178984D01*
Y130963D01*
X178799D01*
Y130986D01*
X178660D01*
Y131009D01*
X178568D01*
Y131032D01*
X178522D01*
Y131055D01*
X178452D01*
Y131078D01*
X178429D01*
Y131101D01*
X178383D01*
Y131124D01*
X178337D01*
Y131148D01*
X178313D01*
Y131171D01*
X178290D01*
Y131194D01*
X178267D01*
Y131217D01*
X178244D01*
Y131240D01*
X178221D01*
Y131263D01*
X178198D01*
Y131286D01*
X178175D01*
Y131309D01*
X178152D01*
Y131333D01*
X178128D01*
Y131379D01*
X178105D01*
Y131402D01*
X178082D01*
Y131448D01*
X178059D01*
Y131494D01*
X178036D01*
Y131564D01*
X178013D01*
Y131610D01*
X176232D01*
Y131633D01*
X175376D01*
Y131610D01*
X175353D01*
Y131009D01*
X176718D01*
Y130986D01*
X176741D01*
Y130963D01*
X176764D01*
Y130939D01*
X176787D01*
Y130916D01*
X176810D01*
Y130893D01*
X176833D01*
Y130870D01*
X176857D01*
Y130847D01*
X176880D01*
Y130824D01*
X176903D01*
Y130801D01*
X176926D01*
Y130778D01*
X176949D01*
Y130754D01*
X176972D01*
Y130731D01*
X176995D01*
Y130708D01*
X177018D01*
Y130685D01*
X177041D01*
Y130662D01*
X177065D01*
Y130639D01*
X177088D01*
Y130616D01*
X177111D01*
Y130593D01*
X177134D01*
Y130569D01*
X177157D01*
Y130546D01*
X177180D01*
Y130523D01*
X177203D01*
Y130500D01*
X177226D01*
Y130477D01*
X177250D01*
Y130454D01*
X177273D01*
Y130431D01*
X177296D01*
Y130408D01*
X177319D01*
Y130384D01*
X177342D01*
Y130361D01*
X177365D01*
Y130338D01*
X177388D01*
Y130315D01*
X177411D01*
Y130292D01*
X177435D01*
Y130269D01*
X177458D01*
Y130246D01*
X177481D01*
Y130222D01*
X177504D01*
Y130199D01*
X177527D01*
Y130176D01*
X177550D01*
Y130153D01*
X177573D01*
Y130130D01*
X177596D01*
Y130107D01*
X177620D01*
Y130084D01*
X177643D01*
Y130061D01*
X177666D01*
Y130037D01*
X177689D01*
Y130014D01*
X177712D01*
Y129991D01*
X177735D01*
Y129968D01*
X177758D01*
Y129945D01*
X177781D01*
Y129922D01*
X177805D01*
Y129899D01*
X177828D01*
Y129876D01*
X177851D01*
Y129852D01*
X177874D01*
Y129829D01*
X177897D01*
Y129806D01*
X177920D01*
Y129783D01*
X177943D01*
Y129760D01*
X177966D01*
Y129737D01*
X177990D01*
Y129714D01*
X178013D01*
Y128766D01*
X178059D01*
Y128742D01*
X178128D01*
Y128719D01*
X178175D01*
Y128696D01*
X178221D01*
Y128673D01*
X178267D01*
Y128650D01*
X178290D01*
Y128627D01*
X178337D01*
Y128604D01*
X178360D01*
Y128580D01*
X178383D01*
Y128557D01*
X178406D01*
Y128534D01*
X178429D01*
Y128511D01*
X178452D01*
Y128488D01*
X178475D01*
Y128442D01*
X178498D01*
Y128419D01*
X178522D01*
Y128395D01*
X178545D01*
Y128349D01*
X178568D01*
Y128303D01*
X178591D01*
Y128257D01*
X178614D01*
Y128187D01*
X178637D01*
Y128118D01*
X178660D01*
Y127979D01*
X178683D01*
Y127794D01*
X178660D01*
Y127632D01*
X178637D01*
Y127563D01*
X178614D01*
Y127517D01*
X178591D01*
Y127447D01*
X178568D01*
Y127424D01*
X178545D01*
Y127378D01*
X178522D01*
Y127355D01*
X178498D01*
Y127309D01*
X178475D01*
Y127286D01*
X178452D01*
Y127262D01*
X178429D01*
Y127239D01*
X178406D01*
Y127216D01*
X178383D01*
Y127193D01*
X178360D01*
Y127170D01*
X178337D01*
Y127147D01*
X178313D01*
Y127124D01*
X178267D01*
Y127101D01*
X178244D01*
Y127077D01*
X178198D01*
Y127054D01*
X178152D01*
Y127031D01*
X178105D01*
Y127008D01*
X178036D01*
Y126985D01*
X177966D01*
Y126962D01*
X177805D01*
Y126939D01*
X177596D01*
Y126962D01*
X177458D01*
Y126985D01*
X177388D01*
Y127008D01*
X177319D01*
Y127031D01*
X177273D01*
Y127054D01*
X177226D01*
Y127077D01*
X177203D01*
Y127101D01*
X177157D01*
Y127124D01*
X177134D01*
Y127147D01*
X177088D01*
Y127170D01*
X177065D01*
Y127193D01*
X177041D01*
Y127216D01*
X177018D01*
Y127239D01*
X176995D01*
Y127286D01*
X176972D01*
Y127309D01*
X176949D01*
Y127332D01*
X176926D01*
Y127378D01*
X176903D01*
Y127424D01*
X176880D01*
Y127471D01*
X176857D01*
Y127517D01*
X176833D01*
Y127586D01*
X176810D01*
Y127679D01*
X176787D01*
Y128049D01*
X176810D01*
Y128141D01*
X176833D01*
Y128210D01*
X176857D01*
Y128257D01*
X176880D01*
Y128326D01*
X176903D01*
Y128349D01*
X176926D01*
Y128395D01*
X176949D01*
Y128419D01*
X176972D01*
Y128442D01*
X176995D01*
Y128488D01*
X177018D01*
Y128511D01*
X177041D01*
Y128534D01*
X177065D01*
Y128557D01*
X177088D01*
Y128580D01*
X177111D01*
Y128604D01*
X177157D01*
Y128627D01*
X177180D01*
Y128650D01*
X177203D01*
Y128673D01*
X177250D01*
Y128696D01*
X177296D01*
Y128719D01*
X177342D01*
Y128742D01*
X177411D01*
Y128766D01*
X177435D01*
Y129482D01*
X177411D01*
Y129506D01*
X177388D01*
Y129529D01*
X177365D01*
Y129552D01*
X177342D01*
Y129575D01*
X177319D01*
Y129598D01*
X177296D01*
Y129621D01*
X177273D01*
Y129644D01*
X177250D01*
Y129667D01*
X177226D01*
Y129691D01*
X177203D01*
Y129714D01*
X177180D01*
Y129737D01*
X177157D01*
Y129760D01*
X177134D01*
Y129783D01*
X177111D01*
Y129806D01*
X177088D01*
Y129829D01*
X177065D01*
Y129852D01*
X177041D01*
Y129876D01*
X177018D01*
Y129899D01*
X176995D01*
Y129922D01*
X176972D01*
Y129945D01*
X176949D01*
Y129968D01*
X176926D01*
Y129991D01*
X176903D01*
Y130014D01*
X176880D01*
Y130037D01*
X176857D01*
Y130061D01*
X176833D01*
Y130084D01*
X176810D01*
Y130107D01*
X176787D01*
Y130130D01*
X176764D01*
Y130153D01*
X176741D01*
Y130176D01*
X176718D01*
Y130199D01*
X176695D01*
Y130222D01*
X176672D01*
Y130246D01*
X176648D01*
Y130269D01*
X176625D01*
Y130292D01*
X176602D01*
Y130315D01*
X176579D01*
Y130338D01*
X176556D01*
Y130361D01*
X176533D01*
Y130384D01*
X176510D01*
Y130408D01*
X176486D01*
Y130431D01*
X176463D01*
Y130454D01*
X175353D01*
Y129667D01*
X175330D01*
Y129575D01*
X175307D01*
Y129506D01*
X175284D01*
Y129459D01*
X175261D01*
Y129413D01*
X175238D01*
Y129367D01*
X175215D01*
Y129344D01*
X175191D01*
Y129297D01*
X175168D01*
Y129274D01*
X175145D01*
Y129251D01*
X175122D01*
Y129228D01*
X175099D01*
Y129205D01*
X175076D01*
Y129182D01*
X175053D01*
Y129159D01*
X175030D01*
Y129136D01*
X175006D01*
Y129112D01*
X174960D01*
Y129089D01*
X174937D01*
Y129066D01*
X174891D01*
Y129043D01*
X174845D01*
Y129020D01*
X174775D01*
Y128997D01*
X174706D01*
Y128974D01*
X174567D01*
Y128951D01*
X173919D01*
Y127887D01*
X173943D01*
Y127840D01*
X173966D01*
Y127817D01*
X173989D01*
Y127794D01*
X174012D01*
Y127771D01*
X174035D01*
Y127748D01*
X174058D01*
Y127725D01*
X174081D01*
Y127702D01*
X174104D01*
Y127679D01*
X174128D01*
Y127655D01*
X174151D01*
Y127632D01*
X174174D01*
Y127609D01*
X174197D01*
Y127586D01*
X174220D01*
Y127563D01*
X174243D01*
Y127540D01*
X174266D01*
Y127517D01*
X174290D01*
Y127494D01*
X174313D01*
Y127471D01*
X174336D01*
Y127447D01*
X174359D01*
Y127424D01*
X174382D01*
Y127401D01*
X174405D01*
Y127378D01*
X174428D01*
Y127355D01*
X174451D01*
Y127332D01*
X174475D01*
Y127309D01*
X174498D01*
Y127286D01*
X174521D01*
Y127262D01*
X174544D01*
Y127239D01*
X174567D01*
Y127216D01*
X174590D01*
Y127193D01*
X174613D01*
Y127170D01*
X174636D01*
Y127147D01*
X174660D01*
Y127124D01*
X174683D01*
Y127101D01*
X174706D01*
Y127077D01*
X174729D01*
Y127054D01*
X174752D01*
Y127031D01*
X174775D01*
Y126985D01*
X174798D01*
Y126962D01*
X174821D01*
Y126939D01*
X174845D01*
Y126916D01*
X174868D01*
Y126892D01*
X174891D01*
Y126869D01*
X174914D01*
Y126846D01*
X174937D01*
Y126823D01*
X174960D01*
Y126800D01*
X174983D01*
Y126777D01*
X175006D01*
Y126754D01*
X175030D01*
Y126731D01*
X175053D01*
Y126707D01*
X175076D01*
Y126684D01*
X175099D01*
Y126661D01*
X175122D01*
Y126638D01*
X175145D01*
Y126615D01*
X175168D01*
Y126592D01*
X175191D01*
Y126569D01*
X175215D01*
Y126546D01*
X175238D01*
Y126522D01*
X175261D01*
Y126499D01*
X175284D01*
Y126476D01*
X175307D01*
Y126407D01*
X175330D01*
Y125690D01*
X175376D01*
Y125667D01*
X175446D01*
Y125644D01*
X175469D01*
Y125620D01*
X175515D01*
Y125597D01*
X175538D01*
Y125574D01*
X175584D01*
Y125551D01*
X175608D01*
Y125528D01*
X175631D01*
Y125505D01*
X175654D01*
Y125482D01*
X175677D01*
Y125459D01*
X175700D01*
Y125435D01*
X175723D01*
Y125389D01*
X175746D01*
Y125366D01*
X175769D01*
Y125320D01*
X175793D01*
Y125274D01*
X175816D01*
Y125204D01*
X175839D01*
Y125135D01*
X175862D01*
Y125019D01*
X175885D01*
Y124811D01*
X175862D01*
Y124695D01*
X175839D01*
Y124626D01*
X175816D01*
Y124580D01*
X175793D01*
Y124533D01*
X175769D01*
Y124487D01*
X175746D01*
Y124441D01*
X175723D01*
Y124418D01*
X175700D01*
Y124372D01*
X175677D01*
Y124348D01*
X175654D01*
Y124325D01*
X175631D01*
Y124302D01*
X175608D01*
Y124279D01*
X175584D01*
Y124256D01*
X175538D01*
Y124233D01*
X175515D01*
Y124210D01*
X175492D01*
Y124187D01*
X175446D01*
Y124163D01*
X175399D01*
Y124140D01*
X175353D01*
Y124117D01*
X175307D01*
Y124094D01*
X175238D01*
Y124071D01*
X175145D01*
Y124048D01*
X174868D01*
Y124071D01*
X174752D01*
Y124094D01*
X174683D01*
Y124117D01*
X174636D01*
Y124140D01*
X174590D01*
Y124163D01*
X174544D01*
Y124187D01*
X174498D01*
Y124210D01*
X174475D01*
Y124233D01*
X174428D01*
Y124256D01*
X174405D01*
Y124279D01*
X174382D01*
Y124302D01*
X174359D01*
Y124325D01*
X174336D01*
Y124372D01*
X174313D01*
Y124395D01*
X174290D01*
Y124441D01*
X174266D01*
Y124464D01*
X174243D01*
Y124510D01*
X174220D01*
Y124580D01*
X174197D01*
Y124649D01*
X174174D01*
Y124742D01*
X174151D01*
Y125065D01*
X174174D01*
Y125158D01*
X174197D01*
Y125227D01*
X174220D01*
Y125274D01*
X174243D01*
Y125320D01*
X174266D01*
Y125343D01*
X174290D01*
Y125389D01*
X174313D01*
Y125412D01*
X174336D01*
Y125435D01*
X174359D01*
Y125459D01*
X174382D01*
Y125482D01*
X174405D01*
Y125505D01*
X174428D01*
Y125528D01*
X174451D01*
Y125551D01*
X174475D01*
Y125574D01*
X174498D01*
Y125597D01*
X174544D01*
Y125620D01*
X174567D01*
Y125644D01*
X174613D01*
Y125667D01*
X174660D01*
Y125690D01*
X174706D01*
Y125713D01*
X174729D01*
Y126199D01*
X174706D01*
Y126222D01*
X174683D01*
Y126245D01*
X174660D01*
Y126268D01*
X174636D01*
Y126291D01*
X174613D01*
Y126314D01*
X174590D01*
Y126337D01*
X174567D01*
Y126360D01*
X174544D01*
Y126384D01*
X174521D01*
Y126407D01*
X174498D01*
Y126430D01*
X174475D01*
Y126453D01*
X174451D01*
Y126476D01*
X174428D01*
Y126499D01*
X174405D01*
Y126522D01*
X174382D01*
Y126546D01*
X174359D01*
Y126569D01*
X174336D01*
Y126592D01*
X174313D01*
Y126638D01*
X174290D01*
Y126661D01*
X174266D01*
Y126684D01*
X174243D01*
Y126707D01*
X174220D01*
Y126731D01*
X174197D01*
Y126754D01*
X174174D01*
Y126777D01*
X174151D01*
Y126800D01*
X174128D01*
Y126823D01*
X174104D01*
Y126846D01*
X174081D01*
Y126869D01*
X174058D01*
Y126892D01*
X174035D01*
Y126916D01*
X174012D01*
Y126939D01*
X173989D01*
Y126962D01*
X173966D01*
Y126985D01*
X173943D01*
Y127008D01*
X173919D01*
Y127031D01*
X173896D01*
Y127054D01*
X173873D01*
Y127077D01*
X173850D01*
Y127101D01*
X173827D01*
Y127124D01*
X173804D01*
Y127147D01*
X173781D01*
Y127170D01*
X173758D01*
Y127193D01*
X173734D01*
Y127216D01*
X173711D01*
Y127239D01*
X173688D01*
Y127262D01*
X173665D01*
Y127286D01*
X173642D01*
Y127309D01*
X173619D01*
Y127332D01*
X173596D01*
Y127355D01*
X173573D01*
Y127378D01*
X173549D01*
Y127401D01*
X173526D01*
Y127424D01*
X173503D01*
Y127447D01*
X173480D01*
Y127471D01*
X173457D01*
Y127494D01*
X173434D01*
Y127517D01*
X173411D01*
Y127540D01*
X173388D01*
Y127563D01*
X173364D01*
Y127586D01*
X173341D01*
Y127609D01*
X173318D01*
Y128326D01*
X173295D01*
Y128951D01*
X172601D01*
Y128349D01*
X172624D01*
Y127077D01*
X172601D01*
Y127031D01*
X172578D01*
Y127008D01*
X172555D01*
Y126985D01*
X172532D01*
Y126962D01*
X172509D01*
Y126939D01*
X172486D01*
Y126916D01*
X172462D01*
Y126892D01*
X172439D01*
Y126869D01*
X172416D01*
Y126846D01*
X172393D01*
Y126823D01*
X172370D01*
Y126800D01*
X172347D01*
Y126777D01*
X172324D01*
Y126754D01*
X172301D01*
Y126731D01*
X172277D01*
Y126707D01*
X172254D01*
Y126684D01*
X172231D01*
Y126661D01*
X172208D01*
Y126638D01*
X172185D01*
Y126615D01*
X172162D01*
Y126592D01*
X172139D01*
Y126569D01*
X172116D01*
Y126546D01*
X172092D01*
Y126522D01*
X172069D01*
Y126499D01*
X172046D01*
Y126476D01*
X172023D01*
Y126453D01*
X172000D01*
Y126430D01*
X171977D01*
Y126407D01*
X171954D01*
Y126384D01*
X171931D01*
Y126360D01*
X171907D01*
Y126337D01*
X171884D01*
Y126314D01*
X171861D01*
Y126291D01*
X171838D01*
Y126268D01*
X171815D01*
Y126245D01*
X171792D01*
Y126222D01*
X171769D01*
Y126199D01*
X171746D01*
Y126175D01*
X171722D01*
Y126152D01*
X171699D01*
Y126129D01*
X171676D01*
Y126106D01*
X171653D01*
Y126083D01*
X171630D01*
Y126060D01*
X171607D01*
Y126037D01*
X171584D01*
Y126014D01*
X171561D01*
Y125990D01*
X171537D01*
Y125967D01*
X171514D01*
Y125944D01*
X171491D01*
Y125921D01*
X171468D01*
Y125898D01*
X171445D01*
Y125875D01*
X171422D01*
Y125852D01*
X171399D01*
Y125829D01*
X171376D01*
Y125805D01*
X171353D01*
Y125782D01*
X171329D01*
Y125759D01*
X171306D01*
Y125736D01*
X171283D01*
Y125713D01*
X171260D01*
Y125690D01*
X171237D01*
Y125667D01*
X171214D01*
Y125644D01*
X171191D01*
Y125620D01*
X171168D01*
Y125597D01*
X171144D01*
Y125574D01*
X171121D01*
Y125551D01*
X171098D01*
Y125528D01*
X171075D01*
Y123955D01*
X171098D01*
Y123932D01*
X179817D01*
Y123955D01*
X179886D01*
Y123978D01*
X179955D01*
Y124002D01*
X180002D01*
Y124025D01*
X180025D01*
Y124048D01*
X180071D01*
Y124071D01*
X180094D01*
Y124094D01*
X180117D01*
Y124117D01*
X180140D01*
Y124140D01*
X180164D01*
Y124187D01*
X180187D01*
Y124210D01*
X180210D01*
Y124256D01*
X180233D01*
Y124302D01*
X180256D01*
Y124372D01*
X180279D01*
Y125019D01*
X180210D01*
Y125042D01*
X180071D01*
Y125065D01*
X179979D01*
Y125089D01*
X179909D01*
Y125112D01*
X179840D01*
Y125135D01*
X179794D01*
Y125158D01*
X179747D01*
Y125181D01*
X179701D01*
Y125204D01*
X179678D01*
Y125227D01*
X179632D01*
Y125250D01*
X179608D01*
Y125274D01*
X179562D01*
Y125297D01*
X179539D01*
Y125320D01*
X179516D01*
Y125343D01*
X179493D01*
Y125366D01*
X179470D01*
Y125389D01*
X179447D01*
Y125412D01*
X179423D01*
Y125435D01*
X179400D01*
Y125459D01*
X179377D01*
Y125482D01*
X179354D01*
Y125505D01*
X179331D01*
Y125551D01*
X179308D01*
Y125574D01*
X179285D01*
Y125620D01*
X179262D01*
Y125667D01*
X179238D01*
Y125713D01*
X179215D01*
Y125759D01*
X179192D01*
Y125805D01*
X179169D01*
Y125852D01*
X179146D01*
Y125944D01*
X179123D01*
Y126014D01*
X179100D01*
Y126129D01*
X179077D01*
Y126569D01*
X179100D01*
Y126684D01*
X179123D01*
Y126777D01*
X179146D01*
Y126846D01*
X179169D01*
Y126892D01*
X179192D01*
Y126939D01*
X179215D01*
Y126985D01*
X179238D01*
Y127031D01*
X179262D01*
Y127077D01*
X179285D01*
Y127124D01*
X179308D01*
Y127147D01*
X179331D01*
Y127170D01*
X179354D01*
Y127216D01*
X179377D01*
Y127239D01*
X179400D01*
Y127262D01*
X179423D01*
Y127286D01*
X179447D01*
Y127309D01*
X179470D01*
Y127332D01*
X179493D01*
Y127355D01*
X179516D01*
Y127378D01*
X179539D01*
Y127401D01*
X179562D01*
Y127424D01*
X179585D01*
Y127447D01*
X179632D01*
Y127471D01*
X179655D01*
Y127494D01*
X179701D01*
Y127517D01*
X179724D01*
Y127540D01*
X179770D01*
Y127563D01*
X179817D01*
Y127586D01*
X179863D01*
Y127609D01*
X179932D01*
Y127632D01*
X180002D01*
Y127655D01*
X180071D01*
Y127679D01*
X180164D01*
Y127702D01*
X180279D01*
Y138571D01*
X178938D01*
Y138594D01*
X178892D01*
Y138617D01*
X178845D01*
Y138640D01*
X178822D01*
Y138663D01*
X178799D01*
Y138687D01*
X178776D01*
Y138710D01*
X178753D01*
Y138733D01*
X178730D01*
Y138756D01*
X178707D01*
Y138779D01*
X178683D01*
Y138802D01*
X178660D01*
Y138825D01*
X178637D01*
Y138848D01*
X178614D01*
Y138872D01*
X178591D01*
Y138895D01*
X178568D01*
Y138918D01*
X178545D01*
Y138941D01*
X178522D01*
Y138964D01*
X178498D01*
Y138987D01*
X178475D01*
Y139010D01*
X178452D01*
Y139033D01*
X178429D01*
Y139057D01*
X178406D01*
Y139080D01*
X178383D01*
Y139103D01*
X178360D01*
Y139126D01*
X178337D01*
Y139149D01*
X178313D01*
Y139172D01*
X178290D01*
Y139195D01*
X178267D01*
Y139218D01*
X178244D01*
Y139242D01*
X178221D01*
Y139265D01*
X178198D01*
Y139288D01*
X178175D01*
Y139311D01*
X178152D01*
Y139334D01*
X178128D01*
Y139357D01*
X178105D01*
Y139380D01*
X178082D01*
Y139403D01*
X178059D01*
Y139427D01*
X178036D01*
Y139450D01*
X178013D01*
Y139473D01*
X177990D01*
Y139496D01*
X177966D01*
Y139519D01*
X177943D01*
Y139542D01*
X177920D01*
Y139565D01*
X177897D01*
Y139588D01*
X177874D01*
Y139612D01*
X177851D01*
Y139635D01*
X177828D01*
Y139658D01*
X177805D01*
Y139681D01*
X177781D01*
Y139704D01*
X177758D01*
Y139727D01*
X177735D01*
Y139750D01*
X177712D01*
Y139773D01*
X177689D01*
Y139797D01*
X177666D01*
Y139820D01*
X177643D01*
Y139843D01*
X177620D01*
Y139866D01*
X177596D01*
Y139889D01*
X177573D01*
Y139912D01*
X177550D01*
Y139935D01*
X177527D01*
Y139959D01*
X177504D01*
Y140005D01*
X177481D01*
Y141369D01*
D02*
G37*
G36*
X174475Y135195D02*
X169271D01*
Y135171D01*
X169225D01*
Y135148D01*
X169179D01*
Y135125D01*
X169132D01*
Y135102D01*
X169109D01*
Y135079D01*
X169086D01*
Y135056D01*
X169063D01*
Y135033D01*
X169040D01*
Y134986D01*
X169017D01*
Y134963D01*
X168994D01*
Y134894D01*
X168971D01*
Y134801D01*
X168947D01*
Y129899D01*
X168971D01*
Y129783D01*
X168994D01*
Y129737D01*
X169017D01*
Y129691D01*
X169040D01*
Y129667D01*
X169063D01*
Y129644D01*
X169086D01*
Y129621D01*
X169109D01*
Y129598D01*
X169132D01*
Y129575D01*
X169179D01*
Y129552D01*
X169225D01*
Y129529D01*
X169294D01*
Y129506D01*
X174451D01*
Y129529D01*
X174544D01*
Y129552D01*
X174590D01*
Y129575D01*
X174613D01*
Y129598D01*
X174660D01*
Y129621D01*
X174683D01*
Y129644D01*
X174706D01*
Y129667D01*
X174729D01*
Y129714D01*
X174752D01*
Y129737D01*
X174775D01*
Y129806D01*
X174798D01*
Y134894D01*
X174775D01*
Y134940D01*
X174752D01*
Y134986D01*
X174729D01*
Y135033D01*
X174706D01*
Y135056D01*
X174683D01*
Y135079D01*
X174660D01*
Y135102D01*
X174636D01*
Y135125D01*
X174590D01*
Y135148D01*
X174544D01*
Y135171D01*
X174475D01*
Y135195D01*
D02*
G37*
G36*
X164600Y126014D02*
X164438D01*
Y125990D01*
X164230D01*
Y126014D01*
X164022D01*
Y125990D01*
X163860D01*
Y126014D01*
X163698D01*
Y125990D01*
X163652D01*
Y124487D01*
X163675D01*
Y124418D01*
X163698D01*
Y124348D01*
X163721D01*
Y124302D01*
X163744D01*
Y124279D01*
X163767D01*
Y124233D01*
X163790D01*
Y124210D01*
X163813D01*
Y124187D01*
X163837D01*
Y124163D01*
X163860D01*
Y124140D01*
X163883D01*
Y124117D01*
X163906D01*
Y124094D01*
X163929D01*
Y124071D01*
X163952D01*
Y124048D01*
X163998D01*
Y124025D01*
X164045D01*
Y124002D01*
X164091D01*
Y123978D01*
X164137D01*
Y123955D01*
X165548D01*
Y125065D01*
X165525D01*
Y125089D01*
X165502D01*
Y125112D01*
X165479D01*
Y125135D01*
X165455D01*
Y125158D01*
X165432D01*
Y125181D01*
X165409D01*
Y125204D01*
X165386D01*
Y125227D01*
X165363D01*
Y125250D01*
X165340D01*
Y125274D01*
X165317D01*
Y125297D01*
X165294D01*
Y125320D01*
X165270D01*
Y125343D01*
X165247D01*
Y125366D01*
X165224D01*
Y125389D01*
X165201D01*
Y125412D01*
X165178D01*
Y125435D01*
X165155D01*
Y125459D01*
X165132D01*
Y125482D01*
X165108D01*
Y125505D01*
X165085D01*
Y125528D01*
X165062D01*
Y125551D01*
X165039D01*
Y125574D01*
X165016D01*
Y125597D01*
X164993D01*
Y125620D01*
X164970D01*
Y125644D01*
X164947D01*
Y125667D01*
X164923D01*
Y125690D01*
X164900D01*
Y125713D01*
X164877D01*
Y125736D01*
X164854D01*
Y125759D01*
X164831D01*
Y125782D01*
X164808D01*
Y125805D01*
X164785D01*
Y125829D01*
X164762D01*
Y125852D01*
X164738D01*
Y125875D01*
X164715D01*
Y125898D01*
X164692D01*
Y125921D01*
X164669D01*
Y125944D01*
X164646D01*
Y125967D01*
X164623D01*
Y125990D01*
X164600D01*
Y126014D01*
D02*
G37*
G36*
X171977Y128951D02*
X171283D01*
Y127239D01*
X171260D01*
Y127216D01*
X171237D01*
Y127193D01*
X171214D01*
Y127170D01*
X171191D01*
Y127147D01*
X171168D01*
Y127124D01*
X171144D01*
Y127077D01*
X171121D01*
Y127054D01*
X171098D01*
Y127031D01*
X171075D01*
Y127008D01*
X171052D01*
Y126985D01*
X171029D01*
Y126962D01*
X171006D01*
Y126939D01*
X170983D01*
Y126916D01*
X170959D01*
Y126892D01*
X170936D01*
Y126869D01*
X170913D01*
Y126846D01*
X170890D01*
Y126823D01*
X170867D01*
Y126800D01*
X170844D01*
Y126777D01*
X170821D01*
Y126754D01*
X170798D01*
Y126731D01*
X170774D01*
Y126707D01*
X170751D01*
Y126684D01*
X170728D01*
Y126661D01*
X170705D01*
Y126638D01*
X170682D01*
Y126615D01*
X170659D01*
Y126592D01*
X170636D01*
Y126569D01*
X170612D01*
Y126546D01*
X170589D01*
Y126499D01*
X170566D01*
Y126476D01*
X170543D01*
Y126453D01*
X170520D01*
Y126430D01*
X170497D01*
Y126407D01*
X170474D01*
Y126384D01*
X170451D01*
Y126360D01*
X170427D01*
Y126337D01*
X170404D01*
Y126314D01*
X170381D01*
Y126291D01*
X170358D01*
Y126268D01*
X170335D01*
Y126245D01*
X170312D01*
Y126222D01*
X170289D01*
Y126199D01*
X170266D01*
Y126175D01*
X170242D01*
Y126152D01*
X170219D01*
Y126129D01*
X170196D01*
Y126106D01*
X170173D01*
Y126083D01*
X170150D01*
Y126060D01*
X170127D01*
Y126037D01*
X170104D01*
Y126014D01*
X170080D01*
Y125990D01*
X170057D01*
Y125967D01*
X170034D01*
Y125921D01*
X170011D01*
Y125898D01*
X169988D01*
Y125875D01*
X169965D01*
Y125852D01*
X169942D01*
Y125829D01*
X169919D01*
Y125805D01*
X169896D01*
Y125782D01*
X169872D01*
Y125759D01*
X169849D01*
Y124510D01*
X169872D01*
Y123932D01*
X170451D01*
Y125736D01*
X170474D01*
Y125759D01*
X170497D01*
Y125782D01*
X170520D01*
Y125805D01*
X170543D01*
Y125829D01*
X170566D01*
Y125852D01*
X170589D01*
Y125875D01*
X170612D01*
Y125898D01*
X170636D01*
Y125921D01*
X170659D01*
Y125944D01*
X170682D01*
Y125967D01*
X170705D01*
Y125990D01*
X170728D01*
Y126014D01*
X170751D01*
Y126037D01*
X170774D01*
Y126060D01*
X170798D01*
Y126083D01*
X170821D01*
Y126106D01*
X170844D01*
Y126129D01*
X170867D01*
Y126152D01*
X170890D01*
Y126175D01*
X170913D01*
Y126199D01*
X170936D01*
Y126222D01*
X170959D01*
Y126245D01*
X170983D01*
Y126268D01*
X171006D01*
Y126291D01*
X171029D01*
Y126314D01*
X171052D01*
Y126337D01*
X171075D01*
Y126360D01*
X171098D01*
Y126384D01*
X171121D01*
Y126407D01*
X171144D01*
Y126430D01*
X171168D01*
Y126453D01*
X171191D01*
Y126476D01*
X171214D01*
Y126499D01*
X171237D01*
Y126546D01*
X171260D01*
Y126569D01*
X171283D01*
Y126592D01*
X171306D01*
Y126615D01*
X171329D01*
Y126638D01*
X171353D01*
Y126661D01*
X171376D01*
Y126684D01*
X171399D01*
Y126707D01*
X171422D01*
Y126731D01*
X171445D01*
Y126754D01*
X171468D01*
Y126777D01*
X171491D01*
Y126800D01*
X171514D01*
Y126823D01*
X171537D01*
Y126846D01*
X171561D01*
Y126869D01*
X171584D01*
Y126892D01*
X171607D01*
Y126916D01*
X171630D01*
Y126939D01*
X171653D01*
Y126962D01*
X171676D01*
Y126985D01*
X171699D01*
Y127008D01*
X171722D01*
Y127031D01*
X171746D01*
Y127054D01*
X171769D01*
Y127077D01*
X171792D01*
Y127101D01*
X171815D01*
Y127124D01*
X171838D01*
Y127147D01*
X171861D01*
Y127170D01*
X171884D01*
Y127193D01*
X171907D01*
Y127216D01*
X171931D01*
Y127239D01*
X171954D01*
Y127262D01*
X171977D01*
Y128951D01*
D02*
G37*
G36*
X170659D02*
X170057D01*
Y127471D01*
X170034D01*
Y127447D01*
X170011D01*
Y127424D01*
X169988D01*
Y127401D01*
X169965D01*
Y127378D01*
X169942D01*
Y127355D01*
X169919D01*
Y127332D01*
X169896D01*
Y127309D01*
X169872D01*
Y127286D01*
X169849D01*
Y127262D01*
X169826D01*
Y127239D01*
X169803D01*
Y127216D01*
X169780D01*
Y127193D01*
X169757D01*
Y127170D01*
X169734D01*
Y127147D01*
X169711D01*
Y127124D01*
X169687D01*
Y127101D01*
X169664D01*
Y127077D01*
X169641D01*
Y127054D01*
X169618D01*
Y127031D01*
X169595D01*
Y127008D01*
X169572D01*
Y126985D01*
X169549D01*
Y126962D01*
X169526D01*
Y126939D01*
X169502D01*
Y126916D01*
X169479D01*
Y126892D01*
X169456D01*
Y126869D01*
X169433D01*
Y126846D01*
X169410D01*
Y126800D01*
X169387D01*
Y126777D01*
X169364D01*
Y126754D01*
X169341D01*
Y126731D01*
X169317D01*
Y126707D01*
X169294D01*
Y126684D01*
X169271D01*
Y126661D01*
X169248D01*
Y126638D01*
X169225D01*
Y126615D01*
X169202D01*
Y126592D01*
X169179D01*
Y126569D01*
X169156D01*
Y126546D01*
X169132D01*
Y126522D01*
X169109D01*
Y126499D01*
X169086D01*
Y126476D01*
X169063D01*
Y126453D01*
X169040D01*
Y126430D01*
X169017D01*
Y126407D01*
X168994D01*
Y126384D01*
X168971D01*
Y126360D01*
X168947D01*
Y126337D01*
X168924D01*
Y126314D01*
X168901D01*
Y126291D01*
X168878D01*
Y126268D01*
X168855D01*
Y126245D01*
X168832D01*
Y126222D01*
X168809D01*
Y126199D01*
X168786D01*
Y126175D01*
X168762D01*
Y126152D01*
X168739D01*
Y126129D01*
X168716D01*
Y126083D01*
X168693D01*
Y126060D01*
X168670D01*
Y126037D01*
X168647D01*
Y126014D01*
X168624D01*
Y125990D01*
X168600D01*
Y125967D01*
X168577D01*
Y123955D01*
X168600D01*
Y123932D01*
X169225D01*
Y125944D01*
X169248D01*
Y125967D01*
X169271D01*
Y125990D01*
X169294D01*
Y126014D01*
X169317D01*
Y126037D01*
X169341D01*
Y126060D01*
X169364D01*
Y126083D01*
X169387D01*
Y126106D01*
X169410D01*
Y126129D01*
X169433D01*
Y126152D01*
X169456D01*
Y126175D01*
X169479D01*
Y126199D01*
X169502D01*
Y126222D01*
X169526D01*
Y126245D01*
X169549D01*
Y126268D01*
X169572D01*
Y126314D01*
X169595D01*
Y126337D01*
X169618D01*
Y126360D01*
X169641D01*
Y126384D01*
X169664D01*
Y126407D01*
X169687D01*
Y126430D01*
X169711D01*
Y126453D01*
X169734D01*
Y126476D01*
X169757D01*
Y126499D01*
X169780D01*
Y126522D01*
X169803D01*
Y126546D01*
X169826D01*
Y126569D01*
X169849D01*
Y126592D01*
X169872D01*
Y126615D01*
X169896D01*
Y126638D01*
X169919D01*
Y126661D01*
X169942D01*
Y126684D01*
X169965D01*
Y126707D01*
X169988D01*
Y126731D01*
X170011D01*
Y126754D01*
X170034D01*
Y126777D01*
X170057D01*
Y126800D01*
X170080D01*
Y126823D01*
X170104D01*
Y126846D01*
X170127D01*
Y126892D01*
X170150D01*
Y126916D01*
X170173D01*
Y126939D01*
X170196D01*
Y126962D01*
X170219D01*
Y126985D01*
X170242D01*
Y127008D01*
X170266D01*
Y127031D01*
X170289D01*
Y127054D01*
X170312D01*
Y127077D01*
X170335D01*
Y127101D01*
X170358D01*
Y127124D01*
X170381D01*
Y127147D01*
X170404D01*
Y127170D01*
X170427D01*
Y127193D01*
X170451D01*
Y127216D01*
X170474D01*
Y127239D01*
X170497D01*
Y127262D01*
X170520D01*
Y127286D01*
X170543D01*
Y127309D01*
X170566D01*
Y127332D01*
X170589D01*
Y127378D01*
X170612D01*
Y127401D01*
X170636D01*
Y127424D01*
X170659D01*
Y127447D01*
X170682D01*
Y128072D01*
X170659D01*
Y128951D01*
D02*
G37*
%LPD*%
G36*
X179562Y141022D02*
X179585D01*
Y140999D01*
X179608D01*
Y140976D01*
X179632D01*
Y140953D01*
X179655D01*
Y140930D01*
X179678D01*
Y140907D01*
X179701D01*
Y140884D01*
X179724D01*
Y140860D01*
X179747D01*
Y140837D01*
X179770D01*
Y140814D01*
X179794D01*
Y140791D01*
X179817D01*
Y140768D01*
X179840D01*
Y140745D01*
X179863D01*
Y140722D01*
X179886D01*
Y140699D01*
X179909D01*
Y140675D01*
X179932D01*
Y140652D01*
X179955D01*
Y140629D01*
X179979D01*
Y140398D01*
X180002D01*
Y140005D01*
X179979D01*
Y139773D01*
X179955D01*
Y139750D01*
X179863D01*
Y139773D01*
X179655D01*
Y139750D01*
X179493D01*
Y139773D01*
X179470D01*
Y139935D01*
X179447D01*
Y139982D01*
X179423D01*
Y140005D01*
X179400D01*
Y140028D01*
X179377D01*
Y140051D01*
X179354D01*
Y140074D01*
X179331D01*
Y140097D01*
X179308D01*
Y140120D01*
X179285D01*
Y140144D01*
X179262D01*
Y140167D01*
X179238D01*
Y140190D01*
X179215D01*
Y140213D01*
X179192D01*
Y140236D01*
X179169D01*
Y140259D01*
X179146D01*
Y140282D01*
X179123D01*
Y140305D01*
X179100D01*
Y140329D01*
X179077D01*
Y140352D01*
X179053D01*
Y140375D01*
X179030D01*
Y140398D01*
X179007D01*
Y140421D01*
X178984D01*
Y140444D01*
X178961D01*
Y140467D01*
X178938D01*
Y140490D01*
X178915D01*
Y140514D01*
X178892D01*
Y140537D01*
X178776D01*
Y140560D01*
X178707D01*
Y141045D01*
X179562D01*
Y141022D01*
D02*
G37*
G36*
X174151Y134825D02*
X174220D01*
Y134801D01*
X174266D01*
Y134778D01*
X174290D01*
Y134755D01*
X174313D01*
Y134732D01*
X174336D01*
Y134709D01*
X174359D01*
Y134686D01*
X174382D01*
Y134640D01*
X174405D01*
Y134593D01*
X174428D01*
Y134524D01*
X174451D01*
Y130176D01*
X174428D01*
Y130107D01*
X174405D01*
Y130037D01*
X174382D01*
Y130014D01*
X174359D01*
Y129991D01*
X174336D01*
Y129968D01*
X174313D01*
Y129945D01*
X174290D01*
Y129922D01*
X174266D01*
Y129899D01*
X174220D01*
Y129876D01*
X174174D01*
Y129852D01*
X174081D01*
Y129829D01*
X172925D01*
Y129852D01*
X169618D01*
Y129876D01*
X169549D01*
Y129899D01*
X169526D01*
Y129922D01*
X169479D01*
Y129945D01*
X169456D01*
Y129968D01*
X169433D01*
Y129991D01*
X169410D01*
Y130037D01*
X169387D01*
Y130061D01*
X169364D01*
Y130130D01*
X169341D01*
Y131934D01*
Y131957D01*
Y134570D01*
X169364D01*
Y134616D01*
X169387D01*
Y134663D01*
X169410D01*
Y134709D01*
X169433D01*
Y134732D01*
X169456D01*
Y134755D01*
X169502D01*
Y134778D01*
X169526D01*
Y134801D01*
X169572D01*
Y134825D01*
X169618D01*
Y134848D01*
X174151D01*
Y134825D01*
D02*
G37*
%LPC*%
G36*
X173758Y134177D02*
X173526D01*
Y134154D01*
X173434D01*
Y134131D01*
X173364D01*
Y134108D01*
X173295D01*
Y134084D01*
X173249D01*
Y134061D01*
X173203D01*
Y134038D01*
X173156D01*
Y134015D01*
X173110D01*
Y133992D01*
X173064D01*
Y133969D01*
X173018D01*
Y133946D01*
X172994D01*
Y133923D01*
X172948D01*
Y133899D01*
X172925D01*
Y133876D01*
X172879D01*
Y133853D01*
X172856D01*
Y133830D01*
X172809D01*
Y133807D01*
X172786D01*
Y133784D01*
X172763D01*
Y133761D01*
X172740D01*
Y133738D01*
X172717D01*
Y133714D01*
X172671D01*
Y133691D01*
X172648D01*
Y133668D01*
X172624D01*
Y133645D01*
X172601D01*
Y133622D01*
X172578D01*
Y133599D01*
X172555D01*
Y133576D01*
X172532D01*
Y133553D01*
X172509D01*
Y133529D01*
X172486D01*
Y133506D01*
X172462D01*
Y133483D01*
X172439D01*
Y133460D01*
X172416D01*
Y133414D01*
X172393D01*
Y133391D01*
X172370D01*
Y133368D01*
X172347D01*
Y133344D01*
X172324D01*
Y133321D01*
X172301D01*
Y133275D01*
X172277D01*
Y133252D01*
X172254D01*
Y133229D01*
X172231D01*
Y133206D01*
X172208D01*
Y133159D01*
X172185D01*
Y133136D01*
X172162D01*
Y133090D01*
X172139D01*
Y133067D01*
X172116D01*
Y133021D01*
X172092D01*
Y132998D01*
X172069D01*
Y132951D01*
X172046D01*
Y132905D01*
X172023D01*
Y132882D01*
X172000D01*
Y132836D01*
X171977D01*
Y132790D01*
X171954D01*
Y132743D01*
X171931D01*
Y132697D01*
X171907D01*
Y132651D01*
X171884D01*
Y132628D01*
X171861D01*
Y132581D01*
X171838D01*
Y132628D01*
X171815D01*
Y132674D01*
X171792D01*
Y132720D01*
X171769D01*
Y132766D01*
X171746D01*
Y132790D01*
X171722D01*
Y132836D01*
X171699D01*
Y132882D01*
X171676D01*
Y132905D01*
X171653D01*
Y132951D01*
X171630D01*
Y132998D01*
X171607D01*
Y133021D01*
X171584D01*
Y133067D01*
X171561D01*
Y133090D01*
X171537D01*
Y133136D01*
X171514D01*
Y133159D01*
X171491D01*
Y133206D01*
X171468D01*
Y133229D01*
X171445D01*
Y133252D01*
X171422D01*
Y133298D01*
X171399D01*
Y133321D01*
X171376D01*
Y133344D01*
X171353D01*
Y133368D01*
X171329D01*
Y133414D01*
X171306D01*
Y133437D01*
X171283D01*
Y133460D01*
X171260D01*
Y133483D01*
X171237D01*
Y133506D01*
X171214D01*
Y133529D01*
X171191D01*
Y133553D01*
X171168D01*
Y133576D01*
X171144D01*
Y133599D01*
X171121D01*
Y133622D01*
X171098D01*
Y133645D01*
X171075D01*
Y133668D01*
X171052D01*
Y133691D01*
X171029D01*
Y133714D01*
X171006D01*
Y133738D01*
X170983D01*
Y133761D01*
X170959D01*
Y133784D01*
X170913D01*
Y133807D01*
X170890D01*
Y133830D01*
X170867D01*
Y133853D01*
X170821D01*
Y133876D01*
X170798D01*
Y133899D01*
X170774D01*
Y133923D01*
X170728D01*
Y133946D01*
X170682D01*
Y133969D01*
X170659D01*
Y133992D01*
X170612D01*
Y134015D01*
X170566D01*
Y134038D01*
X170520D01*
Y134061D01*
X170474D01*
Y134084D01*
X170427D01*
Y134108D01*
X170358D01*
Y134131D01*
X170289D01*
Y134154D01*
X170196D01*
Y134177D01*
X169965D01*
Y134154D01*
X169919D01*
Y134131D01*
X169896D01*
Y134108D01*
X169872D01*
Y134061D01*
X169849D01*
Y134015D01*
X169826D01*
Y133946D01*
X169803D01*
Y133807D01*
X169780D01*
Y133483D01*
X169803D01*
Y133252D01*
X169826D01*
Y133136D01*
X169849D01*
Y133044D01*
X169872D01*
Y132928D01*
X169896D01*
Y132859D01*
X169919D01*
Y132790D01*
X169942D01*
Y132720D01*
X169965D01*
Y132651D01*
X169988D01*
Y132605D01*
X170011D01*
Y132558D01*
X170034D01*
Y132512D01*
X170057D01*
Y132489D01*
X170080D01*
Y132443D01*
X170104D01*
Y132420D01*
X170127D01*
Y132373D01*
X170150D01*
Y132350D01*
X170173D01*
Y132327D01*
X170196D01*
Y132304D01*
X170219D01*
Y132281D01*
X170242D01*
Y132258D01*
X170266D01*
Y132234D01*
X170289D01*
Y132211D01*
X170312D01*
Y132188D01*
X170358D01*
Y132165D01*
X170404D01*
Y132142D01*
X170451D01*
Y132119D01*
X170497D01*
Y132096D01*
X170566D01*
Y132073D01*
X170636D01*
Y132049D01*
X170705D01*
Y132003D01*
X170659D01*
Y131980D01*
X170612D01*
Y131957D01*
X170566D01*
Y131934D01*
X170520D01*
Y131911D01*
X170497D01*
Y131888D01*
X170474D01*
Y131864D01*
X170427D01*
Y131841D01*
X170404D01*
Y131818D01*
X170381D01*
Y131795D01*
X170358D01*
Y131772D01*
X170335D01*
Y131749D01*
X170312D01*
Y131726D01*
X170289D01*
Y131679D01*
X170266D01*
Y131656D01*
X170242D01*
Y131610D01*
X170219D01*
Y131564D01*
X170196D01*
Y131471D01*
X170173D01*
Y131217D01*
X170196D01*
Y131101D01*
X170219D01*
Y131055D01*
X170242D01*
Y130986D01*
X170266D01*
Y130939D01*
X170289D01*
Y130893D01*
X170312D01*
Y130847D01*
X170335D01*
Y130801D01*
X170358D01*
Y130754D01*
X170381D01*
Y130731D01*
X170404D01*
Y130685D01*
X170427D01*
Y130662D01*
X170451D01*
Y130639D01*
X170474D01*
Y130593D01*
X170497D01*
Y130569D01*
X170520D01*
Y130546D01*
X170543D01*
Y130500D01*
X170566D01*
Y130477D01*
X170589D01*
Y130454D01*
X170612D01*
Y130431D01*
X170659D01*
Y130408D01*
X170682D01*
Y130384D01*
X170705D01*
Y130361D01*
X170751D01*
Y130338D01*
X170821D01*
Y130315D01*
X170959D01*
Y130338D01*
X171029D01*
Y130361D01*
X171075D01*
Y130384D01*
X171121D01*
Y130408D01*
X171168D01*
Y130431D01*
X171191D01*
Y130454D01*
X171237D01*
Y130477D01*
X171260D01*
Y130500D01*
X171283D01*
Y130523D01*
X171329D01*
Y130546D01*
X171353D01*
Y130569D01*
X171376D01*
Y130593D01*
X171399D01*
Y130616D01*
X171422D01*
Y130639D01*
X171445D01*
Y130662D01*
X171468D01*
Y130685D01*
X171491D01*
Y130708D01*
X171514D01*
Y130754D01*
X171537D01*
Y130778D01*
X171561D01*
Y130801D01*
X171584D01*
Y130847D01*
X171607D01*
Y130870D01*
X171630D01*
Y130916D01*
X171653D01*
Y130939D01*
X171676D01*
Y130986D01*
X171699D01*
Y131009D01*
X171722D01*
Y131055D01*
X171746D01*
Y131101D01*
X171769D01*
Y131148D01*
X171792D01*
Y131194D01*
X171815D01*
Y131240D01*
X171838D01*
Y131286D01*
X171861D01*
Y131240D01*
X171884D01*
Y131194D01*
X171907D01*
Y131148D01*
X171931D01*
Y131101D01*
X171954D01*
Y131055D01*
X171977D01*
Y131009D01*
X172000D01*
Y130986D01*
X172023D01*
Y130939D01*
X172046D01*
Y130916D01*
X172069D01*
Y130870D01*
X172092D01*
Y130847D01*
X172116D01*
Y130801D01*
X172139D01*
Y130778D01*
X172162D01*
Y130754D01*
X172185D01*
Y130731D01*
X172208D01*
Y130708D01*
X172231D01*
Y130662D01*
X172254D01*
Y130639D01*
X172277D01*
Y130616D01*
X172301D01*
Y130593D01*
X172324D01*
Y130569D01*
X172370D01*
Y130546D01*
X172393D01*
Y130523D01*
X172416D01*
Y130500D01*
X172439D01*
Y130477D01*
X172486D01*
Y130454D01*
X172509D01*
Y130431D01*
X172555D01*
Y130408D01*
X172578D01*
Y130384D01*
X172624D01*
Y130361D01*
X172671D01*
Y130338D01*
X172740D01*
Y130315D01*
X172902D01*
Y130338D01*
X172948D01*
Y130361D01*
X172994D01*
Y130384D01*
X173041D01*
Y130408D01*
X173064D01*
Y130431D01*
X173087D01*
Y130454D01*
X173110D01*
Y130477D01*
X173133D01*
Y130500D01*
X173156D01*
Y130523D01*
X173179D01*
Y130546D01*
X173203D01*
Y130569D01*
X173226D01*
Y130616D01*
X173249D01*
Y130639D01*
X173272D01*
Y130662D01*
X173295D01*
Y130708D01*
X173318D01*
Y130731D01*
X173341D01*
Y130778D01*
X173364D01*
Y130824D01*
X173388D01*
Y130847D01*
X173411D01*
Y130893D01*
X173434D01*
Y130939D01*
X173457D01*
Y131009D01*
X173480D01*
Y131055D01*
X173503D01*
Y131124D01*
X173526D01*
Y131240D01*
X173549D01*
Y131425D01*
X173526D01*
Y131518D01*
X173503D01*
Y131587D01*
X173480D01*
Y131633D01*
X173457D01*
Y131679D01*
X173434D01*
Y131702D01*
X173411D01*
Y131726D01*
X173388D01*
Y131772D01*
X173364D01*
Y131795D01*
X173318D01*
Y131818D01*
X173295D01*
Y131841D01*
X173272D01*
Y131864D01*
X173249D01*
Y131888D01*
X173226D01*
Y131911D01*
X173179D01*
Y131934D01*
X173156D01*
Y131957D01*
X173110D01*
Y131980D01*
X173064D01*
Y132003D01*
X173018D01*
Y132049D01*
X173087D01*
Y132073D01*
X173179D01*
Y132096D01*
X173226D01*
Y132119D01*
X173272D01*
Y132142D01*
X173318D01*
Y132165D01*
X173364D01*
Y132188D01*
X173411D01*
Y132211D01*
X173434D01*
Y132234D01*
X173457D01*
Y132258D01*
X173480D01*
Y132281D01*
X173503D01*
Y132304D01*
X173526D01*
Y132327D01*
X173549D01*
Y132350D01*
X173573D01*
Y132373D01*
X173596D01*
Y132396D01*
X173619D01*
Y132443D01*
X173642D01*
Y132489D01*
X173665D01*
Y132512D01*
X173688D01*
Y132558D01*
X173711D01*
Y132605D01*
X173734D01*
Y132674D01*
X173758D01*
Y132720D01*
X173781D01*
Y132790D01*
X173804D01*
Y132859D01*
X173827D01*
Y132928D01*
X173850D01*
Y133021D01*
X173873D01*
Y133136D01*
X173896D01*
Y133275D01*
X173919D01*
Y133460D01*
X173943D01*
Y133830D01*
X173919D01*
Y133946D01*
X173896D01*
Y134015D01*
X173873D01*
Y134084D01*
X173850D01*
Y134108D01*
X173827D01*
Y134131D01*
X173804D01*
Y134154D01*
X173758D01*
Y134177D01*
D02*
G37*
%LPD*%
G36*
X164461Y125528D02*
X164484D01*
Y125505D01*
X164507D01*
Y125482D01*
X164530D01*
Y125459D01*
X164553D01*
Y125435D01*
X164577D01*
Y125412D01*
X164600D01*
Y125389D01*
X164623D01*
Y125343D01*
X164646D01*
Y125320D01*
X164669D01*
Y125297D01*
X164692D01*
Y125274D01*
X164715D01*
Y125250D01*
X164738D01*
Y125227D01*
X164762D01*
Y125204D01*
X164785D01*
Y125181D01*
X164808D01*
Y125158D01*
X164831D01*
Y125135D01*
X164854D01*
Y125112D01*
X164877D01*
Y125089D01*
X164900D01*
Y125065D01*
X164923D01*
Y125042D01*
X164947D01*
Y125019D01*
X164970D01*
Y124996D01*
X164993D01*
Y124973D01*
X165016D01*
Y124950D01*
X165039D01*
Y124927D01*
X165062D01*
Y124904D01*
X165085D01*
Y124880D01*
X165108D01*
Y124834D01*
X165132D01*
Y124372D01*
X164461D01*
Y124395D01*
X164438D01*
Y124418D01*
X164415D01*
Y124441D01*
X164392D01*
Y124464D01*
X164368D01*
Y124487D01*
X164345D01*
Y124510D01*
X164322D01*
Y124533D01*
X164299D01*
Y124557D01*
X164276D01*
Y124580D01*
X164253D01*
Y124603D01*
X164230D01*
Y124626D01*
X164207D01*
Y124649D01*
X164183D01*
Y124672D01*
X164160D01*
Y124695D01*
X164137D01*
Y124718D01*
X164114D01*
Y124742D01*
X164091D01*
Y124788D01*
X164068D01*
Y124950D01*
Y124973D01*
Y125528D01*
X164091D01*
Y125551D01*
X164461D01*
Y125528D01*
D02*
G37*
%LPC*%
G36*
X173688Y119145D02*
X173041D01*
Y118983D01*
X173665D01*
Y119006D01*
X173688D01*
Y119029D01*
X173711D01*
Y119099D01*
X173688D01*
Y119145D01*
D02*
G37*
G36*
Y118729D02*
X173041D01*
Y118567D01*
X173064D01*
Y118544D01*
X173665D01*
Y118567D01*
X173711D01*
Y118706D01*
X173688D01*
Y118729D01*
D02*
G37*
G36*
X170589Y119122D02*
X170566D01*
Y119099D01*
X170543D01*
Y119053D01*
X170520D01*
Y119006D01*
X170497D01*
Y118960D01*
X170474D01*
Y118914D01*
X170451D01*
Y118891D01*
X170427D01*
Y118844D01*
X170404D01*
Y118821D01*
X170381D01*
Y118798D01*
X170774D01*
Y118821D01*
X170751D01*
Y118844D01*
X170728D01*
Y118891D01*
X170705D01*
Y118937D01*
X170682D01*
Y118983D01*
X170659D01*
Y119006D01*
X170636D01*
Y119053D01*
X170612D01*
Y119099D01*
X170589D01*
Y119122D01*
D02*
G37*
%LPD*%
D30*
X46334Y108956D02*
D03*
X42200D02*
D03*
X38066D02*
D03*
Y99556D02*
D03*
X42200D02*
D03*
X46334D02*
D03*
D36*
X52391Y85900D02*
D03*
X38809D02*
D03*
D37*
X66916Y100323D02*
D03*
X68308Y98931D02*
D03*
X69700Y97539D02*
D03*
X71092Y96147D02*
D03*
X72484Y94755D02*
D03*
X73876Y93363D02*
D03*
X75268Y91971D02*
D03*
X76660Y90579D02*
D03*
X78052Y89188D02*
D03*
X79444Y87796D02*
D03*
X80836Y86404D02*
D03*
X82228Y85012D02*
D03*
X83620Y83620D02*
D03*
X85012Y82228D02*
D03*
X86404Y80836D02*
D03*
X87796Y79444D02*
D03*
X89188Y78052D02*
D03*
X90579Y76660D02*
D03*
X91971Y75268D02*
D03*
X93363Y73876D02*
D03*
X94755Y72484D02*
D03*
X96147Y71092D02*
D03*
X97539Y69700D02*
D03*
X98931Y68308D02*
D03*
X100323Y66916D02*
D03*
X143084Y109677D02*
D03*
X141692Y111069D02*
D03*
X140300Y112461D02*
D03*
X138908Y113853D02*
D03*
X137516Y115245D02*
D03*
X136124Y116637D02*
D03*
X134732Y118029D02*
D03*
X133340Y119421D02*
D03*
X131948Y120812D02*
D03*
X130556Y122204D02*
D03*
X129164Y123596D02*
D03*
X127772Y124988D02*
D03*
X126380Y126380D02*
D03*
X124988Y127772D02*
D03*
X123596Y129164D02*
D03*
X122204Y130556D02*
D03*
X120812Y131948D02*
D03*
X119421Y133340D02*
D03*
X118029Y134732D02*
D03*
X116637Y136124D02*
D03*
X115245Y137516D02*
D03*
X113853Y138908D02*
D03*
X112461Y140300D02*
D03*
X111069Y141692D02*
D03*
X109677Y143084D02*
D03*
D38*
Y66916D02*
D03*
X111069Y68308D02*
D03*
X112461Y69700D02*
D03*
X113853Y71092D02*
D03*
X115245Y72484D02*
D03*
X116637Y73876D02*
D03*
X118029Y75268D02*
D03*
X119421Y76660D02*
D03*
X120812Y78052D02*
D03*
X122204Y79444D02*
D03*
X123596Y80836D02*
D03*
X124988Y82228D02*
D03*
X126380Y83620D02*
D03*
X127772Y85012D02*
D03*
X129164Y86404D02*
D03*
X130556Y87796D02*
D03*
X131948Y89188D02*
D03*
X133340Y90579D02*
D03*
X134732Y91971D02*
D03*
X136124Y93363D02*
D03*
X137516Y94755D02*
D03*
X138908Y96147D02*
D03*
X140300Y97539D02*
D03*
X141692Y98931D02*
D03*
X143084Y100323D02*
D03*
X100323Y143084D02*
D03*
X98931Y141692D02*
D03*
X97539Y140300D02*
D03*
X96147Y138908D02*
D03*
X94755Y137516D02*
D03*
X93363Y136124D02*
D03*
X91971Y134732D02*
D03*
X90579Y133340D02*
D03*
X89188Y131948D02*
D03*
X87796Y130556D02*
D03*
X86404Y129164D02*
D03*
X85012Y127772D02*
D03*
X83620Y126380D02*
D03*
X82228Y124988D02*
D03*
X80836Y123596D02*
D03*
X79444Y122204D02*
D03*
X78052Y120812D02*
D03*
X76660Y119421D02*
D03*
X75268Y118029D02*
D03*
X73876Y116637D02*
D03*
X72484Y115245D02*
D03*
X71092Y113853D02*
D03*
X69700Y112461D02*
D03*
X68308Y111069D02*
D03*
X66916Y109677D02*
D03*
D39*
X23792Y153110D02*
D03*
Y150551D02*
D03*
Y147992D02*
D03*
Y145433D02*
D03*
Y142874D02*
D03*
D40*
X22906Y160591D02*
D03*
Y135394D02*
D03*
D41*
X13260Y152717D02*
D03*
Y143268D02*
D03*
D42*
X8984Y7331D02*
D03*
X18000D02*
D03*
X27016D02*
D03*
X8984Y48081D02*
D03*
X18000D02*
D03*
X27016D02*
D03*
D43*
X18000Y33669D02*
D03*
Y74420D02*
D03*
D44*
X166225Y34653D02*
D03*
X174886D02*
D03*
Y41346D02*
D03*
X166225D02*
D03*
D45*
X85853Y177500D02*
D03*
X92546D02*
D03*
X112747D02*
D03*
X106053D02*
D03*
X71075Y40986D02*
D03*
X64382D02*
D03*
X49854Y33998D02*
D03*
X56546D02*
D03*
X45254Y71100D02*
D03*
X51947D02*
D03*
X71047Y33998D02*
D03*
X64354D02*
D03*
X49854Y48202D02*
D03*
X56546D02*
D03*
X71046Y26998D02*
D03*
X64353D02*
D03*
X154200Y174500D02*
D03*
X147507D02*
D03*
X151000Y34000D02*
D03*
X144307D02*
D03*
X49854Y26998D02*
D03*
X56546D02*
D03*
X71047Y47998D02*
D03*
X64354D02*
D03*
X49854Y40998D02*
D03*
X56546D02*
D03*
D46*
X38199Y77946D02*
D03*
Y71253D02*
D03*
X176400Y156046D02*
D03*
Y149354D02*
D03*
X175500Y49154D02*
D03*
Y55847D02*
D03*
D47*
X69000Y168000D02*
D03*
Y173000D02*
D03*
Y178000D02*
D03*
Y183000D02*
D03*
Y188000D02*
D03*
Y193000D02*
D03*
Y198000D02*
D03*
Y203000D02*
D03*
X41717D02*
D03*
Y198000D02*
D03*
Y193000D02*
D03*
Y188000D02*
D03*
Y183000D02*
D03*
Y178000D02*
D03*
Y173000D02*
D03*
Y168000D02*
D03*
D48*
X106506Y170500D02*
D03*
X112294D02*
D03*
X45713Y78001D02*
D03*
X51500D02*
D03*
X169806Y94300D02*
D03*
X175594D02*
D03*
X169706Y101500D02*
D03*
X175494D02*
D03*
X40341Y152730D02*
D03*
X34554D02*
D03*
X40341Y145729D02*
D03*
X34554D02*
D03*
X83994Y27100D02*
D03*
X78206D02*
D03*
X84000Y34101D02*
D03*
X78213D02*
D03*
X84023Y41102D02*
D03*
X78236D02*
D03*
X84000Y48103D02*
D03*
X78213D02*
D03*
X97413Y28899D02*
D03*
X103200D02*
D03*
X97513Y35900D02*
D03*
X103300D02*
D03*
D49*
X175847Y164783D02*
D03*
Y173444D02*
D03*
X169153D02*
D03*
Y164783D02*
D03*
D50*
X7518Y89589D02*
D03*
Y113211D02*
D03*
X22282Y89589D02*
D03*
Y113211D02*
D03*
D51*
X161400Y174594D02*
D03*
Y168806D02*
D03*
X158154Y39894D02*
D03*
Y34106D02*
D03*
D52*
X118660Y29867D02*
D03*
Y36166D02*
D03*
X125261D02*
D03*
Y29867D02*
D03*
X112059Y29951D02*
D03*
Y36251D02*
D03*
X131862Y36166D02*
D03*
Y29867D02*
D03*
D53*
X39000Y25927D02*
D03*
Y9273D02*
D03*
D54*
X16500Y178732D02*
D03*
Y195268D02*
D03*
D55*
X13260Y160984D02*
D03*
Y135000D02*
D03*
D56*
X201900Y7923D02*
D03*
Y17923D02*
D03*
X191900Y7923D02*
D03*
Y17923D02*
D03*
X181900Y7923D02*
D03*
Y17923D02*
D03*
X171900Y7923D02*
D03*
Y17923D02*
D03*
X161900Y7923D02*
D03*
Y17923D02*
D03*
X151900Y7923D02*
D03*
Y17923D02*
D03*
X141900Y7923D02*
D03*
Y17923D02*
D03*
X131900Y7923D02*
D03*
Y17923D02*
D03*
X121900Y7923D02*
D03*
Y17923D02*
D03*
X111900Y7923D02*
D03*
Y17923D02*
D03*
X101900Y7923D02*
D03*
Y17923D02*
D03*
X91900Y7923D02*
D03*
Y17923D02*
D03*
X81900Y7923D02*
D03*
Y17923D02*
D03*
X71900Y7923D02*
D03*
Y17923D02*
D03*
X61900Y7923D02*
D03*
Y17923D02*
D03*
X51900Y7923D02*
D03*
X191900Y179712D02*
D03*
X201900Y169712D02*
D03*
X191900D02*
D03*
X201900Y159712D02*
D03*
X191900D02*
D03*
X201900Y149712D02*
D03*
X191900D02*
D03*
X201900Y139712D02*
D03*
X191900D02*
D03*
X201900Y129712D02*
D03*
X191900D02*
D03*
X201900Y119712D02*
D03*
X191900D02*
D03*
X201900Y109712D02*
D03*
X191900D02*
D03*
X201900Y99712D02*
D03*
X191900D02*
D03*
X201900Y89712D02*
D03*
X191900D02*
D03*
X201900Y79712D02*
D03*
X191900D02*
D03*
X201900Y69712D02*
D03*
X191900D02*
D03*
X201900Y59712D02*
D03*
X191900D02*
D03*
X201900Y49712D02*
D03*
X191900D02*
D03*
X201900Y39712D02*
D03*
X191900D02*
D03*
X201900Y29712D02*
D03*
X191900D02*
D03*
X131900Y191900D02*
D03*
X141900Y201900D02*
D03*
Y191900D02*
D03*
X151900Y201900D02*
D03*
Y191900D02*
D03*
X161900Y201900D02*
D03*
Y191900D02*
D03*
X171900Y201900D02*
D03*
Y191900D02*
D03*
X181900Y201900D02*
D03*
Y191900D02*
D03*
X191900Y201900D02*
D03*
Y191900D02*
D03*
X201900Y201900D02*
D03*
Y191900D02*
D03*
X112800D02*
D03*
Y201900D02*
D03*
X102800Y191900D02*
D03*
Y201900D02*
D03*
X92800Y191900D02*
D03*
D57*
X51900Y17923D02*
D03*
X131900Y201900D02*
D03*
X92800D02*
D03*
D58*
X201900Y179712D02*
D03*
M02*
