G04*
G04 #@! TF.GenerationSoftware,Altium Limited,Altium Designer,26.10.1 (5)*
G04*
G04 Layer_Physical_Order=4*
G04 Layer_Color=16711680*
G04 Board_Origin=9800000|9800000*
%FSLAX25Y25*%
%MOIN*%
G70*
G04*
G04 #@! TF.SameCoordinates,9D01E2D7-551C-4C3F-8480-1F6566D9E9C8*
G04*
G04*
G04 #@! TF.FilePolarity,Positive*
G04*
G01*
G75*
%ADD15C,0.00600*%
%ADD63C,0.00623*%
%ADD66O,0.07087X0.03543*%
%ADD67C,0.05394*%
%ADD68R,0.05394X0.05394*%
%ADD69R,0.05394X0.05394*%
%ADD70C,0.02400*%
G36*
X207000Y22258D02*
X206446Y22029D01*
X204237Y24237D01*
X203807Y24525D01*
X203300Y24625D01*
X200049D01*
X198026Y26649D01*
Y27829D01*
X198626Y27990D01*
X198942Y27442D01*
X199630Y26753D01*
X200473Y26267D01*
X201413Y26015D01*
X202387D01*
X203327Y26267D01*
X204170Y26753D01*
X204858Y27442D01*
X205345Y28285D01*
X205597Y29225D01*
Y30198D01*
X205345Y31139D01*
X204858Y31982D01*
X204170Y32670D01*
X203327Y33156D01*
X202387Y33408D01*
X201413D01*
X200473Y33156D01*
X199630Y32670D01*
X198942Y31982D01*
X198626Y31434D01*
X198026Y31594D01*
Y32700D01*
X197925Y33207D01*
X197637Y33637D01*
X195537Y35737D01*
X195107Y36025D01*
X194600Y36125D01*
X194282D01*
X194122Y36726D01*
X194170Y36753D01*
X194858Y37442D01*
X195345Y38285D01*
X195597Y39225D01*
Y40198D01*
X195345Y41138D01*
X194858Y41982D01*
X194170Y42670D01*
X193327Y43156D01*
X192387Y43409D01*
X191413D01*
X190473Y43156D01*
X189630Y42670D01*
X188942Y41982D01*
X188455Y41138D01*
X188203Y40198D01*
Y39225D01*
X188455Y38285D01*
X188942Y37442D01*
X189630Y36753D01*
X189678Y36726D01*
X189518Y36125D01*
X188395D01*
X184725Y39795D01*
Y54328D01*
X185280Y54557D01*
X188544Y51293D01*
X188455Y51139D01*
X188203Y50198D01*
Y49225D01*
X188455Y48285D01*
X188942Y47442D01*
X189630Y46753D01*
X190473Y46267D01*
X191413Y46015D01*
X192387D01*
X193327Y46267D01*
X194170Y46753D01*
X194858Y47442D01*
X195345Y48285D01*
X195597Y49225D01*
Y50198D01*
X195345Y51139D01*
X194858Y51982D01*
X194463Y52377D01*
X194711Y52977D01*
X196860D01*
X198544Y51293D01*
X198455Y51139D01*
X198203Y50198D01*
Y49225D01*
X198455Y48285D01*
X198942Y47442D01*
X199630Y46753D01*
X200473Y46267D01*
X201413Y46015D01*
X202387D01*
X203327Y46267D01*
X204170Y46753D01*
X204858Y47442D01*
X205345Y48285D01*
X205597Y49225D01*
Y50198D01*
X205345Y51139D01*
X204858Y51982D01*
X204170Y52670D01*
X203327Y53157D01*
X202387Y53408D01*
X201413D01*
X200473Y53157D01*
X200446Y53141D01*
X198346Y55240D01*
X197916Y55527D01*
X197409Y55628D01*
X193262D01*
X193183Y56228D01*
X193327Y56267D01*
X194170Y56753D01*
X194858Y57442D01*
X195345Y58285D01*
X195597Y59225D01*
Y60198D01*
X195345Y61138D01*
X194858Y61981D01*
X194170Y62670D01*
X193327Y63156D01*
X192513Y63375D01*
X192592Y63974D01*
X195863D01*
X198544Y61293D01*
X198455Y61138D01*
X198203Y60198D01*
Y59225D01*
X198455Y58285D01*
X198942Y57442D01*
X199630Y56753D01*
X200473Y56267D01*
X201413Y56015D01*
X202387D01*
X203327Y56267D01*
X204170Y56753D01*
X204858Y57442D01*
X205345Y58285D01*
X205597Y59225D01*
Y60198D01*
X205345Y61138D01*
X204858Y61981D01*
X204170Y62670D01*
X203327Y63156D01*
X202387Y63408D01*
X201413D01*
X200473Y63156D01*
X200446Y63141D01*
X197349Y66237D01*
X196919Y66525D01*
X196412Y66625D01*
X194890D01*
X194642Y67225D01*
X194858Y67442D01*
X195345Y68285D01*
X195597Y69225D01*
Y70198D01*
X195345Y71139D01*
X194858Y71982D01*
X194170Y72670D01*
X193642Y72974D01*
X193803Y73575D01*
X196263D01*
X198544Y71293D01*
X198455Y71139D01*
X198203Y70198D01*
Y69225D01*
X198455Y68285D01*
X198942Y67442D01*
X199630Y66753D01*
X200473Y66267D01*
X201413Y66015D01*
X202387D01*
X203327Y66267D01*
X204170Y66753D01*
X204858Y67442D01*
X205345Y68285D01*
X205597Y69225D01*
Y70198D01*
X205345Y71139D01*
X204858Y71982D01*
X204170Y72670D01*
X203327Y73156D01*
X202387Y73409D01*
X201413D01*
X200473Y73156D01*
X200446Y73141D01*
X197749Y75837D01*
X197319Y76125D01*
X196812Y76226D01*
X194456D01*
X194293Y76526D01*
X194242Y76825D01*
X194858Y77442D01*
X195345Y78285D01*
X195597Y79225D01*
Y80198D01*
X195345Y81138D01*
X194858Y81981D01*
X194265Y82574D01*
X194353Y82967D01*
X194481Y83175D01*
X196663D01*
X198544Y81293D01*
X198455Y81138D01*
X198203Y80198D01*
Y79225D01*
X198455Y78285D01*
X198942Y77442D01*
X199630Y76753D01*
X200473Y76267D01*
X201413Y76015D01*
X202387D01*
X203327Y76267D01*
X204170Y76753D01*
X204858Y77442D01*
X205345Y78285D01*
X205597Y79225D01*
Y80198D01*
X205345Y81138D01*
X204858Y81981D01*
X204170Y82670D01*
X203327Y83157D01*
X202387Y83408D01*
X201413D01*
X200473Y83157D01*
X200446Y83141D01*
X198149Y85437D01*
X197719Y85725D01*
X197212Y85826D01*
X193763D01*
X193602Y86426D01*
X194170Y86753D01*
X194858Y87442D01*
X195345Y88285D01*
X195597Y89225D01*
Y90198D01*
X195345Y91138D01*
X194858Y91982D01*
X194565Y92274D01*
X194814Y92874D01*
X196963D01*
X198544Y91293D01*
X198455Y91138D01*
X198203Y90198D01*
Y89225D01*
X198455Y88285D01*
X198942Y87442D01*
X199630Y86753D01*
X200473Y86267D01*
X201413Y86015D01*
X202387D01*
X203327Y86267D01*
X204170Y86753D01*
X204858Y87442D01*
X205345Y88285D01*
X205597Y89225D01*
Y90198D01*
X205345Y91138D01*
X204858Y91982D01*
X204170Y92670D01*
X203327Y93156D01*
X202387Y93409D01*
X201413D01*
X200473Y93156D01*
X200446Y93141D01*
X198449Y95137D01*
X198019Y95425D01*
X197512Y95525D01*
X192879D01*
X192800Y96126D01*
X193327Y96267D01*
X194170Y96753D01*
X194858Y97442D01*
X195345Y98285D01*
X195597Y99225D01*
Y100198D01*
X195345Y101138D01*
X194858Y101981D01*
X194170Y102670D01*
X193642Y102974D01*
X193803Y103575D01*
X196263D01*
X198544Y101293D01*
X198455Y101138D01*
X198203Y100198D01*
Y99225D01*
X198455Y98285D01*
X198942Y97442D01*
X199630Y96753D01*
X200473Y96267D01*
X201413Y96015D01*
X202387D01*
X203327Y96267D01*
X204170Y96753D01*
X204858Y97442D01*
X205345Y98285D01*
X205597Y99225D01*
Y100198D01*
X205345Y101138D01*
X204858Y101981D01*
X204170Y102670D01*
X203327Y103156D01*
X202387Y103409D01*
X201413D01*
X200473Y103156D01*
X200446Y103141D01*
X197749Y105837D01*
X197319Y106125D01*
X196812Y106226D01*
X194456D01*
X194293Y106526D01*
X194242Y106825D01*
X194858Y107442D01*
X195345Y108285D01*
X195597Y109225D01*
Y110198D01*
X195345Y111138D01*
X194858Y111981D01*
X194170Y112670D01*
X193642Y112975D01*
X193803Y113575D01*
X196263D01*
X198544Y111293D01*
X198455Y111138D01*
X198203Y110198D01*
Y109225D01*
X198455Y108285D01*
X198942Y107442D01*
X199630Y106753D01*
X200473Y106267D01*
X201413Y106015D01*
X202387D01*
X203327Y106267D01*
X204170Y106753D01*
X204858Y107442D01*
X205345Y108285D01*
X205597Y109225D01*
Y110198D01*
X205345Y111138D01*
X204858Y111981D01*
X204170Y112670D01*
X203327Y113156D01*
X202387Y113409D01*
X201413D01*
X200473Y113156D01*
X200446Y113141D01*
X197749Y115837D01*
X197319Y116125D01*
X196812Y116226D01*
X194456D01*
X194293Y116526D01*
X194242Y116825D01*
X194858Y117442D01*
X195345Y118285D01*
X195597Y119225D01*
Y120198D01*
X195345Y121139D01*
X194858Y121982D01*
X194170Y122670D01*
X193469Y123074D01*
X193630Y123674D01*
X196163D01*
X198544Y121293D01*
X198455Y121139D01*
X198203Y120198D01*
Y119225D01*
X198455Y118285D01*
X198942Y117442D01*
X199630Y116753D01*
X200473Y116267D01*
X201413Y116015D01*
X202387D01*
X203327Y116267D01*
X204170Y116753D01*
X204858Y117442D01*
X205345Y118285D01*
X205597Y119225D01*
Y120198D01*
X205345Y121139D01*
X204858Y121982D01*
X204170Y122670D01*
X203327Y123156D01*
X202387Y123408D01*
X201413D01*
X200473Y123156D01*
X200446Y123141D01*
X197649Y125937D01*
X197219Y126225D01*
X196712Y126326D01*
X194585D01*
X194342Y126926D01*
X194858Y127442D01*
X195345Y128285D01*
X195597Y129225D01*
Y130198D01*
X195345Y131139D01*
X194858Y131982D01*
X194170Y132670D01*
X193469Y133074D01*
X193630Y133675D01*
X196163D01*
X198544Y131293D01*
X198455Y131139D01*
X198203Y130198D01*
Y129225D01*
X198455Y128285D01*
X198942Y127442D01*
X199630Y126753D01*
X200473Y126267D01*
X201413Y126015D01*
X202387D01*
X203327Y126267D01*
X204170Y126753D01*
X204858Y127442D01*
X205345Y128285D01*
X205597Y129225D01*
Y130198D01*
X205345Y131139D01*
X204858Y131982D01*
X204170Y132670D01*
X203327Y133157D01*
X202387Y133408D01*
X201413D01*
X200473Y133157D01*
X200446Y133141D01*
X197649Y135937D01*
X197219Y136225D01*
X196712Y136326D01*
X194585D01*
X194342Y136925D01*
X194858Y137442D01*
X195345Y138285D01*
X195597Y139225D01*
Y140198D01*
X195345Y141139D01*
X194858Y141981D01*
X194170Y142670D01*
X194162Y142675D01*
X194323Y143274D01*
X196563D01*
X198544Y141293D01*
X198455Y141139D01*
X198203Y140198D01*
Y139225D01*
X198455Y138285D01*
X198942Y137442D01*
X199630Y136753D01*
X200473Y136267D01*
X201413Y136015D01*
X202387D01*
X203327Y136267D01*
X204170Y136753D01*
X204858Y137442D01*
X205345Y138285D01*
X205597Y139225D01*
Y140198D01*
X205345Y141139D01*
X204858Y141981D01*
X204170Y142670D01*
X203327Y143157D01*
X202387Y143409D01*
X201413D01*
X200473Y143157D01*
X200446Y143141D01*
X198049Y145537D01*
X197619Y145825D01*
X197112Y145925D01*
X193936D01*
X193775Y146526D01*
X194170Y146753D01*
X194858Y147442D01*
X195345Y148285D01*
X195597Y149225D01*
Y150198D01*
X195384Y150993D01*
X195901Y151324D01*
X197801Y149424D01*
X198226Y149140D01*
X198455Y148285D01*
X198942Y147442D01*
X199630Y146753D01*
X200473Y146267D01*
X201413Y146015D01*
X202387D01*
X203327Y146267D01*
X204170Y146753D01*
X204858Y147442D01*
X205345Y148285D01*
X205597Y149225D01*
Y150198D01*
X205345Y151138D01*
X204858Y151981D01*
X204170Y152670D01*
X203327Y153156D01*
X202387Y153409D01*
X201413D01*
X200473Y153156D01*
X199630Y152670D01*
X198967Y152007D01*
X195237Y155737D01*
X194807Y156025D01*
X194300Y156125D01*
X194282D01*
X194122Y156726D01*
X194170Y156753D01*
X194858Y157442D01*
X195345Y158285D01*
X195597Y159225D01*
Y160198D01*
X195345Y161138D01*
X194858Y161981D01*
X194365Y162475D01*
X194614Y163075D01*
X196763Y163075D01*
X198544Y161293D01*
X198455Y161138D01*
X198203Y160198D01*
Y159225D01*
X198455Y158285D01*
X198942Y157442D01*
X199630Y156753D01*
X200473Y156267D01*
X201413Y156015D01*
X202387D01*
X203327Y156267D01*
X204170Y156753D01*
X204858Y157442D01*
X205345Y158285D01*
X205597Y159225D01*
Y160198D01*
X205345Y161138D01*
X204858Y161981D01*
X204170Y162670D01*
X203327Y163156D01*
X202387Y163409D01*
X201413D01*
X200473Y163156D01*
X200446Y163141D01*
X198249Y165337D01*
X198249Y165337D01*
X197819Y165625D01*
X197311Y165726D01*
X193532Y165726D01*
X193451Y165940D01*
X193429Y166325D01*
X194170Y166753D01*
X194858Y167442D01*
X195345Y168285D01*
X195597Y169225D01*
Y170198D01*
X195345Y171139D01*
X194858Y171982D01*
X194170Y172670D01*
X193815Y172874D01*
X193976Y173475D01*
X196363D01*
X198544Y171293D01*
X198455Y171139D01*
X198203Y170198D01*
Y169225D01*
X198455Y168285D01*
X198942Y167442D01*
X199630Y166753D01*
X200473Y166267D01*
X201413Y166015D01*
X202387D01*
X203327Y166267D01*
X204170Y166753D01*
X204858Y167442D01*
X205345Y168285D01*
X205597Y169225D01*
Y170198D01*
X205345Y171139D01*
X204858Y171982D01*
X204170Y172670D01*
X203327Y173156D01*
X202387Y173408D01*
X201413D01*
X200473Y173156D01*
X200446Y173141D01*
X198149Y175437D01*
X198420Y176015D01*
X205597D01*
Y183408D01*
X200178D01*
X198840Y184746D01*
X198410Y185033D01*
X197903Y185134D01*
X197638D01*
X197408Y185688D01*
X198195Y186475D01*
X201531D01*
X202039Y186575D01*
X202469Y186863D01*
X202937Y187331D01*
X203225Y187761D01*
X203326Y188269D01*
Y188455D01*
X203327Y188455D01*
X204170Y188942D01*
X204858Y189630D01*
X205345Y190473D01*
X205597Y191413D01*
Y192387D01*
X205345Y193327D01*
X204858Y194170D01*
X204170Y194858D01*
X203327Y195345D01*
X202387Y195597D01*
X201413D01*
X200473Y195345D01*
X199630Y194858D01*
X198942Y194170D01*
X198626Y193622D01*
X198026Y193783D01*
Y196151D01*
X200382Y198508D01*
X200473Y198455D01*
X201413Y198203D01*
X202387D01*
X203327Y198455D01*
X204170Y198942D01*
X204858Y199630D01*
X205345Y200473D01*
X205597Y201413D01*
Y202387D01*
X205345Y203327D01*
X204858Y204170D01*
X204170Y204858D01*
X203327Y205345D01*
X202387Y205597D01*
X201413D01*
X200473Y205345D01*
X199630Y204858D01*
X198942Y204170D01*
X198455Y203327D01*
X198203Y202387D01*
Y201413D01*
X198455Y200473D01*
X198508Y200382D01*
X195763Y197637D01*
X195475Y197207D01*
X195375Y196700D01*
Y194473D01*
X195116Y194321D01*
X194774Y194254D01*
X194170Y194858D01*
X193327Y195345D01*
X192387Y195597D01*
X191413D01*
X190473Y195345D01*
X189630Y194858D01*
X188942Y194170D01*
X188725Y193795D01*
X188126Y193956D01*
Y196251D01*
X190382Y198508D01*
X190473Y198455D01*
X191413Y198203D01*
X192387D01*
X193327Y198455D01*
X194170Y198942D01*
X194858Y199630D01*
X195345Y200473D01*
X195597Y201413D01*
Y202387D01*
X195345Y203327D01*
X194858Y204170D01*
X194170Y204858D01*
X193327Y205345D01*
X192387Y205597D01*
X191413D01*
X190473Y205345D01*
X189630Y204858D01*
X188942Y204170D01*
X188455Y203327D01*
X188203Y202387D01*
Y201413D01*
X188455Y200473D01*
X188508Y200382D01*
X185863Y197737D01*
X185575Y197307D01*
X185475Y196800D01*
Y194302D01*
X184874Y194142D01*
X184858Y194170D01*
X184170Y194858D01*
X183327Y195345D01*
X182387Y195597D01*
X181413D01*
X180473Y195345D01*
X179630Y194858D01*
X178942Y194170D01*
X178825Y193968D01*
X178226Y194129D01*
Y196351D01*
X180382Y198508D01*
X180473Y198455D01*
X181413Y198203D01*
X182387D01*
X183327Y198455D01*
X184170Y198942D01*
X184858Y199630D01*
X185345Y200473D01*
X185597Y201413D01*
Y202387D01*
X185345Y203327D01*
X184858Y204170D01*
X184170Y204858D01*
X183327Y205345D01*
X182387Y205597D01*
X181413D01*
X180473Y205345D01*
X179630Y204858D01*
X178942Y204170D01*
X178455Y203327D01*
X178203Y202387D01*
Y201413D01*
X178455Y200473D01*
X178508Y200382D01*
X175963Y197837D01*
X175675Y197407D01*
X175575Y196900D01*
Y194129D01*
X174975Y193968D01*
X174858Y194170D01*
X174170Y194858D01*
X173327Y195345D01*
X172387Y195597D01*
X171413D01*
X170473Y195345D01*
X169630Y194858D01*
X168942Y194170D01*
X168825Y193968D01*
X168226Y194129D01*
Y196351D01*
X170382Y198508D01*
X170473Y198455D01*
X171413Y198203D01*
X172387D01*
X173327Y198455D01*
X174170Y198942D01*
X174858Y199630D01*
X175345Y200473D01*
X175597Y201413D01*
Y202387D01*
X175345Y203327D01*
X174858Y204170D01*
X174170Y204858D01*
X173327Y205345D01*
X172387Y205597D01*
X171413D01*
X170473Y205345D01*
X169630Y204858D01*
X168942Y204170D01*
X168455Y203327D01*
X168203Y202387D01*
Y201413D01*
X168455Y200473D01*
X168508Y200382D01*
X165963Y197837D01*
X165675Y197407D01*
X165575Y196900D01*
Y194129D01*
X164974Y193968D01*
X164858Y194170D01*
X164170Y194858D01*
X163327Y195345D01*
X162387Y195597D01*
X161413D01*
X160473Y195345D01*
X159630Y194858D01*
X158942Y194170D01*
X158826Y193968D01*
X158226Y194129D01*
Y196351D01*
X160382Y198508D01*
X160473Y198455D01*
X161413Y198203D01*
X162387D01*
X163327Y198455D01*
X164170Y198942D01*
X164858Y199630D01*
X165345Y200473D01*
X165597Y201413D01*
Y202387D01*
X165345Y203327D01*
X164858Y204170D01*
X164170Y204858D01*
X163327Y205345D01*
X162387Y205597D01*
X161413D01*
X160473Y205345D01*
X159630Y204858D01*
X158942Y204170D01*
X158455Y203327D01*
X158203Y202387D01*
Y201413D01*
X158455Y200473D01*
X158508Y200382D01*
X155963Y197837D01*
X155675Y197407D01*
X155575Y196900D01*
Y194129D01*
X154974Y193968D01*
X154858Y194170D01*
X154170Y194858D01*
X153327Y195345D01*
X152387Y195597D01*
X151413D01*
X150473Y195345D01*
X149630Y194858D01*
X149025Y194254D01*
X148684Y194321D01*
X148425Y194473D01*
Y196551D01*
X150382Y198508D01*
X150473Y198455D01*
X151413Y198203D01*
X152387D01*
X153327Y198455D01*
X154170Y198942D01*
X154858Y199630D01*
X155345Y200473D01*
X155597Y201413D01*
Y202387D01*
X155345Y203327D01*
X154858Y204170D01*
X154170Y204858D01*
X153327Y205345D01*
X152387Y205597D01*
X151413D01*
X150473Y205345D01*
X149630Y204858D01*
X148942Y204170D01*
X148455Y203327D01*
X148203Y202387D01*
Y201413D01*
X148455Y200473D01*
X148508Y200382D01*
X146163Y198037D01*
X145875Y197607D01*
X145774Y197100D01*
Y193783D01*
X145175Y193622D01*
X144858Y194170D01*
X144170Y194858D01*
X143327Y195345D01*
X142387Y195597D01*
X141413D01*
X140473Y195345D01*
X139630Y194858D01*
X138942Y194170D01*
X138725Y193795D01*
X138126Y193956D01*
Y196251D01*
X140382Y198508D01*
X140473Y198455D01*
X141413Y198203D01*
X142387D01*
X143327Y198455D01*
X144170Y198942D01*
X144858Y199630D01*
X145345Y200473D01*
X145597Y201413D01*
Y202387D01*
X145345Y203327D01*
X144858Y204170D01*
X144170Y204858D01*
X143327Y205345D01*
X142387Y205597D01*
X141413D01*
X140473Y205345D01*
X139630Y204858D01*
X138942Y204170D01*
X138455Y203327D01*
X138203Y202387D01*
Y201413D01*
X138455Y200473D01*
X138508Y200382D01*
X136104Y197978D01*
X135597Y198320D01*
Y205597D01*
X128203D01*
Y200078D01*
X120351Y192226D01*
X118354D01*
X117847Y192125D01*
X117417Y191837D01*
X113605Y188025D01*
X104683D01*
X104522Y188626D01*
X105070Y188942D01*
X105758Y189630D01*
X106245Y190473D01*
X106497Y191413D01*
Y192387D01*
X106245Y193327D01*
X105758Y194170D01*
X105070Y194858D01*
X104227Y195345D01*
X103287Y195597D01*
X102313D01*
X101373Y195345D01*
X101346Y195329D01*
X99737Y196937D01*
X99571Y197048D01*
X99438Y197764D01*
X100585Y198910D01*
X101373Y198455D01*
X102313Y198203D01*
X103287D01*
X104227Y198455D01*
X105070Y198942D01*
X105758Y199630D01*
X106245Y200473D01*
X106497Y201413D01*
Y202387D01*
X106245Y203327D01*
X105758Y204170D01*
X105454Y204474D01*
X105702Y205075D01*
X107751D01*
X109408Y203418D01*
X109355Y203327D01*
X109103Y202387D01*
Y201413D01*
X109355Y200473D01*
X109842Y199630D01*
X110530Y198942D01*
X111373Y198455D01*
X112313Y198203D01*
X113287D01*
X114227Y198455D01*
X115070Y198942D01*
X115758Y199630D01*
X116245Y200473D01*
X116497Y201413D01*
Y202387D01*
X116245Y203327D01*
X115758Y204170D01*
X115070Y204858D01*
X114227Y205345D01*
X113287Y205597D01*
X112313D01*
X111373Y205345D01*
X111282Y205292D01*
X110129Y206446D01*
X110358Y207000D01*
X207000D01*
Y22258D01*
D02*
G37*
G36*
X135736Y197891D02*
X135841Y197704D01*
X135575Y197307D01*
X135475Y196800D01*
Y194302D01*
X134874Y194142D01*
X134858Y194170D01*
X134170Y194858D01*
X133327Y195345D01*
X132387Y195597D01*
X131413D01*
X130473Y195345D01*
X129630Y194858D01*
X128942Y194170D01*
X128455Y193327D01*
X128355Y192954D01*
X128065Y192896D01*
X127635Y192609D01*
X125451Y190426D01*
X123084D01*
X122854Y190980D01*
X130078Y198203D01*
X135480D01*
X135736Y197891D01*
D02*
G37*
G36*
X86074Y195752D02*
X85905Y195356D01*
X85777Y195200D01*
X84962D01*
X84154Y194865D01*
X83535Y194246D01*
X83200Y193438D01*
Y192575D01*
X82351Y191726D01*
X80649D01*
X75900Y196475D01*
X76148Y197074D01*
X84751D01*
X86074Y195752D01*
D02*
G37*
G36*
X87700Y194675D02*
X89589D01*
X89787Y194074D01*
X89355Y193327D01*
X89103Y192387D01*
Y191413D01*
X89355Y190473D01*
X89842Y189630D01*
X90530Y188942D01*
X91078Y188626D01*
X90917Y188025D01*
X78100D01*
X77593Y187925D01*
X77163Y187637D01*
X69880Y180354D01*
X69326Y180584D01*
Y185240D01*
X69225Y185748D01*
X68937Y186178D01*
X62068Y193046D01*
X62209Y193754D01*
X62646Y193935D01*
X63186Y194474D01*
X74151D01*
X79163Y189463D01*
X79593Y189175D01*
X80100Y189075D01*
X82900D01*
X83407Y189175D01*
X83837Y189463D01*
X85175Y190800D01*
X85838D01*
X86646Y191135D01*
X87265Y191754D01*
X87600Y192562D01*
Y193438D01*
X87309Y194141D01*
X87485Y194474D01*
X87682Y194678D01*
X87700Y194675D01*
D02*
G37*
G36*
X175575Y189671D02*
Y188595D01*
X173105Y186126D01*
X170594D01*
X170087Y186025D01*
X169657Y185737D01*
X158145Y174225D01*
X156884D01*
X156654Y174780D01*
X170382Y188508D01*
X170473Y188455D01*
X171413Y188203D01*
X172387D01*
X173327Y188455D01*
X174170Y188942D01*
X174858Y189630D01*
X174975Y189831D01*
X175575Y189671D01*
D02*
G37*
G36*
X150473Y188455D02*
X151413Y188203D01*
X152387D01*
X153135Y188404D01*
X153446Y187866D01*
X147005Y181425D01*
X144084D01*
X143854Y181980D01*
X150382Y188508D01*
X150473Y188455D01*
D02*
G37*
G36*
X81840Y206446D02*
X80520Y205125D01*
X57779D01*
X57272Y205025D01*
X56842Y204737D01*
X52463Y200358D01*
X52175Y199928D01*
X52074Y199421D01*
Y192486D01*
X52175Y191979D01*
X52463Y191549D01*
X61255Y182757D01*
Y181911D01*
X59083Y179740D01*
X58603Y180108D01*
X58982Y180765D01*
X59200Y181579D01*
Y182421D01*
X58982Y183235D01*
X58561Y183965D01*
X57965Y184561D01*
X57235Y184982D01*
X56421Y185200D01*
X55579D01*
X54765Y184982D01*
X54035Y184561D01*
X54000Y184526D01*
X53965Y184561D01*
X53235Y184982D01*
X52421Y185200D01*
X51579D01*
X50765Y184982D01*
X50035Y184561D01*
X49439Y183965D01*
X49018Y183235D01*
X48800Y182421D01*
Y181579D01*
X49018Y180765D01*
X49439Y180035D01*
X49646Y179828D01*
X49661Y178994D01*
X26910Y156244D01*
X26400Y155479D01*
X26220Y154577D01*
X26220Y154577D01*
Y122733D01*
X25724Y122447D01*
X25128Y121851D01*
X24707Y121121D01*
X24488Y120307D01*
Y119465D01*
X24707Y118651D01*
X25128Y117921D01*
X25724Y117325D01*
X26453Y116904D01*
X27267Y116686D01*
X28110D01*
X28924Y116904D01*
X29289Y117115D01*
X29653Y116904D01*
X30467Y116686D01*
X31310D01*
X32124Y116904D01*
X32853Y117325D01*
X33449Y117921D01*
X33870Y118651D01*
X34089Y119465D01*
Y120307D01*
X33870Y121121D01*
X33449Y121851D01*
X32853Y122447D01*
X32357Y122733D01*
Y153011D01*
X38975Y159629D01*
X39575Y159381D01*
Y126944D01*
X39676Y126437D01*
X39963Y126007D01*
X50274Y115695D01*
Y104323D01*
X50375Y103816D01*
X50663Y103386D01*
X51375Y102674D01*
Y99824D01*
X47263Y95712D01*
X46975Y95282D01*
X46874Y94775D01*
Y91725D01*
X45820D01*
X45419Y92326D01*
X45600Y92762D01*
Y93638D01*
X45265Y94446D01*
X44646Y95065D01*
X43838Y95400D01*
X42962D01*
X42154Y95065D01*
X41535Y94446D01*
X41200Y93638D01*
Y92762D01*
X41381Y92326D01*
X40980Y91725D01*
X32874D01*
X32865Y91746D01*
X32246Y92365D01*
X31438Y92700D01*
X30562D01*
X29754Y92365D01*
X29135Y91746D01*
X28800Y90938D01*
Y90062D01*
X29135Y89254D01*
X29754Y88635D01*
X30562Y88300D01*
X31438D01*
X32246Y88635D01*
X32686Y89074D01*
X46874D01*
Y60600D01*
X46975Y60093D01*
X47263Y59663D01*
X68963Y37963D01*
X69393Y37675D01*
X69900Y37574D01*
X86451D01*
X86600Y37426D01*
Y36662D01*
X86935Y35854D01*
X87475Y35314D01*
Y22749D01*
X86163Y21437D01*
X85875Y21007D01*
X85774Y20500D01*
Y19806D01*
X85175Y19645D01*
X84858Y20193D01*
X84170Y20881D01*
X83327Y21368D01*
X82387Y21620D01*
X81413D01*
X80473Y21368D01*
X79630Y20881D01*
X78942Y20193D01*
X78455Y19350D01*
X78203Y18410D01*
Y17436D01*
X78455Y16496D01*
X78942Y15653D01*
X79630Y14965D01*
X80473Y14478D01*
X81413Y14226D01*
X82387D01*
X83327Y14478D01*
X84170Y14965D01*
X84858Y15653D01*
X85175Y16201D01*
X85774Y16040D01*
Y11800D01*
X85875Y11293D01*
X86163Y10863D01*
X88290Y8735D01*
X88203Y8410D01*
Y7436D01*
X88455Y6496D01*
X88942Y5653D01*
X89630Y4965D01*
X90473Y4478D01*
X91413Y4226D01*
X92387D01*
X93327Y4478D01*
X94170Y4965D01*
X94858Y5653D01*
X95345Y6496D01*
X95597Y7436D01*
Y8410D01*
X95345Y9350D01*
X94858Y10193D01*
X94170Y10881D01*
X93327Y11368D01*
X92387Y11620D01*
X91413D01*
X90473Y11368D01*
X89797Y10978D01*
X88425Y12349D01*
Y15351D01*
X88684Y15502D01*
X89025Y15570D01*
X89630Y14965D01*
X90473Y14478D01*
X91413Y14226D01*
X92387D01*
X93327Y14478D01*
X94170Y14965D01*
X94858Y15653D01*
X95345Y16496D01*
X95597Y17436D01*
Y18410D01*
X95345Y19350D01*
X95329Y19378D01*
X95743Y19792D01*
X96298Y19563D01*
Y15477D01*
X96399Y14970D01*
X96686Y14539D01*
X99734Y11491D01*
X99656Y10896D01*
X99630Y10881D01*
X98942Y10193D01*
X98455Y9350D01*
X98203Y8410D01*
Y7436D01*
X98455Y6496D01*
X98942Y5653D01*
X99630Y4965D01*
X100473Y4478D01*
X101413Y4226D01*
X102387D01*
X103327Y4478D01*
X104170Y4965D01*
X104858Y5653D01*
X105345Y6496D01*
X105597Y7436D01*
Y8410D01*
X105345Y9350D01*
X104858Y10193D01*
X104170Y10881D01*
X103327Y11368D01*
X103056Y11441D01*
X102973Y11859D01*
X102686Y12289D01*
X102337Y12637D01*
X102337Y12637D01*
X101302Y13672D01*
X101597Y14226D01*
X102387D01*
X103327Y14478D01*
X104170Y14965D01*
X104858Y15653D01*
X105345Y16496D01*
X105474Y16980D01*
X106075Y16901D01*
Y12523D01*
X106175Y12016D01*
X106463Y11586D01*
X108544Y9505D01*
X108455Y9350D01*
X108203Y8410D01*
Y7436D01*
X108455Y6496D01*
X108942Y5653D01*
X109630Y4965D01*
X110473Y4478D01*
X111413Y4226D01*
X112387D01*
X113327Y4478D01*
X114170Y4965D01*
X114858Y5653D01*
X115345Y6496D01*
X115597Y7436D01*
Y8410D01*
X115345Y9350D01*
X114858Y10193D01*
X114170Y10881D01*
X113327Y11368D01*
X112387Y11620D01*
X111413D01*
X110473Y11368D01*
X110445Y11352D01*
X108726Y13072D01*
Y15021D01*
X109326Y15270D01*
X109630Y14965D01*
X110473Y14478D01*
X111413Y14226D01*
X112387D01*
X113327Y14478D01*
X114170Y14965D01*
X114858Y15653D01*
X115345Y16496D01*
X115474Y16980D01*
X116075Y16901D01*
Y10874D01*
X116175Y10366D01*
X116175Y10366D01*
X116463Y9936D01*
X116697Y9702D01*
X118203Y8196D01*
Y7436D01*
X118455Y6496D01*
X118942Y5653D01*
X119630Y4965D01*
X120473Y4478D01*
X121413Y4226D01*
X122387D01*
X123327Y4478D01*
X124170Y4965D01*
X124858Y5653D01*
X125345Y6496D01*
X125597Y7436D01*
Y8410D01*
X125345Y9350D01*
X124858Y10193D01*
X124170Y10881D01*
X123327Y11368D01*
X122387Y11620D01*
X121413D01*
X120473Y11368D01*
X119630Y10881D01*
X119448Y10700D01*
X118726Y11423D01*
Y15021D01*
X119325Y15270D01*
X119630Y14965D01*
X120473Y14478D01*
X121413Y14226D01*
X122387D01*
X123327Y14478D01*
X124170Y14965D01*
X124858Y15653D01*
X124874Y15682D01*
X125475Y15521D01*
Y14000D01*
X125575Y13493D01*
X125863Y13063D01*
X126350Y12576D01*
X126350Y12576D01*
X128865Y10060D01*
X128455Y9350D01*
X128203Y8410D01*
Y7436D01*
X128455Y6496D01*
X128942Y5653D01*
X129630Y4965D01*
X130473Y4478D01*
X131413Y4226D01*
X132387D01*
X133327Y4478D01*
X134170Y4965D01*
X134858Y5653D01*
X135345Y6496D01*
X135597Y7436D01*
Y8410D01*
X135345Y9350D01*
X134858Y10193D01*
X134170Y10881D01*
X133327Y11368D01*
X132387Y11620D01*
X131413D01*
X131130Y11544D01*
X128224Y14450D01*
X128224Y14450D01*
X128126Y14549D01*
Y15867D01*
X128726Y16028D01*
X128942Y15653D01*
X129630Y14965D01*
X130473Y14478D01*
X131413Y14226D01*
X132387D01*
X133327Y14478D01*
X134170Y14965D01*
X134858Y15653D01*
X134975Y15855D01*
X135574Y15694D01*
Y13023D01*
X135675Y12516D01*
X135963Y12086D01*
X138544Y9505D01*
X138455Y9350D01*
X138203Y8410D01*
Y7436D01*
X138455Y6496D01*
X138942Y5653D01*
X139630Y4965D01*
X140473Y4478D01*
X141413Y4226D01*
X142387D01*
X143327Y4478D01*
X144170Y4965D01*
X144858Y5653D01*
X145345Y6496D01*
X145597Y7436D01*
Y8410D01*
X145345Y9350D01*
X144858Y10193D01*
X144170Y10881D01*
X143327Y11368D01*
X142387Y11620D01*
X141413D01*
X140473Y11368D01*
X140445Y11352D01*
X138225Y13572D01*
Y15694D01*
X138826Y15855D01*
X138942Y15653D01*
X139630Y14965D01*
X140473Y14478D01*
X141413Y14226D01*
X142387D01*
X143327Y14478D01*
X144170Y14965D01*
X144858Y15653D01*
X145074Y16028D01*
X145675Y15867D01*
Y12923D01*
X145775Y12416D01*
X146063Y11986D01*
X148544Y9505D01*
X148455Y9350D01*
X148203Y8410D01*
Y7436D01*
X148455Y6496D01*
X148942Y5653D01*
X149630Y4965D01*
X150473Y4478D01*
X151413Y4226D01*
X152387D01*
X153327Y4478D01*
X154170Y4965D01*
X154858Y5653D01*
X155345Y6496D01*
X155597Y7436D01*
Y8410D01*
X155345Y9350D01*
X154858Y10193D01*
X154170Y10881D01*
X153327Y11368D01*
X152387Y11620D01*
X151413D01*
X150473Y11368D01*
X150445Y11352D01*
X148326Y13472D01*
Y15521D01*
X148925Y15682D01*
X148942Y15653D01*
X149630Y14965D01*
X150473Y14478D01*
X151413Y14226D01*
X152387D01*
X153327Y14478D01*
X154170Y14965D01*
X154858Y15653D01*
X155345Y16496D01*
X155375Y16607D01*
X155974Y16528D01*
Y12300D01*
X156075Y11793D01*
X156363Y11363D01*
X158438Y9287D01*
X158203Y8410D01*
Y7436D01*
X158455Y6496D01*
X158942Y5653D01*
X159630Y4965D01*
X160473Y4478D01*
X161413Y4226D01*
X162387D01*
X163327Y4478D01*
X164170Y4965D01*
X164858Y5653D01*
X165345Y6496D01*
X165597Y7436D01*
Y8410D01*
X165345Y9350D01*
X164858Y10193D01*
X164170Y10881D01*
X163327Y11368D01*
X162387Y11620D01*
X161413D01*
X160473Y11368D01*
X160241Y11234D01*
X158625Y12849D01*
Y15121D01*
X159225Y15370D01*
X159630Y14965D01*
X160473Y14478D01*
X161413Y14226D01*
X162387D01*
X163327Y14478D01*
X164170Y14965D01*
X164575Y15370D01*
X165174Y15121D01*
Y13423D01*
X165275Y12916D01*
X165563Y12486D01*
X168544Y9505D01*
X168455Y9350D01*
X168203Y8410D01*
Y7436D01*
X168455Y6496D01*
X168942Y5653D01*
X169630Y4965D01*
X170473Y4478D01*
X171413Y4226D01*
X172387D01*
X173327Y4478D01*
X174170Y4965D01*
X174858Y5653D01*
X175345Y6496D01*
X175597Y7436D01*
Y8410D01*
X175345Y9350D01*
X174858Y10193D01*
X174170Y10881D01*
X173327Y11368D01*
X172387Y11620D01*
X171413D01*
X170473Y11368D01*
X170446Y11352D01*
X167825Y13972D01*
Y16528D01*
X168426Y16607D01*
X168455Y16496D01*
X168942Y15653D01*
X169630Y14965D01*
X170473Y14478D01*
X171413Y14226D01*
X172387D01*
X173327Y14478D01*
X174170Y14965D01*
X174858Y15653D01*
X175174Y16201D01*
X175775Y16040D01*
Y12823D01*
X175875Y12316D01*
X176163Y11886D01*
X178544Y9505D01*
X178455Y9350D01*
X178203Y8410D01*
Y7436D01*
X178455Y6496D01*
X178942Y5653D01*
X179630Y4965D01*
X180473Y4478D01*
X181413Y4226D01*
X182387D01*
X183327Y4478D01*
X184170Y4965D01*
X184858Y5653D01*
X185345Y6496D01*
X185597Y7436D01*
Y8410D01*
X185345Y9350D01*
X184858Y10193D01*
X184170Y10881D01*
X183327Y11368D01*
X182387Y11620D01*
X181413D01*
X180473Y11368D01*
X180446Y11352D01*
X178426Y13372D01*
Y15351D01*
X178684Y15502D01*
X179025Y15570D01*
X179630Y14965D01*
X180473Y14478D01*
X181413Y14226D01*
X182387D01*
X183327Y14478D01*
X184170Y14965D01*
X184858Y15653D01*
X185345Y16496D01*
X185597Y17436D01*
Y18410D01*
X185345Y19350D01*
X184858Y20193D01*
X184170Y20881D01*
X183327Y21368D01*
X182387Y21620D01*
X181413D01*
X180473Y21368D01*
X179630Y20881D01*
X179534Y20786D01*
X173225Y27095D01*
Y31437D01*
X173125Y31944D01*
X172837Y32374D01*
X158266Y46946D01*
X158407Y47653D01*
X158846Y47835D01*
X159465Y48454D01*
X159800Y49262D01*
Y50138D01*
X159797Y50146D01*
X160097Y50807D01*
X160646Y51035D01*
X161265Y51654D01*
X161600Y52462D01*
Y53338D01*
X161265Y54146D01*
X160725Y54686D01*
Y57334D01*
X160625Y57841D01*
X160337Y58271D01*
X159625Y58983D01*
Y68600D01*
X159525Y69107D01*
X159237Y69537D01*
X153684Y75090D01*
X153254Y75378D01*
X152747Y75478D01*
X152433D01*
X151846Y76065D01*
X151038Y76400D01*
X150162D01*
X149354Y76065D01*
X148800Y75511D01*
X148246Y76065D01*
X147438Y76400D01*
X146562D01*
X146038Y76798D01*
Y76902D01*
X146535Y77279D01*
X146599Y77300D01*
X147438D01*
X148246Y77635D01*
X148800Y78189D01*
X149354Y77635D01*
X150162Y77300D01*
X151038D01*
X151846Y77635D01*
X152386Y78175D01*
X152451D01*
X153763Y76863D01*
X154193Y76575D01*
X154700Y76474D01*
X165745D01*
X165875Y76342D01*
X166143Y75875D01*
X166075Y75531D01*
Y74886D01*
X165535Y74346D01*
X165200Y73538D01*
Y72662D01*
X165535Y71854D01*
X166154Y71235D01*
X166962Y70900D01*
X167500D01*
X167749Y70300D01*
X167349Y69900D01*
X167162D01*
X166354Y69565D01*
X165735Y68946D01*
X165400Y68138D01*
Y67262D01*
X165735Y66454D01*
X166354Y65835D01*
X167162Y65500D01*
X168038D01*
X168846Y65835D01*
X169300Y66289D01*
X169754Y65835D01*
X170562Y65500D01*
X171438D01*
X171877Y65682D01*
X172874Y64684D01*
Y62222D01*
X172975Y61714D01*
X173263Y61284D01*
X176363Y58184D01*
Y37320D01*
X176464Y36813D01*
X176751Y36383D01*
X181974Y31160D01*
Y25909D01*
X182075Y25402D01*
X182363Y24972D01*
X188356Y18979D01*
X188203Y18410D01*
Y17436D01*
X188455Y16496D01*
X188942Y15653D01*
X189630Y14965D01*
X190473Y14478D01*
X191413Y14226D01*
X192387D01*
X193327Y14478D01*
X194170Y14965D01*
X194858Y15653D01*
X194875Y15682D01*
X195475Y15521D01*
Y13272D01*
X193481Y11279D01*
X193327Y11368D01*
X192387Y11620D01*
X191413D01*
X190473Y11368D01*
X189630Y10881D01*
X188942Y10193D01*
X188455Y9350D01*
X188203Y8410D01*
Y7436D01*
X188455Y6496D01*
X188942Y5653D01*
X189630Y4965D01*
X190473Y4478D01*
X191413Y4226D01*
X192387D01*
X193327Y4478D01*
X194170Y4965D01*
X194858Y5653D01*
X195345Y6496D01*
X195597Y7436D01*
Y8410D01*
X195345Y9350D01*
X195329Y9378D01*
X197737Y11786D01*
X198025Y12216D01*
X198126Y12723D01*
X198126Y12723D01*
Y15867D01*
X198725Y16028D01*
X198942Y15653D01*
X199630Y14965D01*
X200473Y14478D01*
X201413Y14226D01*
X202387D01*
X203327Y14478D01*
X204170Y14965D01*
X204774Y15570D01*
X205116Y15502D01*
X205375Y15351D01*
Y13172D01*
X203481Y11279D01*
X203327Y11368D01*
X202387Y11620D01*
X201413D01*
X200473Y11368D01*
X199630Y10881D01*
X198942Y10193D01*
X198455Y9350D01*
X198203Y8410D01*
Y7436D01*
X198455Y6496D01*
X198942Y5653D01*
X199630Y4965D01*
X200473Y4478D01*
X201413Y4226D01*
X202387D01*
X203327Y4478D01*
X204170Y4965D01*
X204858Y5653D01*
X205345Y6496D01*
X205597Y7436D01*
Y8410D01*
X205345Y9350D01*
X205329Y9378D01*
X206446Y10494D01*
X207000Y10265D01*
Y3000D01*
X3000D01*
Y129000D01*
X6000Y132000D01*
Y163900D01*
X3000Y166800D01*
Y207000D01*
X81610D01*
X81840Y206446D01*
D02*
G37*
G36*
X160473Y188455D02*
X161413Y188203D01*
X162387D01*
X163135Y188404D01*
X163446Y187866D01*
X153405Y177825D01*
X150484D01*
X150254Y178380D01*
X160382Y188508D01*
X160473Y188455D01*
D02*
G37*
G36*
X181068Y187791D02*
X181265Y187140D01*
X178767Y184642D01*
X178480Y184212D01*
X178379Y183704D01*
Y179627D01*
X169378Y170625D01*
X161623D01*
X161394Y171180D01*
X171888Y181675D01*
X174400D01*
X174907Y181775D01*
X175337Y182063D01*
X181066Y187791D01*
X181068Y187791D01*
D02*
G37*
G36*
X188203Y169580D02*
Y169225D01*
X188455Y168285D01*
X188942Y167442D01*
X188954Y167429D01*
X183063Y161537D01*
X182775Y161107D01*
X182675Y160600D01*
Y156886D01*
X180763Y154974D01*
X180475Y154544D01*
X180375Y154037D01*
Y150143D01*
X175057Y144825D01*
X160114D01*
X158526Y146414D01*
Y151200D01*
X158425Y151707D01*
X158137Y152137D01*
X155037Y155237D01*
X154607Y155525D01*
X154100Y155625D01*
X149223D01*
X148716Y155525D01*
X148286Y155237D01*
X147174Y154125D01*
X146897Y154157D01*
X146677Y154786D01*
X149066Y157175D01*
X174400D01*
X174907Y157275D01*
X175337Y157563D01*
X187603Y169829D01*
X188203Y169580D01*
D02*
G37*
G36*
X140136Y174620D02*
X134141Y168625D01*
X87800D01*
X87293Y168525D01*
X86863Y168237D01*
X80305Y161680D01*
X79337D01*
X78829Y161579D01*
X78399Y161292D01*
X72163Y155055D01*
X72163Y155055D01*
X70963Y153855D01*
X70675Y153425D01*
X70574Y152918D01*
Y149223D01*
X70675Y148716D01*
X70963Y148286D01*
X72300Y146949D01*
Y146462D01*
X72635Y145654D01*
X73254Y145035D01*
X74062Y144700D01*
X74938D01*
X75746Y145035D01*
X76365Y145654D01*
X76700Y146462D01*
Y146722D01*
X77300Y146997D01*
X77600Y146765D01*
Y146462D01*
X77935Y145654D01*
X78554Y145035D01*
X79362Y144700D01*
X80238D01*
X81046Y145035D01*
X81665Y145654D01*
X82000Y146462D01*
Y146622D01*
X82600Y146897D01*
X82900Y146665D01*
Y146462D01*
X83235Y145654D01*
X83854Y145035D01*
X84662Y144700D01*
X85538D01*
X86346Y145035D01*
X86965Y145654D01*
X87300Y146462D01*
Y146522D01*
X87900Y146797D01*
X88200Y146565D01*
Y146462D01*
X88535Y145654D01*
X89154Y145035D01*
X89962Y144700D01*
X90838D01*
X91646Y145035D01*
X92265Y145654D01*
X92600Y146462D01*
Y146722D01*
X93200Y146997D01*
X93500Y146765D01*
Y146462D01*
X93835Y145654D01*
X94454Y145035D01*
X95262Y144700D01*
X96138D01*
X96946Y145035D01*
X97565Y145654D01*
X97900Y146462D01*
Y147338D01*
X97565Y148146D01*
X97111Y148600D01*
X97565Y149054D01*
X97900Y149862D01*
Y149975D01*
X141317D01*
X141824Y150075D01*
X142254Y150363D01*
X144146Y152254D01*
X144166Y152250D01*
X144700Y151960D01*
Y151262D01*
X145035Y150454D01*
X145654Y149835D01*
X146462Y149500D01*
X146722D01*
X146997Y148900D01*
X146765Y148600D01*
X146462D01*
X145654Y148265D01*
X145035Y147646D01*
X144700Y146838D01*
Y145962D01*
X145035Y145154D01*
X145654Y144535D01*
X146462Y144200D01*
X147338D01*
X147543Y143646D01*
X147231Y143437D01*
X147094Y143300D01*
X146462D01*
X145654Y142965D01*
X145035Y142346D01*
X144700Y141538D01*
Y140662D01*
X145035Y139854D01*
X145654Y139235D01*
X146462Y138900D01*
X146542D01*
X146771Y138346D01*
X146399Y137974D01*
X145654Y137665D01*
X145035Y137046D01*
X144700Y136238D01*
Y135362D01*
X145035Y134554D01*
X145654Y133935D01*
X146119Y133742D01*
X146271Y133046D01*
X146210Y132984D01*
X145923Y132554D01*
X145906Y132469D01*
X145654Y132365D01*
X145035Y131746D01*
X144700Y130938D01*
Y130062D01*
X145035Y129254D01*
X145654Y128635D01*
X145907Y128530D01*
X146048Y127822D01*
X145910Y127684D01*
X145623Y127254D01*
X145566Y126970D01*
X145554Y126965D01*
X144935Y126346D01*
X144600Y125538D01*
Y124662D01*
X144935Y123854D01*
X145554Y123235D01*
X146362Y122900D01*
X146738D01*
X147013Y122305D01*
X146777Y122000D01*
X146462D01*
X145654Y121665D01*
X145035Y121046D01*
X144700Y120238D01*
Y119362D01*
X145035Y118554D01*
X145654Y117935D01*
X146462Y117600D01*
X146622D01*
X146897Y117000D01*
X146665Y116700D01*
X146462D01*
X145654Y116365D01*
X145035Y115746D01*
X144700Y114938D01*
Y114062D01*
X145035Y113254D01*
X145654Y112635D01*
X146462Y112300D01*
X147338D01*
X148146Y112635D01*
X148600Y113089D01*
X149054Y112635D01*
X149558Y112426D01*
X149726Y111746D01*
X148605Y110625D01*
X137226D01*
X134914Y112937D01*
X134484Y113225D01*
X133977Y113326D01*
X131313D01*
X130806Y113225D01*
X130376Y112937D01*
X129242Y111804D01*
X128827Y112002D01*
X128700Y112110D01*
Y112938D01*
X128526Y113356D01*
X128807Y113637D01*
X129142Y114445D01*
Y115321D01*
X128807Y116129D01*
X128188Y116748D01*
X127380Y117083D01*
X126504D01*
X125696Y116748D01*
X125176Y116228D01*
X125133Y116246D01*
X124258D01*
X123449Y115911D01*
X122830Y115292D01*
X122495Y114483D01*
Y113608D01*
X122830Y112800D01*
X123449Y112181D01*
X124258Y111846D01*
X124390D01*
X124635Y111254D01*
X125254Y110635D01*
X126062Y110300D01*
X126366D01*
X126767Y109700D01*
X126700Y109538D01*
Y108662D01*
X127035Y107854D01*
X127072Y107817D01*
X126996Y107044D01*
X126986Y107037D01*
X122049Y102100D01*
X121562D01*
X120754Y101765D01*
X120135Y101146D01*
X119800Y100338D01*
Y99462D01*
X119898Y99225D01*
X119497Y98625D01*
X112563D01*
X111351Y99837D01*
X110921Y100125D01*
X110414Y100225D01*
X101341D01*
X100833Y100125D01*
X100403Y99837D01*
X92180Y91614D01*
X91625Y91843D01*
Y95174D01*
X94337Y97886D01*
X94625Y98316D01*
X94726Y98823D01*
Y100977D01*
X94661Y101300D01*
X95044Y101704D01*
X95136Y101752D01*
X95262Y101700D01*
X96138D01*
X96946Y102035D01*
X97565Y102654D01*
X97900Y103462D01*
Y104338D01*
X97565Y105146D01*
X97104Y105608D01*
X97155Y105732D01*
Y106607D01*
X96820Y107415D01*
X96201Y108034D01*
X95393Y108369D01*
X94517D01*
X93709Y108034D01*
X93090Y107415D01*
X92755Y106607D01*
Y106599D01*
X92163Y106354D01*
X91545Y105735D01*
X91210Y104926D01*
Y104051D01*
X91059Y103825D01*
X89723D01*
X89216Y103725D01*
X88786Y103437D01*
X87449Y102100D01*
X86962D01*
X86154Y101765D01*
X85700Y101311D01*
X85246Y101765D01*
X84438Y102100D01*
X83562D01*
X82754Y101765D01*
X82184Y101196D01*
X81615Y101765D01*
X80806Y102100D01*
X79931D01*
X79123Y101765D01*
X78504Y101146D01*
X78169Y100338D01*
Y99462D01*
X78504Y98654D01*
X79123Y98035D01*
X79931Y97700D01*
X80649D01*
X83574Y94774D01*
Y77631D01*
X78269Y72325D01*
X65986D01*
X65479Y72225D01*
X65049Y71937D01*
X58163Y65051D01*
X57875Y64621D01*
X57775Y64114D01*
Y56230D01*
X57220Y56000D01*
X53225Y59995D01*
Y63414D01*
X53765Y63954D01*
X54100Y64762D01*
Y65638D01*
X53765Y66446D01*
X53146Y67065D01*
X52338Y67400D01*
X51462D01*
X50654Y67065D01*
X50125Y66537D01*
X49697Y66628D01*
X49525Y66721D01*
Y88415D01*
X50125Y88663D01*
X50154Y88635D01*
X50962Y88300D01*
X51838D01*
X52646Y88635D01*
X53265Y89254D01*
X53600Y90062D01*
Y90938D01*
X53265Y91746D01*
X52646Y92365D01*
X51838Y92700D01*
X50962D01*
X50154Y92365D01*
X50125Y92337D01*
X49525Y92585D01*
Y94226D01*
X53637Y98338D01*
X53925Y98768D01*
X54026Y99275D01*
Y103200D01*
X54638D01*
X55446Y103535D01*
X55712Y103801D01*
X55863Y103786D01*
X57786Y101863D01*
X58216Y101575D01*
X58723Y101474D01*
X60877D01*
X61384Y101575D01*
X61814Y101863D01*
X63151Y103200D01*
X63738D01*
X64546Y103535D01*
X65165Y104154D01*
X65500Y104962D01*
Y105838D01*
X65165Y106646D01*
X64546Y107265D01*
X63738Y107600D01*
X62862D01*
X62054Y107265D01*
X61550Y106761D01*
X61125Y107186D01*
Y115398D01*
X61025Y115905D01*
X60737Y116335D01*
X60124Y116949D01*
X60336Y117585D01*
X60946Y117838D01*
X61500Y118392D01*
X62054Y117838D01*
X62862Y117503D01*
X63738D01*
X64546Y117838D01*
X65165Y118457D01*
X65500Y119265D01*
Y120141D01*
X65165Y120949D01*
X64828Y121286D01*
Y121397D01*
X64727Y121904D01*
X64440Y122334D01*
X64216Y122558D01*
X64333Y123147D01*
X64546Y123235D01*
X65165Y123854D01*
X65500Y124662D01*
Y125538D01*
X65165Y126346D01*
X64546Y126965D01*
X63738Y127300D01*
X63140D01*
X62954Y127489D01*
X62830Y127671D01*
X63123Y128200D01*
X63715D01*
X64523Y128535D01*
X65142Y129154D01*
X65477Y129962D01*
Y130838D01*
X65142Y131646D01*
X64523Y132265D01*
X63715Y132600D01*
X62951D01*
X62245Y133306D01*
X62585Y133815D01*
X62862Y133700D01*
X63738D01*
X64546Y134035D01*
X65165Y134654D01*
X65500Y135462D01*
Y136338D01*
X65165Y137146D01*
X64546Y137765D01*
X63738Y138100D01*
X63051D01*
X62025Y139126D01*
Y150932D01*
X63220Y152127D01*
X63775Y151897D01*
Y145300D01*
X63875Y144793D01*
X64163Y144363D01*
X69100Y139426D01*
Y138662D01*
X69435Y137854D01*
X70054Y137235D01*
X70862Y136900D01*
X71738D01*
X72546Y137235D01*
X73165Y137854D01*
X73500Y138662D01*
Y139538D01*
X73165Y140346D01*
X72546Y140965D01*
X71738Y141300D01*
X70974D01*
X66426Y145849D01*
Y152786D01*
X84614Y170975D01*
X120119D01*
X120626Y171075D01*
X121056Y171363D01*
X124868Y175174D01*
X139906D01*
X140136Y174620D01*
D02*
G37*
G36*
X180774Y108880D02*
Y103700D01*
X180875Y103193D01*
X180898Y103159D01*
X180500Y102674D01*
X180438Y102700D01*
X179562D01*
X178754Y102365D01*
X178135Y101746D01*
X177800Y100938D01*
Y100062D01*
X178135Y99254D01*
X178754Y98635D01*
X179562Y98300D01*
X179800D01*
Y97700D01*
X179562D01*
X178754Y97365D01*
X178135Y96746D01*
X177800Y95938D01*
Y95062D01*
X178135Y94254D01*
X178754Y93635D01*
X179562Y93300D01*
X180438D01*
X181246Y93635D01*
X181865Y94254D01*
X182200Y95062D01*
Y95800D01*
X182438D01*
X183246Y96135D01*
X183774Y96663D01*
X184203Y96572D01*
X184374Y96479D01*
Y96012D01*
X184475Y95504D01*
X184763Y95074D01*
X188544Y91293D01*
X188455Y91138D01*
X188203Y90198D01*
Y89225D01*
X188455Y88285D01*
X188942Y87442D01*
X189630Y86753D01*
X190198Y86426D01*
X190037Y85826D01*
X185397D01*
X179886Y91337D01*
X179456Y91625D01*
X178948Y91725D01*
X167021D01*
X166928Y91897D01*
X166837Y92326D01*
X167365Y92854D01*
X167700Y93662D01*
Y94538D01*
X167365Y95346D01*
X166825Y95886D01*
Y103600D01*
X166725Y104107D01*
X166437Y104537D01*
X163600Y107375D01*
Y108138D01*
X163265Y108946D01*
X162646Y109565D01*
X161838Y109900D01*
X160962D01*
X160154Y109565D01*
X159600Y109011D01*
X159046Y109565D01*
X158238Y109900D01*
X157362D01*
X156554Y109565D01*
X156014Y109026D01*
X154084D01*
X153854Y109580D01*
X157049Y112775D01*
X176880D01*
X180774Y108880D01*
D02*
G37*
G36*
X148642Y98975D02*
X148586Y98937D01*
X147249Y97600D01*
X146562D01*
X145754Y97265D01*
X145135Y96646D01*
X144800Y95838D01*
Y94962D01*
X145135Y94154D01*
X145754Y93535D01*
X146562Y93200D01*
X147180D01*
X147475Y92672D01*
X147161Y92300D01*
X146562D01*
X145754Y91965D01*
X145135Y91346D01*
X144800Y90538D01*
Y89662D01*
X145135Y88854D01*
X145754Y88235D01*
X146562Y87900D01*
X146938D01*
X147213Y87305D01*
X146977Y87000D01*
X146562D01*
X145754Y86665D01*
X145135Y86046D01*
X144800Y85238D01*
Y84362D01*
X145135Y83554D01*
X145754Y82935D01*
X146562Y82600D01*
X146822D01*
X147097Y82000D01*
X146865Y81700D01*
X146562D01*
X145754Y81365D01*
X145135Y80746D01*
X144942Y80281D01*
X144246Y80129D01*
X126595Y97779D01*
X126646Y98035D01*
X127100Y98489D01*
X127554Y98035D01*
X128362Y97700D01*
X129238D01*
X130046Y98035D01*
X130600Y98589D01*
X131154Y98035D01*
X131962Y97700D01*
X132838D01*
X133646Y98035D01*
X134265Y98654D01*
X134600Y99462D01*
Y99575D01*
X148460D01*
X148642Y98975D01*
D02*
G37*
G36*
X164174Y101901D02*
Y95886D01*
X163635Y95346D01*
X163300Y94538D01*
Y93662D01*
X163635Y92854D01*
X164163Y92326D01*
X164072Y91897D01*
X163979Y91725D01*
X160468D01*
X153256Y98937D01*
X153200Y98975D01*
X153382Y99575D01*
X154551D01*
X156063Y98063D01*
X156493Y97775D01*
X157000Y97675D01*
X159911D01*
X160419Y97775D01*
X160849Y98063D01*
X162337Y99551D01*
X162625Y99981D01*
X162725Y100489D01*
Y100614D01*
X163265Y101154D01*
X163600Y101962D01*
X164174Y101901D01*
D02*
G37*
G36*
X101474Y88739D02*
Y88023D01*
X101575Y87516D01*
X101863Y87086D01*
X105386Y83563D01*
X105816Y83275D01*
X106323Y83175D01*
X106323Y83175D01*
X111263D01*
X111659Y82730D01*
X111530Y82079D01*
X111254Y81965D01*
X110661Y81373D01*
X110146Y81888D01*
X109338Y82223D01*
X108462D01*
X107654Y81888D01*
X107200Y81434D01*
X106746Y81888D01*
X105938Y82223D01*
X105062D01*
X104254Y81888D01*
X103635Y81269D01*
X103300Y80461D01*
Y79585D01*
X103635Y78777D01*
X104174Y78237D01*
Y62155D01*
X103719Y61700D01*
X103162D01*
X102354Y61365D01*
X101836Y60847D01*
X100341Y62341D01*
X100341Y62341D01*
X98845Y63837D01*
X98415Y64125D01*
X97908Y64226D01*
X97586D01*
X97046Y64765D01*
X96238Y65100D01*
X95362D01*
X94554Y64765D01*
X93935Y64146D01*
X93600Y63338D01*
Y62462D01*
X93935Y61654D01*
X94439Y61150D01*
X94035Y60746D01*
X93700Y59938D01*
Y59062D01*
X93786Y58855D01*
X93465Y58375D01*
X92893D01*
X92573Y58855D01*
X92700Y59162D01*
Y60038D01*
X92365Y60846D01*
X91911Y61300D01*
X92365Y61754D01*
X92700Y62562D01*
Y63438D01*
X92365Y64246D01*
X92061Y64550D01*
X98437Y70926D01*
X98725Y71356D01*
X98826Y71863D01*
Y86874D01*
X100920Y88968D01*
X101474Y88739D01*
D02*
G37*
G36*
X155175Y67305D02*
Y54849D01*
X154763Y54437D01*
X154475Y54007D01*
X154375Y53500D01*
Y51760D01*
X154393Y51667D01*
X153840Y51371D01*
X147191Y58020D01*
X147421Y58574D01*
X149700D01*
X150207Y58675D01*
X150637Y58963D01*
X151537Y59863D01*
X151825Y60293D01*
X151926Y60800D01*
Y61714D01*
X152465Y62254D01*
X152800Y63062D01*
Y63938D01*
X152465Y64746D01*
X151846Y65365D01*
X151038Y65700D01*
X150200D01*
X150110Y65802D01*
X149887Y66235D01*
X150351Y66700D01*
X151038D01*
X151846Y67035D01*
X152465Y67654D01*
X152800Y68462D01*
Y68831D01*
X153400Y69080D01*
X155175Y67305D01*
D02*
G37*
G36*
X94498Y35049D02*
Y22296D01*
X93481Y21279D01*
X93327Y21368D01*
X92387Y21620D01*
X91413D01*
X90528Y21383D01*
X90363Y21485D01*
X90049Y21816D01*
X90126Y22200D01*
Y35314D01*
X90665Y35854D01*
X91000Y36662D01*
Y37538D01*
X90886Y37813D01*
X91395Y38152D01*
X94498Y35049D01*
D02*
G37*
G36*
X107654Y78158D02*
X108462Y77823D01*
X109225D01*
X110486Y76563D01*
X110916Y76275D01*
X111423Y76174D01*
X113577D01*
X114084Y76275D01*
X114514Y76563D01*
X114926Y76974D01*
X120741D01*
X125763Y71952D01*
Y71190D01*
X125386Y70937D01*
X123863Y69414D01*
X123575Y68984D01*
X123475Y68477D01*
Y66100D01*
X123575Y65593D01*
X123863Y65163D01*
X124275Y64751D01*
Y62463D01*
X124375Y61956D01*
X124663Y61526D01*
X150674Y35514D01*
Y21422D01*
X150473Y21368D01*
X149630Y20881D01*
X148942Y20193D01*
X148924Y20162D01*
X148645Y20159D01*
X148301Y20282D01*
X148225Y20664D01*
X147937Y21094D01*
X145634Y23397D01*
X145204Y23685D01*
X144696Y23786D01*
X138897D01*
X132045Y30637D01*
X131615Y30924D01*
X131108Y31025D01*
X130272D01*
X121552Y39746D01*
X121756Y40390D01*
X122346Y40635D01*
X122965Y41254D01*
X123300Y42062D01*
Y42938D01*
X122965Y43746D01*
X122346Y44365D01*
X121538Y44700D01*
X120774D01*
X113626Y51849D01*
Y58714D01*
X114165Y59254D01*
X114500Y60062D01*
Y60938D01*
X114165Y61746D01*
X113546Y62365D01*
X112738Y62700D01*
X111862D01*
X111054Y62365D01*
X110435Y61746D01*
X110100Y60938D01*
Y60062D01*
X110435Y59254D01*
X110975Y58714D01*
Y51300D01*
X111006Y51140D01*
X110453Y50844D01*
X104469Y56829D01*
X104609Y57537D01*
X104846Y57635D01*
X105465Y58254D01*
X105800Y59062D01*
Y59938D01*
X105772Y60004D01*
X106437Y60669D01*
X106725Y61099D01*
X106825Y61606D01*
Y78138D01*
X107320Y78492D01*
X107654Y78158D01*
D02*
G37*
G36*
X160657Y26668D02*
Y24832D01*
X159934Y24108D01*
X159083D01*
X158576Y24007D01*
X158146Y23720D01*
X156363Y21937D01*
X156075Y21507D01*
X155974Y21000D01*
Y19319D01*
X155375Y19240D01*
X155345Y19350D01*
X154858Y20193D01*
X154170Y20881D01*
X153327Y21368D01*
X153325Y21369D01*
Y33216D01*
X153880Y33446D01*
X160657Y26668D01*
D02*
G37*
G36*
X106075Y31109D02*
Y18945D01*
X105474Y18866D01*
X105345Y19350D01*
X104858Y20193D01*
X104170Y20881D01*
X103327Y21368D01*
X103325Y21369D01*
Y33075D01*
X103880Y33304D01*
X106075Y31109D01*
D02*
G37*
%LPC*%
G36*
X202387Y43409D02*
X201413D01*
X200473Y43156D01*
X199630Y42670D01*
X198942Y41982D01*
X198455Y41138D01*
X198203Y40198D01*
Y39225D01*
X198455Y38285D01*
X198942Y37442D01*
X199630Y36753D01*
X200473Y36267D01*
X201413Y36015D01*
X202387D01*
X203327Y36267D01*
X204170Y36753D01*
X204858Y37442D01*
X205345Y38285D01*
X205597Y39225D01*
Y40198D01*
X205345Y41138D01*
X204858Y41982D01*
X204170Y42670D01*
X203327Y43156D01*
X202387Y43409D01*
D02*
G37*
G36*
X26938Y196200D02*
X26062D01*
X25254Y195865D01*
X24635Y195246D01*
X24300Y194438D01*
Y193562D01*
X24635Y192754D01*
X24889Y192500D01*
X24640Y191900D01*
X24362D01*
X23554Y191565D01*
X22935Y190946D01*
X22600Y190138D01*
Y189860D01*
X22000Y189611D01*
X21746Y189865D01*
X20938Y190200D01*
X20062D01*
X19254Y189865D01*
X18635Y189246D01*
X18300Y188438D01*
Y187562D01*
X18635Y186754D01*
X19254Y186135D01*
X20062Y185800D01*
X20938D01*
X21746Y186135D01*
X22365Y186754D01*
X22700Y187562D01*
Y187840D01*
X23300Y188089D01*
X23554Y187835D01*
X24362Y187500D01*
X25238D01*
X26046Y187835D01*
X26665Y188454D01*
X27000Y189262D01*
Y190138D01*
X26665Y190946D01*
X26411Y191200D01*
X26660Y191800D01*
X26938D01*
X27746Y192135D01*
X28365Y192754D01*
X28700Y193562D01*
Y194438D01*
X28365Y195246D01*
X27746Y195865D01*
X26938Y196200D01*
D02*
G37*
G36*
X32478Y186184D02*
X31603D01*
X30795Y185849D01*
X30176Y185230D01*
X29841Y184422D01*
Y184200D01*
X29562D01*
X28754Y183865D01*
X28135Y183246D01*
X27800Y182438D01*
Y181562D01*
X28135Y180754D01*
X28754Y180135D01*
X29562Y179800D01*
X30438D01*
X30696Y179907D01*
X31290Y179314D01*
X32098Y178979D01*
X32974D01*
X33782Y179314D01*
X34401Y179933D01*
X34736Y180741D01*
Y181616D01*
X34401Y182425D01*
X33959Y182867D01*
X34241Y183546D01*
Y184422D01*
X33906Y185230D01*
X33287Y185849D01*
X32478Y186184D01*
D02*
G37*
G36*
X44738Y57100D02*
X43862D01*
X43054Y56765D01*
X42435Y56146D01*
X42100Y55338D01*
Y54462D01*
X42435Y53654D01*
X43054Y53035D01*
X43862Y52700D01*
X44738D01*
X45546Y53035D01*
X46165Y53654D01*
X46500Y54462D01*
Y55338D01*
X46165Y56146D01*
X45546Y56765D01*
X44738Y57100D01*
D02*
G37*
G36*
X45438Y43200D02*
X44562D01*
X43754Y42865D01*
X43135Y42246D01*
X42840Y41533D01*
X42438Y41700D01*
X41562D01*
X40754Y41365D01*
X40135Y40746D01*
X39800Y39938D01*
Y39062D01*
X40135Y38254D01*
X40754Y37635D01*
X41562Y37300D01*
X42438D01*
X42893Y36839D01*
X43135Y36254D01*
X43754Y35635D01*
X44562Y35300D01*
X45438D01*
X46246Y35635D01*
X46865Y36254D01*
X47200Y37062D01*
Y37938D01*
X46865Y38746D01*
X46361Y39250D01*
X46865Y39754D01*
X47200Y40562D01*
Y41438D01*
X46865Y42246D01*
X46246Y42865D01*
X45438Y43200D01*
D02*
G37*
G36*
X29938Y45700D02*
X29062D01*
X28254Y45365D01*
X27635Y44746D01*
X27300Y43938D01*
Y43699D01*
X26938Y43200D01*
X26746Y43200D01*
X26062D01*
X25254Y42865D01*
X24635Y42246D01*
X24300Y41438D01*
Y40562D01*
X24635Y39754D01*
X25254Y39135D01*
X26062Y38800D01*
X26938D01*
X27746Y39135D01*
X28100Y39489D01*
X28700Y39262D01*
X29035Y38454D01*
X29654Y37835D01*
X30462Y37500D01*
X31338D01*
X32146Y37835D01*
X32765Y38454D01*
X33100Y39262D01*
Y40138D01*
X32765Y40946D01*
X32146Y41565D01*
X31707Y41747D01*
X31398Y42204D01*
X31448Y42454D01*
X31700Y43062D01*
Y43938D01*
X31365Y44746D01*
X30746Y45365D01*
X29938Y45700D01*
D02*
G37*
G36*
X20438Y22700D02*
X19562D01*
X18754Y22365D01*
X18135Y21746D01*
X17800Y20938D01*
Y20492D01*
X17200Y20091D01*
X16938Y20200D01*
X16062D01*
X15254Y19865D01*
X14635Y19246D01*
X14300Y18438D01*
Y17562D01*
X14635Y16754D01*
X15254Y16135D01*
X16062Y15800D01*
X16938D01*
X17376Y15981D01*
X17835Y15522D01*
X17800Y15438D01*
Y14562D01*
X18135Y13754D01*
X18754Y13135D01*
X19562Y12800D01*
X20438D01*
X21246Y13135D01*
X21865Y13754D01*
X22200Y14562D01*
Y15438D01*
X22165Y15522D01*
X22624Y15981D01*
X23062Y15800D01*
X23938D01*
X24746Y16135D01*
X25365Y16754D01*
X25700Y17562D01*
Y18438D01*
X25365Y19246D01*
X24746Y19865D01*
X23938Y20200D01*
X23062D01*
X22800Y20091D01*
X22200Y20492D01*
Y20938D01*
X21865Y21746D01*
X21246Y22365D01*
X20438Y22700D01*
D02*
G37*
G36*
X72387Y21620D02*
X71413D01*
X70473Y21368D01*
X69630Y20881D01*
X68942Y20193D01*
X68455Y19350D01*
X68203Y18410D01*
Y17436D01*
X68455Y16496D01*
X68942Y15653D01*
X69630Y14965D01*
X70473Y14478D01*
X71413Y14226D01*
X72387D01*
X73327Y14478D01*
X74170Y14965D01*
X74858Y15653D01*
X75345Y16496D01*
X75597Y17436D01*
Y18410D01*
X75345Y19350D01*
X74858Y20193D01*
X74170Y20881D01*
X73327Y21368D01*
X72387Y21620D01*
D02*
G37*
G36*
X55597D02*
X48203D01*
Y14226D01*
X55597D01*
Y21620D01*
D02*
G37*
G36*
X82387Y11620D02*
X81413D01*
X80473Y11368D01*
X79630Y10881D01*
X78942Y10193D01*
X78455Y9350D01*
X78203Y8410D01*
Y7436D01*
X78455Y6496D01*
X78942Y5653D01*
X79630Y4965D01*
X80473Y4478D01*
X81413Y4226D01*
X82387D01*
X83327Y4478D01*
X84170Y4965D01*
X84858Y5653D01*
X85345Y6496D01*
X85597Y7436D01*
Y8410D01*
X85345Y9350D01*
X84858Y10193D01*
X84170Y10881D01*
X83327Y11368D01*
X82387Y11620D01*
D02*
G37*
G36*
X72387D02*
X71413D01*
X70473Y11368D01*
X69630Y10881D01*
X68942Y10193D01*
X68455Y9350D01*
X68203Y8410D01*
Y7436D01*
X68455Y6496D01*
X68942Y5653D01*
X69630Y4965D01*
X70473Y4478D01*
X71413Y4226D01*
X72387D01*
X73327Y4478D01*
X74170Y4965D01*
X74858Y5653D01*
X75345Y6496D01*
X75597Y7436D01*
Y8410D01*
X75345Y9350D01*
X74858Y10193D01*
X74170Y10881D01*
X73327Y11368D01*
X72387Y11620D01*
D02*
G37*
G36*
X52387D02*
X51413D01*
X50473Y11368D01*
X49630Y10881D01*
X48942Y10193D01*
X48455Y9350D01*
X48203Y8410D01*
Y7436D01*
X48455Y6496D01*
X48942Y5653D01*
X49630Y4965D01*
X50473Y4478D01*
X51413Y4226D01*
X52387D01*
X53327Y4478D01*
X54170Y4965D01*
X54858Y5653D01*
X55345Y6496D01*
X55597Y7436D01*
Y8410D01*
X55345Y9350D01*
X54858Y10193D01*
X54170Y10881D01*
X53327Y11368D01*
X52387Y11620D01*
D02*
G37*
G36*
X105138Y137900D02*
X104262D01*
X103454Y137565D01*
X102835Y136946D01*
X102500Y136138D01*
Y135262D01*
X102835Y134454D01*
X103049Y134240D01*
X102905Y133892D01*
Y133017D01*
X103240Y132208D01*
X103859Y131589D01*
X104667Y131254D01*
X105543D01*
X106351Y131589D01*
X106970Y132208D01*
X107186Y132729D01*
X107332D01*
X108141Y133064D01*
X108760Y133683D01*
X109095Y134492D01*
Y135367D01*
X108760Y136176D01*
X108141Y136794D01*
X107332Y137129D01*
X106457D01*
X106404Y137107D01*
X105946Y137565D01*
X105138Y137900D01*
D02*
G37*
G36*
X81622Y110497D02*
X80747D01*
X79938Y110162D01*
X79319Y109543D01*
X78984Y108735D01*
Y108341D01*
X78484Y108133D01*
X77865Y107514D01*
X77530Y106706D01*
Y105831D01*
X77865Y105022D01*
X78484Y104403D01*
X79292Y104068D01*
X80168D01*
X80976Y104403D01*
X81041Y104467D01*
X81159Y104349D01*
X81967Y104014D01*
X82843D01*
X83651Y104349D01*
X84270Y104968D01*
X84605Y105777D01*
Y106652D01*
X84270Y107461D01*
X83651Y108079D01*
X83384Y108190D01*
Y108735D01*
X83049Y109543D01*
X82430Y110162D01*
X81622Y110497D01*
D02*
G37*
G36*
X175938Y100100D02*
X175062D01*
X174254Y99765D01*
X173635Y99146D01*
X173300Y98338D01*
Y97462D01*
X173635Y96654D01*
X174254Y96035D01*
X175062Y95700D01*
X175938D01*
X176746Y96035D01*
X177365Y96654D01*
X177700Y97462D01*
Y98338D01*
X177365Y99146D01*
X176746Y99765D01*
X175938Y100100D01*
D02*
G37*
G36*
X119538Y62800D02*
X118662D01*
X117854Y62465D01*
X117235Y61846D01*
X116900Y61038D01*
Y60162D01*
X117125Y59618D01*
X117019Y59511D01*
X116684Y58702D01*
Y57827D01*
X117019Y57019D01*
X117637Y56400D01*
X118446Y56065D01*
X119321D01*
X120130Y56400D01*
X120733Y57003D01*
X121472D01*
X122281Y57338D01*
X122899Y57957D01*
X123234Y58765D01*
Y59641D01*
X122899Y60449D01*
X122281Y61068D01*
X121472Y61403D01*
X121149D01*
X120965Y61846D01*
X120346Y62465D01*
X119538Y62800D01*
D02*
G37*
%LPD*%
D15*
X135400Y65391D02*
X170100Y30691D01*
X118636Y87136D02*
X122636D01*
X135400Y65391D02*
Y74372D01*
X122636Y87136D02*
X135400Y74372D01*
X177100Y12823D02*
Y18800D01*
Y12823D02*
X182000Y7923D01*
X170100Y25800D02*
X177100Y18800D01*
X170100Y25800D02*
Y30691D01*
X80369Y99831D02*
Y99900D01*
X77223Y53300D02*
X95941D01*
X87800Y167300D02*
X134690D01*
X69900Y38900D02*
X87000D01*
X72137Y44300D02*
X92213D01*
X152072Y122400D02*
X152772Y123100D01*
X90506Y151737D02*
X93469Y154700D01*
X91877Y102500D02*
X93400Y100977D01*
X72000Y58523D02*
X77223Y53300D01*
X190500Y164400D02*
X197311Y164400D01*
X108300Y206400D02*
X112800Y201900D01*
X60900Y55537D02*
Y63368D01*
X189357Y114900D02*
X196812D01*
X93469Y154700D02*
X139909D01*
X89723Y102500D02*
X91877D01*
X126800Y14000D02*
Y18626D01*
X155400Y145119D02*
Y150454D01*
X83669Y206400D02*
X108300D01*
X179540Y19140D02*
X180757Y17923D01*
X152772Y123100D02*
X181157D01*
X139909Y154700D02*
X147309Y162100D01*
X87400Y100177D02*
X89723Y102500D01*
X74323Y63000D02*
X74600D01*
X176352Y141700D02*
X183500Y148848D01*
X178175Y115900D02*
X183900Y110175D01*
X171900Y26546D02*
Y31437D01*
X149223Y122400D02*
X152072D01*
X186904Y180722D02*
X189991Y183809D01*
X87400Y99900D02*
Y100177D01*
X72000Y60677D02*
X74323Y63000D01*
X197311Y164400D02*
X202000Y159712D01*
X155754Y115900D02*
X178175D01*
X171900Y26546D02*
X179306Y19140D01*
X181157Y123100D02*
X189357Y114900D01*
X189991Y183809D02*
X197903D01*
X84000Y99623D02*
Y99900D01*
X127287Y13513D02*
X132000Y8800D01*
X185800Y159700D02*
X190500Y164400D01*
X183900Y104840D02*
Y110175D01*
X137200Y66137D02*
X171900Y31437D01*
X146900Y120077D02*
X149223Y122400D01*
X186904Y176096D02*
Y180722D01*
X128800Y99900D02*
Y99977D01*
X126800Y18626D02*
Y22441D01*
X155400Y145119D02*
X158819Y141700D01*
X191400Y94200D02*
X194628D01*
X137200Y66137D02*
Y75118D01*
X196812Y114900D02*
X202000Y109712D01*
X185500Y127200D02*
X187700Y125000D01*
X125400Y99900D02*
Y100177D01*
X127287Y13513D02*
X127287D01*
X185800Y155591D02*
Y159700D01*
X187500Y98100D02*
Y101240D01*
X123318Y89000D02*
X137200Y75118D01*
X146900Y119800D02*
Y120077D01*
X146800Y125000D02*
X146847Y125047D01*
X128800Y99977D02*
X131323Y102500D01*
X126800Y14000D02*
X127287Y13513D01*
X183500Y148848D02*
Y153291D01*
X183900Y104840D02*
X187500Y101240D01*
X179306Y19140D02*
X179540D01*
X181603Y125200D02*
X183603Y123200D01*
X147900Y127800D02*
X152354D01*
X122000Y99900D02*
Y100177D01*
X72000Y58523D02*
Y60677D01*
X183500Y153291D02*
X185800Y155591D01*
X187500Y98100D02*
X191400Y94200D01*
X180757Y17923D02*
X182000D01*
X183603Y123200D02*
X188512D01*
X146847Y125047D02*
Y126747D01*
X63300Y105400D02*
Y105600D01*
X126800Y18626D02*
X126800D01*
X158819Y141700D02*
X176352D01*
X197512Y94200D02*
X202000Y89712D01*
X147000Y95477D02*
X149523Y98000D01*
X188512Y123200D02*
X192000Y119712D01*
X196712Y125000D02*
X202000Y119712D01*
X60877Y102800D02*
X63300Y105223D01*
X132000Y7923D02*
Y8800D01*
X154254Y151600D02*
X155400Y150454D01*
X194628Y94200D02*
X197512D01*
X197212Y84500D02*
X202000Y79712D01*
X150300Y125200D02*
X181603D01*
X187700Y125000D02*
X196712D01*
X63300Y105223D02*
Y105400D01*
X95941Y53300D02*
X126800Y22441D01*
X151333Y151600D02*
X154254D01*
X165500Y94100D02*
Y103600D01*
X178948Y90400D02*
X184848Y84500D01*
X173654Y160300D02*
X188704Y175350D01*
X152354Y127800D02*
X152954Y127200D01*
X103600Y59500D02*
Y59706D01*
X170672Y167500D02*
X181504Y178332D01*
X185300Y148103D02*
Y152546D01*
X181600Y38500D02*
X186900Y33200D01*
X147000Y95400D02*
Y95477D01*
X188704Y176416D02*
X192000Y179712D01*
X152954Y127200D02*
X185500D01*
X103600Y59706D02*
X105500Y61606D01*
X192000Y191265D02*
Y192000D01*
X146900Y145800D02*
Y146677D01*
X177800Y63713D02*
Y68638D01*
X152319Y98000D02*
X159919Y90400D01*
X188704Y175350D02*
Y176416D01*
X146847Y126747D02*
X147900Y127800D01*
X96952Y151300D02*
X141317D01*
X82400Y151718D02*
X90782Y160100D01*
X153600Y144374D02*
Y146879D01*
X186900Y27400D02*
X189200Y25100D01*
X149523Y98000D02*
X152319D01*
X148054Y160300D02*
X173654D01*
X157682Y85000D02*
X176712D01*
X95951Y150300D02*
X96952Y151300D01*
X145072Y167500D02*
X170672D01*
X158073Y139900D02*
X177097D01*
X161400Y107700D02*
X165500Y103600D01*
X184848Y84500D02*
X197212D01*
X140654Y152900D02*
X148054Y160300D01*
X150600Y90100D02*
X152582D01*
X95700Y150300D02*
X95951D01*
X189943Y189208D02*
X192000Y191265D01*
X177097Y139900D02*
X185300Y148103D01*
X186900Y27400D02*
Y33200D01*
X159919Y90400D02*
X178948D01*
X94623Y152900D02*
X140654D01*
X176712Y85000D02*
X192000Y69712D01*
X141317Y151300D02*
X148517Y158500D01*
X82400Y149223D02*
X84723Y146900D01*
X185300Y152546D02*
X192000Y159246D01*
X181600Y38500D02*
Y59913D01*
X117634Y10639D02*
X119471Y8802D01*
X93100Y151377D02*
X94623Y152900D01*
X152582Y90100D02*
X157682Y85000D01*
X148517Y158500D02*
X174400D01*
X82400Y149223D02*
Y151718D01*
X149223Y149000D02*
X151479D01*
X194823Y25100D02*
X202000Y17923D01*
X117400Y10874D02*
Y26750D01*
X93100Y149223D02*
Y151377D01*
X80027Y150527D02*
Y153327D01*
X128900Y109200D02*
Y109587D01*
X90782Y160100D02*
X91400D01*
X153600Y144374D02*
X158073Y139900D01*
X189200Y25100D02*
X194823D01*
X117400Y10874D02*
X117634Y10639D01*
X65100Y153335D02*
X84065Y172300D01*
X83091Y154954D02*
X90037Y161900D01*
X161400Y100489D02*
Y102400D01*
X91400Y160100D02*
X91400Y160100D01*
X146900Y146677D02*
X149223Y149000D01*
X177800Y63713D02*
X181600Y59913D01*
X121121Y8802D02*
X122000Y7923D01*
X153954Y176500D02*
X166900Y189446D01*
X144326Y169300D02*
X169927D01*
X159911Y99000D02*
X161400Y100489D01*
X84723Y146900D02*
X85000D01*
X192000Y159246D02*
Y159712D01*
X173238Y73200D02*
X177800Y68638D01*
X119471Y8802D02*
X121121D01*
X120119Y172300D02*
X124319Y176500D01*
X81654Y154954D02*
X83091D01*
X152800Y107700D02*
X157800D01*
X137672Y160100D02*
X145072Y167500D01*
X151479Y149000D02*
X153600Y146879D01*
X171000Y73200D02*
X173238D01*
X94450Y49700D02*
X117400Y26750D01*
X166900Y189446D02*
Y196900D01*
X186800Y196800D02*
X192000Y202000D01*
X122000Y100177D02*
X127923Y106100D01*
X91400Y160100D02*
X137672D01*
X187000Y58300D02*
X190997Y54303D01*
X166500Y13423D02*
X172000Y7923D01*
X68994Y62694D02*
X69300Y63000D01*
X166900Y196900D02*
X172000Y202000D01*
X169927Y169300D02*
X179704Y179078D01*
X151200Y106100D02*
X152800Y107700D01*
X181504Y182959D02*
X187754Y189208D01*
X147000Y79700D02*
Y79777D01*
X122441Y82240D02*
X131800Y72881D01*
X66300Y58010D02*
X74610Y49700D01*
X65100Y145300D02*
Y153335D01*
X80027Y153327D02*
X81654Y154954D01*
X127923Y106100D02*
X151200D01*
X187754Y189208D02*
X189943D01*
X183200Y65949D02*
X187000Y62150D01*
X166500Y13423D02*
Y29200D01*
X74610Y49700D02*
X94450D01*
X65100Y145300D02*
X71300Y139100D01*
X90037Y161900D02*
X136926D01*
X133700Y107700D02*
X150100D01*
X181504Y178332D02*
Y182959D01*
X187000Y58300D02*
Y62150D01*
X131800Y63900D02*
Y72881D01*
X67862Y62694D02*
X68994D01*
X124319Y176500D02*
X153954D01*
X136926Y161900D02*
X144326Y169300D01*
X150100Y107700D02*
X156500Y114100D01*
X190997Y54303D02*
X197409D01*
X131800Y63900D02*
X166500Y29200D01*
X66300Y58010D02*
Y61131D01*
X84065Y172300D02*
X120119D01*
X179704Y183704D02*
X186800Y190800D01*
X132300Y109100D02*
X133700Y107700D01*
X197409Y54303D02*
X202000Y49712D01*
X178203Y88600D02*
X187091Y79712D01*
X66300Y61131D02*
X67862Y62694D01*
X87800Y149023D02*
X89265Y147559D01*
X179704Y179078D02*
Y183704D01*
X136677Y109300D02*
X149154D01*
X54200Y105400D02*
X54500Y105700D01*
X174475Y79600D02*
X183200Y70875D01*
X159173Y88600D02*
X178203D01*
X90722Y40700D02*
X95823Y35598D01*
X89967Y146900D02*
X90200D01*
X186800Y190800D02*
Y196800D01*
X149154Y109300D02*
X155754Y115900D01*
X55200Y193232D02*
Y198675D01*
X183200Y65949D02*
Y70875D01*
X187091Y79712D02*
X192000D01*
X95823Y21746D02*
Y35598D01*
X89265Y147559D02*
X89309D01*
X189234Y130800D02*
X189444Y130591D01*
X125400Y100177D02*
X129523Y104300D01*
X42700Y127690D02*
Y158937D01*
X155446Y79600D02*
X174475D01*
X150647Y95353D02*
X152420D01*
X92000Y17923D02*
X95823Y21746D01*
X90200Y150300D02*
X90506Y150606D01*
X183271Y130800D02*
X189234D01*
X152800Y105100D02*
X158877D01*
X54500Y105700D02*
Y115890D01*
X147000Y79777D02*
X149323Y82100D01*
X152420Y95353D02*
X159173Y88600D01*
X51900Y59446D02*
X70646Y40700D01*
X89309Y147559D02*
X89967Y146900D01*
X189444Y130591D02*
X191121D01*
X158877Y105100D02*
X161400Y107623D01*
X58525Y202000D02*
X92800D01*
X149323Y82100D02*
X152945D01*
X157328Y138100D02*
X177843D01*
X51900Y59446D02*
Y65200D01*
X79800Y150300D02*
X80027Y150527D01*
X152197Y130503D02*
X153300Y129400D01*
X129523Y104300D02*
X152000D01*
X42700Y127690D02*
X54500Y115890D01*
X152945Y82100D02*
X155446Y79600D01*
X151800Y143628D02*
Y145169D01*
X70646Y40700D02*
X90722D01*
X95400Y146900D02*
Y146923D01*
X153700Y129000D02*
X181471D01*
X152000Y104300D02*
X152800Y105100D01*
X123163Y91700D02*
X139000Y75863D01*
X174400Y158500D02*
X190700Y174800D01*
X177843Y138100D02*
X187100Y147357D01*
X58900Y137133D02*
X59700Y136333D01*
X93100Y149223D02*
X95400Y146923D01*
X191121Y130591D02*
X192000Y129712D01*
X131323Y102500D02*
X158000D01*
X139000Y67270D02*
Y75863D01*
X190700Y174800D02*
X196912D01*
X187100Y151800D02*
X190100Y154800D01*
X59700Y135900D02*
Y136333D01*
X77969Y55100D02*
X96686D01*
X153300Y129400D02*
X153300D01*
X132651Y99900D02*
X133651Y100900D01*
X55200Y198675D02*
X58525Y202000D01*
X196912Y174800D02*
X202000Y169712D01*
X198739Y150361D02*
X201350D01*
X62500Y155826D02*
X82573Y175900D01*
X128872Y24300D02*
X131820Y21351D01*
X150300Y130400D02*
X150403Y130503D01*
X132400Y99900D02*
X132651D01*
X90500Y63300D02*
Y64863D01*
X196800Y12723D02*
Y20578D01*
X150569Y146400D02*
X151800Y145169D01*
X156900Y196900D02*
X162000Y202000D01*
X74906Y58162D02*
Y59294D01*
X181471Y129000D02*
X183271Y130800D01*
X155100Y100900D02*
X157000Y99000D01*
X90315Y63115D02*
X90500Y63300D01*
X185100Y26654D02*
X188454Y23300D01*
X151800Y143628D02*
X157328Y138100D01*
X122828Y180100D02*
X147554D01*
X131820Y18103D02*
X132000Y17923D01*
X153300Y129400D02*
X153700Y129000D01*
X157000Y99000D02*
X159911D01*
X90500Y64863D02*
X97500Y71863D01*
X185100Y26654D02*
Y32454D01*
X201350Y150361D02*
X202000Y149712D01*
X82573Y175900D02*
X118628D01*
X74906Y58162D02*
X77969Y55100D01*
X150403Y130503D02*
X152197D01*
X133651Y100900D02*
X155100D01*
X149700Y59900D02*
X150600Y60800D01*
X176000Y62967D02*
X179489Y59479D01*
X194300Y154800D02*
X198739Y150361D01*
X118628Y175900D02*
X122828Y180100D01*
X96686Y55100D02*
X127486Y24300D01*
X149000Y138700D02*
X151637D01*
X131313Y112000D02*
X133977D01*
X139000Y67270D02*
X146370Y59900D01*
X179489Y38066D02*
Y59479D01*
X190100Y154800D02*
X194300D01*
X58900Y152226D02*
X62500Y155826D01*
X131820Y18103D02*
Y21351D01*
X179100Y134400D02*
X179200Y134500D01*
X128900Y109587D02*
X131313Y112000D01*
X150600Y60800D02*
Y63500D01*
X194078Y23300D02*
X196800Y20578D01*
X187100Y147357D02*
Y151800D01*
X62500Y155826D02*
Y155826D01*
X74600Y59600D02*
X74906Y59294D01*
X151637Y138700D02*
X153137Y137200D01*
X133977Y112000D02*
X136677Y109300D01*
X146370Y59900D02*
X149700D01*
X188454Y23300D02*
X194078D01*
X150300Y146400D02*
X150569D01*
X156900Y189446D02*
Y196900D01*
X127486Y24300D02*
X128872D01*
X179200Y134500D02*
X179334D01*
X46300Y128898D02*
Y157446D01*
X66700Y64077D02*
Y64077D01*
X192000Y7923D02*
X196800Y12723D01*
X150382Y142500D02*
X156582Y136300D01*
X147554Y180100D02*
X156900Y189446D01*
X83319Y174100D02*
X119374D01*
X155937Y134400D02*
X179100D01*
X59800Y105700D02*
Y115398D01*
X66700Y64077D02*
X68223Y65600D01*
X176000Y62967D02*
Y67892D01*
X188900Y146612D02*
Y146612D01*
X58900Y137133D02*
Y152226D01*
X64300Y155081D02*
Y155081D01*
X153137Y137200D02*
X155937Y134400D01*
X46300Y128898D02*
X59800Y115398D01*
X81054Y65600D02*
X90300Y74846D01*
X179489Y38066D02*
X185100Y32454D01*
X148169Y142500D02*
X150382D01*
X79523Y146900D02*
X79800D01*
X148300Y178300D02*
X162000Y192000D01*
X153137Y137200D02*
X153137D01*
X68223Y65600D02*
X81054D01*
X167600Y68000D02*
Y68277D01*
X178588Y136300D02*
X188900Y146612D01*
X159439Y171100D02*
X171339Y183000D01*
X119374Y174100D02*
X123574Y178300D01*
X197112Y144600D02*
X202000Y139712D01*
X112000Y17923D02*
Y29604D01*
X169623Y70300D02*
X173592D01*
X156582Y136300D02*
X178588D01*
X77200Y153127D02*
X80828Y156754D01*
X64300Y155081D02*
X83319Y174100D01*
X179334Y134500D02*
X189434Y144600D01*
X93704Y47900D02*
X112000Y29604D01*
X173592Y70300D02*
X176000Y67892D01*
X146900Y141231D02*
X148169Y142500D01*
X77200Y149223D02*
X79523Y146900D01*
X60700Y138577D02*
Y151481D01*
X189434Y144600D02*
X197112D01*
X64500Y61877D02*
X66700Y64077D01*
X167600Y68277D02*
X169623Y70300D01*
X146900Y141200D02*
Y141231D01*
X182000Y190757D02*
Y192000D01*
X60700Y151481D02*
X64300Y155081D01*
X147206Y136906D02*
X149000Y138700D01*
X64500Y57028D02*
X73628Y47900D01*
X107400Y12523D02*
X112000Y7923D01*
X188900Y146612D02*
X192000Y149712D01*
X180745Y189502D02*
X182000Y190757D01*
X63300Y135900D02*
Y135977D01*
X147206Y135983D02*
Y136906D01*
X64500Y57028D02*
Y61877D01*
X107400Y12523D02*
Y31658D01*
X151952Y114643D02*
X155009Y117700D01*
X174400Y183000D02*
X180745Y189345D01*
X60700Y138577D02*
X63300Y135977D01*
X146900Y135677D02*
X147206Y135983D01*
X122082Y181900D02*
X141900D01*
X73628Y47900D02*
X93704D01*
X92958Y46100D02*
X107400Y31658D01*
X150300Y114500D02*
X150443Y114643D01*
X143581Y171100D02*
X159439D01*
X123574Y178300D02*
X148300D01*
X180412Y121300D02*
X192000Y109712D01*
X141900Y181900D02*
X152000Y192000D01*
X123709Y93700D02*
X140800Y76609D01*
X80309Y67400D02*
X88500Y75591D01*
X155009Y117700D02*
X178920D01*
X180745Y189345D02*
Y189502D01*
X149523Y87500D02*
X152637D01*
X152056Y119838D02*
X153518Y121300D01*
X120591Y185500D02*
X135500D01*
X89923Y59600D02*
X90200D01*
X67478Y67400D02*
X80309D01*
X185700Y106012D02*
Y110921D01*
X82346Y156754D02*
X89291Y163700D01*
X147000Y84900D02*
Y84977D01*
X150338Y119838D02*
X152056D01*
X135500Y185500D02*
X142000Y192000D01*
X87900Y61623D02*
Y64809D01*
X62700Y62622D02*
X67478Y67400D01*
X178920Y117700D02*
X185700Y110921D01*
X171339Y183000D02*
X174400D01*
X152637Y87500D02*
X156937Y83200D01*
X150300Y119800D02*
X150338Y119838D01*
X126000Y189100D02*
X128572Y191672D01*
X87900Y64809D02*
X95700Y72609D01*
X62700Y56282D02*
X72882Y46100D01*
X150443Y114643D02*
X151952D01*
X77200Y149223D02*
Y153127D01*
X188941Y65300D02*
X196412D01*
X153518Y121300D02*
X180412D01*
X128572Y191672D02*
X131672D01*
X46300Y157446D02*
X68000Y179146D01*
X87900Y61623D02*
X89923Y59600D01*
X62700Y56282D02*
Y62622D01*
X185700Y106012D02*
X192000Y99712D01*
X80828Y156754D02*
X82346D01*
X186800Y67441D02*
X188941Y65300D01*
X177457Y86800D02*
X189357Y74900D01*
X131672Y191672D02*
X132000Y192000D01*
X66400Y180091D02*
Y184578D01*
X140800Y68200D02*
X145353Y63647D01*
X72882Y46100D02*
X92958D01*
X59644Y125156D02*
X59700Y125100D01*
X89291Y163700D02*
X136181D01*
X156937Y83200D02*
X175966D01*
X149523Y92700D02*
X152528D01*
X119100Y189100D02*
X126000D01*
X57000Y193977D02*
X66400Y184578D01*
X146853Y63647D02*
X147000Y63500D01*
X139889Y20660D02*
X142000Y18549D01*
X79591Y183100D02*
X115646D01*
X136181Y163700D02*
X143581Y171100D01*
X147000Y84977D02*
X149523Y87500D01*
X189357Y74900D02*
X196812D01*
X121337Y183700D02*
X141154D01*
X44500Y158191D02*
X66400Y180091D01*
X145353Y63647D02*
X146853D01*
X128978Y27900D02*
X130363D01*
X60100Y163609D02*
Y163609D01*
X196700Y26100D02*
Y32700D01*
X186800Y67441D02*
Y72366D01*
X147000Y90177D02*
X149523Y92700D01*
X147100Y189646D02*
Y197100D01*
X64800Y181037D02*
Y183632D01*
X140800Y68200D02*
Y76609D01*
X95900Y59500D02*
X96058Y59342D01*
X119846Y187300D02*
X134754D01*
X206700Y12623D02*
Y19900D01*
X196412Y65300D02*
X202000Y59712D01*
X152528Y92700D02*
X158428Y86800D01*
X147100Y197100D02*
X152000Y202000D01*
X55200Y193232D02*
X64800Y183632D01*
X60286Y198400D02*
X85300D01*
X137602Y20660D02*
X139889D01*
X51700Y131418D02*
X57962Y125156D01*
X179600Y64458D02*
X183400Y60658D01*
X175966Y83200D02*
X186800Y72366D01*
X158428Y86800D02*
X177457D01*
X141154Y183700D02*
X147100Y189646D01*
X42700Y158937D02*
X64800Y181037D01*
X87700Y196000D02*
X98800D01*
X130363Y27900D02*
X137602Y20660D01*
X136800Y189346D02*
Y196800D01*
X183400Y39246D02*
X187846Y34800D01*
X78818Y71000D02*
X84900Y77082D01*
X196812Y74900D02*
X202000Y69712D01*
X147023Y74000D02*
X149523Y71500D01*
X63000Y181782D02*
Y182886D01*
X98800Y196000D02*
X102800Y192000D01*
X97536Y59342D02*
X128978Y27900D01*
X60100Y163609D02*
X79591Y183100D01*
X203300Y23300D02*
X206700Y19900D01*
X101749Y8175D02*
X102000Y7923D01*
X147000Y90100D02*
Y90177D01*
X149523Y71500D02*
X152854D01*
X53400Y192486D02*
X63000Y182886D01*
X85300Y198400D02*
X87700Y196000D01*
X96058Y59342D02*
X97536D01*
X57962Y125156D02*
X59644D01*
X187846Y34800D02*
X194600D01*
X101749Y8175D02*
Y11351D01*
X172163Y163900D02*
X185104Y176841D01*
X152854Y71500D02*
X156500Y67854D01*
X40900Y159682D02*
X63000Y181782D01*
X123077Y97300D02*
X125200D01*
X142000Y17923D02*
Y18549D01*
X115646Y183100D02*
X119846Y187300D01*
X179600Y64458D02*
Y69384D01*
X101400Y11700D02*
X101749Y11351D01*
X146563Y163900D02*
X172163D01*
X158300Y58434D02*
X159400Y57334D01*
X58800Y196914D02*
X60286Y198400D01*
X111268Y95500D02*
X124454D01*
X144400Y71500D02*
Y78100D01*
X51700Y131418D02*
Y155209D01*
X183400Y39246D02*
Y60658D01*
X65986Y71000D02*
X78818D01*
X197646Y187800D02*
X201531D01*
X155700Y53500D02*
X156500Y54300D01*
X68000Y179146D02*
Y185240D01*
X112014Y97300D02*
X123077D01*
X144400Y71500D02*
X147000Y68900D01*
X134754Y187300D02*
X136800Y189346D01*
X199500Y23300D02*
X203300D01*
X91467Y42500D02*
X97623Y36344D01*
X195454Y185608D02*
X197646Y187800D01*
X156500Y54300D02*
Y67854D01*
X58800Y194440D02*
Y196914D01*
X110522Y93700D02*
X123709D01*
X125200Y97300D02*
X144400Y78100D01*
X51700Y155209D02*
X60100Y163609D01*
X196700Y26100D02*
X199500Y23300D01*
X97623Y15477D02*
Y36344D01*
X202000Y188269D02*
Y192000D01*
X159400Y53200D02*
Y57334D01*
X58800Y194440D02*
X68000Y185240D01*
X123077Y97300D02*
X123077Y97300D01*
X80177Y59600D02*
X82600Y62023D01*
X136800Y196800D02*
X142000Y202000D01*
X194600Y34800D02*
X196700Y32700D01*
X97623Y15477D02*
X101400Y11700D01*
X201531Y187800D02*
X202000Y188269D01*
X155700Y51760D02*
X157600Y49860D01*
X106323Y84500D02*
X111832D01*
X79800Y59600D02*
X80177D01*
X146947Y151047D02*
Y152024D01*
X202000Y7923D02*
X206700Y12623D01*
X59100Y64114D02*
X65986Y71000D01*
X92723Y156500D02*
X139163D01*
X157600Y49700D02*
Y49860D01*
X108900Y80023D02*
X111423Y77500D01*
X82600Y64600D02*
X92100Y74100D01*
X146947Y152024D02*
X149223Y154300D01*
X172984Y76000D02*
X179600Y69384D01*
X59100Y54791D02*
X71391Y42500D01*
X139163Y156500D02*
X146563Y163900D01*
X155700Y51760D02*
Y53500D01*
X105500Y61606D02*
Y80023D01*
X82600Y62023D02*
Y64600D01*
X157200Y145865D02*
X159565Y143500D01*
X167400Y75531D02*
X167869Y76000D01*
X59100Y54791D02*
Y64114D01*
X87800Y151577D02*
X92723Y156500D01*
X62400Y122500D02*
X63503Y121397D01*
X105400Y88923D02*
X108023Y86300D01*
X91528Y158300D02*
X92146D01*
X154100Y154300D02*
X157200Y151200D01*
X167400Y73300D02*
Y75531D01*
X71391Y42500D02*
X91467D01*
X87800Y149023D02*
Y151577D01*
X63503Y120197D02*
Y121397D01*
X117900Y86400D02*
X118636Y87136D01*
X194709Y187408D02*
X196700Y189400D01*
X157200Y145865D02*
Y151200D01*
X167869Y76000D02*
X172984D01*
X145923Y66300D02*
X148077D01*
X185104Y181468D02*
X189245Y185608D01*
X63503Y120197D02*
X63800Y119900D01*
X106477Y91700D02*
X108900Y89277D01*
X85000Y150300D02*
X85161Y150461D01*
X159565Y143500D02*
X175606D01*
X125600Y62463D02*
X152000Y36063D01*
X148077Y66300D02*
X150600Y68823D01*
X189245Y185608D02*
X195454D01*
X63300Y125100D02*
Y125177D01*
X109977Y91700D02*
X123163D01*
X171418Y165700D02*
X183304Y177587D01*
X175606Y143500D02*
X181700Y149594D01*
X124800Y66100D02*
X125600Y65300D01*
X56800Y104723D02*
X58723Y102800D01*
X185104Y176841D02*
Y181468D01*
X60777Y127700D02*
X63300Y125177D01*
X108900Y89100D02*
Y89277D01*
X85161Y150461D02*
Y151933D01*
X181700Y149594D02*
Y154037D01*
X126323Y70000D02*
X126620D01*
X56800Y104723D02*
Y116135D01*
X184925Y135000D02*
X196712D01*
X85400Y192900D02*
Y193000D01*
X108023Y86300D02*
X112577D01*
X85161Y151933D02*
X91528Y158300D01*
X149223Y154300D02*
X154100D01*
X124800Y68477D02*
X126323Y70000D01*
X57000Y197660D02*
X59540Y200200D01*
X180725Y130800D02*
X184925Y135000D01*
X82900Y190400D02*
X85400Y192900D01*
X116100Y89000D02*
X123318D01*
X92146Y158300D02*
X92146Y158300D01*
X181700Y154037D02*
X184000Y156337D01*
X152000Y17923D02*
Y36063D01*
X150600Y68823D02*
Y68900D01*
X196712Y135000D02*
X202000Y129712D01*
X81828Y177700D02*
X117882D01*
X112700Y88723D02*
X115023Y86400D01*
X196700Y196700D02*
X202000Y202000D01*
X184000Y156337D02*
Y160600D01*
X121290Y78300D02*
X127089Y72501D01*
X58723Y102800D02*
X60877D01*
X154446Y130800D02*
X180725D01*
X117137Y179500D02*
X121337Y183700D01*
X196700Y189400D02*
Y196700D01*
X184000Y160600D02*
X192000Y168600D01*
X125600Y62463D02*
Y65300D01*
X56300Y116635D02*
Y116635D01*
X153245Y132000D02*
X153246D01*
X117882Y177700D02*
X122082Y181900D01*
X115023Y86400D02*
X117900D01*
X145818Y165700D02*
X171418D01*
X192000Y168600D02*
Y169712D01*
X124800Y66100D02*
Y68477D01*
X56300Y116635D02*
X56800Y116135D01*
X153246Y132000D02*
X154446Y130800D01*
X81082Y179500D02*
X117137D01*
X112700Y88723D02*
Y89100D01*
X92146Y158300D02*
X138418D01*
X79523Y63000D02*
X79800D01*
X126620Y70000D02*
X127089Y70469D01*
X142600Y69623D02*
Y77354D01*
X152043Y133203D02*
X153245Y132000D01*
X80337Y181300D02*
X116391D01*
X102800Y90177D02*
X104323Y91700D01*
X138418Y158300D02*
X145818Y165700D01*
X128232Y26100D02*
X129617D01*
X127089Y70469D02*
Y72501D01*
X57000Y193977D02*
Y197660D01*
X151380Y133203D02*
X152043D01*
X116391Y181300D02*
X120591Y185500D01*
X102800Y88023D02*
X106323Y84500D01*
X183304Y182213D02*
X188500Y187408D01*
X77200Y58523D02*
Y60677D01*
X182100Y103700D02*
Y109429D01*
X85000Y63000D02*
X85170Y63170D01*
X151377Y133200D02*
X151380Y133203D01*
X78846Y184900D02*
X114900D01*
X105400Y88923D02*
Y89100D01*
X183304Y177587D02*
Y182213D01*
X97432Y56900D02*
X128232Y26100D01*
X185700Y96012D02*
Y100100D01*
X85170Y64624D02*
X93900Y73354D01*
X147147Y130647D02*
Y132047D01*
X114900Y184900D02*
X119100Y189100D01*
X102800Y88023D02*
Y90177D01*
X188500Y187408D02*
X194709D01*
X136900Y13023D02*
X142000Y7923D01*
X182100Y103700D02*
X185700Y100100D01*
X124454Y95500D02*
X142600Y77354D01*
X147147Y132047D02*
X148300Y133200D01*
X61400Y157272D02*
X81828Y177700D01*
X93900Y88914D02*
X102086Y97100D01*
X189269Y62427D02*
X189285D01*
X129617Y26100D02*
X136900Y18817D01*
X185700Y96012D02*
X192000Y89712D01*
X85170Y63170D02*
Y64624D01*
X146900Y130400D02*
X147147Y130647D01*
X61400Y157272D02*
Y157272D01*
X92100Y74100D02*
Y89659D01*
X156191Y81400D02*
X175221D01*
X77200Y60677D02*
X79523Y63000D01*
X156500Y114100D02*
X177429D01*
X44500Y128435D02*
Y158191D01*
X148300Y133200D02*
X151377D01*
X60377Y133300D02*
X63277Y130400D01*
X90300Y74846D02*
Y95723D01*
X185000Y66695D02*
X189269Y62427D01*
X77200Y58523D02*
X78823Y56900D01*
X177429Y114100D02*
X182100Y109429D01*
X142600Y69623D02*
X145923Y66300D01*
X80082Y158554D02*
X81600D01*
X58623Y133300D02*
X60377D01*
X95700Y88168D02*
X102832Y95300D01*
X175221Y81400D02*
X185000Y71621D01*
X136900Y13023D02*
Y18817D01*
X121776Y18147D02*
Y24919D01*
X44500Y128435D02*
X56300Y116635D01*
X74500Y152972D02*
X80082Y158554D01*
X55300Y132909D02*
X57907Y130301D01*
X97500Y71863D02*
Y87423D01*
X150600Y84900D02*
X152691D01*
X78823Y56900D02*
X97432D01*
X121776Y18147D02*
X122000Y17923D01*
X97603Y197803D02*
X101800Y202000D01*
X158694Y172900D02*
X170594Y184800D01*
X57907Y130301D02*
X59699D01*
X88500Y75591D02*
Y97323D01*
X152691Y84900D02*
X156191Y81400D01*
X168300Y21623D02*
X172000Y17923D01*
X95195Y51500D02*
X121776Y24919D01*
X101800Y202000D02*
X102800D01*
X173654Y184800D02*
X176900Y188046D01*
X59699Y130301D02*
X59700Y130300D01*
X95700Y72609D02*
Y88168D01*
X189285Y62427D02*
X192000Y59712D01*
X122626Y84600D02*
X133600Y73627D01*
X69606Y58262D02*
Y59294D01*
X59540Y200200D02*
X86046D01*
X170594Y184800D02*
X173654D01*
X59000Y159963D02*
X80337Y181300D01*
X93900Y73354D02*
Y88914D01*
X185000Y66695D02*
Y71621D01*
X168300Y21623D02*
Y29946D01*
X76369Y51500D02*
X95195D01*
X88442Y197803D02*
X97603D01*
X74500Y150300D02*
Y152972D01*
X58300Y164354D02*
Y164354D01*
X97500Y87423D02*
X103577Y93500D01*
X159083Y22783D02*
X160483D01*
X133600Y64646D02*
X168300Y29946D01*
X69606Y58262D02*
X76369Y51500D01*
X86046Y200200D02*
X88442Y197803D01*
X176900Y188046D02*
Y196900D01*
X58072Y122500D02*
X62400D01*
X90300Y95723D02*
X93400Y98823D01*
X127400Y63209D02*
X153800Y36809D01*
X133600Y64646D02*
Y73627D01*
X69300Y59600D02*
X69606Y59294D01*
X176900Y196900D02*
X182000Y202000D01*
X58300Y164354D02*
X78846Y184900D01*
X84900Y77082D02*
Y95323D01*
X161677Y7923D02*
X162000D01*
X150300Y135400D02*
X152391D01*
X114154Y186700D02*
X118354Y190900D01*
X142835Y172900D02*
X158694D01*
X49900Y130672D02*
Y155954D01*
X86700Y76337D02*
Y96923D01*
X157300Y12300D02*
Y21000D01*
X155191Y132600D02*
X179980D01*
X120900Y190900D02*
X132000Y202000D01*
X81600Y158554D02*
X88546Y165500D01*
X49900Y130672D02*
X58072Y122500D01*
X92100Y89659D02*
X101341Y98900D01*
X127400Y63209D02*
Y67400D01*
X187091Y139712D02*
X192000D01*
X55900Y164500D02*
X78100Y186700D01*
X88546Y165500D02*
X135435D01*
X49900Y155954D02*
X58300Y164354D01*
X112577Y86300D02*
X114278Y84600D01*
X153800Y35400D02*
X161983Y27217D01*
X152391Y135400D02*
X155191Y132600D01*
X48100Y129926D02*
X57327Y120700D01*
X135435Y165500D02*
X142835Y172900D01*
X59000Y159963D02*
Y159963D01*
X112500Y80100D02*
X122035D01*
X157300Y12300D02*
X161677Y7923D01*
X179980Y132600D02*
X187091Y139712D01*
X48100Y129926D02*
Y156700D01*
X57162Y128501D02*
X57963Y127700D01*
X114278Y84600D02*
X122626D01*
X160483Y22783D02*
X161983Y24283D01*
X179666Y119500D02*
X187500Y111666D01*
X59688Y119912D02*
X59897Y119703D01*
X57162Y128501D02*
X57162D01*
X113577Y77500D02*
X114377Y78300D01*
X157300Y21000D02*
X159083Y22783D01*
X196812Y104900D02*
X202000Y99712D01*
X118354Y190900D02*
X120900D01*
X138348Y22460D02*
X144696D01*
X57963Y127700D02*
X60777D01*
X114091Y82240D02*
X122441D01*
X161983Y24283D02*
Y27217D01*
X146900Y114600D02*
Y114877D01*
X52700Y99275D02*
Y103223D01*
X58115Y119912D02*
X59688D01*
X129723Y29700D02*
X131108D01*
X53500Y132163D02*
X57162Y128501D01*
X111423Y77500D02*
X113577D01*
X153800Y35400D02*
Y36809D01*
X146900Y114877D02*
X149123Y117100D01*
X48200Y90400D02*
Y94775D01*
X57327Y120700D02*
X58115Y119912D01*
X150777Y7923D02*
X152000D01*
X53500Y154463D02*
X59000Y159963D01*
X114377Y78300D02*
X121290D01*
X161700Y18223D02*
X162000Y17923D01*
X154263Y119500D02*
X179666D01*
X53400Y199421D02*
X57779Y203800D01*
X55900Y164500D02*
Y164500D01*
X150777Y7923D02*
Y9146D01*
X53500Y132163D02*
Y154463D01*
X111832Y84500D02*
X114091Y82240D01*
X130000Y63154D02*
X163783Y29372D01*
X149123Y117100D02*
X151863D01*
X87100Y11800D02*
Y20500D01*
X78100Y186700D02*
X114154D01*
X131108Y29700D02*
X138348Y22460D01*
X55300Y132909D02*
Y153718D01*
X109668Y97100D02*
X111268Y95500D01*
X163783Y23537D02*
Y29372D01*
X151863Y117100D02*
X154263Y119500D01*
X31000Y90500D02*
X31100Y90400D01*
X48100Y156700D02*
X55900Y164500D01*
X147000Y12923D02*
X150777Y9146D01*
X55300Y153718D02*
X81082Y179500D01*
X103577Y93500D02*
X108177D01*
X122035Y80100D02*
X130000Y72135D01*
X187500Y107300D02*
X189900Y104900D01*
X53400Y192486D02*
Y199421D01*
X181400Y65204D02*
Y70129D01*
X101000Y58423D02*
X129723Y29700D01*
X57100Y134823D02*
Y152972D01*
X108177Y93500D02*
X109977Y91700D01*
X161700Y18223D02*
Y21454D01*
X189900Y104900D02*
X196812D01*
X81069Y203800D02*
X83669Y206400D01*
X154700Y77800D02*
X173729D01*
X147000Y12923D02*
Y20157D01*
X57100Y134823D02*
X58623Y133300D01*
X102086Y97100D02*
X109668D01*
X130000Y63154D02*
Y72135D01*
X187500Y107300D02*
Y111666D01*
X40900Y126944D02*
Y159682D01*
X181400Y65204D02*
X185200Y61404D01*
X101000Y58423D02*
Y59808D01*
X57100Y152972D02*
X61400Y157272D01*
X110414Y98900D02*
X112014Y97300D01*
X161700Y21454D02*
X163783Y23537D01*
X71900Y149223D02*
X74223Y146900D01*
X51600Y104323D02*
X52700Y103223D01*
X173729Y77800D02*
X181400Y70129D01*
X144696Y22460D02*
X147000Y20157D01*
X80100Y190400D02*
X82900D01*
X102832Y95300D02*
X108923D01*
X177689Y37320D02*
Y58733D01*
X79337Y160354D02*
X80854D01*
X112300Y51300D02*
X121100Y42500D01*
X185200Y56512D02*
Y61404D01*
X99404Y61404D02*
X101000Y59808D01*
X61400Y195800D02*
X74700D01*
X104323Y91700D02*
X106477D01*
X183300Y25909D02*
X191286Y17923D01*
X73100Y154118D02*
Y154118D01*
X112300Y51300D02*
Y60500D01*
X185200Y56512D02*
X192000Y49712D01*
X97908Y62900D02*
X99404Y61404D01*
X74700Y195800D02*
X80100Y190400D01*
X101341Y98900D02*
X110414D01*
X177689Y37320D02*
X183300Y31709D01*
X71900Y152918D02*
X73100Y154118D01*
X40900Y126944D02*
X51600Y116244D01*
X153000Y79500D02*
X154700Y77800D01*
X95800Y62900D02*
X97908D01*
X158300Y58434D02*
Y68600D01*
X108923Y95300D02*
X110522Y93700D01*
X174200Y62222D02*
X177689Y58733D01*
X154700Y174700D02*
X172000Y192000D01*
X87000Y38900D02*
X88800Y37100D01*
X150600Y79500D02*
X153000D01*
X99404Y61404D02*
X99404D01*
X152747Y74153D02*
X158300Y68600D01*
X90800Y99623D02*
Y99900D01*
X171000Y68000D02*
X171433D01*
X71900Y149223D02*
Y152918D01*
X87100Y20500D02*
X88800Y22200D01*
X87100Y11800D02*
X90977Y7923D01*
X79563Y69200D02*
X86700Y76337D01*
X150647Y74153D02*
X152747D01*
X80392Y99831D02*
X84900Y95323D01*
X174200Y62222D02*
Y65233D01*
X142090Y174700D02*
X154700D01*
X48200Y90000D02*
Y90400D01*
X90977Y7923D02*
X92000D01*
X92213Y44300D02*
X102000Y34513D01*
X150600Y74200D02*
X150647Y74153D01*
X88500Y97323D02*
X90800Y99623D01*
X191286Y17923D02*
X192000D01*
X73100Y154118D02*
X79337Y160354D01*
X48200Y94775D02*
X52700Y99275D01*
X88800Y22200D02*
Y37100D01*
X102000Y17923D02*
Y34513D01*
X90506Y150606D02*
Y151737D01*
X93400Y98823D02*
Y100977D01*
X183300Y25909D02*
Y31709D01*
X80854Y160354D02*
X87800Y167300D01*
X31100Y90400D02*
X48200D01*
X51600Y104323D02*
Y116244D01*
X66732Y69200D02*
X79563D01*
X197903Y183809D02*
X202000Y179712D01*
X84000Y99623D02*
X86700Y96923D01*
X171433Y68000D02*
X174200Y65233D01*
X74223Y146900D02*
X74500D01*
X48200Y60600D02*
X69900Y38900D01*
X57779Y203800D02*
X81069D01*
X60900Y63368D02*
X66732Y69200D01*
X172909Y162100D02*
X186904Y176096D01*
X80369Y99831D02*
X80392D01*
X126800Y18626D02*
X126800Y18626D01*
X134690Y167300D02*
X142090Y174700D01*
X48200Y60600D02*
Y90000D01*
X60900Y55537D02*
X72137Y44300D01*
X147309Y162100D02*
X172909D01*
D63*
X52000Y181535D02*
Y182000D01*
X27788Y119886D02*
X28577Y120674D01*
X30000D02*
Y153988D01*
Y120674D02*
X30788Y119886D01*
X28577Y120674D02*
Y154577D01*
X53140Y179140D02*
Y180395D01*
X52000Y181535D02*
X53140Y180395D01*
X28577Y154577D02*
X53140Y179140D01*
X30000Y153988D02*
X54563Y178551D01*
Y180563D01*
X56000Y182000D01*
D66*
X13260Y160984D02*
D03*
Y135000D02*
D03*
D67*
X201900Y7923D02*
D03*
Y17923D02*
D03*
X191900Y7923D02*
D03*
Y17923D02*
D03*
X181900Y7923D02*
D03*
Y17923D02*
D03*
X171900Y7923D02*
D03*
Y17923D02*
D03*
X161900Y7923D02*
D03*
Y17923D02*
D03*
X151900Y7923D02*
D03*
Y17923D02*
D03*
X141900Y7923D02*
D03*
Y17923D02*
D03*
X131900Y7923D02*
D03*
Y17923D02*
D03*
X121900Y7923D02*
D03*
Y17923D02*
D03*
X111900Y7923D02*
D03*
Y17923D02*
D03*
X101900Y7923D02*
D03*
Y17923D02*
D03*
X91900Y7923D02*
D03*
Y17923D02*
D03*
X81900Y7923D02*
D03*
Y17923D02*
D03*
X71900Y7923D02*
D03*
Y17923D02*
D03*
X61900Y7923D02*
D03*
Y17923D02*
D03*
X51900Y7923D02*
D03*
X191900Y179712D02*
D03*
X201900Y169712D02*
D03*
X191900D02*
D03*
X201900Y159712D02*
D03*
X191900D02*
D03*
X201900Y149712D02*
D03*
X191900D02*
D03*
X201900Y139712D02*
D03*
X191900D02*
D03*
X201900Y129712D02*
D03*
X191900D02*
D03*
X201900Y119712D02*
D03*
X191900D02*
D03*
X201900Y109712D02*
D03*
X191900D02*
D03*
X201900Y99712D02*
D03*
X191900D02*
D03*
X201900Y89712D02*
D03*
X191900D02*
D03*
X201900Y79712D02*
D03*
X191900D02*
D03*
X201900Y69712D02*
D03*
X191900D02*
D03*
X201900Y59712D02*
D03*
X191900D02*
D03*
X201900Y49712D02*
D03*
X191900D02*
D03*
X201900Y39712D02*
D03*
X191900D02*
D03*
X201900Y29712D02*
D03*
X191900D02*
D03*
X131900Y191900D02*
D03*
X141900Y201900D02*
D03*
Y191900D02*
D03*
X151900Y201900D02*
D03*
Y191900D02*
D03*
X161900Y201900D02*
D03*
Y191900D02*
D03*
X171900Y201900D02*
D03*
Y191900D02*
D03*
X181900Y201900D02*
D03*
Y191900D02*
D03*
X191900Y201900D02*
D03*
Y191900D02*
D03*
X201900Y201900D02*
D03*
Y191900D02*
D03*
X112800D02*
D03*
Y201900D02*
D03*
X102800Y191900D02*
D03*
Y201900D02*
D03*
X92800Y191900D02*
D03*
D68*
X51900Y17923D02*
D03*
X131900Y201900D02*
D03*
X92800D02*
D03*
D69*
X201900Y179712D02*
D03*
D70*
X95700Y150300D02*
D03*
X146900Y130500D02*
D03*
X116100Y89000D02*
D03*
X64700Y22400D02*
D03*
X167600Y67700D02*
D03*
X146900Y119800D02*
D03*
X112700Y89100D02*
D03*
X62000Y12923D02*
D03*
X158000Y102400D02*
D03*
X150300Y125100D02*
D03*
X108900Y80023D02*
D03*
X4600Y23000D02*
D03*
X175500Y97900D02*
D03*
X90400Y150300D02*
D03*
X105500Y80023D02*
D03*
X4500Y12200D02*
D03*
X119100Y60600D02*
D03*
X95700Y146900D02*
D03*
X108900Y89100D02*
D03*
X11000Y23000D02*
D03*
X30000Y182000D02*
D03*
X51400Y90500D02*
D03*
X90400Y146900D02*
D03*
X132300Y109100D02*
D03*
X11000Y12200D02*
D03*
X32536Y181179D02*
D03*
X43400Y93200D02*
D03*
X71300Y139100D02*
D03*
X132400Y99900D02*
D03*
X14500Y86200D02*
D03*
X32041Y183984D02*
D03*
X24800Y189700D02*
D03*
X79800Y150300D02*
D03*
X45000Y37500D02*
D03*
X14500Y96700D02*
D03*
X79730Y106268D02*
D03*
X44300Y54900D02*
D03*
X74500Y150300D02*
D03*
X45000Y41000D02*
D03*
X14500Y107200D02*
D03*
X81184Y108297D02*
D03*
X30900Y39700D02*
D03*
X74600Y59600D02*
D03*
X42000Y39500D02*
D03*
X7400Y121100D02*
D03*
X82405Y106214D02*
D03*
X95900Y59500D02*
D03*
X63300Y135900D02*
D03*
X16500Y18000D02*
D03*
X7400Y128300D02*
D03*
X147000Y68900D02*
D03*
Y84800D02*
D03*
X20000Y20500D02*
D03*
X14500Y128300D02*
D03*
X79900Y59600D02*
D03*
X150600Y68900D02*
D03*
X23500Y18000D02*
D03*
X147000Y95400D02*
D03*
X85100Y150300D02*
D03*
X85200Y63000D02*
D03*
X20000Y15000D02*
D03*
X69300Y63000D02*
D03*
X150600Y84800D02*
D03*
X95800Y62900D02*
D03*
X29500Y43500D02*
D03*
X51900Y65200D02*
D03*
X127400Y67400D02*
D03*
X172500Y180400D02*
D03*
X26500Y41000D02*
D03*
X59700Y135900D02*
D03*
X171000Y67700D02*
D03*
X4500Y38000D02*
D03*
X94955Y106169D02*
D03*
X79800Y146900D02*
D03*
X161400Y102400D02*
D03*
X4500Y43600D02*
D03*
X93410Y104489D02*
D03*
X167400Y73100D02*
D03*
X74600Y63000D02*
D03*
X4500Y54600D02*
D03*
X106895Y134929D02*
D03*
X157800Y107700D02*
D03*
X85100Y146900D02*
D03*
X4500Y65300D02*
D03*
X105105Y133454D02*
D03*
X69300Y59600D02*
D03*
X90500Y63000D02*
D03*
X4500Y78000D02*
D03*
X126500Y112500D02*
D03*
X59700Y119703D02*
D03*
X54200Y105400D02*
D03*
X4500Y86200D02*
D03*
X120500Y106500D02*
D03*
X150600Y79500D02*
D03*
Y63500D02*
D03*
X64368Y37492D02*
D03*
X126942Y114883D02*
D03*
X31000Y90500D02*
D03*
X90500Y59600D02*
D03*
X69200Y150400D02*
D03*
X124695Y114046D02*
D03*
X112300Y60500D02*
D03*
X147000Y63500D02*
D03*
X181700Y162000D02*
D03*
X123500Y54500D02*
D03*
X121100Y42500D02*
D03*
X94500Y127100D02*
D03*
X154500Y180800D02*
D03*
X118884Y58265D02*
D03*
X88800Y37100D02*
D03*
X104700Y135700D02*
D03*
X124800Y170500D02*
D03*
X121034Y59203D02*
D03*
X171000Y73100D02*
D03*
X147000Y74200D02*
D03*
X80300Y113100D02*
D03*
X84700Y168500D02*
D03*
X20500Y188000D02*
D03*
X165500Y94100D02*
D03*
X150600Y74200D02*
D03*
X128800Y99900D02*
D03*
X169200Y149200D02*
D03*
X26500Y194000D02*
D03*
X161400Y107700D02*
D03*
X159400Y52900D02*
D03*
X128900Y109100D02*
D03*
X170247Y55847D02*
D03*
X180000Y100500D02*
D03*
X150600Y95400D02*
D03*
X157600Y49700D02*
D03*
X95700Y103900D02*
D03*
X166000Y46200D02*
D03*
X182000Y98000D02*
D03*
X150300Y146400D02*
D03*
X63300Y125100D02*
D03*
X87400Y99900D02*
D03*
X174800Y29600D02*
D03*
X180000Y95500D02*
D03*
X146900Y141100D02*
D03*
X63300Y119703D02*
D03*
X59800Y105400D02*
D03*
X157200Y27100D02*
D03*
X27689Y119886D02*
D03*
X150300Y114500D02*
D03*
X59700Y130300D02*
D03*
X90800Y99900D02*
D03*
X148400Y27000D02*
D03*
X30889Y119886D02*
D03*
X59700Y125100D02*
D03*
X85400Y193000D02*
D03*
X80369Y99900D02*
D03*
X144200Y30100D02*
D03*
X52000Y182000D02*
D03*
X146900Y151700D02*
D03*
X63277Y130400D02*
D03*
X63300Y105400D02*
D03*
X135767Y29867D02*
D03*
X56000Y182000D02*
D03*
X79900Y63000D02*
D03*
X61400Y195800D02*
D03*
X101500Y103900D02*
D03*
X41900Y71300D02*
D03*
X33000Y117000D02*
D03*
X150300Y135800D02*
D03*
X146800Y125100D02*
D03*
X84000Y99900D02*
D03*
X31600Y102000D02*
D03*
X25530Y117053D02*
D03*
X146900Y114500D02*
D03*
X150600Y90100D02*
D03*
X103600Y59500D02*
D03*
X22800Y127500D02*
D03*
X59300Y182000D02*
D03*
X74500Y146900D02*
D03*
X150300Y130500D02*
D03*
X105400Y89100D02*
D03*
X19000Y121300D02*
D03*
X48000Y182000D02*
D03*
X150300Y151700D02*
D03*
X146900Y135800D02*
D03*
X125400Y99900D02*
D03*
X13900Y116400D02*
D03*
X146900Y146400D02*
D03*
X150300Y119800D02*
D03*
X122000Y99900D02*
D03*
X7400Y96700D02*
D03*
X147000Y79500D02*
D03*
Y90100D02*
D03*
X112500Y80100D02*
D03*
X7400Y107200D02*
D03*
M02*
